<svg width="784" height="603" viewBox="0 0 784 603" fill="none" xmlns="http://www.w3.org/2000/svg">
<path opacity="0.35" d="M351.397 1L662.151 118.436M662.151 118.298L547.91 434.185L783 603M622.721 181.171L518.71 469.361L704.992 603M622.721 181.032L591.603 157.351L371.219 159.844L1 20.5266M1 58.4718L298.113 170.23L573.913 167.184M685.383 603L511.25 478.085L612.703 196.82M612.917 196.82L574.126 167.184M225.22 180.617L1 96.4171M225.007 180.617L556.222 177.016L602.899 212.607L504.004 486.948L665.775 603M1 134.362L151.901 191.142L538.532 186.849M646.166 603L496.544 495.812L593.095 228.395M593.095 228.256L538.532 186.71M1 172.446L78.795 201.528L520.841 196.681L583.077 244.043M626.344 603L489.084 504.675L583.077 244.182M1 210.391L5.26274 212.053L502.938 206.514M606.736 603L481.837 513.538L573.273 259.969L503.151 206.514M1 221.747L485.247 216.346L563.256 275.757L474.377 522.401L586.914 603M467.344 226.317L1 231.441M567.092 603L466.918 531.264L553.451 291.544L467.557 226.179M1 241.135L449.654 236.15L543.434 307.47M547.27 603L459.458 540.266M459.671 540.266L543.647 307.47M431.75 246.121L1.21314 250.829M527.449 603L452.211 549.129L533.63 323.258M533.416 323.258L431.537 245.982M1 260.523L413.847 255.953L523.612 339.184L444.751 557.992M507.627 603L444.751 558.13M1 270.217L395.943 265.924L513.595 355.11L437.292 566.994L487.592 603M1.21314 280.05L378.04 275.895L503.577 371.035L429.832 575.995L467.557 603M1 289.744L359.923 285.866L493.56 386.961L422.372 584.858M447.522 603L422.159 584.997M1 299.577L342.019 295.837L483.542 403.026M427.487 603L414.699 593.86M414.912 593.86L483.542 402.887M1 309.409L323.903 305.808L473.525 418.952M407.239 602.861L473.312 418.952M305.999 315.779L1 319.242M402.977 603L463.294 435.016M463.508 435.016L305.999 315.918M287.883 325.889L1 329.074M398.714 603L453.277 450.942M453.49 450.942L287.883 325.75M1 338.907L269.766 335.86L443.259 467.006L394.451 603M1 348.739L251.649 345.969L433.242 483.071L390.188 603M1 358.572L233.533 355.94L423.225 499.135L385.926 603M1 368.404L215.416 366.05L413.207 515.2M381.663 603L413.207 515.338M1 378.375L197.086 376.159L402.977 531.403L377.187 603M1.21314 388.208L178.969 386.269L392.959 547.467M372.924 603L392.746 547.467M1 398.179L160.64 396.378L382.729 563.67L368.662 603M1 408.011L142.31 406.488L372.711 579.873L364.399 603M1.21314 418.121L124.193 416.736L362.481 595.937M359.923 603L362.481 596.076M1.21314 427.953L105.863 426.845L340.101 603M1 437.924L87.3205 436.955L308.344 603M251.01 1L589.472 128.684L644.461 128.13M150.622 1L516.792 139.071L626.771 137.824M50.0215 1L444.112 149.457L609.293 147.657M1 447.895L68.9907 447.203L276.373 603M1 458.005L50.6609 457.451L244.616 603M1 467.976L32.118 467.699L212.432 603M1 477.947L13.7882 477.808L180.675 602.861M763.605 603L540.663 442.91L652.347 133.947M533.203 451.773L743.996 603M724.6 603L525.957 460.498L632.525 165.383M642.33 149.596L533.203 451.634M644.461 127.992L652.134 133.947M626.984 137.824L642.543 149.596M609.293 147.519L632.525 165.245M1 492.488L148.491 603M1 516.585L116.307 603M1 540.681L84.1235 603M1 564.916L51.9398 603M1 589.013L19.5429 602.861" stroke="black" stroke-width="0.347" stroke-miterlimit="10"/>
</svg>
