<svg width="169" height="46" viewBox="0 0 169 46" fill="none" xmlns="http://www.w3.org/2000/svg">
<path d="M93.2146 23.6H81.5446V3.5H92.7946C94.0946 3.5 95.1946 3.69 96.0946 4.07C97.0146 4.45 97.7146 5.01 98.1946 5.75C98.6946 6.49 98.9446 7.39 98.9446 8.45C98.9446 9.63 98.5946 10.63 97.8946 11.45C97.2146 12.27 96.1046 12.77 94.5646 12.95V13.16C96.2846 13.36 97.5646 13.9 98.4046 14.78C99.2446 15.64 99.6646 16.73 99.6646 18.05C99.6646 19.19 99.4146 20.18 98.9146 21.02C98.4146 21.86 97.6846 22.5 96.7246 22.94C95.7646 23.38 94.5946 23.6 93.2146 23.6ZM84.7546 14.6V20.69H92.8546C94.0546 20.69 94.9446 20.45 95.5246 19.97C96.1246 19.47 96.4246 18.68 96.4246 17.6C96.4246 16.54 96.1246 15.78 95.5246 15.32C94.9446 14.84 94.0546 14.6 92.8546 14.6H84.7546ZM84.7546 6.41V11.93H92.3446C93.4846 11.93 94.3346 11.71 94.8946 11.27C95.4546 10.81 95.7346 10.11 95.7346 9.17C95.7346 8.23 95.4646 7.54 94.9246 7.1C94.3846 6.64 93.5546 6.41 92.4346 6.41H84.7546Z" fill="white"/>
<path d="M105.003 23.6H101.763V8.69H104.733V12.92L105.003 13.07V23.6ZM105.003 15.23H104.283V12.71H104.943C105.083 11.89 105.363 11.16 105.783 10.52C106.203 9.86 106.763 9.34 107.463 8.96C108.183 8.58 109.053 8.39 110.073 8.39C111.213 8.39 112.143 8.63 112.863 9.11C113.583 9.59 114.103 10.23 114.423 11.03C114.763 11.83 114.933 12.7 114.933 13.64V15.59H111.723V14.27C111.723 13.19 111.483 12.4 111.003 11.9C110.523 11.4 109.723 11.15 108.603 11.15C107.323 11.15 106.403 11.5 105.843 12.2C105.283 12.9 105.003 13.91 105.003 15.23Z" fill="white"/>
<path d="M131.068 23.6H128.098V19.76L127.888 19.67V14.57C127.888 13.33 127.588 12.47 126.988 11.99C126.408 11.49 125.398 11.24 123.958 11.24C122.578 11.24 121.548 11.48 120.868 11.96C120.188 12.44 119.848 13.23 119.848 14.33V14.45H116.638V14.33C116.638 13.19 116.938 12.18 117.538 11.3C118.138 10.4 118.998 9.69 120.118 9.17C121.258 8.65 122.618 8.39 124.198 8.39C125.778 8.39 127.068 8.66 128.068 9.2C129.088 9.72 129.838 10.44 130.318 11.36C130.818 12.28 131.068 13.34 131.068 14.54V23.6ZM121.348 23.9C119.808 23.9 118.578 23.56 117.658 22.88C116.758 22.18 116.308 21.22 116.308 20C116.308 19.22 116.498 18.57 116.878 18.05C117.278 17.51 117.838 17.09 118.558 16.79C119.278 16.49 120.128 16.28 121.108 16.16L128.188 15.41V17.33L122.038 18.02C121.198 18.12 120.568 18.3 120.148 18.56C119.748 18.8 119.548 19.21 119.548 19.79C119.548 20.39 119.758 20.84 120.178 21.14C120.618 21.42 121.298 21.56 122.218 21.56C123.358 21.56 124.348 21.42 125.188 21.14C126.028 20.84 126.688 20.38 127.168 19.76C127.648 19.14 127.888 18.34 127.888 17.36L128.308 17.42V19.88H127.888C127.488 21.14 126.718 22.13 125.578 22.85C124.458 23.55 123.048 23.9 121.348 23.9Z" fill="white"/>
<path d="M149.53 23.6H146.29V15.5C146.29 14.1 145.95 13.05 145.27 12.35C144.61 11.65 143.5 11.3 141.94 11.3C140.32 11.3 139.12 11.72 138.34 12.56C137.58 13.38 137.2 14.6 137.2 16.22L136.63 16.25L136.48 13.31H137.14C137.3 12.47 137.62 11.68 138.1 10.94C138.6 10.18 139.28 9.57 140.14 9.11C141.02 8.63 142.09 8.39 143.35 8.39C144.73 8.39 145.88 8.67 146.8 9.23C147.72 9.79 148.4 10.54 148.84 11.48C149.3 12.42 149.53 13.47 149.53 14.63V23.6ZM137.2 23.6H133.96V8.69H136.93V13.37L137.2 13.52V23.6Z" fill="white"/>
<path d="M158.987 23.9C157.407 23.9 156.067 23.58 154.967 22.94C153.887 22.28 153.067 21.37 152.507 20.21C151.947 19.03 151.667 17.68 151.667 16.16C151.667 14.6 151.947 13.24 152.507 12.08C153.067 10.92 153.877 10.02 154.937 9.38C155.997 8.72 157.277 8.39 158.777 8.39C160.537 8.39 161.927 8.8 162.947 9.62C163.967 10.44 164.627 11.48 164.927 12.74H165.677V16.07H165.107C165.107 14.49 164.657 13.31 163.757 12.53C162.857 11.73 161.577 11.33 159.917 11.33C158.897 11.33 158.007 11.49 157.247 11.81C156.487 12.11 155.907 12.61 155.507 13.31C155.127 14.01 154.937 14.96 154.937 16.16C154.937 17.34 155.127 18.28 155.507 18.98C155.907 19.68 156.487 20.18 157.247 20.48C158.007 20.78 158.917 20.93 159.977 20.93C161.037 20.93 161.947 20.77 162.707 20.45C163.487 20.11 164.077 19.59 164.477 18.89C164.897 18.19 165.107 17.33 165.107 16.31H165.677L165.887 19.31H165.167C164.867 20.79 164.177 21.93 163.097 22.73C162.037 23.51 160.667 23.9 158.987 23.9ZM168.347 23.6H165.377V18.92L165.107 18.53V3.5H168.347V23.6Z" fill="white"/>
<path d="M85.0369 31.4182V41.6H83.4957V32.9594H83.4361L81 34.5503V33.0787L83.5405 31.4182H85.0369Z" fill="#CCCCCC"/>
<path d="M91.1768 31.279C91.6309 31.2823 92.0784 31.3652 92.5192 31.5276C92.96 31.69 93.3577 31.9551 93.7124 32.323C94.0703 32.6909 94.3554 33.1881 94.5675 33.8145C94.7829 34.4376 94.8923 35.2132 94.8956 36.1412C94.8956 37.0328 94.8061 37.8266 94.6271 38.5226C94.4482 39.2153 94.1913 39.8003 93.8565 40.2776C93.5251 40.7548 93.1224 41.1178 92.6484 41.3663C92.1745 41.6149 91.6409 41.7392 91.0476 41.7392C90.441 41.7392 89.9025 41.6199 89.4318 41.3813C88.9612 41.1426 88.5784 40.8128 88.2834 40.3919C87.9884 39.9677 87.8045 39.4804 87.7315 38.9303H89.2479C89.3473 39.3678 89.5495 39.7224 89.8544 39.9942C90.1626 40.2626 90.5604 40.3969 91.0476 40.3969C91.7933 40.3969 92.375 40.0721 92.7926 39.4224C93.2102 38.7695 93.4207 37.858 93.424 36.6881H93.3445C93.1721 36.9731 92.9567 37.2184 92.6982 37.4239C92.4429 37.6294 92.1562 37.7884 91.8381 37.9011C91.5199 38.0138 91.1802 38.0702 90.8189 38.0702C90.2322 38.0702 89.6986 37.926 89.218 37.6376C88.7374 37.3493 88.3546 36.9532 88.0696 36.4494C87.7846 35.9456 87.642 35.3706 87.642 34.7243C87.642 34.0813 87.7879 33.498 88.0795 32.9743C88.3745 32.4506 88.7855 32.0363 89.3125 31.7314C89.8428 31.4232 90.4643 31.2723 91.1768 31.279ZM91.1818 32.5716C90.794 32.5716 90.4444 32.6677 90.1328 32.8599C89.8246 33.0489 89.581 33.3057 89.402 33.6305C89.223 33.952 89.1335 34.31 89.1335 34.7044C89.1335 35.0988 89.2197 35.4568 89.392 35.7783C89.5677 36.0965 89.8063 36.35 90.108 36.5389C90.4129 36.7245 90.7609 36.8173 91.152 36.8173C91.4437 36.8173 91.7154 36.761 91.9673 36.6483C92.2192 36.5356 92.4396 36.3798 92.6286 36.181C92.8175 35.9788 92.965 35.7501 93.071 35.4949C93.1771 35.2397 93.2301 34.9712 93.2301 34.6895C93.2301 34.315 93.1406 33.9669 92.9616 33.6455C92.786 33.324 92.544 33.0654 92.2358 32.8699C91.9276 32.671 91.5762 32.5716 91.1818 32.5716Z" fill="#CCCCCC"/>
<path d="M100.132 41.7392C99.4193 41.7392 98.7896 41.6166 98.2427 41.3713C97.6992 41.126 97.2733 40.788 96.965 40.3571C96.6568 39.9262 96.5043 39.4357 96.5076 38.8855C96.5043 38.4546 96.5922 38.0586 96.7711 37.6973C96.9534 37.3327 97.2003 37.0295 97.5119 36.7875C97.8234 36.5422 98.1715 36.3865 98.5559 36.3202V36.2605C98.0488 36.1379 97.6428 35.8661 97.3379 35.4452C97.033 35.0242 96.8822 34.5403 96.8855 33.9935C96.8822 33.4731 97.0197 33.0091 97.2981 32.6014C97.5798 32.1904 97.966 31.8673 98.4565 31.632C98.947 31.3966 99.5055 31.279 100.132 31.279C100.752 31.279 101.305 31.3983 101.792 31.6369C102.283 31.8723 102.669 32.1954 102.951 32.6064C103.233 33.0141 103.375 33.4764 103.378 33.9935C103.375 34.5403 103.219 35.0242 102.911 35.4452C102.603 35.8661 102.202 36.1379 101.708 36.2605V36.3202C102.089 36.3865 102.432 36.5422 102.737 36.7875C103.045 37.0295 103.291 37.3327 103.473 37.6973C103.658 38.0586 103.753 38.4546 103.756 38.8855C103.753 39.4357 103.597 39.9262 103.289 40.3571C102.981 40.788 102.553 41.126 102.006 41.3713C101.463 41.6166 100.838 41.7392 100.132 41.7392ZM100.132 40.4814C100.553 40.4814 100.917 40.4118 101.226 40.2726C101.534 40.1301 101.773 39.9329 101.942 39.681C102.111 39.4258 102.197 39.1275 102.2 38.7861C102.197 38.4314 102.104 38.1182 101.922 37.8465C101.743 37.5747 101.499 37.3609 101.191 37.2051C100.883 37.0493 100.53 36.9715 100.132 36.9715C99.7309 36.9715 99.3746 37.0493 99.063 37.2051C98.7515 37.3609 98.5062 37.5747 98.3272 37.8465C98.1483 38.1182 98.0604 38.4314 98.0637 38.7861C98.0604 39.1275 98.1416 39.4258 98.3074 39.681C98.4764 39.9329 98.7167 40.1301 99.0282 40.2726C99.3398 40.4118 99.7077 40.4814 100.132 40.4814ZM100.132 35.7435C100.47 35.7435 100.77 35.6755 101.032 35.5396C101.294 35.4037 101.499 35.2148 101.648 34.9729C101.801 34.7309 101.879 34.4475 101.882 34.1227C101.879 33.8045 101.802 33.5261 101.653 33.2875C101.507 33.0489 101.304 32.8649 101.042 32.7357C100.78 32.6031 100.477 32.5368 100.132 32.5368C99.7806 32.5368 99.4724 32.6031 99.2072 32.7357C98.9454 32.8649 98.7415 33.0489 98.5957 33.2875C98.4499 33.5261 98.3786 33.8045 98.3819 34.1227C98.3786 34.4475 98.4515 34.7309 98.6007 34.9729C98.7498 35.2148 98.9553 35.4037 99.2171 35.5396C99.4823 35.6755 99.7872 35.7435 100.132 35.7435Z" fill="#CCCCCC"/>
<path d="M109.092 41.7392C108.638 41.7326 108.19 41.6497 107.75 41.4906C107.312 41.3315 106.914 41.0664 106.556 40.6952C106.199 40.324 105.912 39.8251 105.696 39.1987C105.484 38.5723 105.378 37.7901 105.378 36.8521C105.378 35.9639 105.466 35.175 105.642 34.4857C105.821 33.7963 106.078 33.2146 106.412 32.7406C106.747 32.2634 107.151 31.9004 107.625 31.6518C108.099 31.4033 108.631 31.279 109.221 31.279C109.828 31.279 110.366 31.3983 110.837 31.6369C111.308 31.8756 111.689 32.2053 111.98 32.6263C112.275 33.0472 112.463 33.5261 112.542 34.0631H111.026C110.923 33.6388 110.719 33.2925 110.414 33.024C110.109 32.7555 109.712 32.6213 109.221 32.6213C108.476 32.6213 107.894 32.9461 107.476 33.5957C107.062 34.2454 106.853 35.1485 106.85 36.3053H106.924C107.1 36.0169 107.315 35.7716 107.571 35.5695C107.829 35.364 108.118 35.2065 108.436 35.0972C108.757 34.9845 109.095 34.9281 109.45 34.9281C110.04 34.9281 110.574 35.0723 111.051 35.3607C111.531 35.6457 111.914 36.0401 112.199 36.5439C112.484 37.0477 112.627 37.6244 112.627 38.274C112.627 38.9236 112.479 39.5119 112.184 40.0389C111.893 40.5659 111.482 40.9835 110.951 41.2918C110.421 41.5967 109.801 41.7458 109.092 41.7392ZM109.087 40.4466C109.478 40.4466 109.828 40.3505 110.136 40.1582C110.444 39.966 110.688 39.7075 110.867 39.3827C111.046 39.0579 111.135 38.6949 111.135 38.2939C111.135 37.9028 111.047 37.5465 110.872 37.225C110.699 36.9035 110.461 36.6483 110.156 36.4594C109.854 36.2705 109.51 36.176 109.122 36.176C108.827 36.176 108.553 36.2323 108.301 36.345C108.053 36.4577 107.834 36.6135 107.645 36.8124C107.456 37.0112 107.307 37.2399 107.198 37.4984C107.092 37.7536 107.039 38.0238 107.039 38.3088C107.039 38.69 107.127 39.0429 107.302 39.3678C107.481 39.6926 107.725 39.9544 108.033 40.1533C108.345 40.3488 108.696 40.4466 109.087 40.4466Z" fill="#CCCCCC"/>
<path fill-rule="evenodd" clip-rule="evenodd" d="M19 4.72268C17.0298 2.06518 14.6124 0.5 12 0.5C5.37258 0.5 0 10.5736 0 23C0 35.4264 5.37258 45.5 12 45.5C14.6124 45.5 17.0298 43.9348 19 41.2773C20.9702 43.9348 23.3876 45.5 26 45.5C28.6124 45.5 31.0298 43.9348 33 41.2773C34.9702 43.9348 37.3876 45.5 40 45.5C42.6124 45.5 45.0298 43.9348 47 41.2773C48.9702 43.9348 51.3876 45.5 54 45.5C60.6274 45.5 66 35.4264 66 23C66 10.5736 60.6274 0.5 54 0.5C51.3876 0.5 48.9702 2.06518 47 4.72268C45.0298 2.06518 42.6124 0.5 40 0.5C37.3876 0.5 34.9702 2.06518 33 4.72268C31.0298 2.06518 28.6124 0.5 26 0.5C23.3876 0.5 20.9702 2.06518 19 4.72268ZM23 23C23 29.0823 21.683 34.5392 19.6029 38.4393C19.4073 38.8062 19.2061 39.1572 19 39.4923C18.7939 39.1572 18.5927 38.8062 18.3971 38.4393C16.317 34.5392 15 29.0823 15 23C15 16.9177 16.317 11.4608 18.3971 7.56069C18.5927 7.19382 18.7939 6.84275 19 6.50772C19.2061 6.84275 19.4073 7.19382 19.6029 7.56069C21.683 11.4608 23 16.9177 23 23ZM18.3965 5.59229C15.7125 9.71863 14 15.9843 14 23C14 30.0157 15.7125 36.2814 18.3965 40.4077C16.5041 43.0826 14.2618 44.5 12 44.5C9.2354 44.5 6.50006 42.3824 4.39707 38.4393C2.317 34.5392 1 29.0823 1 23C1 16.9177 2.317 11.4608 4.39707 7.56069C6.50006 3.61758 9.2354 1.5 12 1.5C14.2618 1.5 16.5041 2.9174 18.3965 5.59229ZM46.3965 5.59229C44.5041 2.9174 42.2618 1.5 40 1.5C37.7382 1.5 35.4959 2.9174 33.6035 5.59229C36.2875 9.71863 38 15.9843 38 23C38 30.0157 36.2875 36.2814 33.6035 40.4077C35.4959 43.0826 37.7382 44.5 40 44.5C42.2618 44.5 44.5041 43.0826 46.3965 40.4077C43.7125 36.2814 42 30.0157 42 23C42 15.9843 43.7125 9.71863 46.3965 5.59229ZM47 39.4923C46.7939 39.1573 46.5927 38.8062 46.3971 38.4393C44.317 34.5392 43 29.0823 43 23C43 16.9177 44.317 11.4608 46.3971 7.56069C46.5927 7.19382 46.7939 6.84275 47 6.50772C47.2061 6.84275 47.4073 7.19382 47.6029 7.56069C49.683 11.4608 51 16.9177 51 23C51 29.0823 49.683 34.5392 47.6029 38.4393C47.4073 38.8062 47.2061 39.1573 47 39.4923ZM47.6035 40.4077C50.2875 36.2814 52 30.0157 52 23C52 15.9843 50.2875 9.71863 47.6035 5.59229C49.4959 2.9174 51.7382 1.5 54 1.5C56.7646 1.5 59.4999 3.61758 61.6029 7.56069C63.683 11.4608 65 16.9177 65 23C65 29.0823 63.683 34.5392 61.6029 38.4393C59.4999 42.3824 56.7646 44.5 54 44.5C51.7382 44.5 49.4959 43.0826 47.6035 40.4077ZM33.6029 7.56069C33.4073 7.19382 33.2061 6.84275 33 6.50772C32.7939 6.84275 32.5927 7.19382 32.3971 7.56069C30.317 11.4608 29 16.9177 29 23C29 29.0823 30.317 34.5392 32.3971 38.4393C32.5927 38.8062 32.7939 39.1572 33 39.4923C33.2061 39.1572 33.4073 38.8062 33.6029 38.4393C35.683 34.5392 37 29.0823 37 23C37 16.9177 35.683 11.4608 33.6029 7.56069ZM28 23C28 15.9843 29.7125 9.71863 32.3965 5.59229C30.5041 2.9174 28.2618 1.5 26 1.5C23.7382 1.5 21.4959 2.91741 19.6035 5.59229C22.2875 9.71863 24 15.9843 24 23C24 30.0157 22.2875 36.2814 19.6035 40.4077C21.4959 43.0826 23.7382 44.5 26 44.5C28.2618 44.5 30.5041 43.0826 32.3965 40.4077C29.7125 36.2814 28 30.0157 28 23Z" fill="white"/>
</svg>
