<svg width="161" height="46" viewBox="0 0 161 46" fill="none" xmlns="http://www.w3.org/2000/svg">
<path d="M1.4182 25.0818C1.08601 25.0818 0.919922 24.96 0.919922 24.7164C0.919922 24.5171 1.06387 24.3842 1.35176 24.3177L2.11579 24.1849C2.58085 24.0963 2.87982 23.9745 3.01269 23.8195C3.16771 23.6644 3.24522 23.3544 3.24522 22.8893V3.3568C3.24522 2.89174 3.16771 2.5817 3.01269 2.42668C2.87982 2.27166 2.58085 2.14986 2.11579 2.06127L1.35176 1.9284C1.06387 1.86196 0.919922 1.72909 0.919922 1.52978C0.919922 1.28617 1.08601 1.16437 1.4182 1.16437H7.49721C7.82939 1.16437 7.99549 1.29725 7.99549 1.563C7.99549 1.76231 7.87368 1.88411 7.63008 1.9284L6.73318 2.06127C6.26812 2.12771 5.95808 2.24951 5.80306 2.42668C5.67018 2.60384 5.60375 2.92496 5.60375 3.39002V11.7279C5.60375 12.0379 5.75877 12.193 6.06881 12.193H12.6461C12.9561 12.193 13.1112 12.0379 13.1112 11.7279V3.39002C13.1112 2.92496 13.0336 2.60384 12.8786 2.42668C12.7457 2.24951 12.4468 2.12771 11.9817 2.06127L11.0848 1.9284C10.8412 1.88411 10.7194 1.76231 10.7194 1.563C10.7194 1.29725 10.8855 1.16437 11.2177 1.16437H17.2967C17.6289 1.16437 17.795 1.28617 17.795 1.52978C17.795 1.72909 17.651 1.86196 17.3631 1.9284L16.5991 2.06127C16.134 2.14986 15.824 2.27166 15.669 2.42668C15.5361 2.5817 15.4697 2.89174 15.4697 3.3568V22.8893C15.4697 23.3544 15.5361 23.6644 15.669 23.8195C15.824 23.9745 16.134 24.0963 16.5991 24.1849L17.3631 24.3177C17.651 24.3842 17.795 24.5171 17.795 24.7164C17.795 24.96 17.6289 25.0818 17.2967 25.0818H11.2177C10.8855 25.0818 10.7194 24.9489 10.7194 24.6831C10.7194 24.4838 10.8412 24.362 11.0848 24.3177L11.9817 24.1849C12.4468 24.1184 12.7457 23.9966 12.8786 23.8195C13.0336 23.6423 13.1112 23.3212 13.1112 22.8561V13.6546C13.1112 13.3445 12.9561 13.1895 12.6461 13.1895H6.06881C5.75877 13.1895 5.60375 13.3445 5.60375 13.6546V22.8561C5.60375 23.3212 5.67018 23.6423 5.80306 23.8195C5.95808 23.9966 6.26812 24.1184 6.73318 24.1849L7.63008 24.3177C7.87368 24.362 7.99549 24.4838 7.99549 24.6831C7.99549 24.9489 7.82939 25.0818 7.49721 25.0818H1.4182Z" fill="white"/>
<path d="M22.0197 25.3807C21.0896 25.3807 20.3256 25.0928 19.7276 24.5171C19.1297 23.9191 18.8307 23.1329 18.8307 22.1585C18.8307 21.2063 19.1297 20.3094 19.7276 19.4678C20.3256 18.6041 21.145 17.829 22.1858 17.1425C23.2267 16.456 24.4114 15.9024 25.7402 15.4816C26.0281 15.393 26.172 15.2048 26.172 14.9169V11.894C26.172 10.831 26.0059 10.078 25.6738 9.63512C25.3416 9.17006 24.8876 8.93753 24.3118 8.93753C23.7582 8.93753 23.2488 9.1922 22.7837 9.70155C22.3408 10.1888 22.0197 11.0192 21.8204 12.193C21.7097 12.9016 21.4661 13.422 21.0896 13.7542C20.7353 14.0643 20.3699 14.2193 19.9934 14.2193C19.3733 14.2193 19.0633 13.9092 19.0633 13.2892C19.0633 12.6469 19.2404 12.0158 19.5947 11.3957C19.9712 10.7535 20.4584 10.1777 21.0564 9.66834C21.6543 9.13684 22.3076 8.71607 23.0163 8.40603C23.7249 8.09599 24.4336 7.94097 25.1423 7.94097C27.3347 7.94097 28.4309 9.21435 28.4309 11.7611V21.926C28.4309 22.8561 28.6634 23.3212 29.1285 23.3212C29.4164 23.3212 29.6821 23.1329 29.9257 22.7565C30.1693 22.3578 30.2911 21.6935 30.2911 20.7634C30.2911 20.409 30.4351 20.2319 30.723 20.2319C30.9887 20.2319 31.1216 20.4201 31.1216 20.7966C31.1216 22.4132 30.8337 23.5869 30.2579 24.3177C29.7043 25.0264 29.0731 25.3807 28.3645 25.3807C27.833 25.3807 27.4122 25.1704 27.1022 24.7496C26.7921 24.3067 26.5817 23.7862 26.471 23.1883C26.4489 22.9669 26.3492 22.8561 26.172 22.8561C26.017 22.834 25.862 22.9336 25.707 23.1551C25.1755 23.8859 24.6329 24.4395 24.0793 24.816C23.5256 25.1925 22.8391 25.3807 22.0197 25.3807ZM22.9166 23.8527C23.4924 23.8527 24.0239 23.6534 24.5111 23.2547C24.9983 22.834 25.3969 22.2803 25.707 21.5938C26.017 20.9073 26.172 20.1322 26.172 19.2685V16.8436C26.172 16.4228 25.9395 16.301 25.4744 16.4782C24.1236 16.9654 23.0716 17.6408 22.3187 18.5045C21.5879 19.346 21.2225 20.3647 21.2225 21.5606C21.2225 23.0887 21.7872 23.8527 22.9166 23.8527Z" fill="white"/>
<path d="M32.298 25.0818C31.9658 25.0818 31.7997 24.96 31.7997 24.7164C31.7997 24.5171 31.9437 24.3842 32.2316 24.3177L32.6302 24.2513C33.0953 24.1627 33.3942 24.0299 33.5271 23.8527C33.6821 23.6534 33.7596 23.3212 33.7596 22.8561V11.6947C33.7596 11.296 33.6932 11.0303 33.5603 10.8974C33.4496 10.7424 33.2392 10.6427 32.9292 10.5985L32.2316 10.4988C31.9437 10.4767 31.7997 10.3549 31.7997 10.1334C31.7997 9.95623 31.9769 9.83443 32.3312 9.76799C33.0177 9.65726 33.5382 9.4801 33.8925 9.23649C34.269 8.99289 34.6565 8.69392 35.0552 8.33959C35.2545 8.14028 35.4206 8.04062 35.5534 8.04062C35.7528 8.04062 35.8524 8.1735 35.8524 8.43925V9.93408C35.8524 10.1334 35.9188 10.2663 36.0517 10.3327C36.2067 10.377 36.3728 10.3106 36.55 10.1334C37.4358 9.29186 38.2109 8.71607 38.8753 8.40603C39.5618 8.09599 40.2816 7.94097 41.0345 7.94097C42.0311 7.94097 42.8283 8.2953 43.4263 9.00396C44.0242 9.69048 44.3232 10.7092 44.3232 12.0601V22.8561C44.3232 23.3212 44.3896 23.6534 44.5225 23.8527C44.6775 24.0299 44.9875 24.1517 45.4526 24.2181L46.1834 24.3177C46.427 24.362 46.5488 24.4949 46.5488 24.7164C46.5488 24.96 46.4159 25.0818 46.1502 25.0818H40.5695C40.2594 25.0818 40.1044 24.96 40.1044 24.7164C40.1044 24.4949 40.2262 24.362 40.4698 24.3177L40.9349 24.2513C41.3999 24.1849 41.6989 24.052 41.8318 23.8527C41.9868 23.6534 42.0643 23.3212 42.0643 22.8561V12.4255C42.0643 11.3403 41.865 10.5763 41.4664 10.1334C41.0677 9.69048 40.503 9.46902 39.7722 9.46902C39.0635 9.46902 38.4213 9.67941 37.8455 10.1002C37.2919 10.4988 36.849 11.0414 36.5168 11.7279C36.1846 12.3923 36.0185 13.1341 36.0185 13.9535V22.8561C36.0185 23.3212 36.0849 23.6534 36.2178 23.8527C36.3728 24.052 36.6829 24.1738 37.1479 24.2181L38.0448 24.3177C38.2884 24.362 38.4102 24.4838 38.4102 24.6831C38.4102 24.9489 38.2441 25.0818 37.912 25.0818H32.298Z" fill="white"/>
<path d="M47.3749 25.0818C47.1091 25.0818 46.9762 24.96 46.9762 24.7164C46.9762 24.4949 47.098 24.362 47.3416 24.3177L47.8067 24.2513C48.2718 24.1849 48.615 24.052 48.8365 23.8527C49.0579 23.6534 49.1687 23.3212 49.1687 22.8561V3.82186C49.1687 3.42324 49.1022 3.14641 48.9693 2.9914C48.8586 2.83637 48.6482 2.74779 48.3382 2.72565L47.5742 2.62599C47.3306 2.5817 47.2088 2.44882 47.2088 2.22737C47.2088 2.00591 47.3306 1.87304 47.5742 1.82874C48.1942 1.69587 48.7257 1.54085 49.1687 1.36368C49.6116 1.18652 49.977 1.00935 50.2649 0.832186C50.6192 0.610729 50.885 0.5 51.0621 0.5C51.3057 0.5 51.4275 0.677166 51.4275 1.0315V22.8561C51.4275 23.3212 51.494 23.6534 51.6268 23.8527C51.7819 24.0299 52.0919 24.1517 52.557 24.2181L53.321 24.3177C53.5646 24.362 53.6864 24.4949 53.6864 24.7164C53.6864 24.96 53.5535 25.0818 53.2878 25.0818H47.3749Z" fill="white"/>
<path d="M60.3875 25.3807C59.3245 25.3807 58.3722 25.0264 57.5307 24.3177C56.6891 23.6091 56.0137 22.6125 55.5043 21.3281C55.0171 20.0215 54.7735 18.5156 54.7735 16.8103C54.7735 15.0608 55.0282 13.5217 55.5375 12.193C56.0469 10.8642 56.7445 9.82336 57.6303 9.0704C58.5162 8.31745 59.5016 7.94097 60.5868 7.94097C61.8934 7.94097 62.9453 8.48354 63.7425 9.56868C64.5619 10.6317 64.9716 12.3701 64.9716 14.784C64.9716 15.5148 64.6948 15.8802 64.1412 15.8802H57.8296C57.3867 15.8802 57.1653 16.1349 57.1653 16.6442C57.1653 18.9917 57.5085 20.7523 58.195 21.926C58.8816 23.0997 59.7563 23.6866 60.8193 23.6866C61.6608 23.6866 62.3474 23.3876 62.8789 22.7897C63.4104 22.1918 63.8422 21.1841 64.1744 19.7668C64.2408 19.5232 64.3848 19.4014 64.6062 19.4014C64.872 19.4014 64.9716 19.6228 64.9052 20.0658C64.5509 22.0367 63.9861 23.4208 63.211 24.2181C62.4359 24.9932 61.4948 25.3807 60.3875 25.3807ZM57.73 15.0498H61.0851C62.1481 15.0498 62.6795 14.4961 62.6795 13.3888C62.6795 11.9493 62.5024 10.8199 62.1481 10.0005C61.7937 9.18113 61.2622 8.77143 60.5536 8.77143C59.6899 8.77143 58.9591 9.26971 58.3611 10.2663C57.7853 11.2628 57.4089 12.6802 57.2317 14.5183C57.1874 14.8726 57.3535 15.0498 57.73 15.0498Z" fill="white"/>
<path d="M68.5748 31.8916C67.9769 31.8916 67.5007 31.6812 67.1464 31.2604C66.7921 30.8618 66.6149 30.3968 66.6149 29.8653C66.6149 29.4445 66.7367 29.0902 66.9803 28.8023C67.2239 28.5144 67.5561 28.3704 67.9769 28.3704C68.3312 28.3704 68.5859 28.4479 68.7409 28.6029C68.8959 28.758 69.0067 28.9351 69.0731 29.1344C69.1395 29.3338 69.206 29.5109 69.2724 29.6659C69.3388 29.821 69.4717 29.8985 69.671 29.8985C69.9146 29.8985 70.1361 29.7213 70.3354 29.367C70.5347 29.0348 70.8115 28.3151 71.1659 27.2078C71.3873 26.5434 71.5202 25.9676 71.5645 25.4804C71.6309 24.9932 71.6199 24.4728 71.5313 23.9191C71.4648 23.3655 71.2987 22.69 71.033 21.8928L67.4122 10.3659C67.2571 9.83443 67.1021 9.49117 66.9471 9.33615C66.8142 9.18113 66.5928 9.0704 66.2827 9.00396L65.7844 8.90431C65.4966 8.83787 65.3526 8.69392 65.3526 8.47247C65.3526 8.25101 65.5076 8.14028 65.8177 8.14028H71.2987C71.6088 8.14028 71.7638 8.25101 71.7638 8.47247C71.7638 8.71607 71.6199 8.86002 71.332 8.90431L70.8005 8.97075C70.269 9.03718 69.9257 9.17006 69.7707 9.36937C69.6378 9.54653 69.6489 9.87872 69.8039 10.3659L72.7271 20.099C72.7936 20.3204 72.8932 20.4312 73.0261 20.4312C73.1811 20.4312 73.2919 20.3204 73.3583 20.099L76.1819 10.9639C76.359 10.3659 76.4033 9.92301 76.3148 9.63512C76.2483 9.32508 75.9383 9.12577 75.3846 9.03718L74.687 8.90431C74.3991 8.83787 74.2552 8.69392 74.2552 8.47247C74.2552 8.25101 74.4102 8.14028 74.7203 8.14028H78.939C79.2491 8.14028 79.4041 8.26208 79.4041 8.50568C79.4041 8.72714 79.2712 8.88216 79.0055 8.97075L78.7065 9.0704C78.3743 9.18113 78.0975 9.38044 77.876 9.66834C77.6546 9.95623 77.422 10.4545 77.1784 11.1632L72.2289 26.6098C71.7417 28.16 71.2987 29.3116 70.9001 30.0646C70.5236 30.8175 70.1582 31.3047 69.8039 31.5262C69.4496 31.7698 69.0399 31.8916 68.5748 31.8916Z" fill="white"/>
<path d="M91.6381 25.3807C90.4201 25.3807 89.3793 25.115 88.5156 24.5835C87.6519 24.0299 86.9875 23.3101 86.5225 22.4243C86.0796 21.5163 85.8581 20.5419 85.8581 19.501C85.8581 17.8401 86.301 16.3342 87.1868 14.9833C88.0948 13.6103 89.2796 12.4698 90.7412 11.5618C90.9848 11.4068 91.0291 11.1964 90.8741 10.9306C90.2319 9.86765 89.7447 8.93753 89.4125 8.14028C89.0803 7.32089 88.9142 6.47935 88.9142 5.61567C88.9142 4.70769 89.1246 3.8883 89.5454 3.15749C89.9883 2.42668 90.6084 1.83982 91.4056 1.3969C92.2029 0.953986 93.1219 0.732529 94.1628 0.732529C95.0929 0.732529 95.879 0.942914 96.5213 1.36368C97.1635 1.78445 97.6507 2.31595 97.9829 2.95818C98.3151 3.57826 98.4812 4.20941 98.4812 4.85164C98.4812 5.98107 98.1268 7.01085 97.4182 7.94097C96.7095 8.87109 95.569 9.74585 93.9967 10.5652C93.7309 10.7424 93.6755 10.9528 93.8306 11.1964L98.0493 17.973C98.1601 18.128 98.2708 18.2055 98.3815 18.2055C98.4922 18.1834 98.5919 18.0948 98.6805 17.9398C98.9241 17.4304 99.1566 16.91 99.3781 16.3785C99.6217 15.8249 99.8099 15.3819 99.9428 15.0498C100.186 14.4075 100.264 13.9425 100.175 13.6546C100.087 13.3445 99.821 13.1563 99.3781 13.0899L98.2154 12.9238C97.9275 12.9016 97.7836 12.7687 97.7836 12.5251C97.7836 12.3037 97.9386 12.193 98.2486 12.193H104.062C104.372 12.193 104.527 12.3148 104.527 12.5584C104.527 12.802 104.383 12.9348 104.095 12.957L103.464 13.0234C102.977 13.0677 102.512 13.2449 102.069 13.5549C101.648 13.865 101.26 14.4407 100.906 15.2823C100.707 15.7695 100.463 16.3453 100.175 17.0096C99.8874 17.674 99.5885 18.3162 99.2784 18.9363C99.1012 19.3128 99.1123 19.6782 99.3116 20.0325L101.238 23.1219C101.46 23.4541 101.648 23.7087 101.803 23.8859C101.98 24.0631 102.202 24.1627 102.467 24.1849L103.929 24.3177C104.195 24.3399 104.328 24.4728 104.328 24.7164C104.328 24.96 104.173 25.0818 103.863 25.0818H100.474C100.054 25.0818 99.7324 24.9046 99.5109 24.5503L97.9829 22.1585C97.7836 21.8485 97.5732 21.8374 97.3517 22.1253C96.4438 23.299 95.5026 24.1406 94.5282 24.6499C93.5759 25.1371 92.6125 25.3807 91.6381 25.3807ZM93.4984 9.86765C94.5171 9.24757 95.27 8.49461 95.7572 7.60878C96.2666 6.72295 96.5213 5.8482 96.5213 4.98451C96.5213 4.45301 96.4438 3.93259 96.2887 3.42324C96.1559 2.91389 95.9123 2.49312 95.5579 2.16093C95.2036 1.8066 94.6832 1.62943 93.9967 1.62943C93.0887 1.62943 92.3579 1.97269 91.8042 2.65921C91.2727 3.34573 91.007 4.09868 91.007 4.91807C91.007 5.64888 91.1399 6.34648 91.4056 7.01085C91.6714 7.67522 92.1586 8.57212 92.8672 9.70155C93.0001 9.98945 93.2105 10.0448 93.4984 9.86765ZM92.07 23.8195C92.8451 23.8195 93.6202 23.6312 94.3953 23.2547C95.1704 22.8783 95.9344 22.225 96.6874 21.2948C96.931 20.9184 96.942 20.5419 96.7206 20.1654L91.8374 12.4587C91.6381 12.193 91.4167 12.1487 91.1731 12.3258C90.1101 13.0788 89.3239 14.0089 88.8146 15.1162C88.3052 16.2235 88.0505 17.4636 88.0505 18.8367C88.0505 20.2097 88.3716 21.3834 89.0139 22.3578C89.6782 23.3323 90.6969 23.8195 92.07 23.8195Z" fill="white"/>
<path d="M123.927 25.3807C123.573 25.3807 123.274 25.115 123.03 24.5835L114.028 5.05095C113.962 4.89593 113.873 4.82949 113.763 4.85164C113.674 4.87378 113.63 4.97344 113.63 5.15061V22.225C113.63 22.8451 113.729 23.3212 113.929 23.6534C114.15 23.9634 114.538 24.1627 115.091 24.2513L115.523 24.3177C115.811 24.3399 115.955 24.4728 115.955 24.7164C115.955 24.96 115.789 25.0818 115.457 25.0818H110.706C110.374 25.0818 110.208 24.96 110.208 24.7164C110.208 24.4728 110.352 24.3399 110.64 24.3177L111.072 24.2513C111.648 24.1627 112.046 23.9634 112.268 23.6534C112.489 23.3212 112.6 22.8451 112.6 22.225V3.3568C112.6 2.89174 112.522 2.5817 112.367 2.42668C112.234 2.27166 111.913 2.14986 111.404 2.06127L110.64 1.9284C110.352 1.86196 110.208 1.72909 110.208 1.52978C110.208 1.28617 110.374 1.16437 110.706 1.16437H114.261C114.814 1.16437 115.202 1.40797 115.423 1.89518L123.263 19.1356C123.329 19.2685 123.407 19.3239 123.496 19.3017C123.606 19.2796 123.662 19.2021 123.662 19.0692V4.02117C123.662 3.31251 123.54 2.8253 123.296 2.55955C123.053 2.27166 122.743 2.09449 122.366 2.02806L121.768 1.9284C121.48 1.86196 121.336 1.72909 121.336 1.52978C121.336 1.28617 121.502 1.16437 121.835 1.16437H126.585C126.917 1.16437 127.083 1.28617 127.083 1.52978C127.083 1.77338 126.939 1.90625 126.651 1.9284L126.219 1.99484C125.644 2.08342 125.245 2.27166 125.024 2.55955C124.802 2.8253 124.691 3.31251 124.691 4.02117V24.3177C124.691 24.7164 124.614 24.9932 124.459 25.1482C124.326 25.3032 124.149 25.3807 123.927 25.3807Z" fill="white"/>
<path d="M131.014 4.98451C130.549 4.98451 130.15 4.81842 129.818 4.48623C129.508 4.15405 129.353 3.73328 129.353 3.22392C129.353 2.71457 129.508 2.30488 129.818 1.99484C130.15 1.66265 130.549 1.49656 131.014 1.49656C131.479 1.49656 131.866 1.66265 132.176 1.99484C132.486 2.30488 132.641 2.71457 132.641 3.22392C132.641 3.73328 132.486 4.15405 132.176 4.48623C131.866 4.81842 131.479 4.98451 131.014 4.98451ZM128.223 25.0818C127.891 25.0818 127.725 24.96 127.725 24.7164C127.725 24.5171 127.869 24.3842 128.157 24.3177L128.555 24.2513C129.109 24.1627 129.463 24.0299 129.618 23.8527C129.773 23.6534 129.851 23.3212 129.851 22.8561V11.6947C129.851 11.296 129.785 11.0303 129.652 10.8974C129.541 10.7424 129.331 10.6427 129.02 10.5985L128.323 10.4988C128.035 10.4767 127.891 10.3549 127.891 10.1334C127.891 9.95623 128.068 9.83443 128.423 9.76799C129.109 9.65726 129.663 9.4801 130.083 9.23649C130.504 8.99289 130.914 8.69392 131.313 8.33959C131.512 8.14028 131.678 8.04062 131.811 8.04062C132.01 8.04062 132.11 8.1735 132.11 8.43925V22.8561C132.11 23.3212 132.176 23.6534 132.309 23.8527C132.442 24.052 132.697 24.1738 133.073 24.2181L133.904 24.3177C134.147 24.362 134.269 24.4838 134.269 24.6831C134.269 24.9489 134.103 25.0818 133.771 25.0818H128.223Z" fill="white"/>
<path d="M140.602 25.3807C139.628 25.3807 138.742 25.0596 137.945 24.4174C137.17 23.753 136.55 22.8118 136.085 21.5938C135.62 20.3758 135.387 18.9253 135.387 17.2422C135.387 15.3598 135.664 13.721 136.218 12.3258C136.793 10.9306 137.568 9.85658 138.543 9.10362C139.517 8.32852 140.602 7.94097 141.798 7.94097C142.817 7.94097 143.614 8.14028 144.19 8.5389C144.411 8.69392 144.522 8.93753 144.522 9.26971L144.589 13.3224C144.589 13.6546 144.456 13.8207 144.19 13.8207C143.946 13.8207 143.791 13.6767 143.725 13.3888C143.415 12.1708 143.116 11.2296 142.828 10.5652C142.54 9.90087 142.241 9.44688 141.931 9.20328C141.621 8.93753 141.278 8.80465 140.901 8.80465C140.458 8.80465 139.993 9.05933 139.506 9.56868C139.041 10.078 138.642 10.9085 138.31 12.0601C138 13.1895 137.845 14.6843 137.845 16.5446C137.845 18.9142 138.144 20.6969 138.742 21.8928C139.362 23.0887 140.159 23.6866 141.134 23.6866C141.909 23.6866 142.551 23.3655 143.061 22.7233C143.592 22.081 144.046 20.9184 144.423 19.2353C144.489 18.9917 144.622 18.8699 144.821 18.8699C145.087 18.8699 145.187 19.0914 145.12 19.5343C144.876 21.0845 144.533 22.2914 144.09 23.1551C143.67 23.9966 143.16 24.5835 142.562 24.9157C141.986 25.2257 141.333 25.3807 140.602 25.3807Z" fill="white"/>
<path d="M146.777 25.0818C146.511 25.0818 146.378 24.96 146.378 24.7164C146.378 24.4949 146.5 24.362 146.743 24.3177L147.208 24.2513C147.674 24.1849 147.972 24.052 148.105 23.8527C148.26 23.6534 148.338 23.3212 148.338 22.8561V3.82186C148.338 3.42324 148.271 3.15749 148.139 3.02461C148.028 2.86959 147.817 2.76994 147.507 2.72565L146.81 2.62599C146.566 2.5817 146.444 2.44882 146.444 2.22737C146.444 2.00591 146.566 1.87304 146.81 1.82874C147.43 1.69587 147.95 1.54085 148.371 1.36368C148.792 1.18652 149.146 1.00935 149.434 0.832186C149.788 0.610729 150.054 0.5 150.231 0.5C150.475 0.5 150.597 0.677166 150.597 1.0315V14.9501C150.597 15.1716 150.685 15.3155 150.863 15.3819C151.062 15.4262 151.25 15.3487 151.427 15.1494L155.314 10.9639C155.779 10.4545 155.967 10.0337 155.879 9.70155C155.812 9.34722 155.557 9.12577 155.114 9.03718L154.35 8.90431C154.063 8.83787 153.919 8.69392 153.919 8.47247C153.919 8.25101 154.074 8.14028 154.384 8.14028H160.097C160.407 8.14028 160.562 8.26208 160.562 8.50568C160.562 8.74929 160.418 8.88216 160.13 8.90431L159.832 8.93753C159.322 8.98182 158.813 9.18113 158.303 9.53546C157.794 9.86765 157.185 10.3991 156.476 11.13L154.417 13.3224C153.952 13.8317 153.841 14.33 154.085 14.8172L158.27 22.8561C158.514 23.299 158.78 23.6202 159.068 23.8195C159.355 24.0188 159.71 24.1627 160.13 24.2513L160.463 24.3177C160.728 24.3842 160.861 24.5171 160.861 24.7164C160.861 24.96 160.706 25.0818 160.396 25.0818H154.616C154.306 25.0818 154.151 24.96 154.151 24.7164C154.151 24.4949 154.295 24.362 154.583 24.3177L155.148 24.2513C155.989 24.1406 156.166 23.598 155.679 22.6236L152.523 16.4782C152.413 16.2567 152.247 16.1349 152.025 16.1127C151.826 16.0906 151.638 16.1681 151.46 16.3453L151.095 16.7107C150.896 16.91 150.763 17.1093 150.696 17.3086C150.63 17.5079 150.597 17.7294 150.597 17.973V22.8561C150.597 23.3212 150.663 23.6534 150.796 23.8527C150.951 24.052 151.261 24.1738 151.726 24.2181L152.623 24.3177C152.867 24.362 152.988 24.4949 152.988 24.7164C152.988 24.96 152.856 25.0818 152.59 25.0818H146.777Z" fill="white"/>
<path d="M35.0873 45.382H34.2353L36.6994 38.6712H37.5383L40.0024 45.382H39.1505L37.1451 39.7329H37.0927L35.0873 45.382ZM35.4018 42.7606H38.8359V43.4815H35.4018V42.7606Z" fill="white"/>
<path d="M41.0477 45.382V38.6712H43.3153C43.8395 38.6712 44.2699 38.7608 44.6063 38.9399C44.9427 39.1168 45.1917 39.3604 45.3534 39.6706C45.5151 39.9808 45.5959 40.3336 45.5959 40.729C45.5959 41.1244 45.5151 41.475 45.3534 41.7809C45.1917 42.0867 44.9438 42.327 44.6096 42.5018C44.2753 42.6743 43.8483 42.7606 43.3284 42.7606H41.4934V42.0266H43.3021C43.6604 42.0266 43.9488 41.9742 44.1672 41.8693C44.3878 41.7645 44.5473 41.6159 44.6456 41.4237C44.7461 41.2293 44.7964 40.9977 44.7964 40.729C44.7964 40.4603 44.7461 40.2255 44.6456 40.0245C44.5451 39.8235 44.3846 39.6684 44.1639 39.5592C43.9433 39.4478 43.6517 39.3921 43.289 39.3921H41.8604V45.382H41.0477ZM44.2065 42.3674L45.858 45.382H44.9143L43.289 42.3674H44.2065Z" fill="white"/>
<path d="M52.3501 40.7683H51.5375C51.4894 40.5346 51.4053 40.3293 51.2852 40.1523C51.1672 39.9754 51.023 39.8268 50.8526 39.7067C50.6844 39.5843 50.4977 39.4926 50.2923 39.4314C50.087 39.3702 49.8729 39.3397 49.6501 39.3397C49.2438 39.3397 48.8757 39.4423 48.5458 39.6477C48.2181 39.853 47.9571 40.1556 47.7626 40.5553C47.5704 40.9551 47.4743 41.4455 47.4743 42.0266C47.4743 42.6077 47.5704 43.0981 47.7626 43.4979C47.9571 43.8977 48.2181 44.2002 48.5458 44.4056C48.8757 44.6109 49.2438 44.7136 49.6501 44.7136C49.8729 44.7136 50.087 44.683 50.2923 44.6218C50.4977 44.5607 50.6844 44.47 50.8526 44.3499C51.023 44.2275 51.1672 44.0779 51.2852 43.9009C51.4053 43.7218 51.4894 43.5165 51.5375 43.2849H52.3501C52.289 43.6279 52.1776 43.9348 52.0159 44.2057C51.8542 44.4766 51.6533 44.707 51.413 44.8971C51.1727 45.0849 50.9029 45.228 50.6036 45.3263C50.3065 45.4246 49.9887 45.4738 49.6501 45.4738C49.0777 45.4738 48.5687 45.334 48.1231 45.0544C47.6775 44.7747 47.3268 44.3772 47.0713 43.8616C46.8157 43.3461 46.6879 42.7344 46.6879 42.0266C46.6879 41.3188 46.8157 40.7072 47.0713 40.1916C47.3268 39.6761 47.6775 39.2785 48.1231 38.9989C48.5687 38.7193 49.0777 38.5795 49.6501 38.5795C49.9887 38.5795 50.3065 38.6286 50.6036 38.7269C50.9029 38.8252 51.1727 38.9694 51.413 39.1594C51.6533 39.3473 51.8542 39.5767 52.0159 39.8476C52.1776 40.1163 52.289 40.4232 52.3501 40.7683Z" fill="white"/>
<path d="M53.6633 45.382V38.6712H54.4759V41.6596H58.0542V38.6712H58.8668V45.382H58.0542V42.3805H54.4759V45.382H53.6633Z" fill="white"/>
<path d="M61.3064 38.6712V45.382H60.4937V38.6712H61.3064Z" fill="white"/>
<path d="M62.5688 39.3921V38.6712H67.6019V39.3921H65.4916V45.382H64.679V39.3921H62.5688Z" fill="white"/>
<path d="M68.8561 45.382V38.6712H72.9061V39.3921H69.6687V41.6596H72.6964V42.3805H69.6687V44.6611H72.9586V45.382H68.8561Z" fill="white"/>
<path d="M79.771 40.7683H78.9584C78.9103 40.5346 78.8262 40.3293 78.706 40.1523C78.5881 39.9754 78.4439 39.8268 78.2735 39.7067C78.1053 39.5843 77.9185 39.4926 77.7132 39.4314C77.5078 39.3702 77.2937 39.3397 77.0709 39.3397C76.6646 39.3397 76.2965 39.4423 75.9667 39.6477C75.639 39.853 75.3779 40.1556 75.1835 40.5553C74.9913 40.9551 74.8951 41.4455 74.8951 42.0266C74.8951 42.6077 74.9913 43.0981 75.1835 43.4979C75.3779 43.8977 75.639 44.2002 75.9667 44.4056C76.2965 44.6109 76.6646 44.7136 77.0709 44.7136C77.2937 44.7136 77.5078 44.683 77.7132 44.6218C77.9185 44.5607 78.1053 44.47 78.2735 44.3499C78.4439 44.2275 78.5881 44.0779 78.706 43.9009C78.8262 43.7218 78.9103 43.5165 78.9584 43.2849H79.771C79.7098 43.6279 79.5984 43.9348 79.4368 44.2057C79.2751 44.4766 79.0741 44.707 78.8338 44.8971C78.5935 45.0849 78.3237 45.228 78.0245 45.3263C77.7274 45.4246 77.4095 45.4738 77.0709 45.4738C76.4986 45.4738 75.9896 45.334 75.5439 45.0544C75.0983 44.7747 74.7477 44.3772 74.4921 43.8616C74.2365 43.3461 74.1087 42.7344 74.1087 42.0266C74.1087 41.3188 74.2365 40.7072 74.4921 40.1916C74.7477 39.6761 75.0983 39.2785 75.5439 38.9989C75.9896 38.7193 76.4986 38.5795 77.0709 38.5795C77.4095 38.5795 77.7274 38.6286 78.0245 38.7269C78.3237 38.8252 78.5935 38.9694 78.8338 39.1594C79.0741 39.3473 79.2751 39.5767 79.4368 39.8476C79.5984 40.1163 79.7098 40.4232 79.771 40.7683Z" fill="white"/>
<path d="M80.7172 39.3921V38.6712H85.7503V39.3921H83.64V45.382H82.8274V39.3921H80.7172Z" fill="white"/>
<path d="M90.6745 40.3489C90.6351 40.0169 90.4757 39.7591 90.196 39.5756C89.9164 39.3921 89.5734 39.3003 89.1671 39.3003C88.87 39.3003 88.6101 39.3484 88.3873 39.4445C88.1666 39.5406 87.994 39.6728 87.8695 39.841C87.7472 40.0092 87.686 40.2004 87.686 40.4144C87.686 40.5936 87.7286 40.7476 87.8138 40.8765C87.9012 41.0032 88.0126 41.1091 88.1481 41.1943C88.2835 41.2773 88.4255 41.3461 88.574 41.4008C88.7226 41.4532 88.8591 41.4958 88.9836 41.5285L89.6652 41.7121C89.84 41.7579 90.0344 41.8213 90.2485 41.9021C90.4647 41.9829 90.6712 42.0933 90.8678 42.2331C91.0666 42.3707 91.2304 42.5476 91.3593 42.7639C91.4882 42.9802 91.5526 43.2456 91.5526 43.5602C91.5526 43.9228 91.4576 44.2505 91.2675 44.5432C91.0797 44.8359 90.8044 45.0686 90.4418 45.2411C90.0814 45.4137 89.6434 45.5 89.1278 45.5C88.6472 45.5 88.2311 45.4224 87.8794 45.2673C87.5298 45.1122 87.2546 44.896 87.0536 44.6185C86.8548 44.3411 86.7423 44.0189 86.7161 43.6519H87.555C87.5768 43.9053 87.662 44.115 87.8105 44.281C87.9613 44.4449 88.1513 44.5672 88.3807 44.648C88.6123 44.7267 88.8613 44.766 89.1278 44.766C89.438 44.766 89.7165 44.7158 89.9634 44.6153C90.2102 44.5126 90.4058 44.3706 90.5499 44.1893C90.6941 44.0058 90.7662 43.7917 90.7662 43.547C90.7662 43.3242 90.7039 43.1429 90.5794 43.0031C90.4549 42.8633 90.2911 42.7497 90.0879 42.6623C89.8847 42.5749 89.6652 42.4985 89.4293 42.4329L88.6035 42.197C88.0792 42.0463 87.6642 41.8311 87.3584 41.5515C87.0525 41.2719 86.8996 40.906 86.8996 40.4538C86.8996 40.078 87.0012 39.7504 87.2043 39.4707C87.4097 39.1889 87.6849 38.9705 88.0301 38.8154C88.3774 38.6581 88.7652 38.5795 89.1933 38.5795C89.6259 38.5795 90.0104 38.657 90.3468 38.8121C90.6832 38.965 90.9497 39.1747 91.1463 39.4412C91.3451 39.7078 91.45 40.0103 91.4609 40.3489H90.6745Z" fill="white"/>
<path d="M100.071 40.7683C99.9993 40.5477 99.9043 40.35 99.7863 40.1752C99.6706 39.9983 99.5318 39.8476 99.3702 39.723C99.2107 39.5985 99.0294 39.5035 98.8262 39.438C98.6231 39.3724 98.4003 39.3397 98.1578 39.3397C97.7602 39.3397 97.3987 39.4423 97.0732 39.6477C96.7477 39.853 96.4888 40.1556 96.2966 40.5553C96.1043 40.9551 96.0082 41.4455 96.0082 42.0266C96.0082 42.6077 96.1054 43.0981 96.2999 43.4979C96.4943 43.8977 96.7575 44.2002 97.0895 44.4056C97.4216 44.6109 97.7952 44.7136 98.2102 44.7136C98.5947 44.7136 98.9333 44.6317 99.226 44.4678C99.5209 44.3018 99.7503 44.0681 99.9141 43.7666C100.08 43.4629 100.163 43.1058 100.163 42.6951L100.412 42.7475H98.3937V42.0266H100.95V42.7475C100.95 43.3002 100.832 43.7808 100.596 44.1893C100.362 44.5978 100.039 44.9146 99.6258 45.1396C99.2151 45.3624 98.7432 45.4738 98.2102 45.4738C97.616 45.4738 97.0939 45.334 96.6439 45.0544C96.1961 44.7747 95.8466 44.3772 95.5953 43.8616C95.3463 43.3461 95.2218 42.7344 95.2218 42.0266C95.2218 41.4958 95.2928 41.0185 95.4348 40.5947C95.579 40.1687 95.7821 39.8061 96.0443 39.5068C96.3064 39.2075 96.6166 38.9781 96.9749 38.8187C97.3331 38.6592 97.7274 38.5795 98.1578 38.5795C98.5117 38.5795 98.8415 38.633 99.1474 38.74C99.4554 38.8449 99.7295 38.9945 99.9698 39.1889C100.212 39.3812 100.414 39.6116 100.576 39.8803C100.738 40.1468 100.849 40.4428 100.91 40.7683H100.071Z" fill="white"/>
<path d="M102.341 45.382V38.6712H104.609C105.133 38.6712 105.564 38.7608 105.9 38.9399C106.236 39.1168 106.485 39.3604 106.647 39.6706C106.809 39.9808 106.89 40.3336 106.89 40.729C106.89 41.1244 106.809 41.475 106.647 41.7809C106.485 42.0867 106.237 42.327 105.903 42.5018C105.569 42.6743 105.142 42.7606 104.622 42.7606H102.787V42.0266H104.596C104.954 42.0266 105.242 41.9742 105.461 41.8693C105.682 41.7645 105.841 41.6159 105.939 41.4237C106.04 41.2293 106.09 40.9977 106.09 40.729C106.09 40.4603 106.04 40.2255 105.939 40.0245C105.839 39.8235 105.678 39.6684 105.458 39.5592C105.237 39.4478 104.945 39.3921 104.583 39.3921H103.154V45.382H102.341ZM105.5 42.3674L107.152 45.382H106.208L104.583 42.3674H105.5Z" fill="white"/>
<path d="M113.906 42.0266C113.906 42.7344 113.778 43.3461 113.523 43.8616C113.267 44.3772 112.916 44.7747 112.471 45.0544C112.025 45.334 111.516 45.4738 110.944 45.4738C110.371 45.4738 109.862 45.334 109.417 45.0544C108.971 44.7747 108.621 44.3772 108.365 43.8616C108.109 43.3461 107.982 42.7344 107.982 42.0266C107.982 41.3188 108.109 40.7072 108.365 40.1916C108.621 39.6761 108.971 39.2785 109.417 38.9989C109.862 38.7193 110.371 38.5795 110.944 38.5795C111.516 38.5795 112.025 38.7193 112.471 38.9989C112.916 39.2785 113.267 39.6761 113.523 40.1916C113.778 40.7072 113.906 41.3188 113.906 42.0266ZM113.12 42.0266C113.12 41.4455 113.022 40.9551 112.828 40.5553C112.636 40.1556 112.375 39.853 112.045 39.6477C111.717 39.4423 111.35 39.3397 110.944 39.3397C110.537 39.3397 110.169 39.4423 109.839 39.6477C109.512 39.853 109.251 40.1556 109.056 40.5553C108.864 40.9551 108.768 41.4455 108.768 42.0266C108.768 42.6077 108.864 43.0981 109.056 43.4979C109.251 43.8977 109.512 44.2002 109.839 44.4056C110.169 44.6109 110.537 44.7136 110.944 44.7136C111.35 44.7136 111.717 44.6109 112.045 44.4056C112.375 44.2002 112.636 43.8977 112.828 43.4979C113.022 43.0981 113.12 42.6077 113.12 42.0266Z" fill="white"/>
<path d="M119.676 38.6712H120.489V43.1145C120.489 43.5733 120.381 43.9829 120.165 44.3433C119.951 44.7016 119.648 44.9845 119.257 45.192C118.866 45.3973 118.407 45.5 117.881 45.5C117.354 45.5 116.895 45.3973 116.504 45.192C116.113 44.9845 115.81 44.7016 115.593 44.3433C115.379 43.9829 115.272 43.5733 115.272 43.1145V38.6712H116.085V43.049C116.085 43.3767 116.157 43.6683 116.301 43.9239C116.445 44.1773 116.651 44.3772 116.917 44.5235C117.186 44.6677 117.507 44.7398 117.881 44.7398C118.254 44.7398 118.575 44.6677 118.844 44.5235C119.113 44.3772 119.318 44.1773 119.46 43.9239C119.604 43.6683 119.676 43.3767 119.676 43.049V38.6712Z" fill="white"/>
<path d="M122.112 45.382V38.6712H124.379C124.906 38.6712 125.336 38.7662 125.67 38.9563C126.007 39.1441 126.256 39.3986 126.417 39.7198C126.579 40.0409 126.66 40.3992 126.66 40.7946C126.66 41.19 126.579 41.5493 126.417 41.8726C126.258 42.1959 126.011 42.4537 125.677 42.6459C125.343 42.836 124.915 42.931 124.392 42.931H122.767V42.2101H124.366C124.727 42.2101 125.016 42.1479 125.235 42.0233C125.453 41.8988 125.611 41.7306 125.71 41.5187C125.81 41.3046 125.86 41.0633 125.86 40.7946C125.86 40.5259 125.81 40.2856 125.71 40.0737C125.611 39.8618 125.452 39.6957 125.231 39.5756C125.011 39.4533 124.718 39.3921 124.353 39.3921H122.924V45.382H122.112Z" fill="white"/>
</svg>
