<svg width="115" height="52" viewBox="0 0 115 52" fill="none" xmlns="http://www.w3.org/2000/svg">
<path d="M28.6393 28.0319C28.8526 27.9786 29.0526 28.0186 29.2393 28.1519C29.426 28.2586 29.5326 28.4186 29.5593 28.6319C29.6126 28.8186 29.586 29.0052 29.4793 29.1919C29.3726 29.3786 29.2126 29.6186 28.9993 29.9119C28.786 30.2052 28.3993 30.6852 27.8393 31.3519C27.306 31.9919 26.7593 32.5652 26.1993 33.0719C25.6393 33.5786 24.9593 34.0319 24.1593 34.4319C23.386 34.8319 22.6526 35.0319 21.9593 35.0319C21.266 35.0319 20.666 34.8986 20.1593 34.6319C19.6526 34.3652 19.266 34.0719 18.9993 33.7519C18.7326 33.4319 18.506 32.9919 18.3193 32.4319C18.1326 31.8452 18.0126 31.4052 17.9593 31.1119C17.906 30.7919 17.8393 30.3652 17.7593 29.8319C17.7326 29.4586 17.706 29.1919 17.6793 29.0319C17.2793 29.4852 16.5593 30.5519 15.5193 32.2319C14.266 34.2586 13.2926 35.6986 12.5993 36.5519C11.906 37.3786 11.2393 37.7919 10.5993 37.7919C10.2526 37.7919 9.97263 37.6586 9.7593 37.3919C9.5193 37.1252 9.37263 36.6852 9.3193 36.0719C9.29263 35.4586 9.3193 34.7386 9.3993 33.9119C9.4793 33.0586 9.6393 31.7919 9.8793 30.1119C10.386 26.4319 10.5593 24.2586 10.3993 23.5919C9.49263 23.8852 8.2793 25.2986 6.7593 27.8319C5.7193 29.5119 4.4393 31.9386 2.9193 35.1119C2.81263 35.3519 2.73263 35.5252 2.6793 35.6319C2.62597 35.7386 2.5593 35.8719 2.4793 36.0319C2.42597 36.1652 2.37263 36.2719 2.3193 36.3519C2.2393 36.5119 2.17263 36.6319 2.1193 36.7119C2.09263 36.7919 2.0393 36.8719 1.9593 36.9519C1.8793 37.0586 1.7993 37.1252 1.7193 37.1519C1.61263 37.2052 1.49263 37.2319 1.3593 37.2319C0.985966 37.2319 0.719299 37.0452 0.559299 36.6719C0.239299 35.9252 0.532633 33.5652 1.4393 29.5919C2.3993 25.4586 3.34597 22.9252 4.2793 21.9919C4.54597 21.7252 4.8393 21.6452 5.1593 21.7519C5.50597 21.8319 5.7193 22.0586 5.7993 22.4319C5.93263 22.9386 5.78597 23.7519 5.3593 24.8719C4.9593 25.9919 4.34597 26.9786 3.5193 27.8319C3.09263 29.3519 2.73263 30.9252 2.4393 32.5519C4.14597 29.0852 5.65263 26.4719 6.9593 24.7119C8.26597 22.9252 9.4793 22.0319 10.5993 22.0319C10.9726 22.0319 11.2793 22.1652 11.5193 22.4319C11.786 22.7252 11.946 23.2186 11.9993 23.9119C12.0526 24.5786 12.026 25.3786 11.9193 26.3119C11.8393 27.2186 11.6793 28.5519 11.4393 30.3119C10.986 33.4319 10.7993 35.3519 10.8793 36.0719C11.4393 35.6186 12.546 34.0719 14.1993 31.4319C15.266 29.7252 16.026 28.5919 16.4793 28.0319C16.9593 27.4452 17.426 27.1519 17.8793 27.1519C18.0926 27.1519 18.2793 27.2052 18.4393 27.3119C18.5993 27.4186 18.7193 27.5386 18.7993 27.6719C18.906 27.8052 18.9993 28.0052 19.0793 28.2719C19.1593 28.5119 19.1993 28.7252 19.1993 28.9119C19.226 29.0719 19.266 29.3119 19.3193 29.6319C19.4793 30.9652 19.7193 31.9386 20.0393 32.5519C20.386 33.1652 21.026 33.4719 21.9593 33.4719C22.706 33.4719 23.5326 33.1252 24.4393 32.4319C25.346 31.7386 26.0926 31.0452 26.6793 30.3519C27.266 29.6586 27.7593 28.9919 28.1593 28.3519C28.2926 28.1919 28.4526 28.0852 28.6393 28.0319Z" fill="white"/>
<path d="M66.3209 12.3919C66.5342 12.4186 66.7075 12.5119 66.8409 12.6719C67.0009 12.8052 67.0675 12.9919 67.0409 13.2319C67.0409 13.4452 66.9609 13.6319 66.8009 13.7919C66.6409 13.9252 66.4542 13.9786 66.2409 13.9519C62.8542 13.8186 58.9075 13.8719 54.4009 14.1119C54.1875 14.7786 53.9875 15.4452 53.8009 16.1119C51.1609 24.6186 49.3742 32.0186 48.4409 38.3119C47.7209 43.1919 47.7475 46.0986 48.5209 47.0319C48.6542 47.1919 48.7075 47.3786 48.6809 47.5919C48.6809 47.8052 48.5875 47.9786 48.4009 48.1119C48.2675 48.2452 48.1075 48.3119 47.9209 48.3119C47.6809 48.3119 47.4809 48.2186 47.3209 48.0319C46.4142 46.9386 46.1742 44.3919 46.6009 40.3919C46.9475 37.0586 47.7209 32.8986 48.9209 27.9119C49.3742 25.9652 49.8942 23.9652 50.4809 21.9119C49.8942 23.0052 49.3209 24.0319 48.7609 24.9919C47.4009 27.4452 46.1209 29.5519 44.9209 31.3119C43.7209 33.0719 42.7475 34.3652 42.0009 35.1919C41.2809 36.0186 40.5875 36.6586 39.9209 37.1119C39.2542 37.5652 38.8009 37.8186 38.5609 37.8719C38.3209 37.9252 38.0409 37.9519 37.7209 37.9519C36.8142 37.9519 36.1475 37.6319 35.7209 36.9919C35.4542 36.6452 35.2942 36.2052 35.2409 35.6719C35.1875 35.1386 35.2142 34.5386 35.3209 33.8719C35.4542 33.2052 35.6142 32.5519 35.8009 31.9119C36.0142 31.2452 36.2809 30.4852 36.6009 29.6319C35.3475 31.0186 34.1609 32.1519 33.0409 33.0319C31.9475 33.9119 30.8809 34.3519 29.8409 34.3519C29.6275 34.3519 29.4275 34.3386 29.2409 34.3119C29.0542 34.2586 28.8675 34.1919 28.6809 34.1119C28.4942 34.0052 28.2942 33.8452 28.0809 33.6319C27.8675 33.4186 27.7209 33.1119 27.6409 32.7119C27.5342 32.2852 27.5075 31.7786 27.5609 31.1919C27.6409 30.3386 27.9209 29.3652 28.4009 28.2719C28.8809 27.1519 29.4809 26.0986 30.2009 25.1119C30.9209 24.0986 31.7875 23.2452 32.8009 22.5519C33.8142 21.8586 34.8275 21.5119 35.8409 21.5119C36.8809 21.5119 37.6409 21.8986 38.1209 22.6719C38.3875 23.0986 38.5209 23.5919 38.5209 24.1519C38.5209 24.7119 38.4275 25.1519 38.2409 25.4719C38.1342 25.6852 37.9742 25.8186 37.7609 25.8719C37.5742 25.9252 37.3742 25.9119 37.1609 25.8319C36.9742 25.7252 36.8409 25.5786 36.7609 25.3919C36.7075 25.1786 36.7342 24.9786 36.8409 24.7919C37.0542 24.3386 37.0409 23.9119 36.8009 23.5119C36.6142 23.2186 36.2942 23.0719 35.8409 23.0719C34.8809 23.0719 33.8809 23.5519 32.8409 24.5119C31.8009 25.4719 30.9342 26.5919 30.2409 27.8719C29.5742 29.1519 29.2009 30.3119 29.1209 31.3519C29.0142 32.2319 29.1609 32.7119 29.5609 32.7919C29.9075 32.8452 30.3342 32.7652 30.8409 32.5519C31.3475 32.3386 31.8009 32.0719 32.2009 31.7519C32.6275 31.4319 33.1209 30.9919 33.6809 30.4319C34.2675 29.8452 34.7075 29.3919 35.0009 29.0719C35.2942 28.7252 35.6809 28.2852 36.1609 27.7519C36.8275 26.9786 37.2809 26.4852 37.5209 26.2719C37.7875 26.0319 38.0409 25.9119 38.2809 25.9119C38.5475 25.8852 38.7609 25.9652 38.9209 26.1519C39.0809 26.3119 39.1609 26.5119 39.1609 26.7519C39.1609 26.9919 39.1075 27.2586 39.0009 27.5519C38.9209 27.8452 38.7342 28.3652 38.4409 29.1119C36.9475 33.0319 36.4675 35.3652 37.0009 36.1119C37.1342 36.2986 37.3742 36.3919 37.7209 36.3919C37.8809 36.3919 38.0409 36.3652 38.2009 36.3119C38.3875 36.2586 38.6409 36.1252 38.9609 35.9119C39.2809 35.6986 39.6142 35.4186 39.9609 35.0719C40.3342 34.7252 40.7742 34.2452 41.2809 33.6319C41.8142 33.0186 42.3742 32.2986 42.9609 31.4719C43.5475 30.6452 44.2275 29.6186 45.0009 28.3919C45.7742 27.1386 46.5742 25.7519 47.4009 24.2319C49.1075 21.2186 50.8409 17.8852 52.6009 14.2319C47.5075 14.5786 43.1609 15.1919 39.5609 16.0719C37.9875 17.0852 36.4942 17.5919 35.0809 17.5919C34.7342 17.5919 34.4809 17.5519 34.3209 17.4719C34.0275 17.2852 33.8942 17.0186 33.9209 16.6719C33.9475 16.3252 34.1609 16.0852 34.5609 15.9519C39.0409 14.2186 45.2809 13.1119 53.2809 12.6319C54.4275 9.1119 55.4675 6.37856 56.4009 4.43189C56.9609 3.2319 57.4275 2.41856 57.8009 1.9919C58.1742 1.56523 58.5475 1.3519 58.9209 1.3519C59.3209 1.3519 59.6142 1.52523 59.8009 1.87189C60.3609 2.83189 58.8675 6.37856 55.3209 12.5119C59.4009 12.2986 63.0675 12.2586 66.3209 12.3919Z" fill="white"/>
<path d="M74.8062 28.3519C75.0195 28.2986 75.2195 28.3252 75.4062 28.4319C75.6195 28.5119 75.7528 28.6586 75.8062 28.8719C75.8595 29.0852 75.8328 29.2852 75.7262 29.4719C75.0595 30.7252 74.2728 32.0052 73.3662 33.3119C71.4728 36.0319 69.8995 37.3919 68.6462 37.3919C68.0595 37.3919 67.5662 37.1786 67.1662 36.7519C66.6328 36.1919 66.3262 35.2186 66.2462 33.8319C66.1662 32.4186 66.2062 30.9652 66.3662 29.4719C66.5795 26.6186 66.5528 25.0319 66.2862 24.7119C65.6728 24.7652 64.6728 25.7519 63.2862 27.6719C62.3528 28.9519 60.9128 31.2186 58.9662 34.4719C57.1528 37.4319 55.8462 39.4319 55.0462 40.4719C54.2728 41.5386 53.5795 42.0719 52.9662 42.0719C52.5128 42.0719 52.2062 41.8319 52.0462 41.3519C51.9662 41.1652 51.9262 40.9119 51.9262 40.5919C51.9262 38.1652 53.8195 30.8319 57.6062 18.5919C59.0195 13.9786 60.3528 9.8319 61.6062 6.1519C62.1928 4.4719 62.6595 3.13856 63.0062 2.1519C63.3262 1.32523 63.5662 0.791895 63.7262 0.551895C63.8862 0.311895 64.1128 0.191895 64.4062 0.191895C64.7528 0.191895 65.0062 0.351895 65.1662 0.671896C65.4862 1.28523 65.2062 3.01856 64.3262 5.8719C63.4195 8.88523 62.3795 11.1519 61.2062 12.6719C61.1528 12.7252 61.0995 12.7786 61.0462 12.8319C60.2195 15.4452 59.3928 18.0986 58.5662 20.7919C55.5528 30.6852 53.8728 37.0586 53.5262 39.9119C54.2195 39.0852 55.5795 37.0052 57.6062 33.6719C59.8462 29.9652 61.6062 27.2852 62.8862 25.6319C64.1662 23.9786 65.3128 23.1519 66.3262 23.1519C66.7528 23.1519 67.1128 23.3119 67.4062 23.6319C67.7795 24.0319 67.9928 24.7519 68.0462 25.7919C68.1262 26.8052 68.0862 28.0719 67.9262 29.5919C67.6862 33.1386 67.8062 35.1786 68.2862 35.7119C68.3928 35.7919 68.5128 35.8319 68.6462 35.8319C69.0195 35.8319 69.5395 35.4719 70.2062 34.7519C70.8995 34.0319 71.6062 33.1386 72.3262 32.0719C73.0728 31.0052 73.7528 29.8852 74.3662 28.7119C74.4728 28.5252 74.6195 28.4052 74.8062 28.3519Z" fill="white"/>
<path d="M88.3746 28.4719C88.5879 28.4452 88.7746 28.5119 88.9346 28.6719C89.0946 28.8052 89.1746 28.9786 89.1746 29.1919C89.2013 29.4052 89.1479 29.5919 89.0146 29.7519C88.8013 29.9919 88.5213 30.2986 88.1746 30.6719C87.8279 31.0452 87.188 31.6452 86.2546 32.4719C85.3213 33.2986 84.4013 34.0319 83.4946 34.6719C82.5879 35.2852 81.5079 35.8452 80.2546 36.3519C79.0279 36.8586 77.8679 37.1119 76.7746 37.1119C75.6013 37.1119 74.6813 36.7652 74.0146 36.0719C73.3479 35.3786 73.0146 34.4186 73.0146 33.1919C73.0146 31.1652 73.7213 29.0719 75.1346 26.9119C75.8546 25.7919 76.6279 24.9252 77.4546 24.3119C78.2813 23.6986 79.0813 23.3919 79.8546 23.3919C80.6546 23.3919 81.2679 23.6319 81.6946 24.1119C82.0946 24.5386 82.2946 25.0852 82.2946 25.7519C82.2946 26.8986 81.8279 28.0452 80.8946 29.1919C79.9879 30.3386 79.0013 30.9119 77.9346 30.9119C76.8679 30.9119 76.0546 30.4319 75.4946 29.4719C74.8813 30.8319 74.5746 32.0719 74.5746 33.1919C74.5746 33.9652 74.7479 34.5519 75.0946 34.9519C75.4413 35.3519 76.0013 35.5519 76.7746 35.5519C77.4679 35.5519 78.2013 35.4319 78.9746 35.1919C79.7746 34.9252 80.5079 34.6052 81.1746 34.2319C81.8413 33.8586 82.5213 33.4186 83.2146 32.9119C83.9346 32.3786 84.5479 31.8986 85.0546 31.4719C85.5613 31.0186 86.0413 30.5652 86.4946 30.1119C86.9746 29.6586 87.2946 29.3386 87.4546 29.1519C87.6146 28.9652 87.7346 28.8319 87.8146 28.7519C87.9746 28.5919 88.1613 28.4986 88.3746 28.4719ZM79.8546 24.9519C79.3479 24.9519 78.7746 25.2186 78.1346 25.7519C77.5213 26.2852 76.9346 26.9786 76.3746 27.8319C76.4813 27.9119 76.548 28.0052 76.5746 28.1119C76.868 28.9386 77.3213 29.3519 77.9346 29.3519C78.3346 29.3519 78.7479 29.1519 79.1746 28.7519C79.6279 28.3252 80.0013 27.8319 80.2946 27.2719C80.5879 26.7119 80.7346 26.2052 80.7346 25.7519C80.7346 25.4852 80.6679 25.2852 80.5346 25.1519C80.4279 25.0186 80.2013 24.9519 79.8546 24.9519Z" fill="white"/>
<path d="M100.647 37.5519C99.5808 38.6986 98.4874 39.2719 97.3674 39.2719C95.7408 39.2719 94.5141 38.4052 93.6874 36.6719C93.2608 35.7652 92.9808 34.6986 92.8474 33.4719C90.8741 35.6586 89.1141 36.7519 87.5674 36.7519C86.6874 36.7519 86.1408 36.3252 85.9274 35.4719C85.6074 34.2986 86.1408 32.2719 87.5274 29.3919C88.8341 26.7252 89.7408 25.2452 90.2474 24.9519C90.6208 24.7386 90.9541 24.7786 91.2474 25.0719C91.4874 25.3119 91.5808 25.6852 91.5274 26.1919C91.4474 26.7786 91.2208 27.3786 90.8474 27.9919C90.5008 28.6052 90.0208 29.0852 89.4074 29.4319C89.3541 29.4852 89.2874 29.5119 89.2074 29.5119C88.9941 29.9386 88.7941 30.3386 88.6074 30.7119C88.1808 31.6719 87.8608 32.5119 87.6474 33.2319C87.4341 33.9519 87.3408 34.4319 87.3674 34.6719C87.3941 34.8852 87.4208 35.0586 87.4474 35.1919C87.4741 35.1919 87.5141 35.1919 87.5674 35.1919C88.2608 35.1919 89.1008 34.7786 90.0874 33.9519C91.0741 33.1252 91.9674 32.1652 92.7674 31.0719C92.9274 28.7519 93.5408 27.5919 94.6074 27.5919C94.9274 27.5919 95.1941 27.7119 95.4074 27.9519C95.5674 28.1386 95.6474 28.3786 95.6474 28.6719C95.6474 29.3386 95.2074 30.3119 94.3274 31.5919C94.2741 33.1652 94.4874 34.5386 94.9674 35.7119C95.5274 37.0452 96.3274 37.7119 97.3674 37.7119C98.0341 37.7119 98.7408 37.3119 99.4874 36.5119C100.474 35.4186 101.301 33.8852 101.967 31.9119C102.634 29.9119 102.901 27.8986 102.767 25.8719C102.767 25.7652 102.767 25.6586 102.767 25.5519C102.767 25.5252 102.767 25.4986 102.767 25.4719C102.767 25.4986 102.767 25.5119 102.767 25.5119C102.767 25.2719 102.794 25.0986 102.847 24.9919C103.061 24.6719 103.341 24.5519 103.687 24.6319C104.061 24.7119 104.261 24.9519 104.287 25.3519C104.314 25.4586 104.327 25.5652 104.327 25.6719C104.514 26.8719 105.047 27.7652 105.927 28.3519C107.474 29.3652 109.874 29.2052 113.127 27.8719C113.261 27.8186 113.394 27.8052 113.527 27.8319C113.661 27.8586 113.781 27.9119 113.887 27.9919C114.021 28.0719 114.114 28.1786 114.167 28.3119C114.247 28.4986 114.247 28.6986 114.167 28.9119C114.087 29.0986 113.941 29.2319 113.727 29.3119C109.327 31.1252 106.154 31.0052 104.207 28.9519C103.994 30.6319 103.567 32.2452 102.927 33.7919C102.314 35.3119 101.554 36.5652 100.647 37.5519Z" fill="white"/>
<path d="M74.2803 51.8083C73.6666 51.8083 73.1382 51.6634 72.695 51.3736C72.2518 51.0838 71.9109 50.6847 71.6723 50.1762C71.4337 49.6676 71.3143 49.0867 71.3143 48.4333C71.3143 47.7685 71.4365 47.1818 71.6808 46.6733C71.928 46.162 72.2717 45.7628 72.7121 45.4759C73.1553 45.1861 73.6723 45.0412 74.2632 45.0412C74.7234 45.0412 75.1382 45.1264 75.5075 45.2969C75.8768 45.4674 76.1794 45.706 76.4152 46.0128C76.651 46.3196 76.7973 46.6776 76.8541 47.0867H75.8484C75.7717 46.7884 75.6013 46.5242 75.3371 46.2941C75.0757 46.0611 74.7234 45.9446 74.2803 45.9446C73.8882 45.9446 73.5445 46.0469 73.249 46.2514C72.9564 46.4531 72.7277 46.7387 72.5629 47.108C72.401 47.4745 72.32 47.9049 72.32 48.3992C72.32 48.9049 72.3996 49.3452 72.5587 49.7202C72.7206 50.0952 72.9479 50.3864 73.2405 50.5938C73.5359 50.8012 73.8825 50.9049 74.2803 50.9049C74.5416 50.9049 74.7788 50.8594 74.9919 50.7685C75.205 50.6776 75.3854 50.5469 75.5331 50.3764C75.6808 50.206 75.7859 50.0014 75.8484 49.7628H76.8541C76.7973 50.1492 76.6567 50.4972 76.4322 50.8068C76.2107 51.1137 75.9166 51.358 75.5501 51.5398C75.1865 51.7188 74.7632 51.8083 74.2803 51.8083Z" fill="white"/>
<path d="M80.9834 51.8083C80.3925 51.8083 79.874 51.6676 79.428 51.3864C78.9848 51.1051 78.6382 50.7117 78.3882 50.206C78.141 49.7003 78.0175 49.1094 78.0175 48.4333C78.0175 47.7514 78.141 47.1563 78.3882 46.6478C78.6382 46.1392 78.9848 45.7443 79.428 45.4631C79.874 45.1818 80.3925 45.0412 80.9834 45.0412C81.5743 45.0412 82.0913 45.1818 82.5345 45.4631C82.9805 45.7443 83.3271 46.1392 83.5743 46.6478C83.8243 47.1563 83.9493 47.7514 83.9493 48.4333C83.9493 49.1094 83.8243 49.7003 83.5743 50.206C83.3271 50.7117 82.9805 51.1051 82.5345 51.3864C82.0913 51.6676 81.5743 51.8083 80.9834 51.8083ZM80.9834 50.9049C81.4322 50.9049 81.8016 50.7898 82.0913 50.5597C82.3811 50.3296 82.5956 50.027 82.7348 49.652C82.874 49.277 82.9436 48.8708 82.9436 48.4333C82.9436 47.9958 82.874 47.5881 82.7348 47.2103C82.5956 46.8324 82.3811 46.527 82.0913 46.2941C81.8016 46.0611 81.4322 45.9446 80.9834 45.9446C80.5345 45.9446 80.1652 46.0611 79.8754 46.2941C79.5856 46.527 79.3712 46.8324 79.232 47.2103C79.0928 47.5881 79.0231 47.9958 79.0231 48.4333C79.0231 48.8708 79.0928 49.277 79.232 49.652C79.3712 50.027 79.5856 50.3296 79.8754 50.5597C80.1652 50.7898 80.5345 50.9049 80.9834 50.9049Z" fill="white"/>
<path d="M88.1435 51.8083C87.5526 51.8083 87.0342 51.6676 86.5881 51.3864C86.145 51.1051 85.7984 50.7117 85.5484 50.206C85.3012 49.7003 85.1776 49.1094 85.1776 48.4333C85.1776 47.7514 85.3012 47.1563 85.5484 46.6478C85.7984 46.1392 86.145 45.7443 86.5881 45.4631C87.0342 45.1818 87.5526 45.0412 88.1435 45.0412C88.7344 45.0412 89.2515 45.1818 89.6947 45.4631C90.1407 45.7443 90.4873 46.1392 90.7344 46.6478C90.9844 47.1563 91.1094 47.7514 91.1094 48.4333C91.1094 49.1094 90.9844 49.7003 90.7344 50.206C90.4873 50.7117 90.1407 51.1051 89.6947 51.3864C89.2515 51.6676 88.7344 51.8083 88.1435 51.8083ZM88.1435 50.9049C88.5924 50.9049 88.9617 50.7898 89.2515 50.5597C89.5413 50.3296 89.7557 50.027 89.895 49.652C90.0342 49.277 90.1038 48.8708 90.1038 48.4333C90.1038 47.9958 90.0342 47.5881 89.895 47.2103C89.7557 46.8324 89.5413 46.527 89.2515 46.2941C88.9617 46.0611 88.5924 45.9446 88.1435 45.9446C87.6947 45.9446 87.3253 46.0611 87.0356 46.2941C86.7458 46.527 86.5313 46.8324 86.3921 47.2103C86.2529 47.5881 86.1833 47.9958 86.1833 48.4333C86.1833 48.8708 86.2529 49.277 86.3921 49.652C86.5313 50.027 86.7458 50.3296 87.0356 50.5597C87.3253 50.7898 87.6947 50.9049 88.1435 50.9049Z" fill="white"/>
<path d="M93.3776 51.7401C93.1673 51.7401 92.9869 51.6648 92.8364 51.5142C92.6858 51.3637 92.6105 51.1833 92.6105 50.973C92.6105 50.7628 92.6858 50.5824 92.8364 50.4318C92.9869 50.2813 93.1673 50.206 93.3776 50.206C93.5878 50.206 93.7682 50.2813 93.9187 50.4318C94.0693 50.5824 94.1446 50.7628 94.1446 50.973C94.1446 51.1122 94.1091 51.2401 94.0381 51.3566C93.9699 51.473 93.8776 51.5668 93.7611 51.6378C93.6474 51.706 93.5196 51.7401 93.3776 51.7401Z" fill="white"/>
</svg>
