<svg width="152" height="50" viewBox="0 0 152 50" fill="none" xmlns="http://www.w3.org/2000/svg">
<path d="M46.8003 16.6667V33.3333L31.4768 41.6667V25L46.8003 16.6667Z" fill="white"/>
<path d="M31.4768 25V41.6667L16.1238 50V33.3333L31.4768 25Z" fill="white"/>
<path d="M16.1238 50L0.800293 41.6667V25L16.1238 33.3333V50Z" fill="white"/>
<path d="M0.800293 8.33333L16.1238 0L31.4768 8.33333L16.1238 16.6667L0.800293 8.33333Z" fill="white"/>
<path d="M16.1238 33.3333L0.800293 25V8.33333L16.1238 16.6667V33.3333Z" fill="white"/>
<path d="M68.3344 21.5V19.9659L77.7435 5.92045H68.2321V4.04545H80.2662V5.57954L70.8571 19.625H80.3685V21.5H68.3344Z" fill="white"/>
<path d="M95.3685 4.04545H97.4821V15.6023C97.4821 16.7955 97.2009 17.8608 96.6384 18.7983C96.0815 19.7301 95.2946 20.4659 94.2776 21.0057C93.2605 21.5398 92.0673 21.8068 90.698 21.8068C89.3287 21.8068 88.1355 21.5398 87.1185 21.0057C86.1014 20.4659 85.3117 19.7301 84.7492 18.7983C84.1923 17.8608 83.9139 16.7955 83.9139 15.6023V4.04545H86.0276V15.4318C86.0276 16.2841 86.2151 17.0426 86.5901 17.7074C86.9651 18.3665 87.4992 18.8864 88.1923 19.267C88.8912 19.642 89.7264 19.8295 90.698 19.8295C91.6696 19.8295 92.5048 19.642 93.2037 19.267C93.9026 18.8864 94.4367 18.3665 94.806 17.7074C95.181 17.0426 95.3685 16.2841 95.3685 15.4318V4.04545Z" fill="white"/>
<path d="M101.703 4.04545H104.226L110.158 18.5341H110.362L116.294 4.04545H118.817V21.5H116.839V8.23864H116.669L111.214 21.5H109.305L103.851 8.23864H103.68V21.5H101.703V4.04545Z" fill="white"/>
<path d="M123.77 21.5H121.555L127.964 4.04545H130.145L136.555 21.5H134.339L129.123 6.80682H128.986L123.77 21.5ZM124.589 14.6818H133.52V16.5568H124.589V14.6818Z" fill="white"/>
<path d="M139.273 21.5V4.04545H145.171C146.535 4.04545 147.654 4.27841 148.529 4.74432C149.404 5.20454 150.052 5.83807 150.472 6.64489C150.893 7.4517 151.103 8.36932 151.103 9.39773C151.103 10.4261 150.893 11.3381 150.472 12.1335C150.052 12.929 149.407 13.554 148.538 14.0085C147.668 14.4574 146.557 14.6818 145.205 14.6818H140.432V12.7727H145.137C146.069 12.7727 146.819 12.6364 147.387 12.3636C147.961 12.0909 148.376 11.7045 148.631 11.2045C148.893 10.6989 149.023 10.0966 149.023 9.39773C149.023 8.69886 148.893 8.08807 148.631 7.56534C148.37 7.04261 147.952 6.6392 147.378 6.35511C146.805 6.06534 146.046 5.92045 145.103 5.92045H141.387V21.5H139.273ZM147.489 13.6591L151.785 21.5H149.33L145.103 13.6591H147.489Z" fill="white"/>
<path d="M82.9594 33.5H80.8457C80.7207 32.892 80.502 32.358 80.1895 31.8977C79.8827 31.4375 79.5077 31.0511 79.0645 30.7386C78.627 30.4205 78.1412 30.1818 77.6071 30.0227C77.073 29.8636 76.5162 29.7841 75.9367 29.7841C74.8798 29.7841 73.9225 30.0511 73.0645 30.5852C72.2122 31.1193 71.5332 31.9062 71.0276 32.946C70.5276 33.9858 70.2776 35.2614 70.2776 36.7727C70.2776 38.2841 70.5276 39.5597 71.0276 40.5994C71.5332 41.6392 72.2122 42.4261 73.0645 42.9602C73.9225 43.4943 74.8798 43.7614 75.9367 43.7614C76.5162 43.7614 77.073 43.6818 77.6071 43.5227C78.1412 43.3636 78.627 43.1278 79.0645 42.8153C79.5077 42.4972 79.8827 42.108 80.1895 41.6477C80.502 41.1818 80.7207 40.6477 80.8457 40.0455H82.9594C82.8003 40.9375 82.5105 41.7358 82.0901 42.4403C81.6696 43.1449 81.1469 43.7443 80.5219 44.2386C79.8969 44.7273 79.1952 45.0994 78.4168 45.3551C77.644 45.6108 76.8173 45.7386 75.9367 45.7386C74.448 45.7386 73.1242 45.375 71.9651 44.6477C70.806 43.9205 69.894 42.8864 69.2293 41.5455C68.5645 40.2045 68.2321 38.6136 68.2321 36.7727C68.2321 34.9318 68.5645 33.3409 69.2293 32C69.894 30.6591 70.806 29.625 71.9651 28.8977C73.1242 28.1705 74.448 27.8068 75.9367 27.8068C76.8173 27.8068 77.644 27.9347 78.4168 28.1903C79.1952 28.446 79.8969 28.821 80.5219 29.3153C81.1469 29.804 81.6696 30.4006 82.0901 31.1051C82.5105 31.804 82.8003 32.6023 82.9594 33.5Z" fill="white"/>
<path d="M101.102 36.7727C101.102 38.6136 100.77 40.2045 100.105 41.5455C99.4402 42.8864 98.5283 43.9205 97.3692 44.6477C96.2101 45.375 94.8862 45.7386 93.3976 45.7386C91.909 45.7386 90.5851 45.375 89.426 44.6477C88.2669 43.9205 87.355 42.8864 86.6902 41.5455C86.0254 40.2045 85.693 38.6136 85.693 36.7727C85.693 34.9318 86.0254 33.3409 86.6902 32C87.355 30.6591 88.2669 29.625 89.426 28.8977C90.5851 28.1705 91.909 27.8068 93.3976 27.8068C94.8862 27.8068 96.2101 28.1705 97.3692 28.8977C98.5283 29.625 99.4402 30.6591 100.105 32C100.77 33.3409 101.102 34.9318 101.102 36.7727ZM99.0567 36.7727C99.0567 35.2614 98.8038 33.9858 98.2982 32.946C97.7982 31.9062 97.1192 31.1193 96.2612 30.5852C95.409 30.0511 94.4544 29.7841 93.3976 29.7841C92.3408 29.7841 91.3834 30.0511 90.5254 30.5852C89.6732 31.1193 88.9942 31.9062 88.4885 32.946C87.9885 33.9858 87.7385 35.2614 87.7385 36.7727C87.7385 38.2841 87.9885 39.5597 88.4885 40.5994C88.9942 41.6392 89.6732 42.4261 90.5254 42.9602C91.3834 43.4943 92.3408 43.7614 93.3976 43.7614C94.4544 43.7614 95.409 43.4943 96.2612 42.9602C97.1192 42.4261 97.7982 41.6392 98.2982 40.5994C98.8038 39.5597 99.0567 38.2841 99.0567 36.7727Z" fill="white"/>
<path d="M118.497 28.0455V45.5H116.452L106.94 31.7955H106.77V45.5H104.656V28.0455H106.702L116.247 41.7841H116.417V28.0455H118.497Z" fill="white"/>
<path d="M132.272 32.4091C132.17 31.5455 131.755 30.875 131.028 30.3977C130.3 29.9205 129.408 29.6818 128.351 29.6818C127.579 29.6818 126.903 29.8068 126.323 30.0568C125.749 30.3068 125.3 30.6506 124.976 31.0881C124.658 31.5256 124.499 32.0227 124.499 32.5795C124.499 33.0455 124.61 33.446 124.832 33.7812C125.059 34.1108 125.349 34.3864 125.701 34.608C126.053 34.8239 126.422 35.0028 126.809 35.1449C127.195 35.2812 127.55 35.392 127.874 35.4773L129.647 35.9545C130.101 36.0739 130.607 36.2386 131.164 36.4489C131.726 36.6591 132.263 36.946 132.775 37.3097C133.292 37.6676 133.718 38.1278 134.053 38.6903C134.388 39.2528 134.556 39.9432 134.556 40.7614C134.556 41.7045 134.309 42.5568 133.814 43.3182C133.326 44.0795 132.61 44.6847 131.667 45.1335C130.729 45.5824 129.59 45.8068 128.249 45.8068C126.999 45.8068 125.917 45.6051 125.002 45.2017C124.093 44.7983 123.377 44.2358 122.854 43.5142C122.337 42.7926 122.045 41.9545 121.976 41H124.158C124.215 41.6591 124.437 42.2045 124.823 42.6364C125.215 43.0625 125.709 43.3807 126.306 43.5909C126.908 43.7955 127.556 43.8977 128.249 43.8977C129.056 43.8977 129.78 43.767 130.422 43.5057C131.064 43.2386 131.573 42.8693 131.948 42.3977C132.323 41.9205 132.511 41.3636 132.511 40.7273C132.511 40.1477 132.349 39.6761 132.025 39.3125C131.701 38.9489 131.275 38.6534 130.746 38.4261C130.218 38.1989 129.647 38 129.033 37.8295L126.886 37.2159C125.522 36.8239 124.442 36.2642 123.647 35.5369C122.851 34.8097 122.454 33.858 122.454 32.6818C122.454 31.7045 122.718 30.8523 123.246 30.125C123.78 29.392 124.496 28.8239 125.394 28.4205C126.297 28.0114 127.306 27.8068 128.42 27.8068C129.545 27.8068 130.545 28.0085 131.42 28.4119C132.295 28.8097 132.988 29.3551 133.499 30.0483C134.016 30.7415 134.289 31.5284 134.317 32.4091H132.272Z" fill="white"/>
</svg>
