<svg width="179" height="46" viewBox="0 0 179 46" fill="none" xmlns="http://www.w3.org/2000/svg">
<path d="M5.9379 19.8126C7.89974 21.8343 10.1846 23.4133 12.7924 24.5497C15.4002 25.6862 18.1635 26.2544 21.0823 26.2544C21.3335 26.2544 21.6864 26.2424 22.141 26.2185L18.2831 29.6996C15.5078 29.1134 13.0137 27.9411 10.8006 26.1826C8.58758 24.4122 6.88293 22.2649 5.68669 19.7409H5.66874V27.4925C5.68071 28.1504 5.90799 28.7246 6.3506 29.2151C6.79321 29.7056 7.34348 29.9807 8.00142 30.0405V30.0943H0.357422V30.0405C1.01536 29.9807 1.56563 29.7056 2.00824 29.2151C2.46281 28.7246 2.6901 28.1445 2.6901 27.4746V7.18029C2.67813 6.52236 2.45085 5.95415 2.00824 5.47565C1.56563 4.98519 1.01536 4.71005 0.357422 4.65024V4.59641H12.5232C14.3894 4.59641 16.0342 4.8536 17.4577 5.36799C18.8813 5.88237 20.0177 6.68385 20.867 7.77244C21.7163 8.84905 22.141 10.147 22.141 11.6662C22.141 14.286 21.1302 16.4512 19.1085 18.1618C17.0988 19.8605 14.4671 20.6679 11.2133 20.5842C9.52663 20.5364 7.76815 20.2792 5.9379 19.8126ZM10.6212 4.95528H5.66874V19.5255C6.03958 19.6093 6.49415 19.699 7.03246 19.7947C7.57077 19.8904 8.01936 19.9681 8.37823 20.028C8.73711 20.0758 8.92851 20.0997 8.95243 20.0997C8.97636 20.0997 9.00626 20.1057 9.04215 20.1177C9.09 20.1177 9.12589 20.1177 9.14981 20.1177C9.16177 20.1177 9.1857 20.1236 9.22159 20.1356C9.25747 20.1356 9.2814 20.1356 9.29336 20.1356C9.68812 20.1835 10.2683 20.2193 11.0339 20.2433C11.0817 20.2433 11.1475 20.2493 11.2313 20.2612C11.327 20.2612 11.3928 20.2612 11.4287 20.2612C12.7206 20.2612 13.8451 20.0818 14.8021 19.7229C15.771 19.3521 16.5426 18.8377 17.1168 18.1798C17.703 17.5099 18.1396 16.7383 18.4267 15.865C18.7138 14.9918 18.8573 14.0168 18.8573 12.9402C18.8573 12.055 18.8035 11.2714 18.6958 10.5896C18.5882 9.89577 18.3609 9.184 18.014 8.45429C17.679 7.71262 17.2185 7.10254 16.6323 6.62404C16.0581 6.13358 15.2566 5.73284 14.2279 5.42182C13.2111 5.11079 12.0088 4.95528 10.6212 4.95528Z" fill="white"/>
<path d="M26.3937 13.8733C28.2478 12.0789 30.5985 11.1817 33.4455 11.1817C36.2926 11.1817 38.6372 12.0789 40.4794 13.8733C42.3336 15.6557 43.2607 17.9525 43.2607 20.7636C43.2607 23.5748 42.3336 25.8776 40.4794 27.6719C38.6372 29.4663 36.2926 30.3635 33.4455 30.3635C31.5794 30.3635 29.8987 29.9628 28.4033 29.1613C26.908 28.3478 25.7357 27.2114 24.8864 25.752C24.0371 24.2806 23.6124 22.6178 23.6124 20.7636C23.6124 17.9525 24.5395 15.6557 26.3937 13.8733ZM34.9348 29.8252C36.5498 29.8252 37.8357 29.2211 38.7927 28.0129C39.7617 26.8047 40.2462 25.1479 40.2462 23.0425C40.2462 21.9539 40.1146 20.8653 39.8514 19.7767C39.5882 18.6762 39.2054 17.6474 38.703 16.6904C38.2125 15.7334 37.6324 14.8841 36.9625 14.1424C36.2926 13.3888 35.521 12.7967 34.6477 12.366C33.7864 11.9354 32.8833 11.72 31.9382 11.72C30.3233 11.72 29.0314 12.3241 28.0624 13.5323C27.1054 14.7286 26.6269 16.3734 26.6269 18.4669C26.6269 19.8425 26.8363 21.2122 27.255 22.5759C27.6736 23.9277 28.2419 25.1419 28.9596 26.2185C29.6773 27.2832 30.5566 28.1504 31.5973 28.8203C32.65 29.4902 33.7625 29.8252 34.9348 29.8252Z" fill="white"/>
<path d="M69.6379 7.80832L70.5709 8.45429L68.1844 10.5896L66.6233 9.06438C66.1927 8.64569 65.6783 8.41841 65.0802 8.38252C64.482 8.33467 63.9437 8.49616 63.4652 8.867L63.1243 9.11821C63.0047 9.22587 62.6638 9.54288 62.1015 10.0692C61.623 10.5238 61.2043 10.9485 60.8455 11.3432C60.7857 11.415 60.6959 11.5227 60.5763 11.6662C60.4567 11.7978 60.367 11.8935 60.3072 11.9533C60.2354 12.0251 60.1875 12.0789 60.1636 12.1148L60.038 12.2763L59.7689 12.6172L59.733 12.6711C60.7857 13.3409 61.617 14.1723 62.2271 15.1652C62.8492 16.1581 63.1662 17.2287 63.1781 18.3771C63.2021 20.3868 62.3647 22.1154 60.666 23.5628C58.9674 24.9983 56.9098 25.7221 54.4934 25.734C52.9742 25.746 51.5327 25.4469 50.169 24.8368L46.1137 30.0226L53.5962 28.0488L57.3823 27.0619L57.7592 27.1516C58.0104 27.2234 58.3214 27.325 58.6922 27.4566C59.075 27.5762 59.5117 27.7377 60.0021 27.9411C60.4926 28.1325 60.989 28.3897 61.4914 28.7127C61.9939 29.0237 62.4843 29.3766 62.9628 29.7714C63.4413 30.1661 63.86 30.6386 64.2189 31.1889C64.5778 31.7511 64.8589 32.3552 65.0622 33.0012C65.2775 33.6591 65.3673 34.4188 65.3314 35.2801C65.2955 36.1413 65.122 37.0565 64.811 38.0254C64.4761 39.0662 63.86 40.0949 62.9628 41.1117C62.0656 42.1405 61.1146 42.948 60.1098 43.5341C60.0978 43.5461 60.038 43.582 59.9303 43.6418C59.8346 43.7016 59.7389 43.7554 59.6432 43.8033C59.5595 43.8631 59.4339 43.9349 59.2664 44.0186C59.1109 44.1023 58.9315 44.1861 58.7281 44.2698C58.5367 44.3536 58.3154 44.4373 58.0642 44.521C57.825 44.6167 57.5438 44.7124 57.2209 44.8081C56.8979 44.9038 56.5569 44.9935 56.1981 45.0773C54.4276 45.496 52.5495 45.6036 50.5638 45.4003C47.4296 45.0653 44.6483 43.6597 42.22 41.1835C41.5142 40.4538 40.8443 39.6224 40.2103 38.6893C38.9662 36.8471 37.6204 34.6999 36.173 32.2476C35.8859 31.7691 35.6586 31.4222 35.4911 31.2068C34.9169 30.4652 34.1453 30.0824 33.1764 30.0585V30.0405H38.3082C38.3322 30.0644 38.3561 30.1063 38.38 30.1661C38.4039 30.214 38.4219 30.2498 38.4338 30.2738C39.5105 32.1878 40.3419 33.6113 40.928 34.5444C42.6028 37.2 43.9784 39.1918 45.0551 40.5196C45.7967 41.4287 46.6042 42.2123 47.4775 42.8702C48.3507 43.5282 49.1163 44.0007 49.7742 44.2878C50.4441 44.5868 51.132 44.8081 51.8378 44.9517C52.5435 45.1072 53.028 45.1909 53.2912 45.2029C53.5663 45.2149 53.8175 45.2149 54.0448 45.2029C55.8512 45.1192 57.502 44.6885 58.9973 43.9109C60.0978 43.2411 60.9591 42.4635 61.5812 41.5783C62.5023 40.2863 63.0226 38.9525 63.1423 37.5768C63.226 36.56 63.1124 35.609 62.8013 34.7238C62.4903 33.8386 62.0298 33.067 61.4197 32.4091C60.8096 31.7631 60.1816 31.2128 59.5356 30.7583C58.8896 30.3156 58.1778 29.9149 57.4003 29.556C55.4145 28.6349 53.3689 28.4495 51.2636 28.9998L45.7907 30.4173L45.5575 30.2379L49.8998 24.6933C48.6079 24.0473 47.5732 23.186 46.7956 22.1094C46.018 21.0208 45.6233 19.8306 45.6113 18.5386V18.4848C45.6113 17.1689 45.9941 15.9547 46.7597 14.8422C47.5253 13.7297 48.578 12.8445 49.9178 12.1866C51.2576 11.5286 52.717 11.1937 54.296 11.1817C56.222 11.1578 57.9446 11.6004 59.4638 12.5096L59.5176 12.4378L59.7868 12.0969L59.9303 11.9174C59.9423 11.8935 59.9603 11.8636 59.9842 11.8277C60.0201 11.7799 60.05 11.7499 60.0739 11.738C60.3012 11.4628 60.4926 11.2415 60.6481 11.0741C61.0429 10.6434 61.4436 10.2247 61.8503 9.81801C61.8982 9.77016 61.9699 9.69839 62.0656 9.60269C62.1613 9.50699 62.2451 9.42325 62.3168 9.35148C62.3886 9.26774 62.4604 9.19597 62.5322 9.13615L63.1243 8.63373L63.1423 8.61579L63.7703 8.07748C64.6077 7.37169 65.5706 6.99488 66.6592 6.94703C67.7478 6.88722 68.7407 7.17431 69.6379 7.80832ZM48.9847 16.4572C48.889 17.6534 49.0326 18.8496 49.4154 20.0459C49.8101 21.2302 50.3724 22.2649 51.1021 23.1501L54.1525 19.2743L58.0463 14.3039C56.8261 12.5335 55.3906 11.5765 53.7398 11.4329C52.4837 11.3253 51.4071 11.738 50.5099 12.6711C49.6127 13.5922 49.1043 14.8542 48.9847 16.4572ZM59.715 20.3509C59.8705 18.3412 59.3741 16.4213 58.2257 14.591L54.3858 19.4717L51.3174 23.3834C52.406 24.6155 53.6142 25.2914 54.942 25.411C56.1981 25.5187 57.2747 25.106 58.1719 24.1729C59.081 23.2279 59.5954 21.9539 59.715 20.3509Z" fill="white"/>
<path d="M76.0079 29.9508C77.3596 30.1063 78.5439 29.8431 79.5607 29.1613C80.5775 28.4674 81.3311 27.4267 81.8216 26.0391H83.8313C82.982 27.3908 81.8276 28.4495 80.3682 29.2151C78.9087 29.9807 77.2759 30.3635 75.4695 30.3635C73.4359 30.3635 71.6296 29.885 70.0506 28.928C68.4715 27.959 67.2992 26.6492 66.5336 24.9983C66.5216 24.9625 66.4977 24.9146 66.4618 24.8548C66.4379 24.783 66.42 24.7352 66.408 24.7112C65.8936 23.503 65.6364 22.1872 65.6364 20.7636C65.6364 18.9095 66.0611 17.2527 66.9104 15.7932C67.7598 14.3219 68.9321 13.1854 70.4274 12.384C71.9227 11.5825 73.6034 11.1817 75.4695 11.1817C77.4434 11.1817 79.1958 11.6303 80.727 12.5275C82.2702 13.4247 83.4425 14.6628 84.244 16.2418C84.256 16.2658 84.2679 16.3017 84.2799 16.3495C84.3038 16.3854 84.3217 16.4093 84.3337 16.4213L84.3875 16.5289L81.6242 17.8388L79.9913 18.6104L69.2969 23.6885C69.8951 25.411 70.7743 26.8465 71.9346 27.9949C73.107 29.1314 74.4647 29.7833 76.0079 29.9508ZM68.5971 17.6773C68.3818 19.6152 68.5792 21.5233 69.1893 23.4014L81.5166 17.5338C80.8945 15.8949 80.0093 14.5372 78.8609 13.4606C77.7245 12.384 76.4086 11.7619 74.9133 11.5944C73.2266 11.403 71.809 11.8516 70.6606 12.9402C69.5242 14.0168 68.8364 15.5959 68.5971 17.6773Z" fill="white"/>
<path d="M100.591 12.061L101.524 12.7069L99.1372 14.8602L97.5761 13.317C97.1455 12.8983 96.6251 12.6711 96.015 12.6352C95.4169 12.5873 94.8786 12.7488 94.4001 13.1196L94.0233 13.4247C93.9635 13.4845 93.8618 13.5742 93.7182 13.6938C93.5867 13.8135 93.485 13.9032 93.4132 13.963C93.2218 14.1424 92.9347 14.4235 92.5519 14.8063C92.205 15.1533 91.7085 15.6975 91.0626 16.4392V27.4746C91.0626 28.1445 91.2839 28.7246 91.7265 29.2151C92.1811 29.7056 92.7373 29.9807 93.3953 30.0405V30.0943H86.0922V30.0405C86.7621 29.9807 87.3183 29.7056 87.7609 29.2151C88.2155 28.7127 88.4428 28.1325 88.4428 27.4746V18.108V18.3771V15.9189C88.4428 15.1174 88.3172 14.4475 88.066 13.9092C87.8866 13.5024 87.5875 13.2213 87.1688 13.0658C86.7501 12.9103 86.3374 12.9163 85.9307 13.0838L85.1771 13.4067L85.1053 13.2811L89.4477 11.1817C89.986 11.744 90.3867 12.3301 90.6499 12.9402C90.925 13.5383 91.0626 14.28 91.0626 15.1652V15.9547C91.5172 15.4164 91.9358 14.9499 92.3186 14.5551L93.1799 13.6938C93.3115 13.5623 93.4132 13.4666 93.485 13.4067L93.467 13.3888L94.7051 12.3301C95.5425 11.6243 96.5055 11.2475 97.5941 11.1997C98.6946 11.1399 99.6935 11.427 100.591 12.061Z" fill="white"/>
<path d="M119.27 27.8693C119.533 28.5273 119.952 29.0536 120.526 29.4484C121.112 29.8431 121.758 30.0405 122.464 30.0405V30.0943H113.761V30.0405C114.491 30.0405 115.059 29.7414 115.466 29.1433C115.885 28.5332 115.962 27.8873 115.699 27.2054L114.353 23.832L114.3 23.6705H102.959L101.488 27.0977C101.261 27.66 101.249 28.2222 101.452 28.7845C101.667 29.3467 102.044 29.7654 102.582 30.0405V30.0943H97.9529V30.0405C99.5439 29.3826 100.674 28.2641 101.344 26.685L102.224 24.6215L104.161 20.028L108.647 9.49503L106.44 3.96838L106.656 3.86072L109.275 2.62261L118.911 26.9901H118.929L119.27 27.8693ZM103.085 23.3655H114.174L114.102 23.1681L113.546 21.7685L108.791 9.88979L104.449 20.1356L103.085 23.3655Z" fill="white"/>
<path d="M137.411 12.061L138.344 12.7069L135.958 14.8602L134.396 13.317C133.966 12.8983 133.445 12.6711 132.835 12.6352C132.237 12.5873 131.699 12.7488 131.22 13.1196L130.844 13.4247C130.784 13.4845 130.682 13.5742 130.539 13.6938C130.407 13.8135 130.305 13.9032 130.234 13.963C130.042 14.1424 129.755 14.4235 129.372 14.8063C129.025 15.1533 128.529 15.6975 127.883 16.4392V27.4746C127.883 28.1445 128.104 28.7246 128.547 29.2151C129.001 29.7056 129.558 29.9807 130.216 30.0405V30.0943H122.913V30.0405C123.582 29.9807 124.139 29.7056 124.581 29.2151C125.036 28.7127 125.263 28.1325 125.263 27.4746V18.108V18.3771V15.9189C125.263 15.1174 125.138 14.4475 124.886 13.9092C124.707 13.5024 124.408 13.2213 123.989 13.0658C123.57 12.9103 123.158 12.9163 122.751 13.0838L121.997 13.4067L121.926 13.2811L126.268 11.1817C126.806 11.744 127.207 12.3301 127.47 12.9402C127.745 13.5383 127.883 14.28 127.883 15.1652V15.9547C128.338 15.4164 128.756 14.9499 129.139 14.5551L130 13.6938C130.132 13.5623 130.234 13.4666 130.305 13.4067L130.287 13.3888L131.526 12.3301C132.363 11.6243 133.326 11.2475 134.414 11.1997C135.515 11.1399 136.514 11.427 137.411 12.061Z" fill="white"/>
<path d="M144.983 20.7636C144.971 20.7756 144.965 20.7876 144.965 20.7995C144.965 20.8235 144.959 20.8354 144.947 20.8354L143.368 22.9528V27.4746C143.368 28.1445 143.59 28.7246 144.032 29.2151C144.487 29.7056 145.043 29.9807 145.701 30.0405V30.0943H138.398V30.0405C139.068 29.9807 139.624 29.7056 140.067 29.2151C140.521 28.7127 140.749 28.1325 140.749 27.4746V5.70892C140.749 5.35004 140.599 5.06892 140.3 4.86556C140.001 4.6622 139.684 4.62632 139.349 4.7579L138.218 5.18855V5.045L140.749 3.84278L143.368 2.60466V22.4503L144.983 20.2971C146 18.8257 146.814 17.6714 147.424 16.834C148.046 15.9846 148.704 15.1712 149.397 14.3936C150.091 13.6041 150.683 13.0359 151.174 12.689C151.664 12.3301 152.256 12.0131 152.95 11.738C153.644 11.4628 154.332 11.2954 155.014 11.2356C155.696 11.1757 156.539 11.1578 157.544 11.1817L156.324 13.8912C154.254 13.8673 152.49 14.2142 151.03 14.932C149.583 15.6497 148.243 16.7203 147.011 18.1439L153.309 25.2854C154.852 27.0439 155.833 28.1205 156.252 28.5153C156.922 29.1493 157.681 29.6757 158.531 30.0943H154.027L145.36 20.2612L144.983 20.7636Z" fill="white"/>
<path d="M165.192 7.92396V0.5H167.7C168.28 0.5 168.756 0.599083 169.128 0.797248C169.501 0.992997 169.776 1.26245 169.955 1.60562C170.134 1.94878 170.223 2.33907 170.223 2.77649C170.223 3.2139 170.134 3.60177 169.955 3.94011C169.776 4.27844 169.502 4.54427 169.132 4.7376C168.762 4.92852 168.29 5.02398 167.715 5.02398H165.685V4.21198H167.686C168.082 4.21198 168.401 4.15398 168.643 4.03798C168.887 3.92198 169.063 3.75765 169.172 3.54498C169.283 3.3299 169.339 3.07374 169.339 2.77649C169.339 2.47924 169.283 2.21945 169.172 1.99712C169.061 1.77478 168.883 1.6032 168.639 1.48237C168.395 1.35912 168.072 1.2975 167.671 1.2975H166.091V7.92396H165.192ZM168.686 4.58898L170.513 7.92396H169.469L167.671 4.58898H168.686Z" fill="white"/>
<path d="M171.721 0.5H172.794L175.317 6.66247H175.404L177.927 0.5H179V7.92396H178.159V2.28349H178.087L175.767 7.92396H174.955L172.635 2.28349H172.562V7.92396H171.721V0.5Z" fill="white"/>
</svg>
