<svg width="80" height="62" viewBox="0 0 80 62" fill="none" xmlns="http://www.w3.org/2000/svg">
<path d="M0.266391 13.5417C0.266391 9.85686 1.71674 6.72477 4.61745 4.14541C7.51815 1.3818 10.9368 0 14.8735 0C16.531 0 18.2922 0.368481 20.1569 1.10544L19.8461 0.829082L21.7109 1.65816H22.0217C22.6432 2.02664 23.3684 2.48724 24.1972 3.03997C24.1972 3.22421 24.508 3.59269 25.1296 4.14541C30.3094 8.75142 32.4849 15.6604 31.6561 24.8724C30.8274 38.1378 22.954 50.1134 8.03613 60.7993C7.20736 61.5363 6.27499 61.9048 5.23902 61.9048C3.58148 61.9048 2.23473 61.2599 1.19876 59.9702C-0.665978 57.7594 -0.355188 55.7327 2.13113 53.8903C14.3555 45.0468 20.9857 35.4663 22.0217 25.1488C19.7425 26.4385 17.3598 27.0833 14.8735 27.0833C10.9368 27.0833 7.51815 25.7937 4.61745 23.2143C1.71674 20.4507 0.266391 17.2265 0.266391 13.5417ZM48.4388 13.5417C48.4388 9.85686 49.8891 6.72477 52.7898 4.14541C55.6905 1.3818 59.1092 0 63.0459 0C64.7034 0 66.4646 0.368481 68.3293 1.10544L68.0185 0.829082C68.6401 1.01332 69.2617 1.28968 69.8833 1.65816H70.1941C71.0228 2.02664 71.748 2.48724 72.3696 3.03997C72.3696 3.22421 72.6804 3.59269 73.3019 4.14541C78.4818 8.75142 80.6573 15.6604 79.8285 24.8724C78.9998 38.1378 71.1264 50.1134 56.2085 60.7993C55.3797 61.5363 54.4474 61.9048 53.4114 61.9048C51.7539 61.9048 50.5107 61.2599 49.6819 59.9702C47.61 57.7594 47.8172 55.7327 50.3035 53.8903C62.5279 45.0468 69.1581 35.4663 70.1941 25.1488C67.9149 26.4385 65.5322 27.0833 63.0459 27.0833C59.1092 27.0833 55.6905 25.7937 52.7898 23.2143C49.8891 20.4507 48.4388 17.2265 48.4388 13.5417Z" fill="#689210"/>
</svg>
