<svg width="302" height="179" viewBox="0 0 302 179" fill="none" xmlns="http://www.w3.org/2000/svg">
<g clip-path="url(#clip0_568_1589)">
<path d="M75.3177 4.1675C68.8133 1.7266 62.6315 0.5 56.7756 0.5C41.8803 0.5 28.9367 5.79814 17.9683 16.3767L18.3154 16.7366L17.9809 16.365C7.00346 26.2465 1.49897 38.2692 1.49897 52.4062C1.49897 66.5417 7.0017 78.908 17.9683 89.4849L17.9745 89.4909L17.9809 89.4966C28.9512 99.3717 41.8908 104.312 56.7756 104.312C65.884 104.312 74.6223 101.998 82.9843 97.3783C78.8106 135.986 54.0994 171.922 8.69629 205.172L8.6917 205.176C3.97646 208.713 1.24078 212.488 0.630511 216.517C0.0190341 220.553 1.5604 224.713 5.10736 228.972C9.08599 233.983 14.279 236.5 20.6463 236.5C24.6563 236.5 28.263 235.055 31.4502 232.193C87.4499 191.58 117.087 146.004 120.209 95.4572C123.324 60.3918 115.148 33.9879 95.5704 16.365C94.4119 15.3222 93.5581 14.4664 92.9977 13.7938C92.7172 13.4572 92.5199 13.1779 92.3951 12.9531C92.2649 12.7187 92.2395 12.5893 92.2395 12.5402V12.2745L92.0192 12.1258C88.9065 10.0243 86.1793 8.27064 83.8385 6.86592L83.7198 6.79464H83.5812H82.5231L75.6282 3.69137L75.3177 4.1675ZM255.938 4.1577C249.443 1.72332 243.27 0.5 237.422 0.5C222.529 0.5 209.588 5.79613 198.621 16.3708C187.648 26.2512 182.145 38.2719 182.145 52.4062C182.145 66.5418 187.648 78.908 198.615 89.4849L198.621 89.4909L198.627 89.4966C209.598 99.3717 222.537 104.312 237.422 104.312C246.531 104.312 255.269 101.998 263.631 97.3783C259.457 135.986 234.746 171.922 189.343 205.172L189.338 205.176C184.621 208.714 181.974 212.498 181.565 216.541C181.158 220.577 182.996 224.724 186.91 228.963C190.117 233.989 194.937 236.5 201.293 236.5C205.303 236.5 208.909 235.055 212.097 232.193C268.096 191.58 297.734 146.004 300.856 95.4574C303.971 60.3919 295.794 33.988 276.217 16.365C275.058 15.3222 274.205 14.4664 273.644 13.7938C273.364 13.4572 273.166 13.1779 273.042 12.9531C272.911 12.7187 272.886 12.5893 272.886 12.5402V12.3175L272.72 12.1686C270.348 10.0328 267.584 8.25692 264.433 6.8387L264.335 6.79464H264.228H263.2C260.877 5.41237 258.548 4.36907 256.213 3.66842L255.938 4.1577Z" stroke="#E5C696"/>
</g>
<defs>
<clipPath id="clip0_568_1589">
<rect width="302" height="179" fill="white"/>
</clipPath>
</defs>
</svg>
