<svg width="729" height="543" viewBox="0 0 729 543" fill="none" xmlns="http://www.w3.org/2000/svg">
<g clip-path="url(#clip0_709_1739)" filter="url(#filter0_d_709_1739)">
<path d="M445.385 534.97L270.431 233.595M270.431 233.595L531.677 178.422M270.431 233.595L246.009 80.7424L215.771 534.97M531.677 178.422L526.466 534.97M531.677 178.422L725 534.97M-2.14613e-05 0L246.009 80.7721M282.458 254.33L531.335 201.767L554.573 220.633M279.431 249.109L531.44 195.894L548.809 210.013M515.835 534.97L526.519 532.716M310.459 302.562L530.546 256.109L607.785 318.817M441.2 527.762L526.861 509.727L558.047 534.97M285.51 259.55L531.256 207.67L560.362 231.311M297.853 280.819L530.914 231.638L583.837 274.619M433.41 514.325L527.098 494.599M294.748 275.479L530.993 225.616L577.916 263.703M479.307 534.97L526.651 525.004M374.198 412.374L528.756 379.804L720.158 534.97M529.151 352.692L360.224 388.287L292.59 488.756L243.904 448.295L228.114 349.815M388.488 436.994L528.335 407.539M316.854 313.596L530.361 268.538L619.97 341.272M406.831 468.555L527.835 443.075L641.26 534.97M384.882 430.765L528.44 400.508M399.436 455.83L528.045 428.748L659.129 534.97M528.23 414.539L392.119 443.223L330.301 534.97M304.116 291.646L530.73 243.799L595.758 296.599M336.486 347.412L529.809 306.655M425.7 501.066L527.282 479.679L595.574 534.97M346.539 364.735L529.519 326.144L676.34 445.24M418.094 487.955L527.519 464.907L613.996 534.97M363.697 394.25L529.046 359.396L708.842 505.218M527.414 472.263L421.884 494.481L394.567 534.97M437.279 521.029L526.967 502.163L567.521 534.97M349.934 370.579L529.414 332.729M333.17 341.687L529.914 300.189L650.971 398.402M527.598 457.61L414.305 481.458L378.224 534.97M329.88 335.992L529.993 293.781L644.681 386.864M526.519 532.746L529.282 535M566.178 242.079L531.177 213.632L288.563 264.83L274.905 285.179L265.062 276.992L242.404 135.144L204.402 155.404L-2.14613e-05 88.3658M527.072 494.629L576.916 534.97M543.072 199.424L531.519 190.05L276.405 243.918L271.905 250.622L268.668 247.922M589.758 285.594L530.809 237.718L300.985 286.217L277.984 320.448L261.404 306.655L239.93 172.341L175.954 206.424L-2.14613e-05 148.759M537.362 188.893L531.598 184.207L273.405 238.727L271.168 242.079L269.536 240.744M722.105 529.661L528.835 372.952L370.671 406.293L295.169 518.418L240.798 473.272L226.008 381.079M526.624 525.033L538.941 535M548.52 534.97L526.73 517.351L445.121 534.525L444.806 534.97M529.151 352.662L702.289 493.086M528.335 407.509L685.604 534.97M663.577 421.688L529.73 313.092L339.828 353.137L287.563 430.854L249.93 399.559M528.44 400.538L694.315 534.97M528.23 414.569L676.814 535M529.809 306.625L657.234 410.03M695.736 481.043L529.23 345.988L356.776 382.355L291.747 478.967M586.284 534.97L527.177 487.124L429.542 507.681L411.12 534.97M527.388 472.263L604.811 534.97M572.047 252.847L531.072 219.594L291.642 270.14L275.668 293.93L264.168 284.349M702.973 534.97L528.546 393.567L381.303 424.595L306.959 534.97M689.236 469.03L529.335 339.344L353.355 376.452L290.905 469.237L245.93 431.862L229.482 329.229L56.0547 421.48M667.998 534.97L528.151 421.628L395.778 449.512L338.17 534.97M632.207 534.97L527.73 450.312L410.568 474.992L370.119 534.97M638.471 375.384L530.098 287.433L326.591 330.356L284.3 393.271L253.825 367.939M715.473 517.41L528.94 366.159L367.171 400.241L294.3 508.481L241.851 464.907L226.719 370.608L24.4483 478.166M669.945 433.464L529.625 319.618L343.17 358.921L288.379 440.375L248.93 407.568L231.508 298.794M632.26 363.934L530.177 281.086L323.328 324.72L283.484 383.986M613.864 330L530.467 262.309L313.643 308.049L281.089 356.489L257.641 336.971M650.208 534.97L527.94 435.896L403.12 462.178L354.039 534.97M529.44 332.729L682.788 457.105M711.578 534.97L528.651 386.656L377.751 418.454L299.274 534.97M527.624 457.58L623.154 534.97M626.102 352.573L530.282 274.797L320.091 319.143L282.694 374.761L255.746 352.366L236.114 229.62L132.163 284.971L-2.14613e-05 241.693M601.759 307.664L530.651 249.94L307.274 297.074L279.536 338.365L259.536 321.724L238.667 191.237L161.506 232.349L-2.14613e-05 179.431M282.458 254.3L273.405 267.797L266.878 262.368L243.614 116.812M272.641 259.194L279.405 249.109M280.3 347.412L310.432 302.562M436.305 534.97L441.174 527.733M274.142 276.458L285.484 259.55M277.194 311.579L297.853 280.848M419.463 534.97L433.384 514.325M294.748 275.45L276.431 302.71L263.246 291.735L241.167 153.654M374.198 412.344L296.037 528.415L239.772 481.696L225.324 391.639M322.459 534.97L388.488 436.964M281.905 365.595L316.88 313.566M362.039 534.97L406.804 468.555M314.696 534.97L384.909 430.765M346.092 534.97L399.436 455.8M278.747 329.377L304.116 291.616M336.512 347.382L286.747 421.361L250.904 391.58M402.804 534.97L425.673 501.066M289.221 449.927L346.565 364.705M386.356 534.97L418.068 487.955M293.432 498.574L363.671 394.25M427.858 534.97L437.279 520.999M349.96 370.579L290.063 459.567L246.93 423.735L230.14 319.024M285.931 411.958L333.196 341.687M285.116 402.585L329.88 336.021M-2.14613e-05 58.6139L218.403 130.279M-2.14613e-05 43.8418L225.377 117.791L244.219 107.736L267.773 255.131L272.668 259.194M-2.14613e-05 194.885L154.216 245.401L238.009 200.758M-2.14613e-05 73.4453L211.429 142.797L243.009 125.978M-2.14613e-05 133.542L183.112 193.58L240.535 162.968L262.325 299.18L277.194 311.549M-2.14613e-05 29.1586L232.272 105.392M-2.14613e-05 118.414L190.244 180.795M-2.14613e-05 14.5348L239.167 93.0229L245.43 89.7006L269.562 240.744M-2.14613e-05 487.154L16.4479 492.523L226.035 381.079M-2.14613e-05 504.21L8.39506 506.939L225.324 391.61M-2.14613e-05 436.49L40.3172 449.66M-2.14613e-05 226.002L139.558 271.712L236.745 219.95L256.694 344.653L281.879 365.595M-2.14613e-05 337.564L86.9768 366.011L232.166 288.739L249.904 399.559M-2.14613e-05 164.065L168.743 219.357L239.298 181.774L260.483 314.189M-2.14613e-05 321.368L94.6087 352.306M-2.14613e-05 370.193L71.5815 393.597L230.824 308.88L247.93 415.637L289.221 449.956M-2.14613e-05 419.789L48.2122 435.54L228.798 339.492L244.93 440.079M-2.14613e-05 453.279L32.3959 463.868M-2.14613e-05 103.346L197.349 168.04L241.798 144.369M-2.14613e-05 403.178L56.0284 421.51M-2.14613e-05 273.314L117.241 311.698L234.798 249.109L253.825 367.909M-2.14613e-05 470.157L24.4483 478.136M-2.14613e-05 353.849L79.2923 379.774L231.482 298.794M-2.14613e-05 257.474L124.715 298.32M-2.14613e-05 210.399L146.9 258.512L237.377 210.31M-2.14613e-05 386.626L63.8444 407.509L230.166 319.024M-2.14613e-05 305.261L102.188 338.721L233.508 268.835L251.904 383.66M-2.14613e-05 521.385L0.289488 521.474L224.613 402.229L238.719 490.15L292.695 534.97M-2.14613e-05 289.243L109.741 325.165L234.14 258.927M238.035 200.758L258.615 329.347M243.009 125.949L265.983 269.636M244.825 98.6885L268.668 247.893M235.561 515.838L222.482 434.383L33.1855 534.97M226.166 534.97L218.824 489.201L132.61 534.97M223.192 423.616L236.614 507.236L270.036 534.97M220.298 467.102L231.193 535M221.745 445.24L234.482 524.499L247.114 534.97M232.824 278.772L250.904 391.61M216.587 522.838L218.534 535M227.403 360.167L242.851 456.571M215.955 534.97L215.824 534.169L214.297 534.97M241.772 144.369L264.141 284.349M218.087 500.354L223.64 535M235.456 239.35L254.799 360.137L283.51 384.016M237.403 210.34L257.667 336.971M228.693 534.97L219.561 478.107L112.504 534.97M217.324 511.566L221.087 535M234.166 258.957L252.878 375.77M258.588 329.317L280.3 347.382M265.983 269.665L274.168 276.488M235.535 515.838L258.588 534.97M260.457 314.189L278.747 329.406M244.904 440.049L291.721 478.967M242.877 456.571L293.458 498.574M281.405 534.97L237.667 498.663L223.903 412.878L4.27886e-05 531.885M235.535 535L233.403 533.22L221.034 456.126L72.6079 534.97M251.878 383.66L285.905 411.958M252.851 375.77L285.089 402.585M218.429 130.25L243.64 116.812M232.298 105.392L244.825 98.7181M190.244 180.766L241.167 153.624M40.3436 449.66L228.114 349.785M13.6321 534.97L223.192 423.586M92.5034 534.97L220.298 467.072M52.844 534.97L221.771 445.21M94.6087 352.336L232.851 278.772M193.691 534.97L216.561 522.809M32.4222 463.868L227.429 360.167M152.848 534.97L218.061 500.324M124.715 298.29L235.456 239.32M173.217 534.97L217.324 511.537" stroke="#CCCCCC" stroke-miterlimit="10"/>
</g>
<defs>
<filter id="filter0_d_709_1739" x="-4" y="0" width="733" height="543" filterUnits="userSpaceOnUse" color-interpolation-filters="sRGB">
<feFlood flood-opacity="0" result="BackgroundImageFix"/>
<feColorMatrix in="SourceAlpha" type="matrix" values="0 0 0 0 0 0 0 0 0 0 0 0 0 0 0 0 0 0 127 0" result="hardAlpha"/>
<feOffset dy="4"/>
<feGaussianBlur stdDeviation="2"/>
<feComposite in2="hardAlpha" operator="out"/>
<feColorMatrix type="matrix" values="0 0 0 0 0 0 0 0 0 0 0 0 0 0 0 0 0 0 0.25 0"/>
<feBlend mode="normal" in2="BackgroundImageFix" result="effect1_dropShadow_709_1739"/>
<feBlend mode="normal" in="SourceGraphic" in2="effect1_dropShadow_709_1739" result="shape"/>
</filter>
<clipPath id="clip0_709_1739">
<rect width="725" height="535" fill="white"/>
</clipPath>
</defs>
</svg>
