<svg width="131" height="35" viewBox="0 0 131 35" fill="none" xmlns="http://www.w3.org/2000/svg">
<path d="M0 9.375C0 4.19733 4.15962 0 9.29078 0H121.709C126.84 0 131 4.19733 131 9.375V25.625C131 30.8027 126.84 35 121.709 35H9.29078C4.15962 35 0 30.8027 0 25.625V9.375Z" fill="black"/>
<path fill-rule="evenodd" clip-rule="evenodd" d="M40.9563 15.6725C40.9563 18.8825 43.3942 21.0875 46.2186 21.0875C49.1173 21.0875 51.4511 18.9425 51.4511 15.6875C51.4511 12.4625 49.0578 10.1375 46.2037 10.1375C43.0671 10.1375 40.9563 12.3875 40.9563 15.6725ZM48.6862 17.8175C48.6862 19.1375 48.0767 19.9625 46.9915 19.9625C45.2077 19.9625 43.5725 16.3025 43.5725 13.4525C43.5725 12.0575 44.182 11.2625 45.2374 11.2625C47.0213 11.2625 48.6862 15.2525 48.6862 17.8175Z" fill="white"/>
<path d="M62.4962 20.0937C62.3053 19.9254 62.0546 19.7043 61.8112 19.2875L58.6597 13.9025L60.5773 11.9375C60.8523 11.6472 61.1519 11.4429 61.4042 11.2709C61.7385 11.043 61.9895 10.8718 61.9895 10.6325V10.5725C61.9895 10.3925 61.8409 10.2875 61.6328 10.2875H59.2097C58.9868 10.2875 58.853 10.3925 58.853 10.5725V10.6325C58.853 10.7775 58.9327 10.9082 59.0138 11.0412C59.1678 11.2936 59.3269 11.5544 58.957 11.9375L55.6718 15.3425V11.9225C55.6718 11.5349 55.8782 11.3082 56.0591 11.1095C56.2002 10.9545 56.3259 10.8166 56.3259 10.6325V10.5725C56.3259 10.3925 56.1921 10.2875 55.9691 10.2875H52.7285C52.5204 10.2875 52.3717 10.3925 52.3717 10.5725V10.6325C52.3717 10.8166 52.4859 10.9545 52.6142 11.1095C52.7787 11.3082 52.9663 11.5349 52.9663 11.9225V19.2875C52.9663 19.6751 52.7787 19.9065 52.6142 20.1093C52.4859 20.2676 52.3717 20.4084 52.3717 20.5925V20.6525C52.3717 20.8325 52.5204 20.9375 52.7285 20.9375H55.9691C56.1921 20.9375 56.3259 20.8325 56.3259 20.6525V20.5925C56.3259 20.4084 56.2002 20.2676 56.0591 20.1093C55.8782 19.9065 55.6718 19.6751 55.6718 19.2875V16.9625L56.8313 15.7775L58.9124 19.3175C59.1493 19.7219 58.9228 19.9518 58.7119 20.1658C58.5786 20.301 58.4516 20.4299 58.4516 20.5925V20.6525C58.4516 20.8325 58.5854 20.9375 58.7935 20.9375H62.4652C62.6882 20.9375 62.822 20.8325 62.822 20.6525V20.5925C62.822 20.3809 62.6899 20.2645 62.4962 20.0937Z" fill="white"/>
<path fill-rule="evenodd" clip-rule="evenodd" d="M66.0404 20.9375C65.8323 20.9375 65.6837 20.8325 65.6837 20.6525V20.5925C65.6837 20.4084 65.7979 20.2704 65.9262 20.1154C66.0906 19.9167 66.2783 19.6901 66.2783 19.3025V11.9225C66.2783 11.5349 66.0906 11.3082 65.9262 11.1095C65.7979 10.9545 65.6837 10.8166 65.6837 10.6325V10.5725C65.6837 10.3925 65.8323 10.2875 66.0404 10.2875H69.5486C73.7704 10.2875 76.1191 12.5225 76.1191 15.6725C76.1191 18.7925 73.8298 20.9375 70.2919 20.9375H66.0404ZM70.2324 19.8875H70.827C72.2244 19.8875 73.2947 18.8975 73.2947 16.9325C73.2947 14.0075 71.8081 11.3375 69.7716 11.3375H69.6081C69.2513 11.3375 68.9392 11.5175 68.9392 12.0575V18.3425C68.9392 19.3175 69.4148 19.8875 70.2324 19.8875Z" fill="white"/>
<path d="M77.0213 20.6525C77.0213 20.8325 77.17 20.9375 77.3781 20.9375H84.5431C84.885 20.9375 85.004 20.7875 85.0634 20.4575L85.3905 18.4925C85.4202 18.2975 85.3161 18.0425 85.0783 18.0425H84.9445C84.5173 18.0425 84.2367 18.4692 83.9444 18.9138C83.6263 19.3975 83.2944 19.9025 82.7444 19.9025H81.1836C80.4998 19.9025 80.2917 19.3175 80.2917 18.8075V16.0475H81.8525C82.3054 16.0475 82.5274 16.4241 82.7162 16.7445C82.8559 16.9814 82.9774 17.1875 83.1607 17.1875H83.2796C83.458 17.1875 83.5769 17.0525 83.5769 16.8425V14.1425C83.5769 13.9325 83.458 13.7975 83.2796 13.7975H83.1607C82.9774 13.7975 82.8559 14.0144 82.7162 14.2638C82.5274 14.601 82.3054 14.9975 81.8525 14.9975H80.2917V12.0575C80.2917 11.5025 80.6038 11.3225 80.9606 11.3225H82.2688C82.8277 11.3225 83.2116 11.8148 83.5727 12.2779C83.8934 12.6892 84.1962 13.0775 84.5877 13.0775H84.6621C84.9148 13.0775 85.0783 12.9125 85.0337 12.6425L84.6769 10.7525C84.6175 10.4225 84.4985 10.2875 84.1715 10.2875H77.3632C77.1551 10.2875 77.0213 10.3925 77.0213 10.5725V10.6325C77.0213 10.8154 77.1342 10.9529 77.2615 11.108C77.4265 11.3089 77.6159 11.5396 77.6159 11.9375V19.2875C77.6159 19.6854 77.4265 19.916 77.2615 20.117C77.1342 20.2721 77.0213 20.4095 77.0213 20.5925V20.6525Z" fill="white"/>
<path d="M90.5646 21.0875C87.8443 21.0875 86.0604 19.6925 86.0604 18.3575C86.0604 17.7275 86.3875 17.2925 87.1307 17.2925C87.8666 17.2994 88.2027 17.8893 88.5657 18.5263C88.9946 19.279 89.4609 20.0975 90.6687 20.0975C91.5308 20.0975 92.0809 19.6325 92.0809 18.8525C92.0809 17.538 90.904 17.1899 89.6067 16.8061C88.0172 16.336 86.247 15.8124 86.2388 13.3925C86.2388 11.4875 87.8145 10.1525 90.2673 10.1525C92.7349 10.1525 94.5485 11.4725 94.5336 12.8375C94.5336 13.4975 94.162 13.9325 93.4039 13.9325C92.51 13.9325 92.1742 13.2398 91.8363 12.5429C91.4942 11.8373 91.15 11.1275 90.2227 11.1275C89.2862 11.1275 88.8402 11.7125 88.8402 12.4475C88.8402 13.9448 90.1049 14.3357 91.4543 14.7529C92.9979 15.2301 94.6525 15.7416 94.6525 17.9825C94.6525 19.9625 92.7647 21.0875 90.5646 21.0875Z" fill="white"/>
<path d="M95.69 20.5925V20.6525C95.69 20.8325 95.8386 20.9375 96.0468 20.9375H99.2725C99.4955 20.9375 99.6293 20.8325 99.6293 20.6525V20.5925C99.6293 20.4084 99.5037 20.2704 99.3625 20.1154C99.1816 19.9167 98.9752 19.6901 98.9752 19.3025V11.9225C98.9752 11.5349 99.1816 11.3082 99.3625 11.1095C99.5037 10.9545 99.6293 10.8166 99.6293 10.6325V10.5725C99.6293 10.3925 99.4955 10.2875 99.2725 10.2875H96.0468C95.8386 10.2875 95.69 10.3925 95.69 10.5725V10.6325C95.69 10.8166 95.8042 10.9545 95.9325 11.1095C96.097 11.3082 96.2846 11.5349 96.2846 11.9225V19.3025C96.2846 19.6901 96.097 19.9167 95.9325 20.1154C95.8042 20.2704 95.69 20.4084 95.69 20.5925Z" fill="white"/>
<path d="M105.9 21.0875C102.704 21.0875 100.504 18.4475 100.504 15.6275C100.504 12.2075 102.986 10.1525 105.528 10.1525C108.041 10.1525 109.899 11.3975 109.899 12.9275C109.899 13.6625 109.423 14.1425 108.71 14.1425C107.719 14.1425 107.173 13.362 106.645 12.6074C106.15 11.9011 105.672 11.2175 104.86 11.2175C103.804 11.2175 103.12 12.3275 103.12 13.8425C103.12 16.8125 104.651 19.2425 106.495 19.2425C106.866 19.2425 107.134 19.1825 107.342 19.0925V17.1275C107.342 16.7296 107.077 16.5037 106.846 16.3069C106.668 16.155 106.51 16.0204 106.51 15.8375V15.7775C106.51 15.5975 106.688 15.4775 106.896 15.4775L110.211 15.4925C110.434 15.4925 110.568 15.6125 110.568 15.7925V15.8525C110.568 16.0354 110.432 16.17 110.28 16.3219C110.082 16.5187 109.854 16.7446 109.854 17.1425V18.8825C109.854 19.3175 109.735 19.6025 109.23 20.0075C108.576 20.5325 107.401 21.0875 105.9 21.0875Z" fill="white"/>
<path d="M121.581 10.5725C121.581 10.3925 121.432 10.2875 121.224 10.2875H119.276C119.068 10.2875 118.92 10.3925 118.92 10.5725V10.6325C118.92 10.8166 119.045 10.9545 119.186 11.1095C119.367 11.3082 119.574 11.5349 119.574 11.9225V17.5475L114.743 10.7675C114.52 10.4525 114.311 10.2875 113.94 10.2875H111.725C111.502 10.2875 111.368 10.3925 111.368 10.5725V10.6325C111.368 10.825 111.485 10.9676 111.614 11.1265C111.778 11.3267 111.963 11.5529 111.963 11.9375V19.2875C111.963 19.6751 111.775 19.9065 111.611 20.1093C111.482 20.2676 111.368 20.4084 111.368 20.5925V20.6525C111.368 20.8325 111.502 20.9375 111.725 20.9375H113.628C113.851 20.9375 113.999 20.8325 113.999 20.6525V20.5925C113.999 20.4084 113.865 20.2676 113.714 20.1093C113.521 19.9065 113.301 19.6751 113.301 19.2875V13.3325L118.608 20.4425C118.831 20.7575 119.039 20.9375 119.381 20.9375H120.228C120.659 20.9375 120.912 20.6825 120.912 20.2325V11.9225C120.912 11.5349 121.123 11.3082 121.308 11.1095C121.452 10.9545 121.581 10.8166 121.581 10.6325V10.5725Z" fill="white"/>
<path fill-rule="evenodd" clip-rule="evenodd" d="M93.5519 27.4715C93.5519 27.8071 93.4918 28.0971 93.3717 28.3415C93.2516 28.586 93.0869 28.7745 92.8775 28.9071C92.6681 29.0396 92.4289 29.1059 92.16 29.1059C91.8911 29.1059 91.6519 29.0396 91.4425 28.9071C91.2331 28.7745 91.0684 28.586 90.9483 28.3415C90.8282 28.0971 90.7682 27.8071 90.7682 27.4715C90.7682 27.1359 90.8282 26.8459 90.9483 26.6015C91.0684 26.357 91.2331 26.1685 91.4425 26.036C91.6519 25.9034 91.8911 25.8371 92.16 25.8371C92.4289 25.8371 92.6681 25.9034 92.8775 26.036C93.0869 26.1685 93.2516 26.357 93.3717 26.6015C93.4918 26.8459 93.5519 27.1359 93.5519 27.4715ZM93.1824 27.4715C93.1824 27.196 93.1367 26.9635 93.0453 26.7739C92.955 26.5844 92.8323 26.4409 92.6773 26.3436C92.5234 26.2462 92.3509 26.1975 92.16 26.1975C91.9691 26.1975 91.7961 26.2462 91.6411 26.3436C91.4872 26.4409 91.3645 26.5844 91.2732 26.7739C91.1828 26.9635 91.1377 27.196 91.1377 27.4715C91.1377 27.747 91.1828 27.9795 91.2732 28.1691C91.3645 28.3586 91.4872 28.5021 91.6411 28.5994C91.7961 28.6968 91.9691 28.7455 92.16 28.7455C92.3509 28.7455 92.5234 28.6968 92.6773 28.5994C92.8323 28.5021 92.955 28.3586 93.0453 28.1691C93.1367 27.9795 93.1824 27.747 93.1824 27.4715Z" fill="white"/>
<path d="M64.5604 29.0624V25.8806H64.1785V29.0624H64.5604Z" fill="white"/>
<path d="M69.9942 29.0624V25.8806H69.6185V28.385H69.5877L67.8633 25.8806H67.4938V29.0624H67.8756V26.5642H67.9064L69.6247 29.0624H69.9942Z" fill="white"/>
<path d="M72.7537 26.2224V25.8806H75.1186V26.2224H74.1271V29.0624H73.7452V26.2224H72.7537Z" fill="white"/>
<path d="M77.8758 25.8806V29.0624H79.8034V28.7206H78.2576V27.6393H79.6803V27.2975H78.2576V26.2224H79.7788V25.8806H77.8758Z" fill="white"/>
<path fill-rule="evenodd" clip-rule="evenodd" d="M82.6349 29.0624V25.8806H83.7003C83.9467 25.8806 84.1489 25.9231 84.3069 26.008C84.465 26.0919 84.582 26.2074 84.658 26.3545C84.7339 26.5015 84.7719 26.6688 84.7719 26.8563C84.7719 27.0437 84.7339 27.21 84.658 27.355C84.582 27.5 84.4655 27.6139 84.3085 27.6968C84.2693 27.7172 84.2274 27.7351 84.1828 27.7504L84.8951 29.0624H84.4517L83.7868 27.818C83.7606 27.819 83.7338 27.8195 83.7065 27.8195H83.0167V29.0624H82.6349ZM83.6942 27.4715H83.0167V26.2224H83.688C83.8584 26.2224 83.9954 26.2488 84.0991 26.3016C84.2028 26.3534 84.2782 26.427 84.3254 26.5222C84.3726 26.6175 84.3962 26.7289 84.3962 26.8563C84.3962 26.9837 84.3726 27.0935 84.3254 27.1856C84.2792 27.2768 84.2043 27.3472 84.1006 27.3969C83.998 27.4467 83.8625 27.4715 83.6942 27.4715Z" fill="white"/>
<path d="M87.576 29.0624H87.9579V25.8806H87.576V29.0624Z" fill="white"/>
<path fill-rule="evenodd" clip-rule="evenodd" d="M97.4272 25.8806H96.3618V29.0624H96.7436V27.8195H97.4334C97.4607 27.8195 97.4874 27.819 97.5137 27.818L98.1786 29.0624H98.622L97.9097 27.7504C97.9543 27.7351 97.9962 27.7172 98.0354 27.6968C98.1924 27.6139 98.3089 27.5 98.3849 27.355C98.4608 27.21 98.4988 27.0437 98.4988 26.8563C98.4988 26.6688 98.4608 26.5015 98.3849 26.3545C98.3089 26.2074 98.1919 26.0919 98.0338 26.008C97.8758 25.9231 97.6735 25.8806 97.4272 25.8806ZM96.7436 27.4715H97.4211C97.5894 27.4715 97.7249 27.4467 97.8275 27.3969C97.9312 27.3472 98.0061 27.2768 98.0523 27.1856C98.0995 27.0935 98.1231 26.9837 98.1231 26.8563C98.1231 26.7289 98.0995 26.6175 98.0523 26.5222C98.0051 26.427 97.9296 26.3534 97.826 26.3016C97.7223 26.2488 97.5853 26.2224 97.4149 26.2224H96.7436V27.4715Z" fill="white"/>
<path d="M19.8294 35H15.0533C16.3586 30.5487 19.3386 26.6794 23.4491 24.3134L23.6057 24.2188L23.4491 24.1241C17.9368 20.9573 14.4707 15.0972 14.3245 8.75313C14.3245 8.57428 14.4602 8.4375 14.6378 8.4375H18.5319C18.6989 8.4375 18.8347 8.57428 18.8451 8.74261C19.0643 15.9178 24.8168 21.7148 31.9369 21.9357C32.1039 21.9357 32.2397 22.083 32.2397 22.2514V26.1861C32.2397 26.3545 32.1039 26.4912 31.9369 26.5018C26.4596 26.6717 21.7917 30.1415 19.8294 35Z" fill="#666666"/>
<path d="M14.9301 28.8269C15.0136 28.9321 15.0241 29.0794 14.951 29.1951C14.8259 29.3947 14.7113 29.5942 14.5966 29.7938L14.596 29.7948C13.9383 30.9416 13.3954 32.1515 12.9673 33.4034C12.9047 33.5718 12.675 33.5928 12.5915 33.435C11.4953 31.4781 9.93973 29.8263 8.03967 28.6059C5.99341 27.3013 3.65485 26.5754 1.23274 26.5018C1.06569 26.5018 0.929985 26.3545 0.929985 26.1861V22.2513C0.929985 22.083 1.06569 21.9462 1.23274 21.9357C3.65485 21.8621 5.99341 21.1361 8.03967 19.8316C9.92933 18.6217 11.4953 16.9594 12.5915 15.0025C12.6855 14.8447 12.9151 14.8657 12.9673 15.0341C13.3954 16.286 13.9383 17.4959 14.596 18.6427C14.6533 18.7424 14.7132 18.8421 14.7731 18.9418C14.8332 19.042 14.8934 19.1422 14.951 19.2424C15.0241 19.3581 15.0136 19.5054 14.9301 19.6106C13.4789 21.4518 11.725 22.9668 9.69963 24.1241L9.54303 24.2187L9.69963 24.3134C11.725 25.4707 13.4893 26.9857 14.9301 28.8269Z" fill="#666666"/>
</svg>
