<svg width="127" height="35" viewBox="0 0 127 35" fill="none" xmlns="http://www.w3.org/2000/svg">
<path d="M5.6028 6.79333V28.2486H0V6.79333H5.6028Z" fill="#367817"/>
<path d="M14.7799 28.2486H6.83925V6.79333H14.6993C16.8222 6.79333 18.6562 7.22286 20.2013 8.08191C21.7532 8.93397 22.949 10.1632 23.7887 11.7695C24.6352 13.3689 25.0584 15.286 25.0584 17.521C25.0584 19.7559 24.6386 21.6765 23.7988 23.2829C22.9591 24.8822 21.77 26.1114 20.2316 26.9705C18.6931 27.8225 16.8759 28.2486 14.7799 28.2486ZM12.4421 23.3038H14.5784C15.5995 23.3038 16.4695 23.1327 17.1883 22.7905C17.9139 22.4483 18.4647 21.8581 18.8409 21.02C19.2239 20.1819 19.4153 19.0156 19.4153 17.521C19.4153 16.0264 19.2205 14.86 18.8309 14.0219C18.4479 13.1838 17.8836 12.5937 17.1379 12.2514C16.3989 11.9092 15.492 11.7381 14.4171 11.7381H12.4421V23.3038Z" fill="#367817"/>
<path d="M37.3569 13.4981C37.3031 12.7997 37.0512 12.2549 36.6011 11.8638C36.1577 11.4727 35.4826 11.2771 34.5756 11.2771C33.9979 11.2771 33.5243 11.3505 33.1548 11.4971C32.792 11.6368 32.5233 11.8289 32.3486 12.0733C32.174 12.3178 32.0833 12.5971 32.0765 12.9114C32.0631 13.1698 32.1068 13.4038 32.2076 13.6133C32.315 13.8159 32.483 14.001 32.7114 14.1686C32.9398 14.3292 33.232 14.4759 33.5881 14.6086C33.9442 14.7413 34.3674 14.86 34.8578 14.9648L36.5507 15.3419C37.6928 15.5933 38.6703 15.9251 39.4831 16.3371C40.296 16.7492 40.9611 17.2346 41.4784 17.7933C41.9957 18.3451 42.3752 18.9667 42.6171 19.6581C42.8656 20.3495 42.9933 21.1038 43 21.921C42.9933 23.3317 42.654 24.526 41.9822 25.5038C41.3104 26.4816 40.3498 27.2254 39.1002 27.7352C37.8574 28.2451 36.3626 28.5 34.616 28.5C32.8222 28.5 31.257 28.2241 29.9201 27.6724C28.5899 27.1206 27.5553 26.2721 26.8164 25.1267C26.0841 23.9743 25.7146 22.5006 25.7079 20.7057H31.0285C31.0621 21.3622 31.22 21.914 31.5022 22.361C31.7843 22.8079 32.1807 23.1467 32.6912 23.3771C33.2085 23.6076 33.8232 23.7229 34.5353 23.7229C35.1332 23.7229 35.6337 23.646 36.0368 23.4924C36.4399 23.3387 36.7456 23.1257 36.9538 22.8533C37.1621 22.581 37.2696 22.2702 37.2763 21.921C37.2696 21.5927 37.1654 21.3063 36.9639 21.0619C36.7691 20.8105 36.4466 20.587 35.9965 20.3914C35.5464 20.1889 34.9384 20.0003 34.1726 19.8257L32.1169 19.3648C30.2896 18.9527 28.8486 18.2648 27.7938 17.301C26.7458 16.3302 26.2252 15.0067 26.2319 13.3305C26.2252 11.9686 26.5745 10.7778 27.2799 9.7581C27.992 8.73143 28.9762 7.93175 30.2325 7.35905C31.4954 6.78635 32.9432 6.5 34.5756 6.5C36.2417 6.5 37.6827 6.78984 38.8987 7.36952C40.1146 7.94921 41.0518 8.76635 41.7101 9.82095C42.3752 10.8686 42.7111 12.0943 42.7178 13.4981H37.3569Z" fill="#367817"/>
<mask id="path-2-outside-1_132_208" maskUnits="userSpaceOnUse" x="41" y="5.5" width="86" height="24" fill="black">
<rect fill="white" x="41" y="5.5" width="86" height="24"/>
<path d="M48.9525 28.2452H43L49.7064 6.5H57.2462L63.9526 28.2452H58.0002L53.5557 12.4884H53.3969L48.9525 28.2452ZM47.8413 19.666H59.0319V24.083H47.8413V19.666ZM65.3807 28.2452L61.5712 11.9363H67.0474L68.7935 21.8745H68.9125L70.857 11.9363H76.1745L78.1983 21.7896H78.3174L79.9841 11.9363H85.4603L81.6508 28.2452H75.738L73.5951 19.4961H73.4364L71.2935 28.2452H65.3807ZM89.9763 28.5C89.004 28.5 88.1442 28.3301 87.3969 27.9903C86.6561 27.6435 86.0741 27.1197 85.6508 26.4189C85.2275 25.7181 85.0159 24.8263 85.0159 23.7432C85.0159 22.8514 85.1581 22.0904 85.4425 21.4604C85.7269 20.8234 86.1237 20.3031 86.633 19.8996C87.1422 19.4961 87.7342 19.1882 88.4088 18.9759C89.09 18.7635 89.8241 18.6255 90.6112 18.5618C91.4644 18.491 92.1489 18.406 92.6648 18.3069C93.1873 18.2008 93.5643 18.0557 93.7957 17.8716C94.0272 17.6805 94.143 17.4292 94.143 17.1178V17.0753C94.143 16.6506 93.9909 16.325 93.6866 16.0985C93.3824 15.8719 92.9922 15.7587 92.516 15.7587C91.9935 15.7587 91.5669 15.8826 91.2362 16.1303C90.9121 16.371 90.717 16.7426 90.6509 17.2452H85.6111C85.6773 16.2542 85.9716 15.3411 86.4941 14.5058C87.0232 13.6635 87.7937 12.991 88.8056 12.4884C89.8175 11.9788 91.0808 11.7239 92.5953 11.7239C93.6866 11.7239 94.6655 11.862 95.5319 12.138C96.3983 12.407 97.1357 12.7857 97.7442 13.2741C98.3527 13.7555 98.8156 14.3218 99.1331 14.973C99.4572 15.6171 99.6192 16.3179 99.6192 17.0753V28.2452H94.5001V25.9517H94.3811C94.0768 26.5605 93.7065 27.0524 93.2699 27.4276C92.84 27.8028 92.3473 28.0753 91.7918 28.2452C91.2428 28.4151 90.6376 28.5 89.9763 28.5ZM91.762 24.805C92.1787 24.805 92.5689 24.713 92.9326 24.529C93.303 24.3449 93.6039 24.0795 93.8354 23.7326C94.0669 23.3858 94.1827 22.9646 94.1827 22.4691V21.11C94.0372 21.1737 93.8817 21.2339 93.7164 21.2905C93.5576 21.3472 93.3857 21.4003 93.2005 21.4498C93.0219 21.4994 92.8301 21.5454 92.6251 21.5878C92.4267 21.6303 92.2183 21.6692 92.0001 21.7046C91.5768 21.7754 91.2296 21.8922 90.9584 22.055C90.6939 22.2107 90.4954 22.4054 90.3632 22.639C90.2375 22.8655 90.1747 23.1203 90.1747 23.4035C90.1747 23.8565 90.3235 24.2033 90.6211 24.444C90.9187 24.6847 91.299 24.805 91.762 24.805ZM100.839 28.2452V11.9363H106.157V15.0367H106.315C106.593 13.89 107.033 13.0512 107.635 12.5203C108.243 11.9894 108.954 11.7239 109.768 11.7239C110.006 11.7239 110.241 11.7452 110.472 11.7876C110.71 11.823 110.938 11.8761 111.157 11.9469V16.9479C110.885 16.8488 110.551 16.7745 110.155 16.7249C109.758 16.6754 109.417 16.6506 109.133 16.6506C108.597 16.6506 108.114 16.7815 107.684 17.0434C107.261 17.2983 106.927 17.6593 106.682 18.1264C106.438 18.5866 106.315 19.1281 106.315 19.751V28.2452H100.839ZM116.198 28.4575C115.114 28.4575 114.115 28.1532 113.202 27.5444C112.296 26.9356 111.569 26.0119 111.02 24.7732C110.477 23.5344 110.206 21.9736 110.206 20.0907C110.206 18.1229 110.491 16.5232 111.059 15.2915C111.635 14.0598 112.375 13.1573 113.282 12.584C114.194 12.0106 115.153 11.7239 116.159 11.7239C116.913 11.7239 117.574 11.8655 118.143 12.1486C118.712 12.4247 119.188 12.7963 119.571 13.2635C119.955 13.7236 120.246 14.2297 120.444 14.7819H120.524V6.5H126V28.2452H120.563V25.5695H120.444C120.233 26.1216 119.928 26.6171 119.532 27.056C119.141 27.4878 118.665 27.8311 118.103 28.0859C117.548 28.3337 116.913 28.4575 116.198 28.4575ZM118.222 23.9556C118.725 23.9556 119.155 23.7999 119.512 23.4884C119.876 23.1699 120.153 22.7239 120.345 22.1506C120.544 21.5701 120.643 20.8835 120.643 20.0907C120.643 19.2838 120.544 18.5936 120.345 18.0203C120.153 17.4398 119.876 16.9974 119.512 16.6931C119.155 16.3816 118.725 16.2259 118.222 16.2259C117.719 16.2259 117.29 16.3816 116.932 16.6931C116.582 16.9974 116.311 17.4398 116.119 18.0203C115.934 18.5936 115.841 19.2838 115.841 20.0907C115.841 20.8977 115.934 21.5914 116.119 22.1718C116.311 22.7452 116.582 23.1876 116.932 23.499C117.29 23.8034 117.719 23.9556 118.222 23.9556Z"/>
</mask>
<path d="M48.9525 28.2452H43L49.7064 6.5H57.2462L63.9526 28.2452H58.0002L53.5557 12.4884H53.3969L48.9525 28.2452ZM47.8413 19.666H59.0319V24.083H47.8413V19.666ZM65.3807 28.2452L61.5712 11.9363H67.0474L68.7935 21.8745H68.9125L70.857 11.9363H76.1745L78.1983 21.7896H78.3174L79.9841 11.9363H85.4603L81.6508 28.2452H75.738L73.5951 19.4961H73.4364L71.2935 28.2452H65.3807ZM89.9763 28.5C89.004 28.5 88.1442 28.3301 87.3969 27.9903C86.6561 27.6435 86.0741 27.1197 85.6508 26.4189C85.2275 25.7181 85.0159 24.8263 85.0159 23.7432C85.0159 22.8514 85.1581 22.0904 85.4425 21.4604C85.7269 20.8234 86.1237 20.3031 86.633 19.8996C87.1422 19.4961 87.7342 19.1882 88.4088 18.9759C89.09 18.7635 89.8241 18.6255 90.6112 18.5618C91.4644 18.491 92.1489 18.406 92.6648 18.3069C93.1873 18.2008 93.5643 18.0557 93.7957 17.8716C94.0272 17.6805 94.143 17.4292 94.143 17.1178V17.0753C94.143 16.6506 93.9909 16.325 93.6866 16.0985C93.3824 15.8719 92.9922 15.7587 92.516 15.7587C91.9935 15.7587 91.5669 15.8826 91.2362 16.1303C90.9121 16.371 90.717 16.7426 90.6509 17.2452H85.6111C85.6773 16.2542 85.9716 15.3411 86.4941 14.5058C87.0232 13.6635 87.7937 12.991 88.8056 12.4884C89.8175 11.9788 91.0808 11.7239 92.5953 11.7239C93.6866 11.7239 94.6655 11.862 95.5319 12.138C96.3983 12.407 97.1357 12.7857 97.7442 13.2741C98.3527 13.7555 98.8156 14.3218 99.1331 14.973C99.4572 15.6171 99.6192 16.3179 99.6192 17.0753V28.2452H94.5001V25.9517H94.3811C94.0768 26.5605 93.7065 27.0524 93.2699 27.4276C92.84 27.8028 92.3473 28.0753 91.7918 28.2452C91.2428 28.4151 90.6376 28.5 89.9763 28.5ZM91.762 24.805C92.1787 24.805 92.5689 24.713 92.9326 24.529C93.303 24.3449 93.6039 24.0795 93.8354 23.7326C94.0669 23.3858 94.1827 22.9646 94.1827 22.4691V21.11C94.0372 21.1737 93.8817 21.2339 93.7164 21.2905C93.5576 21.3472 93.3857 21.4003 93.2005 21.4498C93.0219 21.4994 92.8301 21.5454 92.6251 21.5878C92.4267 21.6303 92.2183 21.6692 92.0001 21.7046C91.5768 21.7754 91.2296 21.8922 90.9584 22.055C90.6939 22.2107 90.4954 22.4054 90.3632 22.639C90.2375 22.8655 90.1747 23.1203 90.1747 23.4035C90.1747 23.8565 90.3235 24.2033 90.6211 24.444C90.9187 24.6847 91.299 24.805 91.762 24.805ZM100.839 28.2452V11.9363H106.157V15.0367H106.315C106.593 13.89 107.033 13.0512 107.635 12.5203C108.243 11.9894 108.954 11.7239 109.768 11.7239C110.006 11.7239 110.241 11.7452 110.472 11.7876C110.71 11.823 110.938 11.8761 111.157 11.9469V16.9479C110.885 16.8488 110.551 16.7745 110.155 16.7249C109.758 16.6754 109.417 16.6506 109.133 16.6506C108.597 16.6506 108.114 16.7815 107.684 17.0434C107.261 17.2983 106.927 17.6593 106.682 18.1264C106.438 18.5866 106.315 19.1281 106.315 19.751V28.2452H100.839ZM116.198 28.4575C115.114 28.4575 114.115 28.1532 113.202 27.5444C112.296 26.9356 111.569 26.0119 111.02 24.7732C110.477 23.5344 110.206 21.9736 110.206 20.0907C110.206 18.1229 110.491 16.5232 111.059 15.2915C111.635 14.0598 112.375 13.1573 113.282 12.584C114.194 12.0106 115.153 11.7239 116.159 11.7239C116.913 11.7239 117.574 11.8655 118.143 12.1486C118.712 12.4247 119.188 12.7963 119.571 13.2635C119.955 13.7236 120.246 14.2297 120.444 14.7819H120.524V6.5H126V28.2452H120.563V25.5695H120.444C120.233 26.1216 119.928 26.6171 119.532 27.056C119.141 27.4878 118.665 27.8311 118.103 28.0859C117.548 28.3337 116.913 28.4575 116.198 28.4575ZM118.222 23.9556C118.725 23.9556 119.155 23.7999 119.512 23.4884C119.876 23.1699 120.153 22.7239 120.345 22.1506C120.544 21.5701 120.643 20.8835 120.643 20.0907C120.643 19.2838 120.544 18.5936 120.345 18.0203C120.153 17.4398 119.876 16.9974 119.512 16.6931C119.155 16.3816 118.725 16.2259 118.222 16.2259C117.719 16.2259 117.29 16.3816 116.932 16.6931C116.582 16.9974 116.311 17.4398 116.119 18.0203C115.934 18.5936 115.841 19.2838 115.841 20.0907C115.841 20.8977 115.934 21.5914 116.119 22.1718C116.311 22.7452 116.582 23.1876 116.932 23.499C117.29 23.8034 117.719 23.9556 118.222 23.9556Z" stroke="#367817" stroke-width="2" mask="url(#path-2-outside-1_132_208)"/>
</svg>
