<svg width="116" height="35" viewBox="0 0 116 35" fill="none" xmlns="http://www.w3.org/2000/svg">
<path d="M58.6664 6.07771L56.7091 0L54.7519 6.07771H48.4183L53.5422 9.83393L51.5849 15.9116L56.7091 12.1554L61.8333 15.9116L59.8761 9.83393L65 6.07771H58.6664Z" fill="#A443F0"/>
<path d="M1.42286 8.16247H0V17.5915H1.42286V8.16247Z" fill="black"/>
<path d="M4.48767 14.2561C4.48767 12.9755 5.15739 11.8637 6.49625 11.8637C7.86321 11.8637 8.56074 12.9755 8.56074 14.2702V17.5915H9.94161V14.1013C9.94161 12.1029 8.72789 10.5268 6.49625 10.5268C4.29243 10.5268 3.10681 12.1029 3.10681 14.1154V17.5915H4.48767V14.2561Z" fill="black"/>
<path d="M11.7246 15.1146C11.7246 16.6908 12.6313 17.7744 14.3328 17.7744C14.8351 17.7744 15.3791 17.6196 15.7278 17.3804V16.0998C15.4963 16.2652 15.1915 16.397 14.8779 16.4624C14.738 16.4917 14.5961 16.5078 14.4585 16.5078C13.6356 16.5078 13.1055 15.9731 13.1055 15.0724V11.9059H15.7278V10.6956H13.1055V8.90833H11.7246V10.6956H10.3715V11.9059H11.7246V15.1146Z" fill="black"/>
<path fill-rule="evenodd" clip-rule="evenodd" d="M16.2358 14.1013C16.2358 16.2264 17.7841 17.7463 19.8625 17.7463C21.2014 17.7463 22.3033 17.113 22.9032 15.9308L21.843 15.382C21.4386 16.1419 20.6855 16.5078 19.8486 16.5078C18.621 16.5078 17.7285 15.6775 17.575 14.4954H23.0425V13.9325C23.0425 12.0045 21.7593 10.4986 19.6951 10.4986C17.6448 10.4986 16.2358 12.117 16.2358 14.1013ZM21.6617 13.5947H17.6306C17.7702 12.5674 18.5233 11.7511 19.6812 11.7511C20.8109 11.7511 21.606 12.497 21.6617 13.5947Z" fill="black"/>
<path d="M23.9937 17.5915H25.3746V13.5384C25.3746 12.5251 25.9328 11.8919 26.8534 11.8919C27.0495 11.8919 27.2495 11.9186 27.4434 11.972C27.6219 12.0212 27.795 12.093 27.9553 12.1874V10.8082C27.6065 10.6394 27.1601 10.5549 26.7277 10.5549C24.9424 10.5549 23.9937 11.8074 23.9937 13.4821V17.5915Z" fill="black"/>
<path d="M28.1196 8.41579C28.1196 8.92236 28.5243 9.33051 29.0263 9.33051C29.5286 9.33051 29.919 8.92236 29.919 8.41579C29.919 7.90915 29.5286 7.4869 29.0263 7.4869C28.5243 7.4869 28.1196 7.90915 28.1196 8.41579Z" fill="black"/>
<path d="M29.7238 10.6956H28.3429V17.5915H29.7238V10.6956Z" fill="black"/>
<path fill-rule="evenodd" clip-rule="evenodd" d="M30.8433 14.1294C30.8433 16.1279 32.4336 17.7603 34.4978 17.7603C36.5484 17.7603 38.1245 16.1279 38.1245 14.1294C38.1245 12.1592 36.5623 10.5268 34.4978 10.5268C32.4475 10.5268 30.8433 12.1452 30.8433 14.1294ZM36.7436 14.1435C36.7436 15.3961 35.7671 16.4375 34.4978 16.4375C33.2146 16.4375 32.2244 15.3961 32.2244 14.1435C32.2244 12.8769 33.2146 11.8355 34.4978 11.8355C35.7671 11.8355 36.7436 12.8769 36.7436 14.1435Z" fill="black"/>
<path d="M38.9693 17.5915H40.3502V13.5384C40.3502 12.5251 40.9081 11.8919 41.8286 11.8919C42.2052 11.8919 42.5957 11.9904 42.9306 12.1874V10.8082C42.5818 10.6394 42.1354 10.5549 41.7029 10.5549C39.9177 10.5549 38.9693 11.8074 38.9693 13.4821V17.5915Z" fill="black"/>
<path fill-rule="evenodd" clip-rule="evenodd" d="M3.1664 31.6647C6.05356 31.6647 8.24348 29.8633 8.24348 26.9079C8.24348 24.1074 6.23489 22.2357 3.23621 22.2357H0V31.6647H3.1664ZM3.23621 23.5585C5.32822 23.5585 6.7789 24.9095 6.7789 26.9079C6.7789 29.0612 5.20279 30.3558 3.1664 30.3558H1.42286V23.5585H3.23621Z" fill="black"/>
<path fill-rule="evenodd" clip-rule="evenodd" d="M8.81756 28.1745C8.81756 30.2996 10.3659 31.8195 12.4442 31.8195C13.7834 31.8195 14.8853 31.1861 15.4849 30.004L14.425 29.4552C14.0204 30.2151 13.2672 30.581 12.4303 30.581C11.2027 30.581 10.3102 29.7507 10.1567 28.5685H15.6246V28.0056C15.6246 26.0776 14.3413 24.5718 12.2768 24.5718C10.2265 24.5718 8.81756 26.1902 8.81756 28.1745ZM14.2437 27.6679H10.2126C10.352 26.6405 11.1051 25.8243 12.2629 25.8243C13.3926 25.8243 14.1878 26.5702 14.2437 27.6679Z" fill="black"/>
<path d="M16.2548 30.2855C16.7849 31.3128 17.7614 31.8195 19.0305 31.8195C20.4811 31.8195 21.7366 30.9892 21.7366 29.6803C21.7366 28.1799 20.4349 27.8854 19.3318 27.6358C18.5208 27.4523 17.817 27.2931 17.817 26.6968C17.817 26.148 18.3749 25.8102 19.0166 25.8102C19.6443 25.8102 20.2022 26.0213 20.495 26.6264L21.5552 26.0213C21.1228 25.2192 20.2581 24.6281 18.9887 24.6281C17.4964 24.6281 16.4362 25.5147 16.4362 26.725C16.4362 28.2356 17.7276 28.5174 18.8278 28.7575C19.6443 28.9357 20.3557 29.091 20.3557 29.7085C20.3557 30.3137 19.7558 30.6373 18.9748 30.6373C18.2217 30.6373 17.6635 30.384 17.315 29.6944L16.2548 30.2855Z" fill="black"/>
<path d="M22.7585 22.489C22.7585 22.9955 23.1628 23.4037 23.6648 23.4037C24.1671 23.4037 24.5576 22.9955 24.5576 22.489C24.5576 21.9823 24.1671 21.5601 23.6648 21.5601C23.1628 21.5601 22.7585 21.9823 22.7585 22.489Z" fill="black"/>
<path d="M24.3624 24.7688H22.9815V31.6647H24.3624V24.7688Z" fill="black"/>
<path fill-rule="evenodd" clip-rule="evenodd" d="M25.6635 33.1283C26.2909 34.3526 27.5186 35 28.997 35C31.1731 35 32.7631 33.4379 32.7631 31.0454V28.2026C32.7631 26.148 31.187 24.5999 29.1225 24.5999C27.0444 24.5999 25.4822 26.2184 25.4822 28.1886C25.4822 30.2151 27.0163 31.7632 28.9553 31.7632C30.099 31.7632 30.9358 31.2284 31.3822 30.5107V31.0595C31.3822 32.6779 30.4057 33.7194 28.9692 33.7194C27.9788 33.7194 27.2257 33.2408 26.821 32.495L25.6635 33.1283ZM31.3683 28.1745C31.3683 29.4411 30.364 30.4544 29.1086 30.4544C27.8673 30.4544 26.8491 29.4411 26.8491 28.1745C26.8491 26.9079 27.8673 25.9228 29.1086 25.9228C30.364 25.9228 31.3683 26.9079 31.3683 28.1745Z" fill="black"/>
<path d="M35.4246 28.3293C35.4246 27.0487 36.0941 25.9369 37.4332 25.9369C38.8002 25.9369 39.4974 27.0487 39.4974 28.3434V31.6647H40.8783V28.1745C40.8783 26.1761 39.6648 24.5999 37.4332 24.5999C35.2294 24.5999 34.0438 26.1761 34.0438 28.1886V31.6647H35.4246V28.3293Z" fill="black"/>
</svg>
