<svg width="116" height="35" viewBox="0 0 116 35" fill="none" xmlns="http://www.w3.org/2000/svg">
<path fill-rule="evenodd" clip-rule="evenodd" d="M12.1837 5.06185C14.25 7.13437 15.7373 9.67907 16.5411 12.4431C16.9944 14.0015 17.2303 15.6297 17.2303 17.2822C17.2303 18.9348 16.9944 20.563 16.5411 22.1214C15.7373 24.8854 14.25 27.4301 12.1837 29.5026C9.11519 32.5804 5.00849 34.3774 0.689214 34.5507C0.460033 34.5599 0.230254 34.5645 0 34.5645L3.35487e-06 0C0.230258 0 0.460036 0.00462263 0.689217 0.0138167C5.0085 0.187093 9.11519 1.98411 12.1837 5.06185ZM11.6963 29.0138C8.75711 31.9619 4.82563 33.6859 0.689214 33.8588L0.689217 0.705683C4.82563 0.878552 8.75711 2.60258 11.6963 5.55067C14.7984 8.66207 16.5411 12.882 16.5411 17.2822C16.5411 21.6824 14.7984 25.9024 11.6963 29.0138Z" fill="black"/>
<path fill-rule="evenodd" clip-rule="evenodd" d="M17.2303 17.2822L17.2303 0C17.4606 0 17.6904 0.00462263 17.9196 0.0138167C22.2388 0.187093 26.3455 1.98411 29.414 5.06185C32.6453 8.3029 34.4607 12.6987 34.4607 17.2822C34.4607 21.8658 32.6453 26.2616 29.414 29.5026C26.3455 32.5804 22.2388 34.3774 17.9196 34.5507C17.6904 34.5599 17.4606 34.5645 17.2303 34.5645L17.2303 17.2822ZM17.9196 0.705683C22.056 0.878552 25.9875 2.60258 28.9267 5.55067C32.0287 8.66207 33.7715 12.882 33.7715 17.2822C33.7715 21.6824 32.0287 25.9024 28.9267 29.0138C25.9874 31.9619 22.056 33.6859 17.9196 33.8588L17.9196 0.705683Z" fill="black"/>
<path fill-rule="evenodd" clip-rule="evenodd" d="M65.1493 7.06499L64.0479 9.67807H62.8694L66.9013 0.532306L70.9332 9.67807H69.7546L68.6474 7.06499H65.1493ZM65.5743 6.06954H68.2316L66.9013 2.93385L65.5743 6.06954Z" fill="black"/>
<path d="M57.3258 7.04011C57.5243 7.38852 57.7311 7.69545 57.9461 7.9609C58.1694 8.22636 58.4175 8.43375 58.6904 8.58306C58.9634 8.73238 59.2735 8.80704 59.6209 8.80704C59.9352 8.80704 60.204 8.74897 60.4273 8.63284C60.6588 8.5167 60.8367 8.35494 60.9607 8.14755C61.093 7.94017 61.1592 7.70374 61.1592 7.43829C61.1592 7.0484 61.0682 6.73732 60.8863 6.50505C60.7043 6.27277 60.4645 6.08613 60.1667 5.9451C59.8773 5.79578 59.5671 5.66306 59.2363 5.54692C59.0213 5.47226 58.7814 5.37686 58.5168 5.26073C58.2521 5.13629 57.9999 4.98283 57.76 4.80033C57.5202 4.60953 57.3217 4.37726 57.1645 4.10351C57.0157 3.82976 56.9412 3.49379 56.9412 3.09561C56.9412 2.66424 57.0487 2.2785 57.2638 1.93839C57.4788 1.59827 57.7766 1.33282 58.157 1.14202C58.5374 0.942932 58.9716 0.843386 59.4596 0.843386C59.931 0.843386 60.3404 0.934637 60.6878 1.11714C61.0434 1.29134 61.3453 1.51947 61.5934 1.80151C61.8415 2.07526 62.0359 2.36561 62.1765 2.67254L61.2709 3.19515C61.1633 2.97947 61.0269 2.76794 60.8615 2.56055C60.6961 2.35316 60.4934 2.18311 60.2536 2.05038C60.022 1.91765 59.7367 1.85129 59.3976 1.85129C59.0833 1.85129 58.8269 1.90521 58.6284 2.01305C58.4299 2.12089 58.2811 2.25776 58.1818 2.42367C58.0908 2.58958 58.0453 2.76794 58.0453 2.95873C58.0453 3.14123 58.0784 3.31129 58.1446 3.4689C58.2108 3.62652 58.3183 3.77584 58.4671 3.91686C58.6243 4.05788 58.831 4.19476 59.0874 4.32749C59.3521 4.46021 59.6746 4.59294 60.0551 4.72567C60.2867 4.80862 60.5306 4.91646 60.787 5.04919C61.0434 5.18192 61.2791 5.35198 61.4942 5.55936C61.7175 5.75845 61.8994 6.00317 62.04 6.29351C62.1806 6.57556 62.2509 6.91567 62.2509 7.31386C62.2509 7.69545 62.1765 8.03971 62.0276 8.34664C61.887 8.65357 61.6885 8.91488 61.4321 9.13057C61.184 9.34625 60.8987 9.51216 60.5761 9.62829C60.2619 9.74443 59.931 9.8025 59.5837 9.8025C59.1122 9.8025 58.6739 9.70295 58.2687 9.50386C57.8717 9.29647 57.5202 9.02687 57.2141 8.69505C56.9164 8.35494 56.6724 7.99409 56.4822 7.61249L57.3258 7.04011Z" fill="black"/>
<path d="M49.1755 0.967818H50.2299V6.81613C50.2299 7.21431 50.3003 7.56272 50.4408 7.86136C50.5897 8.16 50.8048 8.39227 51.086 8.55818C51.3672 8.72409 51.7145 8.80704 52.128 8.80704C52.5416 8.80704 52.8889 8.72409 53.1701 8.55818C53.4513 8.39227 53.6622 8.16 53.8028 7.86136C53.9517 7.56272 54.0261 7.21431 54.0261 6.81613V0.967818H55.0806V6.81613C55.0806 7.24749 55.0103 7.64568 54.8697 8.01068C54.7374 8.37568 54.5389 8.69091 54.2743 8.95636C54.0179 9.22182 53.7077 9.4292 53.3438 9.57852C52.9799 9.72784 52.5747 9.8025 52.128 9.8025C51.6814 9.8025 51.2762 9.72784 50.9123 9.57852C50.5484 9.4292 50.2341 9.22182 49.9694 8.95636C49.713 8.69091 49.5145 8.37568 49.374 8.01068C49.2416 7.64568 49.1755 7.24749 49.1755 6.81613V0.967818Z" fill="black"/>
<path d="M49.2375 13.411H50.292V22.1213H49.2375V13.411Z" fill="black"/>
<path d="M59.908 13.411H58.8535V19.8939L52.2784 12.9755V22.1213H53.3329V15.6384L59.908 22.5568V13.411Z" fill="black"/>
<path d="M61.0293 14.4065V13.411H66.5499V14.4065H64.3169V22.1213H63.2624V14.4065H61.0293Z" fill="black"/>
<path d="M72.6269 21.1258H68.719V17.8906H72.3787V16.8951H68.719V14.4065H72.6269V13.411H67.6645V22.1213H72.6269V21.1258Z" fill="black"/>
<path fill-rule="evenodd" clip-rule="evenodd" d="M75.5398 18.6372H76.597L79.0135 22.1213H80.3161L77.7285 18.5397C77.9455 18.4886 78.1506 18.4174 78.3435 18.3261C78.7901 18.1104 79.1416 17.8076 79.398 17.4177C79.6627 17.0196 79.795 16.555 79.795 16.0241C79.795 15.4849 79.6627 15.0204 79.398 14.6305C79.1416 14.2406 78.7901 13.9419 78.3435 13.7346C77.9052 13.5189 77.4048 13.411 76.8424 13.411H74.4853V22.1213H75.5398V18.6372ZM76.8424 14.3443H75.5398V17.7039H76.8424C77.2146 17.7039 77.5413 17.6376 77.8225 17.5048C78.112 17.3721 78.3353 17.1813 78.4924 16.9325C78.6578 16.6836 78.7405 16.3808 78.7405 16.0241C78.7405 15.6674 78.6578 15.3646 78.4924 15.1157C78.3353 14.8669 78.112 14.6761 77.8225 14.5434C77.5413 14.4106 77.2146 14.3443 76.8424 14.3443Z" fill="black"/>
<path d="M82.4818 13.411H81.4273V22.1213H82.4818V13.411Z" fill="black"/>
<path fill-rule="evenodd" clip-rule="evenodd" d="M83.9719 17.7662C83.9719 17.1274 84.0794 16.5384 84.2945 15.9992C84.5178 15.4517 84.8279 14.9789 85.2249 14.5807C85.6219 14.1742 86.0892 13.859 86.6268 13.635C87.1643 13.4027 87.7474 13.2866 88.376 13.2866C89.0128 13.2866 89.5959 13.4027 90.1252 13.635C90.6628 13.859 91.1301 14.1742 91.5271 14.5807C91.9241 14.9789 92.2301 15.4517 92.4451 15.9992C92.6684 16.5384 92.7801 17.1274 92.7801 17.7662C92.7801 18.3966 92.6684 18.9856 92.4451 19.5331C92.2301 20.0806 91.9241 20.5576 91.5271 20.9641C91.1301 21.3622 90.6628 21.6775 90.1252 21.9097C89.5959 22.1337 89.0128 22.2457 88.376 22.2457C87.7474 22.2457 87.1643 22.1337 86.6268 21.9097C86.0892 21.6775 85.6219 21.3622 85.2249 20.9641C84.8279 20.5576 84.5178 20.0806 84.2945 19.5331C84.0794 18.9856 83.9719 18.3966 83.9719 17.7662ZM85.0884 17.7662C85.0884 18.2556 85.167 18.7118 85.3242 19.1349C85.4896 19.5497 85.7211 19.9105 86.0189 20.2175C86.3166 20.5244 86.664 20.765 87.061 20.9392C87.4662 21.1051 87.9046 21.188 88.376 21.188C88.8474 21.188 89.2816 21.1051 89.6786 20.9392C90.0839 20.765 90.4354 20.5244 90.7331 20.2175C91.0308 19.9105 91.2583 19.5497 91.4154 19.1349C91.5808 18.7118 91.6635 18.2556 91.6635 17.7662C91.6635 17.2767 91.5808 16.8246 91.4154 16.4098C91.2583 15.9868 91.0308 15.6218 90.7331 15.3148C90.4354 15.0079 90.0839 14.7715 89.6786 14.6056C89.2816 14.4314 88.8474 14.3443 88.376 14.3443C87.9046 14.3443 87.4662 14.4314 87.061 14.6056C86.664 14.7715 86.3166 15.0079 86.0189 15.3148C85.7211 15.6218 85.4896 15.9868 85.3242 16.4098C85.167 16.8246 85.0884 17.2767 85.0884 17.7662Z" fill="black"/>
<path fill-rule="evenodd" clip-rule="evenodd" d="M96.3809 18.6372H95.3237V22.1213H94.2692V13.411H96.6264C97.1888 13.411 97.6891 13.5189 98.1275 13.7346C98.5741 13.9419 98.9256 14.2406 99.182 14.6305C99.4466 15.0204 99.5789 15.4849 99.5789 16.0241C99.5789 16.555 99.4466 17.0196 99.182 17.4177C98.9256 17.8076 98.5741 18.1104 98.1275 18.3261C97.9345 18.4174 97.7295 18.4886 97.5125 18.5397L100.1 22.1213H98.7974L96.3809 18.6372ZM95.3237 14.3443H96.6264C96.9985 14.3443 97.3252 14.4106 97.6064 14.5434C97.8959 14.6761 98.1192 14.8669 98.2763 15.1157C98.4417 15.3646 98.5245 15.6674 98.5245 16.0241C98.5245 16.3808 98.4417 16.6836 98.2763 16.9325C98.1192 17.1813 97.8959 17.3721 97.6064 17.5048C97.3252 17.6376 96.9985 17.7039 96.6264 17.7039H95.3237V14.3443Z" fill="black"/>
<path fill-rule="evenodd" clip-rule="evenodd" d="M49.2375 25.8542H51.8427C52.4795 25.8542 53.0626 25.9579 53.5919 26.1653C54.1213 26.3727 54.5761 26.6713 54.9566 27.0612C55.3453 27.4428 55.6472 27.9032 55.8622 28.4424C56.0772 28.9733 56.1848 29.5623 56.1848 30.2094C56.1848 30.8564 56.0772 31.4495 55.8622 31.9887C55.6472 32.5197 55.3453 32.9801 54.9566 33.3699C54.5761 33.7515 54.1213 34.046 53.5919 34.2534C53.0626 34.4608 52.4795 34.5645 51.8427 34.5645H49.2375V25.8542ZM50.292 33.5068V26.9119H51.8427C52.3307 26.9119 52.7773 26.9907 53.1825 27.1483C53.5878 27.2977 53.9352 27.5175 54.2246 27.8078C54.5141 28.0899 54.7374 28.4341 54.8946 28.8406C55.0517 29.2471 55.1303 29.7033 55.1303 30.2094C55.1303 30.7154 55.0517 31.1716 54.8946 31.5781C54.7374 31.9846 54.5141 32.333 54.2246 32.6233C53.9352 32.9054 53.5878 33.1252 53.1825 33.2828C52.7773 33.4322 52.3307 33.5068 51.8427 33.5068H50.292Z" fill="black"/>
<path d="M62.6319 33.569H58.7241V30.3338H62.3838V29.3383H58.7241V26.8497H62.6319V25.8542H57.6696V34.5645H62.6319V33.569Z" fill="black"/>
<path d="M64.8129 31.9265C65.0114 32.2749 65.2182 32.5819 65.4332 32.8473C65.6565 33.1128 65.9046 33.3202 66.1776 33.4695C66.4505 33.6188 66.7606 33.6935 67.108 33.6935C67.4223 33.6935 67.6911 33.6354 67.9144 33.5193C68.146 33.4031 68.3238 33.2414 68.4478 33.034C68.5802 32.8266 68.6463 32.5902 68.6463 32.3247C68.6463 31.9348 68.5554 31.6237 68.3734 31.3915C68.1915 31.1592 67.9516 30.9725 67.6539 30.8315C67.3644 30.6822 67.0542 30.5495 66.7234 30.4333C66.5084 30.3587 66.2685 30.2633 66.0039 30.1471C65.7392 30.0227 65.487 29.8692 65.2471 29.6867C65.0073 29.496 64.8088 29.2637 64.6516 28.9899C64.5028 28.7162 64.4283 28.3802 64.4283 27.982C64.4283 27.5507 64.5359 27.1649 64.7509 26.8248C64.9659 26.4847 65.2637 26.2192 65.6441 26.0284C66.0246 25.8294 66.4588 25.7298 66.9467 25.7298C67.4182 25.7298 67.8275 25.8211 68.1749 26.0036C68.5305 26.1778 68.8324 26.4059 69.0805 26.6879C69.3287 26.9617 69.523 27.252 69.6636 27.559L68.758 28.0816C68.6505 27.8659 68.514 27.6544 68.3486 27.447C68.1832 27.2396 67.9806 27.0695 67.7407 26.9368C67.5091 26.8041 67.2238 26.7377 66.8847 26.7377C66.5704 26.7377 66.314 26.7916 66.1155 26.8995C65.917 27.0073 65.7682 27.1442 65.6689 27.3101C65.5779 27.476 65.5325 27.6544 65.5325 27.8452C65.5325 28.0277 65.5655 28.1977 65.6317 28.3553C65.6979 28.5129 65.8054 28.6623 65.9543 28.8033C66.1114 28.9443 66.3182 29.0812 66.5746 29.2139C66.8392 29.3466 67.1618 29.4794 67.5422 29.6121C67.7738 29.695 68.0178 29.8029 68.2742 29.9356C68.5305 30.0683 68.7663 30.2384 68.9813 30.4458C69.2046 30.6449 69.3866 30.8896 69.5271 31.1799C69.6677 31.462 69.738 31.8021 69.738 32.2003C69.738 32.5819 69.6636 32.9261 69.5147 33.2331C69.3741 33.54 69.1757 33.8013 68.9193 34.017C68.6711 34.2327 68.3858 34.3986 68.0633 34.5147C67.749 34.6309 67.4182 34.6889 67.0708 34.6889C66.5994 34.6889 66.161 34.5894 65.7558 34.3903C65.3588 34.1829 65.0073 33.9133 64.7013 33.5815C64.4035 33.2414 64.1596 32.8805 63.9693 32.4989L64.8129 31.9265Z" fill="black"/>
<path d="M72.3414 25.8542H71.2869V34.5645H72.3414V25.8542Z" fill="black"/>
<path d="M78.3597 31.1426V30.1471H82.3916C82.3916 30.7527 82.3006 31.3293 82.1187 31.8768C81.9367 32.416 81.6679 32.8971 81.3123 33.3202C80.9567 33.7432 80.5183 34.0792 79.9973 34.3281C79.4845 34.5686 78.8973 34.6889 78.2357 34.6889C77.6071 34.6889 77.024 34.5811 76.4864 34.3654C75.9489 34.1414 75.4816 33.8303 75.0846 33.4322C74.6876 33.0257 74.3774 32.5487 74.1541 32.0012C73.9391 31.4537 73.8316 30.8564 73.8316 30.2094C73.8316 29.5623 73.9391 28.965 74.1541 28.4175C74.3774 27.87 74.6876 27.3972 75.0846 26.999C75.4816 26.5925 75.9489 26.2815 76.4864 26.0658C77.024 25.8418 77.6071 25.7298 78.2357 25.7298C78.7732 25.7298 79.2653 25.8003 79.712 25.9413C80.1668 26.0824 80.5721 26.2898 80.9277 26.5635C81.2916 26.8373 81.5976 27.1774 81.8458 27.5838L81.1014 28.2682C80.8285 27.8037 80.448 27.4428 79.9601 27.1857C79.4721 26.9202 78.8973 26.7875 78.2357 26.7875C77.7808 26.7875 77.3507 26.8704 76.9455 27.0363C76.5485 27.2023 76.2011 27.4387 75.9034 27.7456C75.6056 28.0442 75.3699 28.4051 75.1962 28.8282C75.0308 29.2429 74.9481 29.7033 74.9481 30.2094C74.9481 30.7154 75.0308 31.1799 75.1962 31.603C75.3699 32.0178 75.6056 32.3786 75.9034 32.6856C76.2011 32.9842 76.5485 33.2165 76.9455 33.3824C77.3507 33.5483 77.7808 33.6312 78.2357 33.6312C78.6657 33.6312 79.0503 33.569 79.3894 33.4446C79.7368 33.3119 80.0345 33.1294 80.2826 32.8971C80.5307 32.6648 80.7334 32.3994 80.8905 32.1007C81.0559 31.8021 81.1758 31.4827 81.2503 31.1426H78.3597Z" fill="black"/>
<path d="M91.5768 25.8542H90.5223V32.3372L83.9472 25.4187V34.5645H85.0017V28.0816L91.5768 35V25.8542Z" fill="black"/>
</svg>
