<svg width="45" height="35" viewBox="0 0 45 35" fill="none" xmlns="http://www.w3.org/2000/svg">
<path d="M0.149845 7.65625C0.149845 5.57292 0.965668 3.80208 2.59731 2.34375C4.22896 0.78125 6.15197 0 8.36635 0C9.29872 0 10.2894 0.208333 11.3383 0.625L11.1635 0.46875L12.2124 0.9375H12.3872C12.7368 1.14583 13.1447 1.40625 13.6109 1.71875C13.6109 1.82292 13.7857 2.03125 14.1354 2.34375C17.049 4.94792 18.2728 8.85417 17.8066 14.0625C17.3404 21.5625 12.9116 28.3333 4.52032 34.375C4.05414 34.7917 3.52968 35 2.94695 35C2.01458 35 1.25703 34.6354 0.674303 33.9062C-0.374613 32.6562 -0.199793 31.5104 1.19876 30.4688C8.07498 25.4688 11.8045 20.0521 12.3872 14.2188C11.1052 14.9479 9.7649 15.3125 8.36635 15.3125C6.15197 15.3125 4.22896 14.5833 2.59731 13.125C0.965668 11.5625 0.149845 9.73958 0.149845 7.65625ZM27.2468 7.65625C27.2468 5.57292 28.0626 3.80208 29.6943 2.34375C31.3259 0.78125 33.2489 0 35.4633 0C36.3957 0 37.3863 0.208333 38.4352 0.625L38.2604 0.46875C38.6101 0.572917 38.9597 0.729167 39.3093 0.9375H39.4842C39.9503 1.14583 40.3583 1.40625 40.7079 1.71875C40.7079 1.82292 40.8827 2.03125 41.2324 2.34375C44.146 4.94792 45.3697 8.85417 44.9036 14.0625C44.4374 21.5625 40.0086 28.3333 31.6173 34.375C31.1511 34.7917 30.6267 35 30.0439 35C29.1116 35 28.4123 34.6354 27.9461 33.9062C26.7806 32.6562 26.8972 31.5104 28.2957 30.4688C35.172 25.4688 38.9014 20.0521 39.4842 14.2188C38.2022 14.9479 36.8619 15.3125 35.4633 15.3125C33.2489 15.3125 31.3259 14.5833 29.6943 13.125C28.0626 11.5625 27.2468 9.73958 27.2468 7.65625Z" fill="#689210"/>
</svg>
