<svg width="68" height="41" viewBox="0 0 68 41" fill="none" xmlns="http://www.w3.org/2000/svg">
<path d="M5.41311 1.60107V5.33232H5.79344V8.10154H0V30.6958H5.70499V32.6379H10.7643V16.1395H17V5.33232V1.60107H5.41311Z" fill="#616B73"/>
<path d="M25.9148 23.6274H29V26.6762L29 40.6476H11V36.8481H11.4554V23.6274H25.9148Z" fill="#AD9672"/>
<path d="M55.5662 36.9794V25.6299H49.5926V27.1149H42.9051H42.8961H30V36.9794H38.1696V40.6477H56V36.9794H55.5662Z" fill="#616B73"/>
<path d="M50 1.60107H61.5385V5.37025H61.5595V8.23716H68V31.6192H61.809V33.6391H56.2464V24.8894H50V1.60107Z" fill="#616B73"/>
<path d="M49 5.51481H44.5995V0.600098H34V15.0209H37.344V16.6191H49V5.51481Z" fill="#616B73"/>
<path d="M18 5.51481H22.4065V0.600098H33V15.0209H29.6547V16.6191H18V5.51481Z" fill="#616B73"/>
</svg>
