<svg width="112" height="94" viewBox="0 0 112 94" fill="none" xmlns="http://www.w3.org/2000/svg">
<path d="M111 87.0494V22.0715L111 23.7897H108.997V85.0372H110.977V87.0494L111 87.0494Z" fill="#E5C696"/>
<path d="M71.6403 23.7897H71.0102V50.31H71.6403L71.6403 23.7897Z" fill="#E5C696"/>
<path d="M73.0131 23.7671V21.7776H71.6403V23.7671H73.0131Z" fill="#E5C696"/>
<path d="M79.3367 21.8906V21.7776H73.0131V23.7671H71.6403V23.7897H79.3367V23.7219V23.0437V22.5915V21.8906Z" fill="#E5C696"/>
<path d="M108.997 22.0715H111L111 21.7776H102.741V21.8906H102.786V22.5915V23.0437V23.7219H102.741V23.7897H108.997V22.0715Z" fill="#E5C696"/>
<path d="M111 22.0715H108.997V23.7897H111L111 22.0715Z" fill="#E5C696"/>
<path d="M71.0102 21.7776V23.7671H71.6403V21.7776H71.0102Z" fill="#E5C696"/>
<path d="M73.0131 2.33392H72.9906V3.01219H71.0102V21.7549H71.6403V21.7776H73.0131V2.33392Z" fill="#E5C696"/>
<path d="M72.9906 1H64.9341V1.09044V1.79131V2.24349V2.92175V3.01219H71.0102V2.33392H72.9906V1Z" fill="#E5C696"/>
<path d="M72.9906 3.01219V2.33392H71.0102V3.01219H72.9906Z" fill="#E5C696"/>
<path d="M41.4849 1H32.2132V1.09044H32.2357V1.79131V2.24349V2.92175H32.2132V3.01219H36.0614V2.24349H36.6915V3.01219H41.4849L41.4849 2.92175V2.24349V1.79131V1.09044L41.4849 1Z" fill="#E5C696"/>
<path d="M36.6915 2.24349H36.0614V3.01219H36.6915V2.24349Z" fill="#E5C696"/>
<path d="M36.5565 50.31H36.6915V3.01219H36.0614V55.8265H36.6915V50.943H36.5565V50.31Z" fill="#E5C696"/>
<path d="M1 1.18087H3.00286V3.01219H8.78641V2.92175L8.78642 2.24349V1.79131L8.78641 1.09044V1H1V1.18087Z" fill="#E5C696"/>
<path d="M3.00286 1.18087H1V3.01219H3.00286V1.18087Z" fill="#E5C696"/>
<path d="M1 3.01219V85.0372H3.00286V65.3901H2.01268V64.757H3.00286V3.01219H1Z" fill="#E5C696"/>
<path d="M36.0614 65.3901V64.757H3.00286V65.3901H36.0614Z" fill="#E5C696"/>
<path d="M2.01268 64.757V65.3901H3.00286V64.757H2.01268Z" fill="#E5C696"/>
<path d="M36.6915 64.3501H36.0614V64.757H36.669V65.3901H36.0614V66.317H36.6915V64.3501Z" fill="#E5C696"/>
<path d="M36.669 65.3901V64.757H36.0614V65.3901H36.669Z" fill="#E5C696"/>
<path d="M1 86.3485H3.00286V85.0372H1V86.3485Z" fill="#E5C696"/>
<path d="M3.00286 86.3485H1V87.0494H41.1698V85.0372H36.6915V85.625H36.0614V85.0372H3.00286V86.3485Z" fill="#E5C696"/>
<path d="M36.0614 85.625H36.6915V85.0372H36.0614V85.625Z" fill="#E5C696"/>
<path d="M36.6915 74.6823H36.0614V85.0372H36.6915V74.6823Z" fill="#E5C696"/>
<path d="M49.5638 87.0494L108.997 87.0494V85.0372H72.9231V85.8963H72.293V85.0372H53.9071V85.8963H53.277V85.0372H49.5638V87.0494Z" fill="#E5C696"/>
<path d="M53.277 85.8963H53.9071V85.0372H53.277V85.8963Z" fill="#E5C696"/>
<path d="M53.9071 82.8215H53.277V85.0372H53.9071V82.8215Z" fill="#E5C696"/>
<path d="M53.6371 74.411V64.3048H53.007V74.411H53.6371Z" fill="#E5C696"/>
<path d="M53.6371 63.6718H53.007V64.3048H53.6371V63.6718Z" fill="#E5C696"/>
<path d="M72.293 63.6718H53.6371V64.3048H72.293V63.6718Z" fill="#E5C696"/>
<path d="M72.9231 63.6718H72.563V64.3048H72.293V85.0372H72.9231V63.6718Z" fill="#E5C696"/>
<path d="M72.293 85.8963H72.9231V85.0372H72.293V85.8963Z" fill="#E5C696"/>
<path d="M72.563 63.6718H72.293V64.3048H72.563V63.6718Z" fill="#E5C696"/>
<path d="M108.997 87.0494L110.977 87.0494V85.0372H108.997V87.0494Z" fill="#E5C696"/>
<path d="M71.0102 50.9204H71.6403L71.6403 50.31H71.0102V50.9204Z" fill="#E5C696"/>
<path d="M71.6403 50.9204H71.0102V50.31H69.7725V50.943H71.6403L71.6403 50.9204Z" fill="#E5C696"/>
<path d="M61.401 50.943V50.31H36.6915V50.943H61.401Z" fill="#E5C696"/>
<path d="M108.75 77.8702V84.8563H73.1481V63.7396H79.6518V84.8563V77.8702H108.75ZM108.75 77.8702L101.818 77.8476L101.796 53.3848H108.772L108.75 77.8702ZM111 22.0715H108.997V23.7897M111 22.0715V87.0494M111 22.0715L111 23.7897M111 22.0715L111 21.7776M111 87.0494H108.997M111 87.0494L110.977 87.0494M108.997 87.0494V85.0372M108.997 87.0494L49.5638 87.0494M108.997 87.0494L110.977 87.0494M1 1.18087H3.00286V3.01219M1 1.18087V86.3485M1 1.18087V1M1 1.18087V3.01219M1 86.3485H3.00286V85.0372M1 86.3485V85.0372M1 86.3485V87.0494M71.0102 23.7671H71.6403M71.0102 23.7671V21.7776M71.0102 23.7671V3.01219M41.4849 1H32.2132V1.09044M41.4849 1V3.01219M41.4849 1L41.4849 1.09044M41.4849 3.01219H36.6915M41.4849 3.01219L41.4849 2.92175M1 1H8.78641M1 1V3.01219M8.78641 1V3.01219M8.78641 1V1.09044M8.78641 3.01219H3.00286M8.78641 3.01219V2.92175M1 3.01219H3.00286M1 3.01219V85.0372M64.9341 1H72.9906V2.33392M64.9341 1V3.01219M64.9341 1V1.09044M64.9341 3.01219H71.0102M64.9341 3.01219V2.92175M71.0102 21.7776V23.7897M71.0102 21.7776H71.6403M79.3367 21.7776V23.7897M79.3367 21.7776H73.0131M79.3367 21.7776L79.3367 21.8906M79.3367 23.7897H71.6403M79.3367 23.7897L79.3367 23.7219M71.0102 23.7897H71.6403M71.0102 23.7897V50.31M111 21.7776H102.741V21.8906M111 21.7776V23.7897M111 23.7897H108.997M110.977 87.0494V85.0372H108.997M110.977 87.0494H49.5638M49.5638 87.0494V85.0372H53.277M1 85.0372V87.0494M1 85.0372H3.00286M1 87.0494H41.1698V85.0372H36.6915M71.0102 21.7549H71.6403V21.7776M71.0102 21.7549V50.31M71.0102 21.7549V3.01219M71.6403 50.9204H71.0102V50.31M71.6403 50.9204V23.7897M71.6403 50.9204L71.6403 50.31M71.6403 50.9204L71.6403 50.943M53.007 63.6718H53.6371M53.007 63.6718V74.411M53.007 63.6718H72.563M53.007 63.6718V64.3048M53.6371 63.6718V64.3048M53.6371 63.6718H72.293M53.007 74.411H53.6371V64.3048M53.007 74.411V64.3048M72.293 63.6718H72.9231M72.293 63.6718V64.3048M72.293 63.6718H72.563M72.9231 63.6718V85.0372M72.9231 63.6718H72.563M71.6403 50.31V50.943M71.6403 50.31H71.0102M71.6403 50.31L71.6403 23.7897M71.6403 50.943H69.7725V50.31H71.0102M72.563 63.6718V64.3048H72.293M53.007 64.3048H53.6371M8.78641 1.09044V2.92175M8.78641 1.09044H32.2132M8.78641 1.09044L8.78642 1.79131M32.2357 1.09044V2.92175M32.2357 1.09044H32.2132M32.2357 1.09044V1.79131M32.2357 2.92175V2.24349M32.2357 2.92175H32.2132M8.78641 2.92175H32.2132M8.78641 2.92175L8.78642 2.24349M8.78642 1.79131H32.2357M8.78642 1.79131V2.24349M32.2357 1.79131V2.24349M32.2357 2.24349H8.78642M41.4849 1.09044H64.9341M41.4849 1.09044V2.92175M41.4849 1.09044V1.79131M64.9341 1.09044V2.92175M64.9341 1.09044V1.79131M64.9341 2.92175H41.4849M64.9341 2.92175V2.24349M41.4849 2.92175V2.24349M41.4849 1.79131H64.9341M41.4849 1.79131V2.24349M64.9341 1.79131V2.24349M64.9341 2.24349H41.4849M79.3367 21.8906V23.7219M79.3367 21.8906H102.741M79.3367 21.8906L79.3367 22.5915M102.786 21.8906V23.7219M102.786 21.8906H102.741M102.786 21.8906V22.5915M102.786 23.7219V23.0437M102.786 23.7219H102.741M79.3367 23.7219H102.741M79.3367 23.7219L79.3367 23.0437M79.3367 22.5915H102.786M79.3367 22.5915V23.0437M102.786 22.5915V23.0437M102.786 23.0437H79.3367M5.4108 46.8056C5.43331 47.0091 5.4108 47.1447 5.34329 47.1447C5.27578 47.1447 5.18576 46.9186 5.14075 46.6247C5.09574 46.3308 5.11825 46.0821 5.18576 46.0821C5.23077 46.0821 5.29828 46.1725 5.34329 46.3534M6.13093 47.823C6.06342 47.8456 5.9734 47.8682 5.90589 47.8908C5.18576 48.0039 4.48813 47.5065 4.37561 46.783C4.26309 46.0595 4.75818 45.3586 5.47831 45.2456C5.56833 45.223 5.63584 45.223 5.72586 45.223M6.42349 45.3586C6.78355 45.5395 7.0536 45.9012 7.12111 46.3308C7.18862 46.7604 7.0536 47.1673 6.78355 47.4612M5.9284 42.4195L7.21113 50.3778L6.78355 50.4456L5.50082 42.4873L5.83838 42.4195M5.86088 46.0821L5.27578 46.4212L5.32079 46.783L5.99591 46.9412M5.68085 46.8508L5.59083 46.2404M5.59083 43.0525L5.43331 43.256M6.44599 49.7221L5.4108 43.3012M6.67103 49.8804L6.491 49.7221M68.1522 69.1205H69.1424M68.1522 65.1414L69.1199 65.2092M68.1747 68.0579L69.1199 68.171M68.1522 67.1762L69.1199 67.1988M68.1522 66.0005H69.1424M69.1199 74.0945H68.1522M69.1424 70.1605L68.1522 70.1832M69.1199 73.0319L68.1522 73.0997M69.1199 72.0823L68.1747 72.1953M69.1199 70.9519H68.1522M68.6923 64.5309V84.6754M69.1649 80.1537H68.1972M69.1649 84.1554L68.1972 84.0876M69.1649 81.2163L68.1972 81.1259M69.1649 82.1433L68.1972 82.0302M69.1649 83.2963H68.1972M68.1972 75.2023H69.1649M68.1972 79.1363L69.1649 79.1137M68.1972 76.2423L69.1649 76.1745M68.1972 77.1919L69.1649 77.0789M68.1972 78.3224H69.1649M15.2901 57.2283H3.16039V64.5988H15.2901M8.6964 61.4787V60.3935M3.90303 61.4787L3.97054 60.4161M7.39116 61.4561L7.52619 60.4161M6.35597 61.4787L6.37848 60.3935M4.93822 61.4787V60.3935M14.6375 60.3935V61.4787M9.91162 60.3935L9.95663 61.4787M13.3772 60.3935L13.4673 61.4561M12.252 60.4161L12.3871 61.4561M10.8793 60.3935V61.4787M15.3126 64.5988H27.4423V57.2283H15.3126M3.1829 60.8909H27.3298M21.9288 60.3483V61.4335M26.6997 60.3709L26.6322 61.4335M23.2115 60.3709L23.0765 61.4109M24.3142 60.3709L24.1792 61.4109M25.6645 60.3483V61.4335M15.9652 61.4335V60.3483M20.6911 61.4335L20.6461 60.3483M17.2254 61.4335L17.1579 60.3709M18.3507 61.4109L18.2156 60.3709M19.7234 61.4335V60.3483M53.7046 82.6859H61.536C61.536 82.6859 61.4685 74.7502 53.7721 74.5467M53.7046 82.1659H61.491M36.2864 66.4301H28.455C28.455 66.4301 28.5225 74.3658 36.2189 74.5693M36.2864 66.9501H28.5M36.2864 64.1014H28.455C28.455 64.1014 28.5225 56.1657 36.2189 55.9622M36.2864 63.5814H28.5M69.615 50.5587V42.6908C69.615 42.6908 61.716 42.7586 61.5135 50.4908M69.1649 42.736L69.1874 50.5587M73.3282 25.1915H72.023L71.8204 25.3498V49.3604L71.978 49.5413L73.3282 49.5639V50.5134L73.5307 50.7395L81.3847 50.7621L81.6097 50.5361V48.3656L82.0598 48.343L82.2623 48.1395L82.2398 26.5932L81.9923 26.3898H81.6322M73.3282 25.1915L73.3507 24.1741L73.5533 23.9932H81.4072L81.6097 24.1515L81.6322 26.3898M73.3282 25.1915H72.1129C71.9329 25.1915 71.7979 25.3272 71.7979 25.4854V49.2473C71.7979 49.4056 71.9329 49.5413 72.1129 49.5413L73.3281 49.5413M81.6322 26.3898L81.6322 24.2871C81.6322 24.1289 81.4971 23.9932 81.3171 23.9932H73.6432C73.4632 23.9932 73.3281 24.1289 73.3281 24.2871V25.7793M81.9247 33.715H75.8036C75.6236 33.715 75.4885 33.8507 75.4885 34.009M81.9247 33.715C82.1047 33.715 82.2398 33.8507 82.2398 34.009V40.7238M81.9247 33.715C82.1047 33.715 82.2398 33.5794 82.2398 33.4211M73.6432 50.7621H81.3171C81.4971 50.7621 81.6322 50.6265 81.6322 50.4682M81.9247 41.0403H75.8036C75.6236 41.0403 75.4885 41.176 75.4885 41.3342M81.9247 41.0403C82.1047 41.0403 82.2398 41.176 82.2398 41.3342V48.0491C82.2398 48.2073 82.1047 48.343 81.9247 48.343H75.8036C75.6236 48.343 75.4885 48.2073 75.4885 48.0491V41.3342M81.9247 41.0403C82.1047 41.0403 82.2398 40.9047 82.2398 40.7464M81.6322 50.4456V48.343M82.2398 33.3985V26.6837C82.2398 26.5254 82.1047 26.3898 81.9247 26.3898H75.8036C75.6236 26.3898 75.4885 26.5254 75.4885 26.6837M75.4885 34.009V40.7238C75.4885 40.8821 75.6236 41.0177 75.8036 41.0177M75.4885 34.009C75.4885 33.8507 75.3535 33.715 75.1735 33.715M74.2508 34.009V40.7238C74.2508 40.8821 74.3858 41.0177 74.5659 41.0177M74.2508 34.009C74.2508 33.8507 74.1158 33.715 73.9358 33.715M74.2508 34.009C74.2508 33.8507 74.3858 33.715 74.5659 33.715H75.1735M73.3281 48.9534V50.4456C73.3281 50.5587 73.3957 50.6717 73.5082 50.7169C73.5532 50.7395 73.5982 50.7395 73.6432 50.7395M74.2508 48.6595V41.3342M74.2508 41.3342C74.2508 41.176 74.1158 41.0403 73.9358 41.0403M74.2508 41.3342C74.2508 41.176 74.3858 41.0403 74.5659 41.0403H75.1735M75.4885 41.3342C75.4885 41.176 75.3535 41.0403 75.1735 41.0403M74.0708 48.9308L75.286 48.3204C75.3985 48.2752 75.466 48.1621 75.466 48.0491M74.2733 48.6595C74.2733 48.8178 74.1383 48.9534 73.9583 48.9534H72.7205C72.5405 48.9534 72.4055 48.8178 72.4055 48.6595V41.3342C72.4055 41.176 72.5405 41.0403 72.7205 41.0403H73.9583C74.1383 41.0403 74.2733 40.9047 74.2733 40.7464M75.1735 41.0403C75.3535 41.0403 75.4885 40.9047 75.4885 40.7464M72.7205 41.0177C72.5405 41.0177 72.4055 40.8821 72.4055 40.7238V34.009C72.4055 33.8507 72.5405 33.715 72.7205 33.715H73.9583C74.1383 33.715 74.2733 33.5794 74.2733 33.4211M72.4055 26.0959V33.3985C72.4055 33.5568 72.5405 33.6924 72.7205 33.6924M75.4885 26.6837V33.3985C75.4885 33.5568 75.6236 33.6924 75.8036 33.6924M75.4885 26.6837C75.4885 26.5706 75.421 26.4576 75.3085 26.4124M75.1735 33.715C75.3535 33.715 75.4885 33.5794 75.4885 33.4211M74.5659 33.6924C74.3858 33.6924 74.2508 33.5568 74.2508 33.3985V26.0959C74.2508 25.9376 74.1158 25.8019 73.9358 25.8019M73.9583 25.7793H72.7205C72.5405 25.7793 72.4055 25.915 72.4055 26.0732M75.286 26.4124L74.1158 25.8245M69.1874 23.6315L69.705 28.7637C69.705 28.8541 69.6375 28.9446 69.525 28.922L68.3772 28.515M69.1874 23.6541C69.1874 23.5637 69.0749 23.4958 68.9849 23.5184L67.9497 24.1515M47.9435 30.5498C47.9885 30.5724 48.0561 30.5724 48.1011 30.5498C48.2586 30.5046 48.3486 30.3463 48.2811 30.2107C47.8985 28.7637 48.4161 27.9046 48.2586 26.1637M38.6268 30.1881C38.6493 30.3463 38.6718 30.5046 38.8519 30.5046C41.9574 30.6855 44.9055 30.4141 47.921 30.5724M38.6493 30.1881C38.6043 28.6733 38.8069 27.9724 38.8294 27.2037M38.6944 26.3672C38.6718 26.0732 38.9194 25.8245 39.2344 25.8019C39.2795 25.8019 39.347 25.8019 39.392 25.8245C42.2275 26.3898 45.018 26.1411 47.921 25.9828C48.0561 25.9828 48.2811 25.915 48.2586 26.1411M39.1669 28.9898C39.1894 28.2663 38.7619 27.1133 38.6944 26.3898M42.205 25.6663V21.8454H37.4116L42.205 25.6663ZM42.205 25.6663H49.2938M42.205 25.0785H49.2938M48.2136 42.6229H36.849V50.0613H48.2136M42.025 46.896V45.8334M37.5466 46.896L37.6142 45.8334M40.8322 46.896L40.9448 45.8334M39.8421 46.896L39.8646 45.8334M38.5143 46.896V45.8334M47.606 45.8334V46.896M43.1727 45.8334L43.2177 46.896M46.4133 45.8334L46.5033 46.896M45.3556 45.8334L45.4906 46.896M44.0953 45.8334V46.896M48.2361 50.0613H59.5781V42.6229H48.2361M36.8715 46.3082H59.4881M54.4247 45.7882V46.8508M58.903 45.7882L58.8355 46.8508M55.6174 45.7882L55.4824 46.8508M56.6526 45.7882L56.5176 46.8508M57.9353 45.7882V46.8508M48.8437 46.8508V45.7882M53.2545 46.8508L53.232 45.7882M50.0139 46.8508L49.9464 45.7882M51.0941 46.8508L50.9591 45.7882M52.3543 46.8508V45.7882M66.3969 10.134L67.0495 10.7896L68.5573 12.3949L69.4799 13.3218L68.6248 11.6488L67.7696 10.4731L67.0045 9.54615L67.1395 9.36528C67.1395 9.36528 68.4448 10.247 68.4673 10.2244C68.4898 10.2018 69.9075 11.4679 69.9075 11.4679L68.6248 9.9305L67.9947 9.38789L67.2745 8.91311V8.16701L68.2872 7.82788H66.8245L67.4096 7.26266L67.9272 6.56178L68.3998 5.56699L67.7921 6.20004L67.0495 6.83309L66.3744 7.21744L66.6444 6.33569L66.8695 5.22786L66.8245 4.34611L66.4644 5.5896L65.8793 6.607L65.7218 6.58439L65.6993 5.79308L65.3392 6.72004L64.8666 6.81048L64.1915 5.77047L63.0888 4.16524L62.7062 3.75828L62.9988 4.68525L63.4939 5.81569L64.2815 7.127C64.2815 7.127 64.034 7.42092 63.9889 7.42092C63.9664 7.42092 62.8412 7.30788 62.8412 7.30788L61.6035 7.42092L60.6583 7.80527L60.4333 8.00875L61.1309 7.91832L62.3912 7.89571L63.6964 8.05397L63.6064 8.52875L62.2786 9.09398L61.2435 9.74963L60.1633 10.7444L59.6682 11.4227L60.7934 10.654L61.6935 10.134L62.7512 9.61398L63.7414 9.20702L64.124 9.81746L63.6964 10.2922L62.6162 11.3096L61.1309 12.5079L62.8187 11.694L64.079 10.7444C64.079 10.7444 64.6191 10.134 64.6416 10.1792M66.3969 10.134L66.0143 10.3149M66.3969 10.134C66.2844 10.2018 66.1493 10.2696 66.0143 10.3149M66.0143 10.3149L66.1718 11.8749L66.4644 13.4575L66.1493 13.1184L65.6542 11.8749L65.3617 10.3827M65.3617 10.3827C65.3617 10.3827 64.6641 10.2244 64.6416 10.1792M65.3617 10.3827C65.1142 10.3601 64.8666 10.2922 64.6416 10.1792M67.0495 10.767C67.9272 11.6714 68.7823 12.621 69.5925 13.5931M63.6739 10.7444C64.214 10.1114 64.6866 9.43311 65.0916 8.70963C64.2815 8.41571 63.5164 7.96353 62.8862 7.39831M63.6739 10.7218C64.4165 10.2922 65.0691 9.70442 65.6092 9.02615C66.1718 9.63659 66.6669 10.2922 67.0945 10.9931C66.9145 10.134 66.5544 9.34268 66.0818 8.61919C66.8245 8.28006 67.6121 8.00875 68.3998 7.80527C67.5446 7.73744 66.6669 7.80527 65.8343 8.05397C65.7443 7.24005 65.7218 6.40352 65.7893 5.5896M64.9341 8.80006C63.8089 10.2922 62.4362 11.581 60.8384 12.5984M64.214 8.30267C62.3236 8.82267 60.6358 9.97572 59.4656 11.5583C61.0859 10.2922 62.9538 9.34268 64.9341 8.77745M63.7414 8.03136C62.5712 7.80527 61.3785 7.80527 60.2083 8.00875C61.5585 7.19483 63.1788 7.03657 64.6641 7.57918C63.7414 6.38091 63.0663 5.02438 62.7062 3.5548C63.6064 4.79829 64.484 6.06439 65.2942 7.3757M65.7668 6.78787C66.4419 5.92873 66.847 4.86612 66.892 3.78089C67.027 4.97916 66.8245 6.17743 66.3069 7.24005C67.207 6.83309 67.9722 6.15482 68.4898 5.29569C68.1972 6.31309 67.5896 7.21744 66.757 7.8731M65.7893 5.56699C65.4517 6.38091 65.2492 7.24005 65.2267 8.09919C64.4165 7.94092 63.6289 7.69223 62.8637 7.3757M66.2619 8.8905C67.7246 9.56876 69.0299 10.5636 70.0876 11.7618C69.2549 10.2922 67.9722 9.1392 66.4419 8.46093M65.2042 9.50094C64.1015 10.9479 62.5712 12.0105 60.8384 12.5757M66.802 10.5183C66.5319 10.247 66.2619 9.97572 65.9918 9.72703C66.0143 11.1062 66.2169 12.4627 66.5769 13.774C65.7218 12.4853 65.2717 10.9479 65.3392 9.38789M66.3069 8.93571C67.7471 10.2244 68.8498 11.807 69.57 13.5931M67.252 8.14441C67.297 8.3931 67.297 8.6418 67.252 8.8905M67.117 9.34268C67.072 9.4105 67.027 9.50094 66.982 9.56876M64.124 9.79485C63.9664 9.61398 63.8314 9.4105 63.7414 9.18441M63.6289 8.50615C63.6289 8.32528 63.6514 8.16701 63.6964 8.00875M64.0115 7.39831C64.1015 7.28527 64.1915 7.19483 64.304 7.1044M64.9116 6.76526C65.0691 6.72005 65.2492 6.67483 65.4292 6.67483M65.7668 6.69744C65.7893 6.69744 65.8119 6.69744 65.8119 6.69744M66.4194 6.94613C66.4869 6.99135 66.5544 7.03657 66.5994 7.08179M67.0495 7.60179C67.0945 7.66962 67.117 7.73744 67.162 7.80527M32.6408 46.1951C33.2934 47.2804 33.901 48.3882 34.4636 49.5186C34.171 47.6195 33.4509 45.8108 32.3482 44.2282M31.0655 42.5325C29.7602 41.6734 28.1174 41.4473 26.6322 41.9221C27.8249 41.9899 28.9726 42.2838 30.0753 42.7812M29.3552 45.3586C30.0303 44.8612 30.6379 44.3186 31.2005 43.7082C30.4804 43.2334 29.8502 42.6229 29.3552 41.9221C30.0078 42.3969 30.7279 42.8264 31.4705 43.1656C31.6956 42.329 32.0781 41.5377 32.5957 40.8368C32.3482 41.6281 32.1682 42.4421 32.0781 43.256C32.9333 43.2108 33.811 43.3464 34.6211 43.6177M29.3777 45.3812C30.2103 45.1099 30.9754 44.703 31.6506 44.1603C32.0556 44.8838 32.3932 45.6299 32.6408 46.4212C32.6408 45.5395 32.5057 44.6803 32.1907 43.8664C33.0008 43.7082 33.811 43.6177 34.6436 43.6177M31.043 43.776C29.6027 44.9743 27.9599 45.9012 26.2046 46.5117M30.4579 43.1429C28.4775 43.2108 26.5871 43.9343 25.0794 45.2004C26.9472 44.3412 28.9726 43.8438 31.0205 43.776M32.2807 42.0125C33.1583 41.3342 33.766 40.4073 34.081 39.3447C33.946 40.5203 33.4509 41.6508 32.7083 42.5777M30.0753 38.1464C30.6829 39.5707 31.223 40.9951 31.7181 42.4647M31.043 42.5325C30.4128 41.1534 30.0753 39.6612 30.0528 38.1464M32.7308 42.5777C33.6984 42.3742 34.5986 41.8995 35.2962 41.176C34.7786 42.1029 33.9685 42.8264 33.0233 43.2786M32.3032 44.183C33.5634 45.2004 34.5986 46.4438 35.3637 47.8682C34.8912 46.2404 33.9235 44.816 32.5732 43.7986M31.133 44.5221C29.7152 45.6751 28.0049 46.3534 26.1821 46.5117M31.8306 44.929C32.0331 45.2456 32.2357 45.5621 32.4382 45.8786M31.2905 44.4316C30.8854 45.9464 30.9529 47.5291 31.493 48.9986C31.448 47.6421 31.5606 46.263 31.8531 44.929M33.4509 43.6856C33.4509 43.9343 33.3834 44.183 33.2709 44.409M33.0233 44.816C32.9783 44.8838 32.9108 44.9517 32.8433 44.9969M32.1457 45.4038C32.0106 45.449 31.8756 45.4717 31.7406 45.4717M31.088 45.4038C30.8404 45.336 30.6154 45.2004 30.4354 45.0421M30.0078 44.5447C29.8952 44.3412 29.8052 44.0925 29.7827 43.8664M29.8277 43.1882C29.8727 43.0299 29.9403 42.8716 30.0078 42.7134M30.4579 42.1934C30.5704 42.1029 30.6829 42.0351 30.8179 41.9673M31.4705 41.7864C31.6506 41.7638 31.8306 41.7864 31.9881 41.8316M32.3257 41.9221C32.3483 41.9221 32.3483 41.9448 32.3708 41.9448M32.9108 42.329C32.9558 42.3742 33.0233 42.4421 33.0683 42.4873M33.3834 43.0977C33.4059 43.1656 33.4284 43.256 33.4284 43.3238M6.08592 5.40873L5.9509 5.27308M6.08592 5.77047L5.9284 5.92873M6.55851 5.88352L6.44599 5.77047M6.55851 5.27308L6.44599 5.40873M5.88339 5.36351L5.18576 4.95655M6.26596 5.13742V4.34611M6.64853 5.36351L7.34615 4.95655M7.34615 6.22265L6.64853 5.81569M6.26596 6.83309V6.01917M5.18576 6.22265L5.88339 5.81569M32.7533 5.40873L32.6182 5.27308M32.7533 5.77047L32.5957 5.92873M33.2259 5.88352L33.1133 5.77047M33.2259 5.27308L33.1133 5.40873M32.5507 5.36351L31.8531 4.95655M32.9333 5.13742V4.34611M33.3159 5.36351L34.0135 4.95655M34.0135 6.22265L33.3159 5.81569M32.9333 6.83309V6.01917M31.8531 6.22265L32.5507 5.81569M24.3367 10.1566H10.1142M10.1142 9.38789H24.3367M24.3367 9.38789L29.1751 14.2488L24.3367 14.2488V9.38789ZM18.7557 4.18785C18.8007 4.16524 18.8457 4.16524 18.8908 4.18785C19.0483 4.23307 19.1158 4.39133 19.0708 4.52698C18.6657 5.79308 19.1383 7.1044 19.1833 8.41571M10.8118 4.5722C10.8118 4.41394 10.8343 4.27829 10.9918 4.27829C13.6473 4.09742 16.1678 4.34611 18.7557 4.16524M10.8118 4.59481C10.8118 6.04178 11.0368 6.72005 11.0818 7.46614M19.1833 8.37049C19.2058 8.41571 19.2058 8.46093 19.1833 8.50615C19.1608 8.6418 19.0258 8.70963 18.9133 8.66441C16.5053 8.16701 14.0074 8.21223 11.6219 8.77745C11.5769 8.80006 11.5319 8.80006 11.4869 8.80006C11.1944 8.77745 10.9918 8.55136 10.9918 8.25745C11.0143 7.55657 11.3519 6.44874 11.3069 5.74786M20.3535 4.18785C20.3085 4.16524 20.2635 4.16524 20.2185 4.18785C20.061 4.23307 20.061 4.3009 20.0385 4.52698C19.9709 5.86091 19.6559 6.99135 19.9259 8.41571M28.2525 4.41394C28.2525 4.41394 28.2525 4.39133 28.2525 4.36872C28.2299 4.3009 28.1849 4.25568 28.1174 4.27829C25.5295 4.39133 22.9415 4.34611 20.3535 4.16524M28.2299 4.43655C28.1624 5.16003 27.8924 6.42613 27.7349 7.127M28.2074 8.25745C28.1849 8.66441 27.9824 8.77745 27.4873 8.77745C24.9894 8.70963 22.6039 8.16701 20.196 8.66441C19.9709 8.6418 19.9034 8.43832 19.9259 8.3931M27.9824 5.95134C28.0499 7.03657 28.1624 7.57918 28.1849 8.28006M42.9476 33.8959L42.8351 33.7829M43.3077 33.8959L43.4652 33.7377M43.4427 34.3933L43.3077 34.2577M42.8351 34.3933L42.9476 34.2577M42.9026 33.6924L42.4975 32.9916M42.7001 34.0768H41.8899M42.9026 34.4611L42.4975 35.162M43.7578 35.162L43.3527 34.4611M44.3654 34.0768H43.5777M43.7578 32.9916L43.3527 33.6924M76.7938 74.8632L76.5012 74.6823L76.1862 74.8632M76.1862 73.1223L76.5012 73.2806L76.7938 73.1223M75.6236 73.4841L77.3564 74.4788M75.6236 74.4788L77.3564 73.4841M77.4014 74.1623L77.0863 74.3206V74.6823M77.0863 73.2806V73.6423L77.4014 73.8232M75.8936 74.6823V74.3206L75.6011 74.1623M75.6011 73.8232L75.8936 73.6423V73.2806M76.5012 72.9867V74.9762M92.2766 77.8702V84.7885M101.818 63.9431H108.682M101.818 70.8614H108.727M107.174 74.5241L105.982 73.6649M107.174 74.3884L105.937 75.1797M106.927 74.4336L105.554 74.411M103.776 73.4615H104.339M103.776 73.665V73.258M108.3 41.8542H107.512V26.7741H108.345V41.8542V40.9951L108.84 40.8594V27.7689L108.345 27.6333M6.94108 82.5954C6.73854 82.505 6.62602 82.2563 6.71604 82.0076C6.80605 81.7815 7.0311 81.6685 7.23363 81.7589C7.43617 81.8493 7.54869 82.098 7.45867 82.3467C7.41367 82.4824 7.30114 82.5954 7.16612 82.618M6.67103 84.6528C6.89607 84.472 7.21113 84.472 7.43617 84.6528M7.18862 82.6859C7.18862 82.5728 7.14362 82.505 7.0536 82.505C6.98609 82.505 6.91858 82.5954 6.91858 82.6859L6.78355 84.585M9.10147 83.4998C9.77659 83.4998 10.3167 82.8441 10.3167 82.0302V70.2058M3.81301 82.0528C3.81301 82.8667 4.35311 83.5224 5.02823 83.5224H6.85106M10.2942 70.2058C10.2942 68.0353 8.83142 66.2718 7.0536 66.2718C5.27578 66.2718 3.81301 68.0353 3.81301 70.2058V82.0302M8.94394 80.8093L9.259 70.2058C9.259 70.1832 9.259 70.1832 9.259 70.1832C9.259 68.7136 8.26882 67.5379 7.0536 67.5379C5.83838 67.5605 4.8707 68.7362 4.8707 70.2058L5.23077 80.8093M6.58101 84.6528H7.54869M9.07897 83.5224H7.25614M7.32365 84.585L7.21113 82.6859M7.00859 84.5172L7.23363 84.6528M7.00859 84.5172L7.0311 84.6528M7.00859 84.5172L6.87357 84.6528M19.2058 66.5431C17.743 66.5883 15.7402 67.6962 16.3703 69.0301C17.0904 70.5449 18.6432 70.2284 20.7136 70.2284C22.1989 70.2284 23.234 68.5553 22.2664 67.651C21.5462 66.9727 20.7136 66.5657 19.7009 66.5431M73.1706 77.8702H79.7418M73.1706 70.3188H79.6293M41.3048 85.7155V93.5833C41.3048 93.5833 49.2038 93.5155 49.4063 85.7833M41.7549 93.5381V85.7155M108.997 23.7897V85.0372M108.997 23.7897H102.741V23.7219M108.997 85.0372H72.9231M102.741 21.8906V23.7219M71.6403 23.7897V23.7671M73.0131 21.7776V23.7671H71.6403M73.0131 21.7776H71.6403M73.0131 21.7776V2.33392H72.9906M71.6403 21.7776V23.7671M72.9906 2.33392V3.01219H71.0102M72.9906 2.33392H71.0102V3.01219M32.2132 1.09044V2.92175M32.2132 2.92175V3.01219H36.0614M36.0614 3.01219V2.24349H36.6915V3.01219M36.0614 3.01219H36.6915M36.0614 3.01219V55.8265H36.6915V50.943M36.6915 3.01219V50.31M36.6915 50.31H36.5565V50.943H36.6915M36.6915 50.31V50.943M36.6915 50.31H61.401V50.943H36.6915M3.00286 3.01219V64.757M3.00286 85.0372V65.3901M3.00286 85.0372H36.0614M3.00286 65.3901H2.01268V64.757H3.00286M3.00286 65.3901V64.757M3.00286 65.3901H36.0614M3.00286 64.757H36.0614M36.0614 65.3901V64.757M36.0614 65.3901H36.669V64.757H36.0614M36.0614 65.3901V66.317H36.6915V64.3501H36.0614V64.757M36.6915 85.0372V85.625H36.0614V85.0372M36.6915 85.0372H36.0614M36.6915 85.0372V74.6823H36.0614V85.0372M72.9231 85.0372V85.8963H72.293V85.0372M72.9231 85.0372H72.293M72.293 85.0372H53.9071M72.293 85.0372V64.3048M53.9071 85.0372V85.8963H53.277V85.0372M53.9071 85.0372V82.8215H53.277V85.0372M53.9071 85.0372H53.277M53.6371 64.3048H72.293M85.998 27.0228V40.4977C85.998 40.656 86.178 40.769 86.3805 40.769H92.029C92.2541 40.769 92.4116 40.656 92.4116 40.4977V27.0228C92.4116 26.8646 92.2316 26.7515 92.029 26.7515H86.3805C86.178 26.7515 85.998 26.8646 85.998 27.0228ZM10.6092 42.6682C11.6669 42.5099 12.6571 43.2108 12.8146 44.2734C12.9722 45.336 12.2745 46.3308 11.2169 46.4891C10.1592 46.6473 9.16899 45.9464 9.01146 44.8838C8.83142 43.8438 9.55155 42.849 10.6092 42.6682ZM12.4771 42.4195C13.6698 43.2786 13.9173 44.9517 13.0622 46.1499C12.9947 46.263 12.8372 46.2856 12.7246 46.1951C12.6121 46.1273 12.5896 45.969 12.6796 45.856C13.3773 44.8838 13.1747 43.5047 12.207 42.8038C12.0945 42.736 12.072 42.5777 12.162 42.4647C12.207 42.3742 12.3646 42.3516 12.4771 42.4195ZM11.2169 38.3273V51.8474C11.2169 52.91 10.3617 53.7691 9.30401 53.7691H5.23077C4.17308 53.7691 3.31792 52.91 3.31792 51.8474V38.3273C3.31792 37.2646 4.17308 36.4055 5.23077 36.4055H9.30401C10.3617 36.4055 11.2169 37.2646 11.2169 38.3273ZM10.0691 48.2073L9.259 43.0073C9.2365 42.8942 9.14648 42.8264 9.05646 42.8264L7.84124 43.0073C7.75123 43.0299 7.68371 43.1203 7.70622 43.2334L8.51637 48.4334C8.53887 48.5465 8.62889 48.6143 8.7189 48.6143L9.93412 48.4334C10.0241 48.4108 10.0917 48.2978 10.0691 48.2073ZM72.0229 64.5309H65.3167L65.3167 84.7659H72.0229L72.0229 64.5309ZM65.7443 69.1658V69.0979C65.7443 69.0527 65.8118 69.0075 65.8793 69.0075H71.4153C71.4828 69.0075 71.5503 69.0527 71.5503 69.0979V69.1658C71.5503 69.211 71.4828 69.2562 71.4153 69.2562H65.8793C65.8118 69.2562 65.7443 69.211 65.7443 69.1658ZM65.7668 65.0283V64.9605C65.7668 64.9153 65.8343 64.8701 65.9018 64.8701L71.4153 65.2544C71.4828 65.2544 71.5278 65.2996 71.5278 65.3675V65.4353C71.5278 65.4805 71.4603 65.5257 71.3928 65.5257L65.8793 65.1414C65.8118 65.1414 65.7443 65.0962 65.7668 65.0283ZM65.7893 67.8092L65.8118 67.7414C65.8118 67.6962 65.8793 67.651 65.9468 67.651L71.4153 68.284C71.4828 68.284 71.5278 68.3518 71.5278 68.3971L71.5053 68.4649C71.5053 68.5101 71.4378 68.5553 71.3703 68.5553L65.9018 67.9223C65.8118 67.9223 65.7668 67.8544 65.7893 67.8092ZM65.7443 67.1536V67.0857C65.7443 67.0405 65.8118 66.9953 65.8793 66.9953L71.4153 67.131C71.4828 67.131 71.5503 67.1762 71.5278 67.2214V67.2892C71.5278 67.3344 71.4603 67.3797 71.3928 67.3797L65.8568 67.244C65.8118 67.244 65.7443 67.1988 65.7443 67.1536ZM65.7443 66.0231V65.9553C65.7443 65.9101 65.8118 65.8649 65.8793 65.8649H71.4153C71.4828 65.8649 71.5503 65.9101 71.5503 65.9553V66.0231C71.5503 66.0683 71.4828 66.1136 71.4153 66.1136H65.8793C65.8118 66.1362 65.7443 66.091 65.7443 66.0231ZM71.5278 74.1171V74.0493C71.5278 74.0041 71.4603 73.9588 71.3928 73.9588H65.8568C65.7893 73.9588 65.7218 74.0041 65.7218 74.0493V74.1171C65.7218 74.1623 65.7893 74.2075 65.8568 74.2075H71.3928C71.4828 74.2075 71.5278 74.1623 71.5278 74.1171ZM71.5278 70.1153V70.0475C71.5278 70.0023 71.4603 69.9571 71.3928 69.9571L65.8568 70.1153C65.7893 70.1153 65.7218 70.1605 65.7443 70.2058V70.2736C65.7443 70.3188 65.8118 70.364 65.8793 70.364L71.4153 70.2058C71.4828 70.2284 71.5503 70.1832 71.5278 70.1153ZM71.5278 72.8962V72.8284C71.5278 72.7832 71.4603 72.738 71.3928 72.738L65.8793 73.1223C65.8118 73.1223 65.7668 73.1675 65.7668 73.2354V73.3032C65.7668 73.3484 65.8343 73.3936 65.9018 73.3936L71.4153 73.0093C71.4828 73.0093 71.5278 72.964 71.5278 72.8962ZM71.5278 71.9693V71.9014C71.5278 71.8562 71.4603 71.811 71.3928 71.811L65.8793 72.218C65.8118 72.218 65.7668 72.2632 65.7668 72.331V72.3988C65.7668 72.444 65.8343 72.4893 65.9018 72.4893L71.4153 72.0823C71.4828 72.0597 71.5278 72.0145 71.5278 71.9693ZM71.5278 70.9971V70.9293C71.5278 70.884 71.4603 70.8388 71.3928 70.8388H65.8568C65.7893 70.8388 65.7218 70.884 65.7218 70.9293V70.9971C65.7218 71.0423 65.7893 71.0875 65.8568 71.0875H71.3928C71.4828 71.0875 71.5278 71.0423 71.5278 70.9971ZM71.5728 80.1311V80.1989C71.5728 80.2441 71.5053 80.2893 71.4378 80.2893H65.9018C65.8343 80.2893 65.7668 80.2441 65.7668 80.1989V80.1311C65.7668 80.0859 65.8343 80.0406 65.9018 80.0406H71.4378C71.5278 80.018 71.5728 80.0632 71.5728 80.1311ZM71.5728 84.2459V84.3137C71.5728 84.3589 71.5053 84.4041 71.4378 84.4041L65.9243 84.0198C65.8568 84.0198 65.8118 83.9746 65.8118 83.9068V83.8389C65.8118 83.7937 65.8793 83.7485 65.9468 83.7485L71.4603 84.1328C71.5278 84.1554 71.5728 84.2007 71.5728 84.2459ZM71.5503 81.465L71.5278 81.5328C71.5278 81.578 71.4603 81.6232 71.3928 81.6232L65.9243 80.9902C65.8568 80.9902 65.8118 80.9224 65.8118 80.8772L65.8343 80.8093C65.8343 80.7641 65.9018 80.7189 65.9693 80.7189L71.4378 81.3519C71.5053 81.3746 71.5728 81.4198 71.5503 81.465ZM71.5728 82.1206V82.1885C71.5728 82.2337 71.5053 82.2789 71.4378 82.2789L65.9018 82.1433C65.8343 82.1433 65.7668 82.098 65.7893 82.0528V81.985C65.7893 81.9398 65.8568 81.8946 65.9243 81.8946L71.4603 82.0302C71.5278 82.0302 71.5728 82.0754 71.5728 82.1206ZM71.5728 83.2511V83.3189C71.5728 83.3641 71.5053 83.4093 71.4378 83.4093H65.9018C65.8343 83.4093 65.7668 83.3641 65.7668 83.3189V83.2511C65.7668 83.2059 65.8343 83.1606 65.9018 83.1606H71.4378C71.5278 83.1606 71.5728 83.2059 71.5728 83.2511ZM65.7893 75.1571V75.2249C65.7893 75.2702 65.8568 75.3154 65.9243 75.3154H71.4603C71.5278 75.3154 71.5953 75.2702 71.5953 75.2249V75.1571C71.5953 75.1119 71.5278 75.0667 71.4603 75.0667H65.9243C65.8568 75.0667 65.7893 75.1119 65.7893 75.1571ZM65.7893 79.1589V79.2267C65.7893 79.2719 65.8568 79.3171 65.9243 79.3171L71.4603 79.1589C71.5278 79.1589 71.5953 79.1137 71.5728 79.0684V79.0006C71.5728 78.9554 71.5053 78.9102 71.4378 78.9102L65.9018 79.0684C65.8568 79.0684 65.7893 79.1137 65.7893 79.1589ZM65.8118 76.378V76.4458C65.8118 76.491 65.8793 76.5363 65.9468 76.5363L71.4603 76.1519C71.5278 76.1519 71.5728 76.1067 71.5728 76.0389V75.971C71.5728 75.9258 71.5053 75.8806 71.4378 75.8806L65.9243 76.2649C65.8568 76.2876 65.7893 76.3328 65.8118 76.378ZM65.8118 77.3276V77.3954C65.8118 77.4406 65.8793 77.4858 65.9468 77.4858L71.4603 77.0789C71.5278 77.0789 71.5728 77.0336 71.5728 76.9658V76.898C71.5728 76.8528 71.5053 76.8076 71.4378 76.8076L65.9243 77.2145C65.8568 77.2145 65.7893 77.2597 65.8118 77.3276ZM65.7893 78.2997V78.3676C65.7893 78.4128 65.8568 78.458 65.9243 78.458H71.4603C71.5278 78.458 71.5953 78.4128 71.5953 78.3676V78.2997C71.5953 78.2545 71.5278 78.2093 71.4603 78.2093H65.9243C65.8568 78.1867 65.7893 78.2319 65.7893 78.2997ZM8.7189 64.1014H8.65139C8.58388 64.1014 8.53887 64.0335 8.53887 63.9657V57.9065C8.53887 57.8387 8.58388 57.7709 8.65139 57.7709H8.7189C8.78641 57.7709 8.83142 57.8387 8.83142 57.9065V63.9657C8.83142 64.0562 8.78641 64.1014 8.7189 64.1014ZM3.79051 64.1014H3.723C3.65548 64.1014 3.61047 64.0335 3.61047 63.9431L4.08306 57.9065C4.08306 57.8387 4.15057 57.7709 4.21809 57.7709H4.2856C4.35311 57.7709 4.39812 57.8387 4.39812 57.9292L3.92553 63.9657C3.90303 64.0562 3.83552 64.1014 3.79051 64.1014ZM7.09861 64.0788L7.0311 64.0562C6.96358 64.0335 6.91858 63.9657 6.94108 63.8979L7.70622 57.9065C7.70622 57.8387 7.77373 57.7709 7.84124 57.7935L7.90876 57.8161C7.97627 57.8387 8.02128 57.9065 7.99877 57.9744L7.23363 63.9657C7.23363 64.0335 7.16612 64.1014 7.09861 64.0788ZM6.31096 64.1014H6.24345C6.17594 64.1014 6.13093 64.0335 6.13093 63.9657L6.28846 57.9065C6.28846 57.8387 6.33347 57.7709 6.40098 57.7709H6.46849C6.53601 57.7709 6.58101 57.8387 6.58101 57.9065L6.42349 63.9657C6.44599 64.0562 6.37848 64.1014 6.31096 64.1014ZM4.96072 64.1014H4.89321C4.8257 64.1014 4.78069 64.0335 4.78069 63.9657V57.9065C4.78069 57.8387 4.8257 57.7709 4.89321 57.7709H4.96072C5.02823 57.7709 5.07324 57.8387 5.07324 57.9065V63.9657C5.09574 64.0562 5.02823 64.1014 4.96072 64.1014ZM14.6825 57.7709H14.615C14.5475 57.7709 14.5025 57.8387 14.5025 57.9065V63.9657C14.5025 64.0335 14.5475 64.1014 14.615 64.1014H14.6825C14.75 64.1014 14.795 64.0335 14.795 63.9657V57.9065C14.795 57.8161 14.75 57.7709 14.6825 57.7709ZM9.86661 57.7709H9.7991C9.73159 57.7709 9.68658 57.8387 9.68658 57.9065L9.86661 63.9657C9.86661 64.0335 9.93412 64.1014 9.97913 64.1014H10.0466C10.1142 64.1014 10.1592 64.0335 10.1592 63.9657L10.0016 57.9065C10.0016 57.8161 9.93412 57.7709 9.86661 57.7709ZM13.2197 57.7709H13.1522C13.0847 57.7709 13.0397 57.8387 13.0397 57.9292L13.4898 63.9657C13.4898 64.0335 13.5573 64.1014 13.6248 64.1014H13.6923C13.7598 64.1014 13.8048 64.0335 13.8048 63.9431L13.3547 57.9065C13.3322 57.8161 13.2872 57.7709 13.2197 57.7709ZM12.0945 57.7709H12.027C11.9595 57.7709 11.9145 57.8387 11.9145 57.9292L12.4096 63.9657C12.4096 64.0335 12.4771 64.1014 12.5446 64.1014H12.6121C12.6796 64.1014 12.7246 64.0335 12.7246 63.9431L12.2295 57.9065C12.207 57.8161 12.162 57.7709 12.0945 57.7709ZM10.9243 57.7709H10.8568C10.7893 57.7709 10.7443 57.8387 10.7443 57.9065V63.9657C10.7443 64.0335 10.7893 64.1014 10.8568 64.1014H10.9243C10.9918 64.1014 11.0368 64.0335 11.0368 63.9657V57.9065C11.0368 57.8161 10.9918 57.7709 10.9243 57.7709ZM21.8838 57.7257H21.9513C22.0188 57.7257 22.0638 57.7935 22.0638 57.8613V63.9205C22.0638 63.9883 22.0188 64.0562 21.9513 64.0562H21.8838C21.8163 64.0562 21.7713 63.9883 21.7713 63.9205V57.8613C21.7713 57.7709 21.8163 57.7257 21.8838 57.7257ZM26.8347 57.7257H26.9022C26.9697 57.7257 27.0147 57.7935 27.0147 57.8839L26.5421 63.9205C26.5421 63.9883 26.4746 64.0562 26.4071 64.0562H26.3396C26.2721 64.0562 26.2271 63.9883 26.2271 63.8979L26.6997 57.8613C26.6997 57.7709 26.7672 57.7257 26.8347 57.7257ZM23.5041 57.7483L23.5716 57.7709C23.6391 57.7935 23.6841 57.8613 23.6616 57.9291L22.8965 63.9205C22.8965 63.9883 22.829 64.0562 22.7615 64.0335L22.6939 64.0109C22.6264 63.9883 22.5814 63.9205 22.6039 63.8527L23.3691 57.8613C23.3691 57.7935 23.4366 57.7257 23.5041 57.7483ZM24.2917 57.7257H24.3592C24.4268 57.7257 24.4718 57.7935 24.4718 57.8613L24.3142 63.9205C24.3142 63.9883 24.2692 64.0562 24.2017 64.0562H24.1342C24.0667 64.0562 24.0217 63.9883 24.0217 63.9205L24.1792 57.8613C24.1567 57.7709 24.2242 57.7257 24.2917 57.7257ZM25.642 57.7257H25.7095C25.777 57.7257 25.822 57.7935 25.822 57.8613V63.9205C25.822 63.9883 25.777 64.0562 25.7095 64.0562H25.642C25.5745 64.0562 25.5295 63.9883 25.5295 63.9205V57.8613C25.507 57.7709 25.5745 57.7257 25.642 57.7257ZM15.9202 64.0562H15.9877C16.0552 64.0562 16.1002 63.9883 16.1002 63.9205V57.8613C16.1002 57.7935 16.0552 57.7257 15.9877 57.7257H15.9202C15.8527 57.7257 15.8077 57.7935 15.8077 57.8613V63.9205C15.8077 64.0109 15.8752 64.0562 15.9202 64.0562ZM20.7361 64.0562H20.8036C20.8711 64.0562 20.9161 63.9883 20.9161 63.9205L20.7361 57.8613C20.7361 57.7935 20.6686 57.7257 20.6236 57.7257H20.5561C20.4885 57.7257 20.4435 57.7935 20.4435 57.8613L20.6236 63.9205C20.6011 64.0109 20.6686 64.0562 20.7361 64.0562ZM17.383 64.0562H17.4505C17.518 64.0562 17.563 63.9883 17.563 63.8979L17.1129 57.8613C17.1129 57.7935 17.0454 57.7257 16.9779 57.7257H16.9104C16.8429 57.7257 16.7979 57.7935 16.7979 57.8839L17.248 63.9205C17.2705 64.0109 17.338 64.0562 17.383 64.0562ZM18.5082 64.0562H18.5757C18.6432 64.0562 18.6882 63.9883 18.6882 63.8979L18.1931 57.8613C18.1931 57.7935 18.1256 57.7257 18.0581 57.7257H17.9906C17.9231 57.7257 17.8781 57.7935 17.8781 57.8839L18.3732 63.9205C18.3957 64.0109 18.4407 64.0562 18.5082 64.0562ZM19.6784 64.0562H19.7459C19.8134 64.0562 19.8584 63.9883 19.8584 63.9205V57.8613C19.8584 57.7935 19.8134 57.7257 19.7459 57.7257H19.6784C19.6109 57.7257 19.5659 57.7935 19.5659 57.8613V63.9205C19.5659 64.0109 19.6109 64.0562 19.6784 64.0562ZM63.8314 28.7637C62.7962 29.0124 61.761 28.3793 61.5135 27.3393C61.2659 26.2993 61.8961 25.2593 62.9313 25.0106C63.9664 24.7619 65.0016 25.395 65.2492 26.435C65.4967 27.475 64.8666 28.515 63.8314 28.7637ZM61.9861 29.1707C60.7259 28.402 60.3433 26.7515 61.1084 25.508C61.1759 25.395 61.3335 25.3498 61.446 25.4176C61.5585 25.4854 61.6035 25.6437 61.536 25.7567C60.9059 26.7967 61.2435 28.1307 62.2561 28.7637C62.3687 28.8315 62.4137 28.9898 62.3462 29.1028C62.2786 29.2159 62.0986 29.2385 61.9861 29.1707ZM70.6727 16.1706C70.6727 16.1706 70.6952 16.5097 70.6952 16.5549V35.6594C70.6952 35.9759 70.4476 36.2246 70.1326 36.2246H63.9439C63.6289 36.2246 63.3813 35.9759 63.3813 35.6594V16.1706C63.3813 15.854 63.6289 15.6053 63.9439 15.6053H70.1101C70.4026 15.6279 70.6727 15.8766 70.6727 16.1706ZM65.0241 25.0332L65.3392 28.1985C65.3842 28.5602 65.6768 28.8089 66.0368 28.7637L67.8146 28.5828C68.1747 28.5376 68.4223 28.2437 68.3772 27.882L68.0622 24.7167C68.0172 24.355 67.7246 24.1063 67.3646 24.1515L65.5867 24.3324C65.2492 24.3776 64.9791 24.6941 65.0241 25.0332ZM66.3069 25.1011L66.5769 27.9272C66.5994 28.2211 66.8695 28.4246 67.162 28.402L67.5896 28.3567C67.8822 28.3341 68.0847 28.0628 68.0622 27.7689L67.7921 24.9428C67.7696 24.6489 67.4996 24.4454 67.207 24.468L66.7795 24.5132C66.4869 24.5358 66.2844 24.8071 66.3069 25.1011ZM65.3392 26.0959L65.4517 27.1359C65.4742 27.2941 65.6092 27.4072 65.7668 27.4072L65.9918 27.3846C66.1493 27.3619 66.2619 27.2263 66.2619 27.068L66.1493 26.028C66.1268 25.8698 65.9918 25.7567 65.8343 25.7567L65.6092 25.7793C65.4517 25.7793 65.3392 25.915 65.3392 26.0959ZM48.3936 4.48177H38.2893C37.5917 4.48177 37.0065 5.04699 37.0065 5.77047V30.2107C37.0065 30.9115 37.5691 31.4994 38.2893 31.4994H48.3936C49.0912 31.4994 49.6764 30.9341 49.6764 30.2107V5.74786C49.6764 5.04699 49.1138 4.48177 48.3936 4.48177ZM48.011 5.00177H38.6944C37.9967 5.00177 37.4116 5.56699 37.4116 6.29048V29.7359C37.4116 30.4368 37.9742 31.0246 38.6944 31.0246H48.011C48.7087 31.0246 49.2938 30.4594 49.2938 29.7359V6.26787C49.2938 5.56699 48.7087 5.00177 48.011 5.00177ZM42.07 49.5639H42.0025C41.9349 49.5639 41.8899 49.496 41.8899 49.4282V43.3012C41.8899 43.2334 41.9349 43.1656 42.0025 43.1656H42.07C42.1375 43.1656 42.1825 43.2334 42.1825 43.3012V49.4282C42.1825 49.496 42.115 49.5639 42.07 49.5639ZM37.4341 49.5413H37.3666C37.2991 49.5413 37.2541 49.4734 37.2766 49.383L37.7042 43.3012C37.7042 43.2334 37.7717 43.1656 37.8167 43.1656H37.8842C37.9517 43.1656 37.9967 43.2334 37.9742 43.3238L37.5466 49.4056C37.5466 49.496 37.5016 49.5639 37.4341 49.5413ZM40.5622 49.5413L40.4947 49.5186C40.4272 49.496 40.4047 49.4282 40.4047 49.3604L41.1248 43.3238C41.1248 43.256 41.1923 43.1882 41.2373 43.2108L41.3048 43.2334C41.3723 43.256 41.3948 43.3238 41.3948 43.3916L40.6747 49.4282C40.6747 49.496 40.6072 49.5413 40.5622 49.5413ZM39.8196 49.5639H39.752C39.6845 49.5639 39.6395 49.496 39.6395 49.4282L39.7745 43.3238C39.7745 43.256 39.8196 43.1882 39.8871 43.1882H39.9546C40.0221 43.1882 40.0671 43.256 40.0671 43.3238L39.9321 49.4282C39.9321 49.496 39.8646 49.5639 39.8196 49.5639ZM38.5593 49.5639H38.4918C38.4243 49.5639 38.3793 49.496 38.3793 49.4282V43.3012C38.3793 43.2334 38.4243 43.1656 38.4918 43.1656H38.5593C38.6268 43.1656 38.6718 43.2334 38.6718 43.3012V49.4282C38.6493 49.496 38.6043 49.5639 38.5593 49.5639ZM47.6285 43.1656H47.561C47.4934 43.1656 47.4484 43.2334 47.4484 43.3012V49.4282C47.4484 49.496 47.4934 49.5639 47.561 49.5639H47.6285C47.696 49.5639 47.741 49.496 47.741 49.4282V43.3012C47.741 43.2334 47.696 43.1656 47.6285 43.1656ZM43.1502 43.1656H43.0826C43.0151 43.1656 42.9701 43.2334 42.9701 43.3012L43.1502 49.4056C43.1502 49.4734 43.1952 49.5413 43.2627 49.5413H43.3302C43.3977 49.5413 43.4427 49.4734 43.4427 49.4056L43.2627 43.3012C43.2627 43.2334 43.1952 43.1656 43.1502 43.1656ZM46.2557 43.1656H46.1882C46.1207 43.1656 46.0757 43.2334 46.0982 43.3238L46.5258 49.4056C46.5258 49.4734 46.5933 49.5413 46.6383 49.5413H46.7058C46.7733 49.5413 46.8183 49.4734 46.7958 49.383L46.3682 43.3012C46.3682 43.2334 46.3232 43.1656 46.2557 43.1656ZM45.2205 43.1656H45.153C45.0855 43.1656 45.0405 43.2334 45.063 43.3238L45.5356 49.4056C45.5356 49.4734 45.6031 49.5413 45.6481 49.5413H45.7156C45.7831 49.5413 45.8281 49.4734 45.8056 49.383L45.3331 43.3012C45.3331 43.2334 45.2655 43.1656 45.2205 43.1656ZM44.1178 43.1656H44.0503C43.9828 43.1656 43.9378 43.2334 43.9378 43.3012V49.4282C43.9378 49.496 43.9828 49.5639 44.0503 49.5639H44.1178C44.1854 49.5639 44.2304 49.496 44.2304 49.4282V43.3012C44.2304 43.2334 44.1854 43.1656 44.1178 43.1656ZM54.3797 43.1203H54.4472C54.5147 43.1203 54.5597 43.1882 54.5597 43.256V49.383C54.5597 49.4508 54.5147 49.5186 54.4472 49.5186H54.3797C54.3122 49.5186 54.2672 49.4508 54.2672 49.383V43.256C54.2672 43.1882 54.3122 43.1203 54.3797 43.1203ZM59.0155 43.1203H59.0831C59.1506 43.1203 59.1956 43.1882 59.1731 43.2786L58.7455 49.3604C58.7455 49.4282 58.678 49.496 58.633 49.496H58.5655C58.4979 49.496 58.4529 49.4282 58.4754 49.3378L58.903 43.256C58.903 43.1656 58.948 43.1203 59.0155 43.1203ZM55.8875 43.1429L55.955 43.1656C56.0225 43.1882 56.045 43.256 56.045 43.3238L55.3249 49.3604C55.3249 49.4282 55.2574 49.496 55.2123 49.4734L55.1448 49.4508C55.0773 49.4282 55.0548 49.3604 55.0548 49.2926L55.775 43.256C55.775 43.1882 55.8425 43.1429 55.8875 43.1429ZM56.6301 43.1203H56.6976C56.7651 43.1203 56.8101 43.1882 56.8101 43.256L56.6751 49.3604C56.6751 49.4282 56.6301 49.496 56.5626 49.496H56.4951C56.4276 49.496 56.3826 49.4282 56.3826 49.3604L56.5176 43.256C56.5176 43.1656 56.5626 43.1203 56.6301 43.1203ZM57.8903 43.1203H57.9579C58.0254 43.1203 58.0704 43.1882 58.0704 43.256V49.383C58.0704 49.4508 58.0254 49.5186 57.9579 49.5186H57.8903C57.8228 49.5186 57.7778 49.4508 57.7778 49.383V43.256C57.7778 43.1882 57.8228 43.1203 57.8903 43.1203ZM48.7987 49.5186H48.8662C48.9337 49.5186 48.9787 49.4508 48.9787 49.383V43.256C48.9787 43.1882 48.9337 43.1203 48.8662 43.1203H48.7987C48.7312 43.1203 48.6862 43.1882 48.6862 43.256V49.383C48.7087 49.4508 48.7537 49.5186 48.7987 49.5186ZM53.2995 49.5186H53.367C53.4345 49.5186 53.4795 49.4508 53.4795 49.383L53.2995 43.2786C53.2995 43.2108 53.2545 43.1429 53.187 43.1429H53.1195C53.052 43.1429 53.007 43.2108 53.007 43.2786L53.187 49.383C53.187 49.4508 53.232 49.5186 53.2995 49.5186ZM50.1714 49.496H50.2389C50.3065 49.496 50.3515 49.4282 50.329 49.3378L49.9014 43.256C49.9014 43.1882 49.8339 43.1203 49.7889 43.1203H49.7214C49.6538 43.1203 49.6088 43.1882 49.6313 43.2786L50.0589 49.383C50.0589 49.4508 50.1264 49.5186 50.1714 49.496ZM51.2291 49.496H51.2966C51.3642 49.496 51.4092 49.4282 51.3867 49.3378L50.9141 43.256C50.9141 43.1882 50.8466 43.1203 50.8015 43.1203H50.734C50.6665 43.1203 50.6215 43.1882 50.644 43.2786L51.1166 49.3604C51.1166 49.4508 51.1616 49.5186 51.2291 49.496ZM52.3318 49.5186H52.3993C52.4669 49.5186 52.5119 49.4508 52.5119 49.383V43.256C52.5119 43.1882 52.4669 43.1203 52.3993 43.1203H52.3318C52.2643 43.1203 52.2193 43.1882 52.2193 43.256V49.383C52.2193 49.4508 52.2643 49.5186 52.3318 49.5186ZM32.4607 41.8542L33.2709 40.9951L33.901 39.8647L33.7435 40.7464L33.2709 41.7638L32.8208 42.5551L33.5634 42.329L34.4186 41.8995L35.1612 41.4247L34.4861 42.2838L33.811 42.849L33.1133 43.256L34.5311 43.5951L33.4734 43.6856L33.2934 44.409L33.8785 45.0421L34.3736 45.7204L35.2512 47.5291C35.2512 47.5291 34.171 45.9691 34.1485 45.9917C34.126 46.0143 33.0683 44.8612 33.0683 44.8612L32.8883 45.0195L33.4284 46.0821L33.991 47.416L34.4411 49.2247L33.766 48.1169L32.6858 46.1951L32.1907 45.4038L31.7856 45.4717L31.5831 47.0317L31.493 48.6369L31.268 48.2299L31.088 46.896L31.133 45.3812C31.133 45.3812 30.4804 45.0647 30.4804 45.0195C30.4579 44.9743 29.7827 45.4264 29.7827 45.4264L28.32 46.0595L26.4971 46.4664L28.2299 45.6299L29.5352 44.8838L30.0753 44.5221L29.8502 43.8438L28.8151 44.0021L27.6673 44.2734L26.6772 44.5673L25.4169 45.0647L26.0471 44.5221L27.3298 43.7986L28.5 43.3916L29.9178 43.1656L30.1203 42.7134L28.8826 42.2612L27.6448 41.9899L26.9472 41.8995L27.2173 41.7412L28.2074 41.5829L29.4452 41.7412C29.4452 41.7412 30.5029 42.1029 30.5479 42.1255C30.5929 42.1482 30.9079 41.8995 30.9079 41.8995L30.4579 40.4299L30.2553 39.209L30.1878 38.2368L30.4579 38.7342L31.178 40.5429L31.6056 41.7186L32.0781 41.7412L32.6408 40.9273L32.4832 41.7186L32.4607 41.8542ZM8.56137 6.65222V4.54959C8.56137 3.84872 7.99877 3.26089 7.27864 3.26089H5.18576C4.48813 3.26089 3.90303 3.82611 3.90303 4.54959V6.65222C3.90303 7.35309 4.46563 7.94092 5.18576 7.94092H7.27864C7.97627 7.91832 8.56137 7.35309 8.56137 6.65222ZM35.2512 6.65222V4.54959C35.2512 3.84872 34.6886 3.26089 33.9685 3.26089H31.8756C31.178 3.26089 30.5929 3.82611 30.5929 4.54959V6.65222C30.5929 7.35309 31.1555 7.94092 31.8756 7.94092H33.9685C34.6886 7.91832 35.2512 7.35309 35.2512 6.65222ZM29.7377 5.13742V28.9672C29.7377 30.0298 28.8826 30.8889 27.8249 30.8889H11.3969C10.3392 30.8889 9.48404 30.0298 9.48404 28.9672V5.13742C9.48404 4.07481 10.3392 3.21567 11.3969 3.21567H27.8249C28.8826 3.21567 29.7377 4.07481 29.7377 5.13742ZM6.26596 5.0696C5.9734 5.0696 5.74836 5.29569 5.74836 5.5896C5.74836 5.88352 5.9734 6.10961 6.26596 6.10961C6.55851 6.10961 6.78355 5.88352 6.78355 5.5896C6.78355 5.29569 6.55851 5.0696 6.26596 5.0696ZM6.26596 4.3235C5.56833 4.3235 5.00573 4.88873 5.00573 5.5896C5.00573 6.29048 5.56833 6.8557 6.26596 6.8557C6.96358 6.8557 7.52619 6.29048 7.52619 5.5896C7.52619 4.88873 6.96358 4.3235 6.26596 4.3235ZM6.26596 5.36351C6.15344 5.36351 6.04092 5.45395 6.04092 5.5896C6.04092 5.70265 6.13093 5.81569 6.26596 5.81569C6.37848 5.81569 6.491 5.72525 6.491 5.5896C6.491 5.47656 6.37848 5.36351 6.26596 5.36351ZM32.9333 5.0696C32.6407 5.0696 32.4157 5.29569 32.4157 5.5896C32.4157 5.88352 32.6407 6.10961 32.9333 6.10961C33.2259 6.10961 33.4509 5.88352 33.4509 5.5896C33.4509 5.29569 33.2034 5.0696 32.9333 5.0696ZM32.9333 4.3235C32.2357 4.3235 31.6731 4.88873 31.6731 5.5896C31.6731 6.29048 32.2357 6.8557 32.9333 6.8557C33.6309 6.8557 34.1935 6.29048 34.1935 5.5896C34.1935 4.88873 33.6309 4.3235 32.9333 4.3235ZM32.9333 5.36351C32.8208 5.36351 32.7083 5.45395 32.7083 5.5896C32.7083 5.70265 32.7983 5.81569 32.9333 5.81569C33.0458 5.81569 33.1583 5.72525 33.1583 5.5896C33.1583 5.47656 33.0458 5.36351 32.9333 5.36351ZM29.2201 5.68004V28.4246C29.2201 29.4872 28.365 30.3463 27.3073 30.3463H11.9145C10.8568 30.3463 10.0016 29.4872 10.0016 28.4246V5.68004C10.0016 4.61742 10.8568 3.75828 11.9145 3.75828H27.3073C28.365 3.75828 29.2201 4.61742 29.2201 5.68004ZM48.3036 36.4281H38.4693C37.7717 36.4281 37.1866 35.8629 37.1866 35.1394V33.0368C37.1866 32.3359 37.7492 31.7481 38.4693 31.7481H48.3036C49.0012 31.7481 49.5863 32.3133 49.5863 33.0368V35.1394C49.5638 35.8403 49.0012 36.4281 48.3036 36.4281ZM42.6101 34.0768C42.6101 33.7829 42.8351 33.5568 43.1277 33.5568C43.4202 33.5568 43.6453 33.7829 43.6453 34.0768C43.6453 34.3707 43.4202 34.5968 43.1277 34.5968C42.8351 34.5968 42.6101 34.3707 42.6101 34.0768ZM41.8674 34.0768C41.8674 33.3759 42.43 32.8107 43.1277 32.8107C43.8253 32.8107 44.3879 33.3759 44.3879 34.0768C44.3879 34.7777 43.8253 35.3429 43.1277 35.3429C42.43 35.3429 41.8674 34.7777 41.8674 34.0768ZM42.9026 34.0768C42.9026 33.9637 42.9926 33.8507 43.1277 33.8507C43.2402 33.8507 43.3527 33.9411 43.3527 34.0768C43.3527 34.1898 43.2627 34.3029 43.1277 34.3029C43.0151 34.3029 42.9026 34.2124 42.9026 34.0768ZM107.894 46.9638C107.894 45.9012 107.039 45.0195 105.959 45.0195C104.901 45.0195 104.024 45.8786 104.024 46.9638C104.024 48.0265 104.879 48.9082 105.959 48.9082C107.017 48.9082 107.894 48.0491 107.894 46.9638ZM107.827 45.0873C106.792 44.0473 105.104 44.0473 104.069 45.0873C103.979 45.1777 103.979 45.336 104.069 45.4264C104.159 45.5169 104.316 45.5169 104.406 45.4264C105.261 44.5673 106.634 44.5673 107.489 45.4264C107.579 45.5169 107.737 45.5169 107.827 45.4264C107.939 45.336 107.939 45.1777 107.827 45.0873ZM101.953 46.9638C101.953 45.9012 101.098 45.0195 100.018 45.0195C98.9603 45.0195 98.0826 45.8786 98.0826 46.9638C98.0826 48.0265 98.9378 48.9082 100.018 48.9082C101.098 48.9082 101.953 48.0491 101.953 46.9638ZM101.908 45.0873C100.873 44.0473 99.1854 44.0473 98.1502 45.0873C98.0601 45.1777 98.0601 45.336 98.1502 45.4264C98.2402 45.5169 98.3977 45.5169 98.4877 45.4264C99.3429 44.5673 100.716 44.5673 101.571 45.4264C101.661 45.5169 101.818 45.5169 101.908 45.4264C101.998 45.336 101.998 45.1777 101.908 45.0873ZM96.3048 46.9638C96.3048 45.9012 95.4497 45.0195 94.3695 45.0195C93.3118 45.0195 92.4341 45.8786 92.4341 46.9638C92.4341 48.0491 93.2893 48.9082 94.3695 48.9082C95.4272 48.9082 96.3048 48.0491 96.3048 46.9638ZM96.2598 45.0873C95.2246 44.0473 93.5368 44.0473 92.5016 45.0873C92.4116 45.1777 92.4116 45.336 92.5016 45.4264C92.5917 45.5169 92.7492 45.5169 92.8392 45.4264C93.6944 44.5673 95.0671 44.5673 95.9223 45.4264C96.0123 45.5169 96.1698 45.5169 96.2598 45.4264C96.3498 45.336 96.3498 45.1777 96.2598 45.0873ZM76.5012 75.2928C75.7811 75.2928 75.2185 74.7049 75.2185 73.9814C75.2185 73.258 75.8036 72.6701 76.5012 72.6701C77.2214 72.6701 77.784 73.258 77.784 73.9814C77.784 74.7049 77.1988 75.2928 76.5012 75.2928ZM92.7717 83.0928V79.6337C92.7717 78.9328 93.3343 78.345 94.0544 78.345H100.063C100.761 78.345 101.346 78.9102 101.346 79.6337V83.0928C101.346 83.7937 100.783 84.3815 100.063 84.3815H94.0544C93.3568 84.3589 92.7717 83.7937 92.7717 83.0928ZM95.9673 80.6285H96.1248C96.2148 80.6285 96.3048 80.6963 96.3048 80.8093V80.945C96.3048 81.0354 96.2148 81.1259 96.1248 81.1259H95.9673C95.8772 81.1259 95.7872 81.058 95.7872 80.945V80.8093C95.7872 80.6963 95.8547 80.6285 95.9673 80.6285ZM99.2529 81.9398H101.008C101.031 81.9398 101.053 81.9624 101.053 81.985C101.053 82.0076 101.031 82.0302 101.008 82.0302H99.2529C99.2304 82.0302 99.2078 82.0076 99.2078 81.985C99.2078 81.9398 99.2304 81.9398 99.2529 81.9398ZM99.2529 82.2337H101.008C101.031 82.2337 101.053 82.2563 101.053 82.2789C101.053 82.3015 101.031 82.3241 101.008 82.3241H99.2529C99.2304 82.3241 99.2078 82.3015 99.2078 82.2789C99.2078 82.2563 99.2304 82.2337 99.2529 82.2337ZM99.2529 82.5502H101.008C101.031 82.5502 101.053 82.5728 101.053 82.5954C101.053 82.618 101.031 82.6407 101.008 82.6407H99.2529C99.2304 82.6407 99.2078 82.618 99.2078 82.5954C99.2078 82.5728 99.2304 82.5502 99.2529 82.5502ZM99.2529 80.0632H101.008C101.031 80.0632 101.053 80.0858 101.053 80.1085C101.053 80.1311 101.031 80.1537 101.008 80.1537H99.2529C99.2304 80.1537 99.2078 80.1311 99.2078 80.1085C99.2078 80.0858 99.2304 80.0632 99.2529 80.0632ZM99.2529 80.3798H101.008C101.031 80.3798 101.053 80.4024 101.053 80.425C101.053 80.4476 101.031 80.4702 101.008 80.4702H99.2529C99.2304 80.4702 99.2078 80.4476 99.2078 80.425C99.2078 80.3798 99.2304 80.3798 99.2529 80.3798ZM99.2529 80.6963H101.008C101.031 80.6963 101.053 80.7189 101.053 80.7415C101.053 80.7641 101.031 80.7867 101.008 80.7867H99.2529C99.2304 80.7867 99.2078 80.7641 99.2078 80.7415C99.2078 80.6963 99.2304 80.6963 99.2529 80.6963ZM99.2529 80.9902H101.008C101.031 80.9902 101.053 81.0128 101.053 81.0354C101.053 81.058 101.031 81.0806 101.008 81.0806H99.2529C99.2304 81.0806 99.2078 81.058 99.2078 81.0354C99.2078 81.0128 99.2304 80.9902 99.2529 80.9902ZM99.2529 81.3067H101.008C101.031 81.3067 101.053 81.3293 101.053 81.3519C101.053 81.3746 101.031 81.3972 101.008 81.3972H99.2529C99.2304 81.3972 99.2078 81.3746 99.2078 81.3519C99.2078 81.3293 99.2304 81.3067 99.2529 81.3067ZM99.2529 81.6233H101.008C101.031 81.6233 101.053 81.6459 101.053 81.6685C101.053 81.6911 101.031 81.7137 101.008 81.7137H99.2529C99.2304 81.7137 99.2078 81.6911 99.2078 81.6685C99.2078 81.6232 99.2304 81.6233 99.2529 81.6233ZM99.2754 78.8198H101.008C101.031 78.8198 101.053 78.8424 101.053 78.865C101.053 78.8876 101.031 78.9102 101.008 78.9102H99.2754C99.2529 78.9102 99.2304 78.8876 99.2304 78.865C99.2304 78.8424 99.2304 78.8198 99.2754 78.8198ZM99.2754 79.1363H101.008C101.031 79.1363 101.053 79.1589 101.053 79.1815C101.053 79.2041 101.031 79.2267 101.008 79.2267H99.2754C99.2529 79.2267 99.2304 79.2041 99.2304 79.1815C99.2078 79.1363 99.2304 79.1363 99.2754 79.1363ZM99.2754 79.4528H101.008C101.031 79.4528 101.053 79.4754 101.053 79.498C101.053 79.5206 101.031 79.5432 101.008 79.5432H99.2754C99.2529 79.5432 99.2304 79.5206 99.2304 79.498C99.2078 79.4528 99.2304 79.4528 99.2754 79.4528ZM99.2754 79.7467H101.008C101.031 79.7467 101.053 79.7693 101.053 79.7919C101.053 79.8145 101.031 79.8372 101.008 79.8372H99.2754C99.2529 79.8372 99.2304 79.8145 99.2304 79.7919C99.2078 79.7693 99.2304 79.7467 99.2754 79.7467ZM98.7803 80.0632V81.6911C98.7803 82.392 98.2177 82.9798 97.4975 82.9798H94.5495C93.8519 82.9798 93.2668 82.4146 93.2668 81.6911V80.0632C93.2668 79.3624 93.8294 78.7745 94.5495 78.7745H97.4975C98.2177 78.7745 98.7803 79.3398 98.7803 80.0632ZM96.0573 81.6685C96.1248 81.6685 96.1698 81.7137 96.1698 81.7815V83.952C96.1698 84.0198 96.1248 84.065 96.0573 84.065C95.9898 84.065 95.9448 84.0198 95.9448 83.952V81.7815C95.9448 81.7137 95.9898 81.6685 96.0573 81.6685ZM95.5847 83.3867H96.4848C96.5524 83.3867 96.5974 83.432 96.5974 83.4998C96.5974 83.5676 96.5524 83.6128 96.4848 83.6128H95.5847C95.5172 83.6128 95.4722 83.5676 95.4722 83.4998C95.4722 83.432 95.5397 83.3867 95.5847 83.3867ZM96.5074 83.2963C96.3948 83.2963 96.3048 83.3867 96.3048 83.5224C96.3048 83.6354 96.3948 83.7259 96.5074 83.7259C96.6199 83.7259 96.7099 83.6354 96.7099 83.5224C96.7324 83.3867 96.6199 83.2963 96.5074 83.2963ZM95.6072 83.2963C95.4947 83.2963 95.4047 83.3867 95.4047 83.5224C95.4047 83.6354 95.4947 83.7259 95.6072 83.7259C95.7197 83.7259 95.8097 83.6354 95.8097 83.5224C95.8097 83.3867 95.6972 83.2963 95.6072 83.2963ZM96.0573 81.6459C95.9673 81.6459 95.8997 81.7137 95.8997 81.8041C95.8997 81.8946 95.9673 81.9624 96.0573 81.9624C96.1473 81.9624 96.2148 81.8946 96.2148 81.8041C96.1923 81.7137 96.1248 81.6459 96.0573 81.6459ZM106.724 66.837C106.207 66.837 105.802 66.4301 105.802 65.9101C105.802 65.3901 106.207 64.9831 106.724 64.9831C107.242 64.9831 107.647 65.3901 107.647 65.9101C107.647 66.4301 107.242 66.837 106.724 66.837ZM106.724 69.8214C106.207 69.8214 105.802 69.4145 105.802 68.8944C105.802 68.3744 106.207 67.9675 106.724 67.9675C107.242 67.9675 107.647 68.3744 107.647 68.8944C107.647 69.4145 107.242 69.8214 106.724 69.8214ZM103.821 66.837C103.304 66.837 102.899 66.4301 102.899 65.9101C102.899 65.3901 103.304 64.9831 103.821 64.9831C104.339 64.9831 104.744 65.3901 104.744 65.9101C104.744 66.4301 104.339 66.837 103.821 66.837ZM103.821 69.8214C103.304 69.8214 102.899 69.4145 102.899 68.8944C102.899 68.3744 103.304 67.9675 103.821 67.9675C104.339 67.9675 104.744 68.3744 104.744 68.8944C104.744 69.4145 104.339 69.8214 103.821 69.8214ZM105.104 74.818C105.104 74.4336 104.811 74.1397 104.429 74.1397C104.046 74.1397 103.754 74.4336 103.754 74.818C103.754 75.2023 104.046 75.4962 104.429 75.4962C104.811 75.4962 105.104 75.2023 105.104 74.818ZM105.036 73.1223C104.969 73.0997 104.901 73.0771 104.811 73.0771C104.541 73.0771 104.316 73.258 104.316 73.4614C104.316 73.6649 104.541 73.8458 104.811 73.8458C104.879 73.8458 104.969 73.8232 105.036 73.8006V73.1223ZM105.036 73.8233C104.969 73.8459 104.901 73.8685 104.811 73.8685C104.541 73.8685 104.316 73.6876 104.316 73.4841C104.316 73.2807 104.541 73.0998 104.811 73.0998C104.879 73.0998 104.969 73.1224 105.036 73.145V73.8233ZM104.766 74.8406C104.766 74.6597 104.609 74.5015 104.429 74.5015C104.249 74.5015 104.091 74.6597 104.091 74.8406C104.091 75.0215 104.249 75.1797 104.429 75.1797C104.631 75.1797 104.766 75.0215 104.766 74.8406ZM5.86088 65.5257H8.35884C9.7991 65.5257 10.9918 66.7014 10.9918 68.171V82.098C10.9918 83.545 9.8216 84.7433 8.35884 84.7433H5.86088C4.42062 84.7433 3.2279 83.5676 3.2279 82.098V68.1484C3.25041 66.7014 4.42062 65.5257 5.86088 65.5257ZM7.09861 82.3693C7.00859 82.3693 6.91858 82.2789 6.91858 82.1659C6.91858 82.0528 7.00859 81.9624 7.09861 81.9624C7.18863 81.9624 7.27864 82.0528 7.27864 82.1659C7.27864 82.2789 7.18863 82.3693 7.09861 82.3693ZM28.2074 77.3502H35.9038V84.8563H28.2074V77.3502ZM32.1007 78.5711C33.5409 78.5711 34.6886 79.7015 34.6886 81.1032C34.6886 82.505 33.5184 83.6354 32.1007 83.6354C30.6604 83.6354 29.5127 82.505 29.5127 81.1032C29.5127 79.7015 30.6604 78.5711 32.1007 78.5711ZM32.1007 79.1363C33.2259 79.1363 34.126 80.018 34.126 81.1032C34.126 82.1885 33.2259 83.0702 32.1007 83.0702C30.9754 83.0702 30.0753 82.1885 30.0753 81.1032C30.0753 80.018 30.9754 79.1363 32.1007 79.1363ZM19.5434 77.8249C20.8036 77.8249 21.9963 78.8423 21.9963 80.1084V84.8563H17.2705V80.1084C17.2705 78.8423 18.2831 77.8249 19.5434 77.8249ZM19.6334 78.5258C20.5786 78.5258 21.3437 79.3624 21.3437 80.3798V83.2737C21.3437 83.9067 20.286 84.0198 19.6334 84.0198C18.9133 84.0198 17.9456 83.9067 17.9456 83.2737V80.3798C17.9456 79.3624 18.6882 78.5258 19.6334 78.5258ZM19.6334 81.3067C19.9709 81.3067 20.196 81.578 20.196 81.9398L20.241 82.9346C20.241 83.025 20.151 83.1154 20.061 83.1154H19.1833C19.0933 83.1154 19.0033 83.025 19.0033 82.9346L19.0483 81.9398C19.0708 81.578 19.2958 81.3067 19.6334 81.3067ZM23.2115 65.5936V68.1484C23.2115 69.5501 22.0863 70.6806 20.6911 70.6806H18.1931C16.7979 70.6806 15.6727 69.5501 15.6727 68.1484V65.5936H23.2115ZM19.1608 68.6005C19.1608 68.7588 19.2958 68.8718 19.4309 68.8718C19.5884 68.8718 19.7009 68.7362 19.7009 68.6005C19.7009 68.4423 19.5659 68.3292 19.4309 68.3292C19.2958 68.3292 19.1608 68.4649 19.1608 68.6005ZM19.1608 66.0005C19.3858 65.8423 19.6109 65.8649 19.7684 66.0005C19.6334 66.6562 19.6559 67.3118 19.6109 67.9449C19.5209 68.0353 19.3858 68.0127 19.3183 67.9449C19.2508 67.3118 19.2958 66.611 19.1608 66.0005ZM108.781 53.3672H90.8901V46.6071H108.781V53.3672Z" stroke="#E5C696" stroke-width="0.3327" stroke-miterlimit="22.9256"/>
</svg>
