<svg width="130" height="76" viewBox="0 0 130 76" fill="none" xmlns="http://www.w3.org/2000/svg">
<path d="M76.1086 38.8721H75.1554V38.8894H77.8936V38.7167H78.4135V38.8894H127.336V37.2315H76.1086V38.8721Z" fill="#E5C696"/>
<path d="M128.792 38.8894V37.2315H127.336V38.8894H128.792Z" fill="#E5C696"/>
<path d="M128.792 37.2315V38.8894H127.336V46.8852H127.423H127.995H128.359H128.948H129V37.2315H128.792Z" fill="#E5C696"/>
<path d="M128.653 73.3249V74.9827H129V66.2616H128.948H128.359H127.995H127.423H127.336V73.3249H128.653Z" fill="#E5C696"/>
<path d="M75.1554 38.8721H76.1086V37.2315H75.1554V38.8721Z" fill="#E5C696"/>
<path d="M74.2716 7.95963V38.8721H75.1554V37.2315H76.1086L76.1086 7.95963H74.2716Z" fill="#E5C696"/>
<path d="M77.8936 42.3433H78.4135V38.8894H77.8936V42.3433Z" fill="#E5C696"/>
<path d="M77.8936 49.7519H78.4135V49.2511H77.8936V49.7519Z" fill="#E5C696"/>
<path d="M77.8936 49.7519V50.0455H78.4135V49.7519H77.8936Z" fill="#E5C696"/>
<path d="M77.8936 50.27H88.7942V49.8037H89.3141L89.3141 50.27V49.7519H78.4135V50.0455H77.8936V50.27Z" fill="#E5C696"/>
<path d="M70.9789 50.27V49.7519H67.2183V50.27H68.0328V49.8037H68.5527V50.27H70.9789Z" fill="#E5C696"/>
<path d="M68.5527 49.8037H68.0328V50.27H68.5527V49.8037Z" fill="#E5C696"/>
<path d="M68.0328 73.3249H68.5527V50.27H68.0328V73.3249Z" fill="#E5C696"/>
<path d="M89.3141 50.27L89.3141 49.8037H88.7942V50.27H89.3141Z" fill="#E5C696"/>
<path d="M89.3141 73.3249L89.3141 50.27H88.7942V73.3249H89.3141Z" fill="#E5C696"/>
<path d="M58.7265 50.27H60.3209V49.7519H59.2464V49.9419H58.7265V50.27Z" fill="#E5C696"/>
<path d="M59.0211 41.877H58.7265V49.7519H59.2464V40.6854H58.7265V41.3589H59.0211V41.877Z" fill="#E5C696"/>
<path d="M58.7265 49.7519V49.9419H59.2464V49.7519H58.7265Z" fill="#E5C696"/>
<path d="M2.66369 41.3589V41.877H58.7265V41.3589H2.66369Z" fill="#E5C696"/>
<path d="M59.0211 41.877V41.3589H58.7265V41.877H59.0211Z" fill="#E5C696"/>
<path d="M58.7438 7.7524H58.2239V33.8121H58.7438V7.7524Z" fill="#E5C696"/>
<path d="M76.1086 7.95963V6.11179H74.2716V7.95963H76.1086Z" fill="#E5C696"/>
<path d="M73.613 6.11179V7.95963H74.2716V6.11179H73.613Z" fill="#E5C696"/>
<path d="M67.2702 7.7524V6.09452H1V6.54353H2.66369V7.7524H58.2239V6.35357H58.7438V7.7524H67.2702Z" fill="#E5C696"/>
<path d="M58.7438 6.35357H58.2239V7.7524H58.7438V6.35357Z" fill="#E5C696"/>
<path d="M1 6.54353V7.7524H2.66369V6.54353H1Z" fill="#E5C696"/>
<path d="M1 12.726H2.66369V7.7524H1V12.726Z" fill="#E5C696"/>
<path d="M1 46.8679H2.66369V41.877H1.27728V41.3589H2.66369V32.1197H1V46.8679Z" fill="#E5C696"/>
<path d="M1.27728 41.3589V41.877H2.66369V41.3589H1.27728Z" fill="#E5C696"/>
<path d="M2.66369 74.9827H1.03466V73.3249H2.66369V66.2789H1V75H2.66369V74.9827Z" fill="#E5C696"/>
<path d="M1.03466 73.3249V74.9827H2.66369V73.3249H1.03466Z" fill="#E5C696"/>
<path d="M68.5527 73.912H68.0328V73.3249H2.66369V74.9827H127.336V73.3249H89.3141V73.912H88.7942V73.3249H68.5527V73.912Z" fill="#E5C696"/>
<path d="M68.0328 73.912H68.5527V73.3249H68.0328V73.912Z" fill="#E5C696"/>
<path d="M88.7942 73.912H89.3141V73.3249H88.7942V73.912Z" fill="#E5C696"/>
<path d="M128.653 74.9827V73.3249H127.336V74.9827H128.653Z" fill="#E5C696"/>
<path d="M1 7.7524V6.09452M1 7.7524H2.66369M1 7.7524V6.54353M1 7.7524V12.726M1 6.09452H67.2702V7.7524H58.7438M1 6.09452V6.54353M76.1086 7.95963V6.11179H74.2716M76.1086 7.95963L76.1086 37.2315M76.1086 7.95963H74.2716M128.792 37.2315V38.8894H127.336M128.792 37.2315H76.1086M128.792 37.2315L127.336 37.2315M128.792 37.2315L129 37.2315M128.653 74.9827V73.3249H127.336M128.653 74.9827H129M128.653 74.9827H2.66369M128.653 74.9827H127.336M127.336 74.9827H129M127.336 74.9827V73.3249M127.336 74.9827H2.66369M129 74.9827V66.2616M129 66.2616H127.336M129 66.2616H128.948M127.336 66.2616H127.423M127.336 66.2616V73.3249M127.336 46.8852H129M127.336 46.8852V38.8894M127.336 46.8852H127.423M129 46.8852V37.2315M129 46.8852H128.948M129 37.2315H127.336M127.336 37.2315V38.8894M127.336 37.2315L76.1086 37.2315M1 12.726H2.66369V7.7524M1 12.726V6.54353M1 6.54353H2.66369V7.7524M58.7265 50.27H60.3209V49.7519H59.2464M58.7265 50.27V49.7519M58.7265 50.27V49.9419M58.7265 49.7519H59.2464M58.7265 49.7519V41.877M58.7265 49.7519V49.9419M77.8936 50.27V49.7519M77.8936 50.27H88.7942M77.8936 50.27V50.0455M89.3141 50.27V49.7519H78.4135M89.3141 50.27L89.3141 49.8037M89.3141 50.27H88.7942M89.3141 50.27L89.3141 73.3249M77.8936 49.7519H78.4135M77.8936 49.7519V49.2511M77.8936 49.7519V50.0455M77.8936 50.0455H78.4135V49.7519M77.8936 50.0455V49.2511M77.8936 49.2511H78.4135V49.7519M89.3141 49.8037H88.7942V50.27M89.3141 49.8037V73.3249M58.7265 49.9419H59.2464V49.7519M58.7265 49.9419V41.877M127.423 66.2616H128.948M127.423 66.2616V46.8852M127.423 66.2616H127.995M128.948 66.2616V46.8852M128.948 66.2616H128.359M128.948 46.8852H127.423M128.948 46.8852H128.359M127.423 46.8852H127.995M127.995 66.2616H128.359M127.995 66.2616V46.8852M128.359 66.2616V46.8852M128.359 46.8852H127.995M98.4644 72.375C98.5164 72.3923 98.551 72.3923 98.603 72.375C98.7417 72.3405 98.811 72.2023 98.759 72.0814C98.4471 70.8553 98.863 70.1127 98.7243 68.6448M98.4817 72.375C95.9689 72.2369 93.508 72.4786 90.9431 72.3232C90.7872 72.3232 90.7698 72.2023 90.7698 72.0642C90.7178 70.769 90.9085 70.1818 90.9258 69.5083M91.3937 68.3512C93.7333 68.8348 96.0555 68.6103 98.4644 68.4721C98.5857 68.4721 98.759 68.4203 98.7417 68.6103M91.3937 68.334C91.3417 68.3167 91.3071 68.3167 91.2551 68.3167C90.9951 68.334 90.7872 68.5412 90.8045 68.8002C90.8565 69.4219 91.2204 70.4063 91.2031 71.028M93.7159 68.2131V64.9491H89.7474L93.7159 68.2131ZM93.7159 68.2131H99.5909M93.7159 67.695H99.5909M59.0211 40.6163H52.5397C52.5397 40.6163 52.5917 34.0884 58.9691 33.933M59.0211 40.2019H52.5743M67.1489 49.9937V56.4525C67.1489 56.4525 60.5982 56.4007 60.4422 50.0455M66.7157 49.9937V56.418M71.0655 49.9937V56.4525C71.0655 56.4525 77.6163 56.4007 77.7723 50.0455M71.4988 49.9937V56.418M77.9629 49.1475H84.4444C84.4444 49.1475 84.3924 42.6196 78.0149 42.4642M77.9629 48.7158H84.4097M46.5261 48.9575H58.4492V42.2397H46.5261M53.0249 45.0892V46.0562M57.7387 45.0892L57.652 46.0562M54.29 45.0892L54.1514 46.0562M55.3298 45.0892L55.2952 46.0562M56.7162 45.0892V46.0562M47.1673 46.0562V45.0892M51.8118 46.0562L51.7771 45.0892M48.4151 46.0562L48.3285 45.0892M49.5242 46.0562L49.3856 45.0892M50.8587 46.0562V45.0892M46.5088 42.2397H34.5857V48.9575H46.5088M58.4319 45.6245H34.6897M40.01 46.1081V45.1237M35.2962 46.1081L35.3829 45.1237M38.7449 46.0908L38.8836 45.141M37.6531 46.0908L37.7918 45.141M36.3187 46.1081V45.1237M45.8676 45.1237V46.1081M41.2231 45.1237L41.2578 46.1081M44.6198 45.1237L44.7065 46.1081M43.5107 45.141L43.632 46.0908M42.1763 45.1237V46.1081M3.79014 68.2303C3.79014 68.8002 4.25806 69.2665 4.82995 69.2665C5.40184 69.2665 5.86975 68.8002 5.86975 68.2303M3.79014 68.2303C3.79014 67.6432 4.25806 67.1769 4.82995 67.1942C5.40184 67.1942 5.86975 67.6604 5.86975 68.2303M3.79014 68.2303H4.46602M5.86975 68.2303H5.19388M4.69131 68.3685L4.57 68.4721M4.96859 68.3685L5.10723 68.4894M5.0899 67.9713L4.96859 68.0749M4.57 67.9713L4.69131 68.0749M4.63932 68.5412L4.31005 69.1111M4.63932 67.9022L4.31005 67.3323M5.34985 67.3323L5.02058 67.9022M5.34985 69.1111L5.02058 68.5412M3.79014 44.9165C3.79014 45.4863 4.25806 45.9526 4.82995 45.9526C5.40184 45.9526 5.86975 45.4863 5.86975 44.9165M3.79014 44.9165C3.79014 44.3293 4.25806 43.863 4.82995 43.8803C5.40184 43.8803 5.86975 44.3466 5.86975 44.9165M3.79014 44.9165H4.46602M5.86975 44.9165H5.19388M4.69131 45.0546L4.57 45.1582M4.96859 45.0546L5.10723 45.1755M5.0899 44.6574L4.96859 44.761M4.57 44.6574L4.69131 44.761M4.63932 45.2273L4.31005 45.7972M4.63932 44.5883L4.31005 44.0184M5.34985 44.0184L5.02058 44.5883M5.34985 45.7972L5.02058 45.2273M8.60791 52.9123V64.6728M7.96669 64.6728V52.9123M7.96669 52.9123L11.9699 48.923L11.9699 52.9123L7.96669 52.9123ZM3.9981 64.1029C3.87679 64.1029 3.75548 64.1029 3.75548 63.9648C3.59951 61.7715 3.80747 59.6819 3.66883 57.5405C3.6515 57.506 3.6515 57.4541 3.66883 57.4196C3.70349 57.316 3.8248 57.2469 3.94611 57.2814C4.98592 57.6268 6.07772 57.2296 7.15218 57.1778C7.18684 57.1606 7.2215 57.1606 7.25616 57.1778C7.36014 57.2124 7.41213 57.2987 7.37747 57.4023C6.97888 59.3883 6.99621 61.4434 7.46412 63.4294M4.01543 64.1029C5.21121 64.1029 5.76577 63.9302 6.38966 63.8784M7.03087 63.9475C7.25616 63.9648 7.46412 63.7748 7.46412 63.533C7.46412 63.4985 7.46412 63.4639 7.44679 63.4294M4.96859 63.6884C5.54048 63.6539 6.45898 63.9302 7.0482 63.9475M7.15218 56.5907C5.99106 56.7979 5.03791 56.5389 3.94611 56.487C3.77281 56.4698 3.70349 56.4525 3.66883 56.3489C3.6515 56.3144 3.6515 56.2625 3.66883 56.228C3.80747 54.0866 3.84213 51.9452 3.75548 49.8037C3.73815 49.7519 3.77281 49.7001 3.8248 49.7001C3.84213 49.7001 3.85946 49.7001 3.87679 49.7001C4.46602 49.7692 5.52315 49.9764 6.09504 50.1146M7.03087 49.7347C7.36014 49.7519 7.46412 49.9246 7.46412 50.3218C7.41213 52.3769 6.97888 54.3629 7.37747 56.3489C7.36014 56.5216 7.18684 56.5907 7.15218 56.5734M5.12456 49.9073C6.00839 49.8555 6.45898 49.7519 7.0482 49.7347M58.8825 33.5876H65.5026M58.8825 33.5876V7.87328H65.5026V33.5876M58.8825 33.5876L65.4852 7.9251M65.5026 33.5876L58.8825 7.89055M35.1923 7.92509V13.6758L57.9813 13.6586L57.9986 7.92509H35.2096M55.7977 30.5482L55.6591 30.79L55.7977 31.049M54.3767 31.049L54.5153 30.79L54.3767 30.5482M54.6713 31.5153L55.5031 30.0819M55.5031 31.5153L54.6713 30.0819M55.2258 30.0474L55.3645 30.3064H55.6591M54.5153 30.3064H54.7926L54.9485 30.0474M55.6591 31.2908H55.3645L55.2258 31.5326M54.9485 31.5326L54.7926 31.2908H54.5153M54.2553 30.79H55.9017M52.2451 21.5508H57.9293M52.2451 28.1305H57.9293M40.7725 7.9769V13.6586H57.9467M46.4741 13.6586V7.94236M49.1256 12.0525L49.8362 11.0681M49.2123 12.0525L48.5711 11.0336M49.1776 11.8625L49.2123 10.7228M49.9922 9.70385C50.1655 9.70385 50.3041 9.89382 50.3041 10.1183C50.3041 10.1701 50.2868 10.2392 50.2694 10.291H49.7149C49.6975 10.2392 49.6802 10.1874 49.6802 10.1183C49.6802 9.89382 49.8189 9.70385 49.9922 9.70385ZM49.9922 9.70385V9.23758M50.1655 9.23758H49.8362M26.9605 9.11669V8.09779L26.8218 7.92509H7.55077L7.3948 8.04598L7.37747 9.09942L6.61495 9.11669L6.44165 9.27211L6.42432 15.4201L6.59762 15.5928H8.33063L8.36529 15.9382L8.53859 16.0936L25.834 16.0763L25.99 15.8864L26.0073 15.61M26.9605 9.11669L27.775 9.13396L27.931 9.28939V15.4373L27.7923 15.5928L26.0073 15.61M26.9605 9.11669L26.9605 8.14959C26.9605 8.01144 26.8565 7.90782 26.7178 7.90782M26.0073 15.61H27.6883C27.827 15.61 27.9309 15.5064 27.9309 15.3683V9.35846C27.9309 9.22031 27.827 9.11669 27.6883 9.11669H26.4926M20.1151 11.0336V15.8518M20.1151 11.0336C20.1151 10.8955 20.0111 10.7918 19.8725 10.7918M20.1151 11.0336C20.1151 10.8955 20.2191 10.7918 20.3577 10.7918H25.7647M20.1151 15.8518C20.1151 15.99 20.0111 16.0936 19.8725 16.0936H14.4828C14.3442 16.0936 14.2402 15.99 14.2402 15.8518M20.1151 15.8518C20.1151 15.99 20.2191 16.0936 20.3577 16.0936H25.7647C25.9033 16.0936 26.0073 15.99 26.0073 15.8518V11.0336C26.0073 10.8955 25.9033 10.7918 25.7647 10.7918M14.2402 11.0336V15.8518M14.2402 11.0336C14.2402 10.8955 14.1362 10.7918 13.9976 10.7918M14.2402 11.0336C14.2402 10.8955 14.3442 10.7918 14.4828 10.7918H19.8725M14.2402 15.8518C14.2402 15.99 14.1362 16.0936 13.9976 16.0936H8.59058C8.45194 16.0936 8.34796 15.99 8.34796 15.8518V11.0336C8.34796 10.8955 8.45194 10.7918 8.59058 10.7918H13.9976M8.34796 15.61H6.66694C6.5283 15.61 6.42432 15.5064 6.42432 15.3683V9.35846C6.42432 9.32392 6.42432 9.28938 6.44165 9.25484C6.47631 9.1685 6.56296 9.11669 6.66694 9.11669H7.88004M19.8725 10.7918C20.0111 10.7918 20.1151 10.6882 20.1151 10.5501M14.4828 9.84201H19.8725M14.4828 9.84201C14.3442 9.84201 14.2402 9.73839 14.2402 9.60024M14.4828 9.84201C14.3442 9.84201 14.2402 9.94563 14.2402 10.0838M19.8725 9.84201C20.0111 9.84201 20.1151 9.73839 20.1151 9.60024M19.8725 9.84201C20.0111 9.84201 20.1151 9.94563 20.1151 10.0838M26.7178 7.92509H7.63742C7.49878 7.92509 7.3948 8.02871 7.3948 8.16686M7.3948 8.14959V9.11669M14.2402 8.63315V9.60024M14.2402 8.63315C14.2402 8.49499 14.3442 8.39137 14.4828 8.39137H19.8725C20.0111 8.39137 20.1151 8.49499 20.1151 8.63315M14.2402 8.63315C14.2402 8.49499 14.1362 8.39137 13.9976 8.39137H8.10533C7.96669 8.39137 7.86271 8.49499 7.86271 8.63314M14.2402 9.60024C14.2402 9.73839 14.1362 9.84201 13.9976 9.84201M7.88004 8.63315V9.60024C7.88004 9.73839 7.98402 9.84201 8.12266 9.84201M8.10533 9.84201H13.9976M13.9976 9.84201C14.1362 9.84201 14.2402 9.94563 14.2402 10.0838M13.9976 10.7918C14.1362 10.7918 14.2402 10.6882 14.2402 10.5501M7.89737 9.70385L8.36529 10.6537C8.39995 10.74 8.4866 10.8091 8.59058 10.8091M14.2402 10.0838V10.5673C14.2402 10.7055 14.3442 10.8091 14.4828 10.8091M20.3577 9.84201H26.2499C26.3886 9.84201 26.4926 9.73839 26.4926 9.60024V8.63315C26.4926 8.49499 26.3886 8.39137 26.2499 8.39137H20.3577C20.2191 8.39137 20.1151 8.49499 20.1151 8.63315M20.3577 9.84201C20.2191 9.84201 20.1151 9.73839 20.1151 9.60024M20.3577 9.84201C20.2191 9.84201 20.1151 9.94563 20.1151 10.0838M25.7647 10.7918C25.8687 10.7918 25.9553 10.74 25.99 10.6364M20.1151 8.63315V9.60024M20.1151 10.0838V10.5673C20.1151 10.7055 20.2191 10.8091 20.3577 10.8091M25.99 10.6537L26.4579 9.72112M11.3634 40.72V40.0637H23.3731V40.7545H11.3634H12.0566L12.1606 41.169H22.576L22.6799 40.7545M6.54563 35.28L6.21636 34.6756L5.48849 33.2768L5.03791 32.4651L5.29786 33.7776L5.66179 34.762L6.00839 35.5391L5.86975 35.6427C5.86975 35.6427 5.14189 34.7792 5.12456 34.7965C5.10723 34.8138 4.37937 33.6567 4.37937 33.6567L4.95126 34.9692L5.28053 35.47L5.67912 35.9536L5.54048 36.4716L4.77796 36.5062L5.7831 36.7998L5.2632 37.0761L4.76063 37.456L4.24073 38.0432L4.79529 37.7151L5.4365 37.4387L5.97373 37.3006L5.6098 37.8532L5.22854 38.5613L5.0899 39.183L5.59247 38.3886L6.19903 37.8014L6.30301 37.8705L6.16436 38.4231L6.59762 37.8532L6.94422 37.8877L7.20417 38.734L7.65475 40.0637L7.82805 40.4264L7.81072 39.7356L7.70674 38.8548L7.42946 37.7841C7.42946 37.7841 7.65475 37.6114 7.68941 37.6287C7.72407 37.646 8.46927 37.9396 8.46927 37.9396L9.3531 38.095L10.081 38.0259L10.2716 37.9223L9.76902 37.8359L8.88519 37.5942L8.01868 37.2315L8.17466 36.9207L9.19713 36.7998L10.0463 36.5407L10.9995 36.0744L11.4674 35.7118L10.5315 36.0226L9.80368 36.2126L8.97184 36.368L8.20931 36.4544L8.07067 35.9536L8.46927 35.7118L9.42242 35.2282L10.6875 34.6929L9.3531 34.9174L8.27864 35.3146C8.27864 35.3146 7.77606 35.6254 7.77606 35.5909M6.54563 35.28L6.84024 35.2455M6.54563 35.28C6.64961 35.2628 6.75359 35.2455 6.84024 35.2455M6.84024 35.2455L7.0482 34.1403L7.16951 33.0005L7.30815 33.2941L7.3948 34.2439L7.30815 35.3146M7.30815 35.3146C7.30815 35.3146 7.75873 35.5736 7.77606 35.5909M7.30815 35.3146C7.48145 35.3664 7.63742 35.47 7.77606 35.5909M6.21636 34.7102C5.7831 33.9158 5.38451 33.1041 5.02058 32.2579C5.15922 33.6394 5.62713 34.9519 6.355 36.1263M8.55592 35.4182C8.05334 35.7291 7.58543 36.109 7.16951 36.5235C7.67208 36.8861 8.10533 37.3524 8.43461 37.8705C7.96669 37.4906 7.46412 37.1797 6.94422 36.9034C6.75359 37.4905 6.44165 38.0432 6.04305 38.5267C6.25102 37.9741 6.40699 37.4042 6.51097 36.817C5.88708 36.817 5.2632 36.6961 4.69131 36.4716M8.55592 35.4009C7.94936 35.5564 7.37747 35.8327 6.8749 36.1953C6.61495 35.66 6.38966 35.1074 6.23369 34.5375C6.18169 35.1592 6.26835 35.7809 6.45898 36.368C5.86975 36.4544 5.28053 36.4889 4.69131 36.4544M7.29082 36.4889C8.36529 35.6772 9.57839 35.0728 10.8781 34.6929M7.68941 36.9379C9.11048 36.9725 10.5142 36.5235 11.6407 35.66C10.2543 36.2126 8.78121 36.4889 7.30815 36.4716M7.96669 37.2315C8.72922 37.6287 9.56106 37.8705 10.4102 37.9568C9.31844 38.2504 8.15732 38.0432 7.23883 37.3697C7.65475 38.3713 7.84538 39.4593 7.79339 40.53M6.32034 37.6978C5.67912 38.1641 5.19388 38.803 4.93393 39.5456C5.07257 38.6994 5.45383 37.9223 6.02572 37.2833M7.79339 40.5473C7.41213 39.5111 7.06553 38.4576 6.75359 37.4042M6.04305 37.2833C5.33252 37.3869 4.65665 37.7151 4.13675 38.1986C4.55267 37.5596 5.14189 37.0588 5.85242 36.7825M6.40699 36.1435C5.54048 35.3837 4.82995 34.4511 4.32738 33.3977M6.1817 36.4198C5.24587 35.6427 4.58733 34.5893 4.31005 33.4149M7.25616 35.9363C8.3133 35.1592 9.57839 34.7274 10.8955 34.6929M6.75359 35.6254C6.61495 35.4009 6.47631 35.1592 6.355 34.9174M7.15218 36.0054C7.48145 34.9519 7.48145 33.8121 7.15218 32.7414C7.13485 33.7258 7.01354 34.6929 6.75359 35.6427M5.55781 36.4716C5.57514 36.299 5.62713 36.109 5.69645 35.9536M5.88708 35.6772C5.92174 35.6254 5.97373 35.5909 6.02572 35.5564M8.05334 35.9536C8.13999 36.109 8.17465 36.2817 8.19198 36.4544M8.15732 36.9379C8.12266 37.0588 8.07067 37.1624 8.00135 37.266M7.65475 37.6287C7.5681 37.6805 7.48145 37.7323 7.3948 37.7841M6.90956 37.8877C6.78825 37.8877 6.64961 37.8705 6.5283 37.8359M6.30288 37.7669C6.28561 37.7669 6.28561 37.7497 6.26835 37.7497M5.88708 37.456C5.85242 37.4215 5.81776 37.3697 5.7831 37.3351M5.59247 36.8861C5.57514 36.8343 5.57514 36.7825 5.55781 36.7307M36.3014 70.6135C35.5042 71.0453 34.6897 71.4425 33.8405 71.8051M38.1037 69.5601C37.2892 68.4894 36.6826 67.2805 36.3014 65.9853M38.5543 69.1629C38.589 67.7468 38.1384 66.348 37.2719 65.2254C37.8264 66.607 38.1037 68.0749 38.0864 69.5428M38.8489 68.8866C39.2475 68.1267 39.4901 67.2978 39.5768 66.4516C39.8714 67.5396 39.6461 68.6966 38.9875 69.6119C39.9927 69.1974 41.0845 69.0075 42.159 69.0593M39.4728 68.4203C38.9529 68.7484 38.485 69.1802 38.121 69.681C37.7051 69.2665 37.3239 68.8002 37.0119 68.2994C37.1679 68.9039 37.4452 69.4737 37.8091 69.9746C37.2719 70.2336 36.7173 70.4581 36.1454 70.6135C36.7693 70.6653 37.3932 70.579 37.9824 70.389C38.069 70.9762 38.1037 71.5634 38.069 72.1505M39.3168 70.5272C39.7847 71.1662 40.4259 71.6497 41.1711 71.9087C40.322 71.7706 39.5421 71.3907 38.9009 70.8208M42.1763 69.0593C41.1365 69.4392 40.0793 69.7846 39.0222 70.0954M38.0864 72.1505C38.3117 71.5806 38.433 70.9589 38.433 70.3372C39.0222 70.4408 39.5941 70.5963 40.1487 70.8035M40.1487 70.7862C39.6634 70.389 39.1089 70.0782 38.5196 69.8882C38.7969 69.3701 39.1262 68.8693 39.4901 68.403M38.8836 70.8035C38.9875 71.5116 39.3168 72.1851 39.8021 72.7031C39.1608 72.2887 38.6583 71.7015 38.381 70.9935M37.7571 70.4408C36.9946 71.3043 36.0588 72.0124 35.0016 72.5132M38.0344 70.6481C37.2545 71.5806 36.1974 72.2369 35.019 72.5132M37.5491 69.5946C36.7693 68.5412 36.336 67.2805 36.3014 65.968M37.2372 70.0954C37.0119 70.2336 36.7693 70.3718 36.5267 70.4926M37.6185 69.6982C36.5613 69.3701 35.4175 69.3701 34.3431 69.6982C35.3309 69.7155 36.3014 69.8537 37.2545 70.0954M37.7398 70.4926C36.5613 71.218 35.2442 71.6842 33.8578 71.8224M38.0864 71.287C37.9131 71.2698 37.7224 71.218 37.5665 71.1489M37.2892 70.9589C37.2372 70.9244 37.2025 70.8726 37.1679 70.8208M36.8906 70.3027C36.8733 70.1991 36.8559 70.0954 36.8559 70.0091M36.9253 69.5256C36.9773 69.3529 37.0812 69.1974 37.2025 69.0593M37.5665 68.8002C37.7224 68.7139 37.8957 68.6793 38.0691 68.6621M38.5543 68.6966C38.6756 68.7312 38.7796 68.783 38.8836 68.852M39.2475 69.1974C39.2995 69.2838 39.3515 69.3701 39.4035 69.4565M39.5074 69.94C39.5074 70.0609 39.4901 70.1991 39.4555 70.32M39.3861 70.5447C39.3861 70.5618 39.3688 70.5618 39.3688 70.579M39.0742 70.9589C39.0395 70.9935 38.9875 71.028 38.9529 71.0625M38.5023 71.2525C38.4503 71.2698 38.3983 71.2698 38.3463 71.287M85.3802 72.3578C86.5586 72.3232 88.153 71.4425 87.6504 70.389C87.0785 69.1974 85.8308 69.4219 84.1844 69.4219C83.006 69.4219 82.1568 70.7517 82.9366 71.4597C83.5259 72.0124 84.1844 72.3232 84.9816 72.3405M70.6669 70.3545V64.9837M71.5161 71.2007H76.9058M71.2735 70.5963L74.6702 67.2114M102.901 70.1127C103.473 70.1127 103.941 70.579 103.941 71.1489C103.941 71.7188 103.473 72.1851 102.901 72.1851M102.901 70.1127C102.329 70.1127 101.861 70.579 101.861 71.1489C101.861 71.7188 102.329 72.1851 102.901 72.1851M102.901 70.1127V70.7862M102.901 72.1851V71.5115M103.04 71.0107L103.161 70.8898M103.04 71.287L103.178 71.4252M102.641 71.4079L102.762 71.287M102.641 70.8898L102.762 71.0107M103.213 70.9589L103.802 70.6308M102.589 70.9589L102.017 70.6308M102.017 71.667L102.589 71.3389M103.802 71.667L103.213 71.3389M122.363 69.7328V70.5963M126.522 69.7328L126.452 70.5963M123.472 69.7328L123.368 70.579M124.39 69.7328L124.356 70.5963M125.621 69.7328V70.5963M117.198 70.5963V69.7328M121.288 70.5963L121.271 69.7328M118.29 70.5963L118.221 69.7328M119.278 70.579L119.157 69.7328M120.456 70.5963V69.7328M127.128 70.1991H106.194M110.89 70.6308V69.7673M106.731 70.6308L106.8 69.7673M109.781 70.6308L109.885 69.7673M108.81 70.6308L108.932 69.7673M107.632 70.6308V69.7673M116.054 69.7673V70.6308M111.965 69.7673L111.982 70.6308M114.963 69.7673L115.032 70.6308M113.975 69.7673L114.096 70.6135M112.796 69.7673V70.6308M116.505 41.0135L116.158 40.0637C116.158 39.9774 116.228 39.9256 116.297 39.9256L120.526 40.34C120.595 40.34 120.647 40.4264 120.63 40.5127L120.11 41.3762M55.0525 71.1834C54.8966 71.1662 54.7753 71.2007 54.7579 71.2352C54.7406 71.287 54.9312 71.3734 55.1738 71.4079C55.4165 71.4425 55.6244 71.4252 55.6244 71.3734C55.6244 71.3389 55.5378 71.287 55.3991 71.2352M54.2034 70.579C54.186 70.6308 54.1687 70.6999 54.1514 70.769C54.0474 71.3734 54.4633 71.9433 55.0699 72.0296C55.6764 72.1333 56.2483 71.7188 56.335 71.1143C56.3523 71.0453 56.3523 70.9762 56.3523 70.9071M56.2483 70.3372C56.0923 70.0436 55.7977 69.8191 55.4511 69.7673C55.1045 69.7155 54.7579 69.8191 54.5153 70.0609M58.6745 70.7344L52.0891 69.681L52.0371 70.0436L58.6052 71.0971L58.6572 70.8035M55.6591 70.8035L55.3645 71.287L55.2085 71.2698L55.0699 71.2352L54.9485 70.6826M55.0179 70.9417L55.5031 71.028M58.1373 71.028L57.964 71.1489M52.6263 70.32L57.9467 71.1662M52.5223 70.1127L52.6263 70.2854M73.5091 6.87164V1C73.5091 1 67.5649 1.05181 67.4089 6.81984M73.1798 1.03455V6.87165M75.1554 38.8721H76.1086V37.2315M75.1554 38.8721V38.8894H77.8936M75.1554 38.8721V37.2315H76.1086M75.1554 38.8721H74.2716V7.95963M77.8936 38.8894V38.7167H78.4135V38.8894M77.8936 38.8894V42.3433H78.4135V38.8894M77.8936 38.8894H78.4135M78.4135 38.8894H127.336M76.1086 37.2315V6.09452H74.2716V6.11179M127.336 73.3249H89.3141M74.2716 7.95963H73.613V6.11179H74.2716M74.2716 7.95963V6.11179M88.7942 50.27V73.3249M68.0328 50.27H67.2183V49.7519H70.9789V50.27H68.5527M68.0328 50.27V49.8037H68.5527V50.27M68.0328 50.27H68.5527M68.0328 50.27V73.3249M68.5527 50.27V73.3249M68.0328 73.3249H68.5527M68.0328 73.3249V73.912H68.5527V73.3249M68.0328 73.3249H2.66369M68.5527 73.3249H88.7942M89.3141 73.3249H88.7942M89.3141 73.3249V73.912H88.7942V73.3249M59.2464 49.7519V40.6854H58.7265V41.3589M58.7265 41.877H59.0211V41.3589H58.7265M58.7265 41.877V41.3589M58.7265 41.877H2.66369M58.7265 41.3589H2.66369M2.66369 41.3589V41.877M2.66369 41.3589H1.27728V41.877H2.66369M2.66369 41.3589V32.1197H1V46.8679H2.66369V41.877M58.7438 7.7524H58.2239M58.7438 7.7524V33.8121H58.2239V7.7524M58.7438 7.7524V6.35357H58.2239V7.7524M58.2239 7.7524H2.66369M2.66369 74.9827H1.03466V73.3249H2.66369M2.66369 74.9827V75H1V66.2789H2.66369V73.3249M2.66369 74.9827V73.3249M1.06932 32.1025H2.59437V12.726H1.06932V32.1025ZM1.64121 32.1025H2.00514V12.726H1.64121V32.1025ZM1.06932 66.2616H2.59437V46.8852H1.06932V66.2616ZM1.64121 66.2616H2.00514V46.8852H1.64121V66.2616ZM98.9323 50.1146H90.4059C89.8687 50.1146 89.4181 50.5463 89.4181 51.0989V72.1678C89.4181 72.7031 89.8513 73.1522 90.4059 73.1522H98.9323C99.4695 73.1522 99.9201 72.7204 99.9201 72.1678V51.0817C99.9201 50.5463 99.4695 50.1146 98.9323 50.1146ZM98.603 50.5636H90.7179C90.1806 50.5636 89.73 50.9953 89.73 51.548V71.7879C89.73 72.3232 90.1633 72.7722 90.7179 72.7722H98.603C99.1403 72.7722 99.5909 72.3405 99.5909 71.7879V51.548C99.5909 50.9953 99.1576 50.5636 98.603 50.5636ZM52.9903 42.6714H53.0596C53.1289 42.6714 53.1809 42.7232 53.1809 42.7923V48.3358C53.1809 48.4049 53.1289 48.4567 53.0596 48.4567H52.9903C52.9209 48.4567 52.8689 48.4049 52.8689 48.3358V42.7923C52.8689 42.7405 52.9209 42.6714 52.9903 42.6714ZM57.8427 42.6887H57.912C57.9813 42.6887 58.016 42.7578 58.016 42.8268L57.5654 48.3358C57.5654 48.4049 57.4961 48.4567 57.4441 48.4567H57.3748C57.3054 48.4567 57.2708 48.3876 57.2708 48.3186L57.7214 42.8096C57.7214 42.7405 57.7907 42.6714 57.8427 42.6887ZM54.5673 42.706L54.6366 42.7232C54.7059 42.7405 54.7406 42.7923 54.7406 42.8614L53.9954 48.3358C53.9781 48.4049 53.9261 48.4567 53.8741 48.4394L53.8048 48.4222C53.7354 48.4049 53.7008 48.3531 53.7008 48.284L54.446 42.8096C54.446 42.7405 54.5153 42.6887 54.5673 42.706ZM55.3471 42.6714H55.4165C55.4858 42.6714 55.5204 42.7405 55.5204 42.8096L55.3645 48.3531C55.3645 48.4222 55.3125 48.474 55.2432 48.474H55.1738C55.1045 48.474 55.0699 48.4049 55.0699 48.3358L55.2258 42.7923C55.2432 42.7232 55.2952 42.6714 55.3471 42.6714ZM56.6816 42.6714H56.7509C56.8202 42.6714 56.8722 42.7232 56.8722 42.7923V48.3358C56.8722 48.4049 56.8202 48.4567 56.7509 48.4567H56.6816C56.6122 48.4567 56.5603 48.4049 56.5603 48.3358V42.7923C56.5603 42.7405 56.6122 42.6714 56.6816 42.6714ZM47.1327 48.474H47.202C47.2713 48.474 47.3233 48.4222 47.3233 48.3531V42.8096C47.3233 42.7405 47.2713 42.6887 47.202 42.6887H47.1327C47.0634 42.6887 47.0114 42.7405 47.0114 42.8096V48.3531C47.0114 48.4222 47.0634 48.474 47.1327 48.474ZM51.8465 48.474H51.9158C51.9851 48.474 52.0198 48.4049 52.0198 48.3358L51.8465 42.7923C51.8465 42.7232 51.7945 42.6714 51.7252 42.6714H51.6558C51.5865 42.6714 51.5519 42.7405 51.5519 42.8096L51.7252 48.3531C51.7425 48.4222 51.7945 48.474 51.8465 48.474ZM48.5711 48.4567H48.6404C48.7097 48.4567 48.7444 48.3876 48.7444 48.3186L48.2938 42.7923C48.2938 42.7232 48.2245 42.6714 48.1725 42.6714H48.1032C48.0338 42.6714 47.9992 42.7405 47.9992 42.8096L48.4498 48.3186C48.4498 48.4222 48.5018 48.474 48.5711 48.4567ZM49.6802 48.4567H49.7495C49.8188 48.4567 49.8535 48.3876 49.8535 48.3186L49.3683 42.8096C49.3683 42.7405 49.2989 42.6887 49.247 42.6887H49.1776C49.1083 42.6887 49.0737 42.7578 49.0737 42.8268L49.5589 48.3358C49.5589 48.4222 49.6109 48.474 49.6802 48.4567ZM50.824 48.474H50.8933C50.9626 48.474 51.0146 48.4222 51.0146 48.3531V42.8096C51.0146 42.7405 50.9626 42.6887 50.8933 42.6887H50.824C50.7547 42.6887 50.7027 42.7405 50.7027 42.8096V48.3531C50.7027 48.4222 50.7547 48.474 50.824 48.474ZM40.0447 48.5085H39.9754C39.906 48.5085 39.854 48.4567 39.854 48.3876V42.8441C39.854 42.775 39.906 42.7232 39.9754 42.7232H40.0447C40.114 42.7232 40.166 42.775 40.166 42.8441V48.3876C40.166 48.4567 40.114 48.5085 40.0447 48.5085ZM35.1923 48.5085H35.1229C35.0536 48.5085 35.019 48.4394 35.019 48.3704L35.4695 42.8614C35.4695 42.7923 35.5389 42.7405 35.5908 42.7405H35.6602C35.7295 42.7405 35.7641 42.8096 35.7641 42.8786L35.3136 48.3876C35.2962 48.4567 35.2442 48.5085 35.1923 48.5085ZM38.4503 48.4912L38.381 48.474C38.3117 48.4567 38.277 48.4049 38.277 48.3358L39.0222 42.8614C39.0395 42.7923 39.0915 42.7405 39.1435 42.7578L39.2128 42.775C39.2822 42.7923 39.3168 42.8441 39.3168 42.9132L38.5716 48.3876C38.5716 48.4567 38.5196 48.4912 38.4503 48.4912ZM37.6878 48.5085H37.6185C37.5491 48.5085 37.5145 48.4394 37.5145 48.3704L37.6705 42.8268C37.6705 42.7578 37.7224 42.706 37.7918 42.706H37.8611C37.9304 42.706 37.9651 42.775 37.9651 42.8441L37.8091 48.3876C37.7918 48.4567 37.7398 48.5258 37.6878 48.5085ZM36.3534 48.5085H36.2841C36.2147 48.5085 36.1627 48.4567 36.1627 48.3876V42.8441C36.1627 42.775 36.2147 42.7232 36.2841 42.7232H36.3534C36.4227 42.7232 36.4747 42.775 36.4747 42.8441V48.3876C36.4747 48.4567 36.4227 48.5085 36.3534 48.5085ZM45.9022 42.7232H45.8329C45.7636 42.7232 45.7116 42.775 45.7116 42.8441V48.3876C45.7116 48.4567 45.7636 48.5085 45.8329 48.5085H45.9022C45.9716 48.5085 46.0236 48.4567 46.0236 48.3876V42.8441C46.0062 42.775 45.9716 42.7232 45.9022 42.7232ZM41.1885 42.7232H41.1191C41.0498 42.7232 41.0152 42.7923 41.0152 42.8614L41.1885 48.4049C41.1885 48.474 41.2405 48.5258 41.3098 48.5258H41.3791C41.4484 48.5258 41.4831 48.4567 41.4831 48.3876L41.3098 42.8441C41.2924 42.775 41.2405 42.7232 41.1885 42.7232ZM44.4639 42.7232H44.3945C44.3252 42.7232 44.2906 42.7923 44.2906 42.8614L44.7411 48.3876C44.7411 48.4567 44.8105 48.5085 44.8624 48.5085H44.9318C45.0011 48.5085 45.0357 48.4394 45.0357 48.3704L44.5852 42.8614C44.5852 42.775 44.5332 42.7232 44.4639 42.7232ZM43.3547 42.7232H43.2854C43.2161 42.7232 43.1814 42.7923 43.1814 42.8614L43.6667 48.3704C43.6667 48.4394 43.736 48.4912 43.788 48.4912H43.8573C43.9266 48.4912 43.9613 48.4222 43.9613 48.3531L43.476 42.8441C43.476 42.775 43.424 42.7232 43.3547 42.7232ZM42.2109 42.7232H42.1416C42.0723 42.7232 42.0203 42.775 42.0203 42.8441V48.3876C42.0203 48.4567 42.0723 48.5085 42.1416 48.5085H42.2109C42.2803 48.5085 42.3323 48.4567 42.3323 48.3876V42.8441C42.3149 42.775 42.2629 42.7232 42.2109 42.7232ZM5.78304 66.3307H3.87673C3.3395 66.3307 2.88892 66.7624 2.88892 67.3151V69.1974C2.88892 69.7328 3.32217 70.1818 3.87673 70.1818H5.76571C6.30294 70.1818 6.75353 69.7501 6.75353 69.1974V67.3151C6.75353 66.7624 6.32027 66.3307 5.78304 66.3307ZM5.7831 42.9823H3.89412C3.35689 42.9823 2.90631 43.414 2.90631 43.9666V45.849C2.90631 46.3844 3.33956 46.8334 3.89412 46.8334H5.7831C6.32034 46.8334 6.77092 46.4016 6.77092 45.849V43.9666C6.75359 43.414 6.32034 42.9823 5.7831 42.9823ZM4.34471 48.474H24.2396C25.0542 48.474 25.7127 49.1302 25.7127 49.9419V63.7403C25.7127 64.5519 25.0542 65.2082 24.2396 65.2082H4.34471C3.53019 65.2082 2.87165 64.5519 2.87165 63.7403V49.9419C2.87165 49.1302 3.53019 48.474 4.34471 48.474ZM4.3967 68.2303C4.3967 68.4721 4.58733 68.6621 4.82995 68.6621C5.07257 68.6621 5.2632 68.4721 5.2632 68.2303C5.2632 67.9886 5.07257 67.7986 4.82995 67.7986C4.58733 67.7986 4.3967 67.9886 4.3967 68.2303ZM4.65665 68.2303C4.65665 68.334 4.7433 68.4203 4.84728 68.4203C4.95126 68.4203 5.03791 68.334 5.03791 68.2303C5.03791 68.1267 4.95126 68.0404 4.84728 68.0404C4.72597 68.0404 4.65665 68.1267 4.65665 68.2303ZM4.3967 44.9165C4.3967 45.1582 4.58733 45.3482 4.82995 45.3482C5.07257 45.3482 5.2632 45.1582 5.2632 44.9165C5.2632 44.6747 5.07257 44.4847 4.82995 44.4847C4.58733 44.4847 4.3967 44.6747 4.3967 44.9165ZM4.65665 44.8992C4.65665 45.0028 4.7433 45.0892 4.84728 45.0892C4.95126 45.0892 5.03791 45.0028 5.03791 44.8992C5.03791 44.7956 4.95126 44.7092 4.84728 44.7092C4.72597 44.7265 4.65665 44.8128 4.65665 44.8992ZM4.77796 48.9057H23.7891C24.6036 48.9057 25.2621 49.562 25.2621 50.3736V63.3085C25.2621 64.1202 24.6036 64.7764 23.7891 64.7764H4.77796C3.96344 64.7764 3.3049 64.1202 3.3049 63.3085V50.3736C3.3049 49.562 3.96344 48.9057 4.77796 48.9057ZM35.8335 16.2663C34.9496 16.249 34.2218 16.9571 34.2044 17.8378C34.1871 18.7186 34.8976 19.4439 35.7815 19.4611C36.6653 19.4784 37.3932 18.7704 37.4105 17.8896C37.4278 17.0089 36.7173 16.2836 35.8335 16.2663ZM34.2738 16.2835C33.4073 17.1297 33.3726 18.5286 34.2218 19.392C34.2911 19.4784 34.4297 19.4784 34.4991 19.392C34.5857 19.3229 34.5857 19.1848 34.4991 19.1157C33.8059 18.4077 33.8232 17.2679 34.5337 16.5771C34.6204 16.508 34.6204 16.3699 34.5337 16.3008C34.4817 16.1972 34.3431 16.1972 34.2738 16.2835ZM35.8335 9.42754C34.9496 9.41027 34.2218 10.1183 34.2044 10.9991C34.1871 11.8798 34.8976 12.6051 35.7815 12.6224C36.6653 12.6397 37.3932 11.9316 37.4105 11.0509C37.4105 10.1701 36.7173 9.44481 35.8335 9.42754ZM34.2738 9.44479C33.4073 10.291 33.3726 11.6898 34.2218 12.5533C34.2911 12.6397 34.4297 12.6397 34.4991 12.5533C34.5857 12.4842 34.5857 12.3461 34.4991 12.277C33.8058 11.5689 33.8232 10.4292 34.5337 9.73837C34.6204 9.66929 34.6204 9.53114 34.5337 9.46206C34.4817 9.35844 34.3431 9.35844 34.2738 9.44479ZM35.8335 23.105C34.9496 23.0878 34.2218 23.7958 34.2044 24.6766C34.1871 25.5573 34.8976 26.2826 35.7815 26.2999C36.6653 26.3172 37.3932 25.6091 37.4105 24.7284C37.4278 23.8476 36.7173 23.105 35.8335 23.105ZM34.2738 23.105C33.4073 23.9512 33.3726 25.3501 34.2218 26.2135C34.2911 26.2999 34.4297 26.2999 34.4991 26.2135C34.5857 26.1445 34.5857 26.0063 34.4991 25.9372C33.8059 25.2292 33.8232 24.0894 34.5337 23.3986C34.6204 23.3295 34.6204 23.1914 34.5337 23.1223C34.4817 23.0359 34.3431 23.0359 34.2738 23.105ZM40.7806 28.4599V13.6772H35.2003V28.4599H40.7806ZM52.2277 33.5531H57.9813V7.92509H52.2277V33.5531ZM56.1617 30.79C56.1617 31.3771 55.6764 31.8607 55.0872 31.8607C54.498 31.8607 54.0127 31.3771 54.0127 30.79C54.0127 30.2028 54.498 29.7193 55.0872 29.7193C55.6764 29.7193 56.1617 30.2028 56.1617 30.79ZM48.8657 10.3428C49.1776 10.3428 49.4203 10.0838 49.4203 9.7902C49.4203 9.47935 49.1603 9.23758 48.8657 9.23758C48.5538 9.23758 48.3111 9.47935 48.3111 9.7902C48.3111 10.101 48.5538 10.3428 48.8657 10.3428ZM56.6122 21.1363H53.6141C53.0769 21.1363 52.6263 20.7046 52.6263 20.1519V15.0401C52.6263 14.5048 53.0596 14.0558 53.6141 14.0558H56.6122C57.1495 14.0558 57.6001 14.4875 57.6001 15.0401V20.1519C57.5827 20.6873 57.1495 21.1363 56.6122 21.1363ZM54.5153 18.494C54.5153 18.5804 54.5846 18.6322 54.6539 18.6322H54.7579C54.8446 18.6322 54.8966 18.5631 54.8966 18.494V18.3559C54.8966 18.2695 54.8272 18.2177 54.7579 18.2177H54.6539C54.5673 18.2177 54.5153 18.2868 54.5153 18.3559V18.494ZM55.5898 15.7827V14.3321C55.5898 14.3148 55.6071 14.2976 55.6244 14.2976C55.6418 14.2976 55.6591 14.3148 55.6591 14.3321V15.7827C55.6591 15.8 55.6418 15.8345 55.6244 15.8345C55.5898 15.8173 55.5898 15.8 55.5898 15.7827ZM55.8324 15.7827V14.3321C55.8324 14.3148 55.8497 14.2976 55.867 14.2976C55.8844 14.2976 55.9017 14.3148 55.9017 14.3321V15.7827C55.9017 15.8 55.8844 15.8345 55.867 15.8345C55.8497 15.8173 55.8324 15.8 55.8324 15.7827ZM56.0923 15.7827V14.3321C56.0923 14.3148 56.1097 14.2976 56.127 14.2976C56.1443 14.2976 56.1617 14.3148 56.1617 14.3321V15.7827C56.1617 15.8 56.1443 15.8345 56.127 15.8345C56.1097 15.8173 56.0923 15.8 56.0923 15.7827ZM54.0474 15.7827V14.3321C54.0474 14.3148 54.0647 14.2976 54.082 14.2976C54.0994 14.2976 54.1167 14.3148 54.1167 14.3321V15.7827C54.1167 15.8 54.0994 15.8345 54.082 15.8345C54.0647 15.8173 54.0474 15.8 54.0474 15.7827ZM54.29 15.7827V14.3321C54.29 14.3148 54.3073 14.2976 54.3247 14.2976C54.342 14.2976 54.3593 14.3148 54.3593 14.3321V15.7827C54.3593 15.8 54.342 15.8345 54.3247 15.8345C54.3073 15.8173 54.29 15.8 54.29 15.7827ZM54.55 15.7827V14.3321C54.55 14.3148 54.5673 14.2976 54.5846 14.2976C54.602 14.2976 54.6193 14.3148 54.6193 14.3321V15.7827C54.6193 15.8 54.602 15.8345 54.5846 15.8345C54.5673 15.8173 54.55 15.8 54.55 15.7827ZM54.8099 15.7827V14.3321C54.8099 14.3148 54.8272 14.2976 54.8446 14.2976C54.8619 14.2976 54.8792 14.3148 54.8792 14.3321V15.7827C54.8792 15.8 54.8619 15.8345 54.8446 15.8345C54.8272 15.8173 54.8099 15.8 54.8099 15.7827ZM55.0699 15.7827V14.3321C55.0699 14.3148 55.0872 14.2976 55.1045 14.2976C55.1219 14.2976 55.1392 14.3148 55.1392 14.3321V15.7827C55.1392 15.8 55.1219 15.8345 55.1045 15.8345C55.0872 15.8173 55.0699 15.8 55.0699 15.7827ZM55.3125 15.7827V14.3321C55.3125 14.3148 55.3298 14.2976 55.3471 14.2976C55.3645 14.2976 55.3818 14.3148 55.3818 14.3321V15.7827C55.3818 15.8 55.3645 15.8345 55.3471 15.8345C55.3298 15.8173 55.3125 15.8 55.3125 15.7827ZM53.0249 15.7655V14.3321C53.0249 14.3148 53.0422 14.2976 53.0596 14.2976C53.0769 14.2976 53.0942 14.3148 53.0942 14.3321V15.7655C53.0942 15.7827 53.0769 15.8173 53.0596 15.8173C53.0422 15.8 53.0249 15.7827 53.0249 15.7655ZM53.2675 15.7655V14.3321C53.2675 14.3148 53.2849 14.2976 53.3022 14.2976C53.3195 14.2976 53.3369 14.3148 53.3369 14.3321V15.7655C53.3369 15.7827 53.3195 15.8173 53.3022 15.8173C53.2849 15.8 53.2675 15.7827 53.2675 15.7655ZM53.5275 15.7655V14.3321C53.5275 14.3148 53.5448 14.2976 53.5621 14.2976C53.5795 14.2976 53.5968 14.3148 53.5968 14.3321V15.7655C53.5968 15.7827 53.5795 15.8173 53.5621 15.8173C53.5448 15.8 53.5275 15.7827 53.5275 15.7655ZM53.7874 15.7655V14.3321C53.7874 14.3148 53.8048 14.2976 53.8221 14.2976C53.8394 14.2976 53.8568 14.3148 53.8568 14.3321V15.7655C53.8568 15.7827 53.8394 15.8173 53.8221 15.8173C53.8048 15.8 53.7874 15.7827 53.7874 15.7655ZM53.9607 16.1627H55.4511C55.9884 16.1627 56.4389 16.5944 56.4389 17.147V19.7375C56.4389 20.2728 56.0057 20.7218 55.4511 20.7218H53.9607C53.4235 20.7218 52.9729 20.2901 52.9729 19.7375V17.147C52.9903 16.5944 53.4235 16.1627 53.9607 16.1627ZM55.3645 18.425C55.3645 18.3732 55.3991 18.3386 55.4511 18.3386H57.2361C57.2881 18.3386 57.3228 18.3732 57.3228 18.425C57.3228 18.4768 57.2881 18.5113 57.2361 18.5113H55.4511C55.4165 18.5113 55.3645 18.4768 55.3645 18.425ZM56.7855 18.8049V18.0623C56.7855 18.0105 56.8202 17.976 56.8722 17.976C56.9242 17.976 56.9588 18.0105 56.9588 18.0623V18.8049C56.9588 18.8567 56.9242 18.8913 56.8722 18.8913C56.8202 18.8913 56.7855 18.8567 56.7855 18.8049ZM56.6989 18.045C56.6989 18.1487 56.7682 18.2177 56.8722 18.2177C56.9588 18.2177 57.0455 18.1314 57.0455 18.045C57.0455 17.9587 56.9762 17.8724 56.8722 17.8724C56.7855 17.8724 56.6989 17.9414 56.6989 18.045ZM56.6989 18.8049C56.6989 18.9085 56.7682 18.9776 56.8722 18.9776C56.9588 18.9776 57.0455 18.8913 57.0455 18.8049C57.0455 18.7186 56.9762 18.6322 56.8722 18.6322C56.7855 18.6322 56.6989 18.7013 56.6989 18.8049ZM55.3471 18.425C55.3471 18.4941 55.3991 18.5631 55.4858 18.5631C55.5551 18.5631 55.6071 18.5113 55.6071 18.425C55.6071 18.3559 55.5551 18.3041 55.4858 18.3041C55.4165 18.3041 55.3471 18.3559 55.3471 18.425ZM43.1641 9.60023C43.1641 10.0147 42.8175 10.3601 42.4016 10.3601C41.9856 10.3601 41.639 10.0147 41.639 9.60023C41.639 9.18577 41.9856 8.84038 42.4016 8.84038C42.8175 8.84038 43.1641 9.18577 43.1641 9.60023ZM45.6076 9.60023C45.6076 10.0147 45.261 10.3601 44.8451 10.3601C44.4292 10.3601 44.0826 10.0147 44.0826 9.60023C44.0826 9.18577 44.4292 8.84038 44.8451 8.84038C45.261 8.84038 45.6076 9.18577 45.6076 9.60023ZM43.1641 12.0007C43.1641 12.4152 42.8175 12.7606 42.4016 12.7606C41.9856 12.7606 41.639 12.4152 41.639 12.0007C41.639 11.5862 41.9856 11.2408 42.4016 11.2408C42.8175 11.2408 43.1641 11.569 43.1641 12.0007ZM45.6076 12.0007C45.6076 12.4152 45.261 12.7606 44.8451 12.7606C44.4292 12.7606 44.0826 12.4152 44.0826 12.0007C44.0826 11.5862 44.4292 11.2408 44.8451 11.2408C45.261 11.2408 45.6076 11.569 45.6076 12.0007ZM48.8657 10.0665C49.0217 10.0665 49.143 9.94563 49.143 9.7902C49.143 9.63477 49.0217 9.51389 48.8657 9.51389C48.7097 9.51389 48.5884 9.63477 48.5884 9.7902C48.5884 9.94563 48.7097 10.0665 48.8657 10.0665ZM39.4208 70.6481L40.01 71.2525L40.8072 71.7533L40.1833 71.6152L39.4728 71.2352L38.9182 70.8726L39.0569 71.4079L39.3341 72.0469L39.6634 72.5995L39.0742 72.0814L38.6929 71.5806L38.4157 71.0625L38.121 72.0642L38.0864 71.3043L37.5665 71.1662L37.0812 71.5634L36.5787 71.8915L35.2616 72.4614C35.2616 72.4614 36.4227 71.7361 36.4054 71.7188C36.388 71.7015 37.2545 70.9762 37.2545 70.9762L37.1506 70.838L36.3707 71.1834L35.3829 71.5461L34.0658 71.8051L34.8803 71.3561L36.2841 70.6308L36.8733 70.3027L36.8386 70.0091L35.7295 69.8019L34.5857 69.681L34.8803 69.5428L35.8335 69.4565L36.9079 69.5428C36.9079 69.5428 37.1679 69.0938 37.1852 69.0765C37.2199 69.0765 36.9079 68.5757 36.9079 68.5757L36.5093 67.505L36.2841 66.1753L36.8213 67.4359L37.3065 68.3858L37.5491 68.783L38.0517 68.6448L37.9651 67.8849L37.8091 67.056L37.6185 66.3307L37.3065 65.3981L37.6705 65.8644L38.1384 66.8142L38.381 67.6604L38.5023 68.6793L38.8142 68.8348L39.1782 67.9713L39.4208 67.0905L39.5074 66.5897L39.6114 66.7797L39.6807 67.505L39.5248 68.3858C39.5248 68.3858 39.2302 69.1284 39.2128 69.1629C39.1955 69.1974 39.3688 69.4219 39.3688 69.4219L40.4433 69.1456L41.3271 69.042L42.0203 69.0247L41.6564 69.1974L40.322 69.6464L39.4728 69.9055L39.4381 70.2509L40.01 70.6826L39.4555 70.5445L39.4208 70.6481ZM82.2434 56.6597H88.6382V50.4772H82.2434V56.6597ZM85.4668 51.4789C86.6626 51.4789 87.6158 52.4114 87.6158 53.5685C87.6158 54.7256 86.6453 55.6581 85.4668 55.6581C84.2711 55.6581 83.3179 54.7256 83.3179 53.5685C83.3179 52.4114 84.2884 51.4789 85.4668 51.4789ZM85.4668 51.9452C86.3853 51.9452 87.1479 52.6705 87.1479 53.5685C87.1479 54.4665 86.4027 55.1918 85.4668 55.1918C84.5483 55.1918 83.7858 54.4665 83.7858 53.5685C83.8031 52.6705 84.5483 51.9452 85.4668 51.9452ZM82.8327 63.2222C82.8327 62.186 83.6818 61.2016 84.7216 61.2016H88.6382V65.1046H84.7216C83.6818 65.1046 82.8327 64.2583 82.8327 63.2222ZM83.4046 63.1531C83.4046 62.376 84.0978 61.7543 84.9296 61.7543H87.3212C87.8411 61.7543 87.945 62.635 87.945 63.1531C87.945 63.7575 87.8584 64.5519 87.3212 64.5519H84.9296C84.0978 64.5519 83.4046 63.913 83.4046 63.1531ZM85.7094 63.1531C85.7094 62.8768 85.9347 62.6868 86.2294 62.6868L87.0612 62.6523C87.1478 62.6523 87.2172 62.7214 87.2172 62.8077V63.533C87.2172 63.6194 87.1478 63.6884 87.0612 63.6884L86.2294 63.6539C85.9347 63.6194 85.7094 63.4294 85.7094 63.1531ZM82.1741 73.1003V71.0798C82.1741 69.9746 83.0753 69.0765 84.1844 69.0765H86.1947C87.3038 69.0765 88.205 69.9746 88.205 71.0798V73.1003H82.1741ZM85.4148 70.7172C85.4148 70.5963 85.3109 70.4926 85.1895 70.4926C85.0682 70.4926 84.9643 70.5963 84.9643 70.7172C84.9643 70.838 85.0682 70.9417 85.1895 70.9417C85.3109 70.9417 85.4148 70.838 85.4148 70.7172ZM85.2935 71.2352C85.2415 71.1662 85.1202 71.1662 85.0509 71.2352C85.0162 71.7533 85.0336 72.2714 84.9296 72.7895C85.0682 72.9104 85.2415 72.9104 85.4148 72.7895C85.3109 72.2887 85.3455 71.7533 85.2935 71.2352ZM78.8121 73.1522C78.8121 67.5914 74.2889 63.0667 68.6913 63.0667V73.1522H78.8121ZM69.2632 64.5865V71.7533C69.2632 72.2196 69.6445 72.5995 70.1124 72.5995H77.3044C77.7723 72.5995 78.1535 72.2196 78.1535 71.7533C78.1535 71.7015 78.1535 71.667 78.1362 71.6152C77.4777 67.5741 74.3063 64.4138 70.251 63.7575C69.7831 63.6885 69.3499 63.9993 69.2805 64.4483C69.2805 64.5001 69.2632 64.5347 69.2632 64.5865ZM70.3897 71.2007C70.3897 71.0453 70.511 70.9244 70.6669 70.9244C70.8229 70.9244 70.9442 71.0453 70.9442 71.2007C70.9442 71.3561 70.8229 71.477 70.6669 71.477C70.511 71.477 70.3897 71.3561 70.3897 71.2007ZM100.96 72.0987V70.2163C100.96 69.681 101.393 69.232 101.948 69.232H103.837C104.374 69.232 104.825 69.6637 104.825 70.2163V72.0987C104.825 72.6341 104.391 73.0831 103.837 73.0831H101.948C101.411 73.0658 100.96 72.6341 100.96 72.0987ZM102.901 70.7171C103.144 70.7171 103.334 70.9071 103.334 71.1489C103.334 71.3907 103.144 71.5806 102.901 71.5806C102.658 71.5806 102.468 71.3907 102.468 71.1489C102.468 70.9071 102.658 70.7171 102.901 70.7171ZM102.901 70.9762C103.005 70.9762 103.092 71.0625 103.092 71.1662C103.092 71.2698 103.005 71.3561 102.901 71.3561C102.797 71.3561 102.71 71.2698 102.71 71.1662C102.71 71.0453 102.797 70.9762 102.901 70.9762ZM127.146 73.1694V67.1942H106.107V73.1694H127.146ZM122.328 67.5914H122.397C122.449 67.5914 122.501 67.6432 122.501 67.7123V72.6168C122.501 72.6859 122.449 72.7377 122.397 72.7377H122.328C122.276 72.7377 122.224 72.6859 122.224 72.6168V67.695C122.224 67.6432 122.276 67.5914 122.328 67.5914ZM126.608 67.5914H126.678C126.73 67.5914 126.782 67.6604 126.764 67.7123L126.366 72.6168C126.366 72.6859 126.314 72.7204 126.262 72.7204H126.193C126.141 72.7204 126.089 72.6513 126.106 72.5995L126.504 67.695C126.504 67.6259 126.556 67.5914 126.608 67.5914ZM123.732 67.6086L123.801 67.6259C123.853 67.6432 123.888 67.695 123.888 67.7468L123.229 72.6168C123.229 72.6859 123.177 72.7204 123.108 72.7031L123.038 72.6859C122.986 72.6686 122.952 72.6168 122.952 72.565L123.61 67.695C123.628 67.6432 123.68 67.5914 123.732 67.6086ZM124.408 67.5914H124.477C124.529 67.5914 124.581 67.6432 124.581 67.7123L124.442 72.6341C124.442 72.7031 124.39 72.7377 124.338 72.7377H124.269C124.217 72.7377 124.165 72.6859 124.165 72.6168L124.304 67.695C124.304 67.6259 124.356 67.5741 124.408 67.5914ZM125.586 67.5914H125.655C125.707 67.5914 125.759 67.6432 125.759 67.7123V72.6168C125.759 72.6859 125.707 72.7377 125.655 72.7377H125.586C125.534 72.7377 125.482 72.6859 125.482 72.6168V67.695C125.482 67.6432 125.534 67.5914 125.586 67.5914ZM117.164 72.7377H117.233C117.285 72.7377 117.337 72.6859 117.337 72.6168V67.695C117.337 67.6259 117.285 67.5741 117.233 67.5741H117.164C117.112 67.5741 117.06 67.6259 117.06 67.695V72.6168C117.06 72.6859 117.112 72.7377 117.164 72.7377ZM121.323 72.7377H121.392C121.444 72.7377 121.496 72.6859 121.496 72.6168L121.34 67.695C121.34 67.6259 121.288 67.5914 121.236 67.5914H121.167C121.115 67.5914 121.063 67.6432 121.063 67.7123L121.219 72.6341C121.219 72.6859 121.271 72.7377 121.323 72.7377ZM118.429 72.7204H118.498C118.55 72.7204 118.602 72.6513 118.585 72.5995L118.186 67.695C118.186 67.6259 118.134 67.5914 118.082 67.5914H118.013C117.961 67.5914 117.909 67.6604 117.926 67.7123L118.325 72.6168C118.325 72.6859 118.377 72.7377 118.429 72.7204ZM119.416 72.7204H119.486C119.538 72.7204 119.59 72.6513 119.572 72.5995L119.139 67.695C119.139 67.6259 119.087 67.5914 119.035 67.5914H118.966C118.914 67.5914 118.862 67.6604 118.879 67.7123L119.312 72.6168C119.312 72.6859 119.347 72.7204 119.416 72.7204ZM120.422 72.7377H120.491C120.543 72.7377 120.595 72.6859 120.595 72.6168V67.695C120.595 67.6259 120.543 67.5741 120.491 67.5741H120.422C120.37 67.5741 120.318 67.6259 120.318 67.695V72.6168C120.318 72.6859 120.37 72.7377 120.422 72.7377ZM110.925 72.7722H110.855C110.803 72.7722 110.751 72.7204 110.751 72.6513V67.7295C110.751 67.6604 110.803 67.6086 110.855 67.6086H110.925C110.977 67.6086 111.029 67.6604 111.029 67.7295V72.6513C111.029 72.7204 110.977 72.7722 110.925 72.7722ZM106.627 72.755H106.558C106.506 72.755 106.454 72.6859 106.471 72.6341L106.869 67.7295C106.869 67.6604 106.921 67.6259 106.973 67.6259H107.043C107.095 67.6259 107.147 67.695 107.129 67.7468L106.731 72.6513C106.748 72.7204 106.696 72.7722 106.627 72.755ZM109.521 72.7377L109.452 72.7204C109.4 72.7032 109.365 72.6513 109.365 72.5995L110.024 67.7295C110.024 67.6604 110.076 67.6259 110.145 67.6432L110.214 67.6604C110.266 67.6777 110.301 67.7295 110.301 67.7813L109.642 72.6513C109.625 72.7031 109.573 72.755 109.521 72.7377ZM108.845 72.7722H108.776C108.724 72.7722 108.672 72.7204 108.672 72.6513L108.81 67.7295C108.81 67.6604 108.862 67.6259 108.914 67.6259H108.984C109.036 67.6259 109.088 67.6777 109.088 67.7468L108.949 72.6686C108.932 72.7204 108.897 72.7722 108.845 72.7722ZM107.667 72.7722H107.597C107.545 72.7722 107.493 72.7204 107.493 72.6513V67.7295C107.493 67.6604 107.545 67.6086 107.597 67.6086H107.667C107.719 67.6086 107.771 67.6604 107.771 67.7295V72.6513C107.771 72.7204 107.719 72.7722 107.667 72.7722ZM116.089 67.6259H116.02C115.968 67.6259 115.916 67.6777 115.916 67.7468V72.6513C115.916 72.7204 115.968 72.7722 116.02 72.7722H116.089C116.141 72.7722 116.193 72.7204 116.193 72.6513V67.7295C116.176 67.6777 116.141 67.6259 116.089 67.6259ZM111.93 67.6259H111.861C111.809 67.6259 111.757 67.6777 111.757 67.7468L111.913 72.6686C111.913 72.7377 111.965 72.7722 112.017 72.7722H112.086C112.138 72.7722 112.19 72.7204 112.19 72.6513L112.034 67.7295C112.017 67.6777 111.982 67.6259 111.93 67.6259ZM114.807 67.6259H114.737C114.685 67.6259 114.633 67.695 114.651 67.7468L115.049 72.6513C115.049 72.7204 115.101 72.755 115.153 72.755H115.223C115.275 72.755 115.327 72.6859 115.309 72.6341L114.911 67.7295C114.911 67.6777 114.876 67.6259 114.807 67.6259ZM113.836 67.6259H113.767C113.715 67.6259 113.663 67.695 113.68 67.7468L114.113 72.6513C114.113 72.7204 114.165 72.755 114.217 72.755H114.287C114.339 72.755 114.391 72.6859 114.373 72.6341L113.94 67.7295C113.94 67.6777 113.888 67.6259 113.836 67.6259ZM112.831 67.6259H112.762C112.71 67.6259 112.658 67.6777 112.658 67.7468V72.6513C112.658 72.7204 112.71 72.7722 112.762 72.7722H112.831C112.883 72.7722 112.935 72.7204 112.935 72.6513V67.7295C112.935 67.6777 112.883 67.6259 112.831 67.6259ZM116.02 44.3466C115.812 45.21 116.332 46.0562 117.198 46.2635C118.065 46.4707 118.914 45.9526 119.122 45.0892C119.33 44.2257 118.81 43.3795 117.943 43.1722C117.094 42.965 116.228 43.5004 116.02 44.3466ZM115.69 45.8663C116.332 46.9025 117.683 47.2306 118.723 46.5916C118.81 46.5398 118.845 46.4189 118.793 46.3153C118.741 46.2289 118.619 46.1944 118.515 46.2462C117.666 46.7643 116.557 46.488 116.037 45.6418C115.985 45.5554 115.864 45.5209 115.76 45.5727C115.656 45.659 115.621 45.7799 115.69 45.8663ZM126.695 39.1312H126.47C126.435 39.1312 126.4 39.1139 126.366 39.1139H110.595C110.336 39.1139 110.128 39.3211 110.128 39.5802V44.692C110.128 44.951 110.336 45.1582 110.595 45.1582H123.16V52.3251C123.16 52.5841 123.368 52.7914 123.628 52.7914H126.712C126.972 52.7914 127.18 52.5841 127.18 52.3251V39.5974C127.163 39.3384 126.955 39.1312 126.695 39.1312ZM119.416 43.7939L116.73 43.5349C116.453 43.5004 116.262 43.2758 116.297 42.9995L116.453 41.4625C116.488 41.1862 116.713 40.9963 116.99 41.0308L119.676 41.2898C119.954 41.3244 120.144 41.5489 120.11 41.8252L119.954 43.3622C119.919 43.6212 119.676 43.8285 119.416 43.7939ZM119.364 42.7405L116.973 42.4987C116.748 42.4815 116.592 42.2742 116.609 42.0497L116.644 41.6352C116.661 41.4107 116.869 41.2553 117.094 41.2726L119.486 41.5144C119.711 41.5316 119.867 41.7389 119.85 41.9634L119.815 42.3778C119.78 42.5851 119.59 42.7578 119.364 42.7405ZM118.533 43.5349L117.631 43.4485C117.51 43.4313 117.424 43.3277 117.424 43.2068L117.441 42.9823C117.458 42.8614 117.562 42.775 117.683 42.775L118.585 42.8614C118.706 42.8786 118.793 42.9823 118.793 43.1032L118.775 43.3277C118.758 43.4485 118.654 43.5349 118.533 43.5349ZM59.9396 66.6761C60.1649 65.8299 59.6623 64.9491 58.7958 64.7246C57.9293 64.5001 57.0628 65.0009 56.8375 65.8644C56.6122 66.7106 57.1148 67.5914 57.9813 67.8159C58.8305 68.0404 59.7143 67.5223 59.9396 66.6761ZM60.3036 65.1736C59.697 64.1202 58.3452 63.7748 57.2881 64.3792C57.1841 64.431 57.1668 64.5519 57.2188 64.6555C57.2708 64.7592 57.3921 64.7764 57.4961 64.7246C58.3626 64.2238 59.4717 64.5174 59.957 65.3809C60.0089 65.4845 60.1302 65.5017 60.2342 65.4499C60.3209 65.3809 60.3555 65.26 60.3036 65.1736ZM66.1438 66.3652H50.772C49.9575 66.3652 49.2989 67.0215 49.2989 67.8331V71.4425C49.2989 72.2541 49.9575 72.9104 50.772 72.9104H66.1438C66.9583 72.9104 67.6168 72.2541 67.6168 71.4425V67.8504C67.6168 67.0215 66.9583 66.3652 66.1438 66.3652ZM53.8914 67.3323L58.172 68.0058C58.2586 68.0231 58.3279 68.0922 58.3106 68.1785L58.1546 69.1802C58.1373 69.2665 58.0506 69.3183 57.964 69.301L53.7008 68.6103C53.6141 68.593 53.5448 68.5239 53.5621 68.4376L53.7181 67.4359C53.7181 67.3669 53.8048 67.315 53.8914 67.3323ZM27.2896 24.2793C27.2896 23.3986 26.5791 22.6906 25.6953 22.6906C24.8114 22.6906 24.1009 23.3986 24.1009 24.2793C24.1009 25.1601 24.8114 25.8681 25.6953 25.8681C26.5791 25.8681 27.2896 25.1428 27.2896 24.2793ZM27.2551 22.7251C26.3886 21.8616 25.0022 21.8616 24.1357 22.7251C24.049 22.8114 24.049 22.9323 24.1357 23.0014C24.2223 23.0877 24.3436 23.0877 24.4129 23.0014C25.1235 22.2934 26.2673 22.2934 26.9605 23.0014C27.0471 23.0877 27.1684 23.0877 27.2377 23.0014C27.3244 22.9151 27.3244 22.7942 27.2551 22.7251ZM22.5239 24.2793C22.5239 23.3986 21.8133 22.6906 20.9295 22.6906C20.0457 22.6906 19.3351 23.3986 19.3351 24.2793C19.3351 25.1601 20.0457 25.8681 20.9295 25.8681C21.8133 25.8681 22.5239 25.1428 22.5239 24.2793ZM22.4893 22.7251C21.6228 21.8616 20.2364 21.8616 19.3699 22.7251C19.2832 22.8114 19.2832 22.9323 19.3699 23.0014C19.4565 23.0877 19.5778 23.0877 19.6472 23.0014C20.3577 22.2934 21.5015 22.2934 22.1947 23.0014C22.2813 23.0877 22.4027 23.0877 22.472 23.0014C22.576 22.9151 22.576 22.7942 22.4893 22.7251ZM17.7755 24.2793C17.7755 23.3986 17.065 22.6906 16.1812 22.6906C15.2973 22.6906 14.5868 23.3986 14.5868 24.2793C14.5868 25.1601 15.2973 25.8681 16.1812 25.8681C17.0477 25.8681 17.7755 25.1428 17.7755 24.2793ZM17.7235 22.7251C16.857 21.8616 15.4706 21.8616 14.6041 22.7251C14.5175 22.8114 14.5175 22.9323 14.6041 23.0014C14.6908 23.0877 14.8121 23.0877 14.8814 23.0014C15.5919 22.2934 16.7357 22.2934 17.4289 23.0014C17.5156 23.0877 17.6369 23.0877 17.7062 23.0014C17.8102 22.9151 17.8102 22.7942 17.7235 22.7251ZM14.5695 33.1041C14.5695 33.9848 15.28 34.6929 16.1638 34.6929C17.0477 34.6929 17.7582 33.9848 17.7582 33.1041C17.7582 32.2233 17.0477 31.5153 16.1638 31.5153C15.28 31.5153 14.5695 32.2233 14.5695 33.1041ZM14.6041 34.6583C15.4706 35.5218 16.857 35.5218 17.7235 34.6583C17.8102 34.572 17.8102 34.4511 17.7235 34.382C17.6369 34.2957 17.5156 34.2957 17.4463 34.382C16.7357 35.0901 15.5919 35.0901 14.8987 34.382C14.8121 34.2957 14.6908 34.2957 14.6214 34.382C14.5348 34.4511 14.5348 34.572 14.6041 34.6583ZM19.3352 33.1041C19.3352 33.9848 20.0458 34.6929 20.9296 34.6929C21.8134 34.6929 22.524 33.9848 22.524 33.1041C22.524 32.2233 21.8134 31.5153 20.9296 31.5153C20.0458 31.5153 19.3352 32.2233 19.3352 33.1041ZM19.3699 34.6583C20.2364 35.5218 21.6228 35.5218 22.4893 34.6583C22.576 34.572 22.576 34.4511 22.4893 34.382C22.4027 34.2957 22.2813 34.2957 22.212 34.382C21.5015 35.0901 20.3577 35.0901 19.6645 34.382C19.5778 34.2957 19.4565 34.2957 19.3872 34.382C19.3006 34.4511 19.3006 34.572 19.3699 34.6583ZM24.101 33.1041C24.101 33.9848 24.8115 34.6929 25.6954 34.6929C26.5792 34.6929 27.2897 33.9848 27.2897 33.1041C27.2897 32.2233 26.5792 31.5153 25.6954 31.5153C24.8115 31.5153 24.101 32.2233 24.101 33.1041ZM24.1357 34.6583C25.0022 35.5218 26.3886 35.5218 27.2551 34.6583C27.3417 34.572 27.3417 34.4511 27.2551 34.382C27.1684 34.2957 27.0471 34.2957 26.9778 34.382C26.2673 35.0901 25.1235 35.0901 24.4303 34.382C24.3436 34.2957 24.2223 34.2957 24.153 34.382C24.049 34.4511 24.049 34.572 24.1357 34.6583ZM14.6908 33.674H26.6312C28.1389 33.674 29.352 32.4651 29.352 30.9627V26.5589C29.352 25.0565 28.1389 23.8476 26.6312 23.8476H14.6908C13.183 23.8476 11.9699 25.0565 11.9699 26.5589V30.9627C11.9699 32.4651 13.183 33.674 14.6908 33.674Z" stroke="#E5C696" stroke-width="0.3327" stroke-miterlimit="22.9256"/>
</svg>
