<svg width="106" height="87" viewBox="0 0 106 87" fill="none" xmlns="http://www.w3.org/2000/svg">
<path d="M102.651 0.982422H11.4486V3.31506H102.651V0.982422Z" fill="#E5C696"/>
<path d="M104.838 0.982422V3.31506H102.651V8.40931H102.732H103.569H104.082H104.892H105V0.982422H104.838Z" fill="#E5C696"/>
<path d="M105 35.8379H102.651V40.5299H104.298V41.2539H102.651V49.646H102.732H103.569H104.082H104.892H105V35.8379Z" fill="#E5C696"/>
<path d="M102.651 83.7507H103.731V86.0565H105V77.0745H102.651V83.7507Z" fill="#E5C696"/>
<path d="M11.4486 86.0833H103.731V86.0565H102.651V83.7507H48.3832V85.7616H47.6542V83.7507H11.4486V86.0833Z" fill="#E5C696"/>
<path d="M9.09969 86.0833H11.4486V83.7507H9.09969V86.0833Z" fill="#E5C696"/>
<path d="M27.324 61.0142V60.2903H11.4486V61.0142H27.324Z" fill="#E5C696"/>
<path d="M47.6542 60.2903H37.0976V61.0142H47.6542V60.2903Z" fill="#E5C696"/>
<path d="M48.3832 61.0142V60.2903H47.6542V61.0142H48.3832Z" fill="#E5C696"/>
<path d="M48.3832 51.7909H47.6542V60.2903H48.3832V51.7909Z" fill="#E5C696"/>
<path d="M47.6542 83.7507H48.3832V61.0142H47.6542V83.7507Z" fill="#E5C696"/>
<path d="M47.6542 85.7616H48.3832V83.7507H47.6542V85.7616Z" fill="#E5C696"/>
<path d="M103.731 83.7507H102.651V86.0565H103.731V83.7507Z" fill="#E5C696"/>
<path d="M104.298 41.2539V40.5299H102.651V41.2539H104.298Z" fill="#E5C696"/>
<path d="M104.838 0.982422H102.651V3.31506H104.838V0.982422Z" fill="#E5C696"/>
<path d="M11.4486 0.982422H10.9626V3.31506H11.4486V0.982422Z" fill="#E5C696"/>
<path d="M47.5192 40.6372H48.2482V41.2539H102.651V40.5299H43.6584V41.2539H47.5192V40.6372Z" fill="#E5C696"/>
<path d="M48.2482 40.6372H47.5192V41.2539H48.2482V40.6372Z" fill="#E5C696"/>
<path d="M47.5192 42.085H48.2482V41.2539H47.5192V42.085Z" fill="#E5C696"/>
<path d="M10.9626 3.31506V0.982422H9.09969V44.0155H11.4486V3.31506H10.9626Z" fill="#E5C696"/>
<path d="M11.4486 53.7482H9.09969V83.7507H11.4486V61.0142H9.18069V60.2903H11.4486V53.7482Z" fill="#E5C696"/>
<path d="M9.18069 60.2903V61.0142H11.4486V60.2903H9.18069Z" fill="#E5C696"/>
<path d="M9.09969 83.7507V86.0833M9.09969 83.7507H11.4486M9.09969 83.7507V53.7482M103.731 86.0833H9.09969M103.731 86.0833V86.0565M103.731 86.0833H11.4486M9.09969 86.0833H11.4486M9.09969 86.0833V53.7482M10.9626 0.982422H104.838M10.9626 0.982422V3.31506H11.4486M10.9626 0.982422H9.09969M10.9626 0.982422H11.4486M104.838 0.982422V3.31506H102.651M104.838 0.982422H105M104.838 0.982422H102.651M105 49.646V35.8379H102.651V40.5299M105 49.646H102.651M105 49.646H104.892M102.651 49.646V41.2539M102.651 49.646H102.732M102.651 0.982422H105M102.651 0.982422H11.4486M102.651 0.982422V3.31506M105 0.982422V8.40931M105 8.40931H102.651M105 8.40931H104.892M102.651 8.40931V3.31506M102.651 8.40931H102.732M9.09969 53.7482H11.4486V60.2903M11.4486 86.0833V83.7507M9.09969 0.982422H11.4486M9.09969 0.982422V44.0155H11.4486V3.31506M11.4486 0.982422V3.31506M48.3832 60.2903V61.0142M48.3832 60.2903H47.6542M48.3832 60.2903V51.7909M48.3832 61.0142H47.6542M48.3832 61.0142V83.7507M48.3832 51.7909H47.6542V60.2903M48.3832 51.7909V83.7507M102.732 8.40931H104.892M102.732 8.40931V35.7842H104.892V8.40931M102.732 8.40931H103.569M104.892 8.40931H104.082M103.569 8.40931H104.082M103.569 8.40931V35.7842H104.082V8.40931M102.732 49.646H104.892M102.732 49.646V77.0209H104.892V49.646M102.732 49.646H103.569M104.892 49.646H104.082M103.569 49.646H104.082M103.569 49.646V77.0209H104.082V49.646M47.9242 42.2191H57.1308C57.1308 42.2191 57.0498 51.4424 48.0052 51.6569M47.9242 42.809H57.0498M27.459 60.5852V69.7281C27.459 69.7281 36.7466 69.6476 36.9626 60.6657M28.107 69.7013L28.08 60.612M10.2066 53.5873H1C1 53.5873 1.081 44.364 10.1256 44.1495M1.054 53.0779H10.2066M99.6542 79.6485L99.7892 79.8093M99.2222 79.6485L99.0602 79.8362M99.0872 79.0854L99.2222 79.2463M99.7892 79.0854L99.6542 79.2463M99.7082 79.8898L100.167 80.6941M99.9512 79.4608H100.896M99.7082 79.005L100.167 78.2006M98.7092 78.2006L99.1682 79.005M97.9803 79.4608H98.9252M98.7092 80.6941L99.1682 79.8898M99.6542 46.6967L99.7892 46.8575M99.2222 46.6967L99.0602 46.8844M99.0872 46.1604L99.2222 46.2945M99.7892 46.1604L99.6542 46.2945M99.7082 46.938L100.167 47.7692M99.9512 46.509H100.896M99.7082 46.0532L100.167 45.2488M98.7092 45.2488L99.1682 46.0532M97.9803 46.509H98.9252M98.7092 47.7692L99.1682 46.938M94.0924 57.8236V74.447M94.9834 74.447V57.8236M94.9834 57.8236L89.3136 52.1931V57.8236H94.9834ZM101.085 64.3389C101.112 64.2853 101.112 64.2316 101.085 64.178C101.031 64.0172 100.842 63.9367 100.68 63.9903C99.1952 64.473 97.6563 63.9367 96.1443 63.8563C96.0903 63.8295 96.0363 63.8295 95.9823 63.8563C95.8473 63.9099 95.7664 64.044 95.8204 64.178C96.3873 66.9933 96.3603 69.889 95.6854 72.7042M100.599 73.6426C100.788 73.6426 100.95 73.6158 100.95 73.4281C101.166 70.3448 100.869 67.3686 101.085 64.3657M100.599 73.6158C98.8982 73.6158 98.1153 73.3745 97.2513 73.2941M96.3063 73.4013C95.9823 73.4013 95.6854 73.16 95.6854 72.8383C95.6854 72.7846 95.6854 72.731 95.7124 72.6774M99.2492 73.0528C98.4392 72.9991 97.1433 73.3745 96.3063 73.4281M101.085 62.5157C101.112 62.5693 101.112 62.6229 101.085 62.6766C101.031 62.8374 100.923 62.8374 100.68 62.8642C99.1412 62.9447 97.7913 63.32 96.1443 62.9983C96.0903 63.0251 95.8474 62.9179 95.8204 62.6766C96.3873 59.8613 95.7664 57.0729 95.6854 54.1504M100.788 53.2656C100.788 53.2656 100.815 53.2656 100.842 53.2656C100.923 53.2924 100.977 53.346 100.95 53.4265C100.842 56.4562 100.869 59.4859 101.085 62.4889M100.788 53.2924C99.9512 53.3728 98.4662 53.6946 97.6293 53.8823M96.3063 53.3192C95.8473 53.346 95.7124 53.5873 95.7124 54.1504M99.0332 53.5873C97.7643 53.5069 97.1433 53.3728 96.3063 53.346M57.4548 67.744V52.1127H48.5452V67.744M52.325 59.2446H53.621M52.325 53.0779L53.621 53.1583M52.325 57.5823L53.621 57.7432M52.325 56.2149L53.621 56.2685M52.325 54.3917H53.621M53.621 66.9128H52.325M53.621 60.8265L52.325 60.8802M53.621 65.2773L52.325 65.3846M53.621 63.8295L52.325 63.9903M53.621 62.0599H52.325M48.5452 67.7708V83.4021H57.4548V67.7708M53.027 52.1395V83.2681M53.675 76.297H52.379M53.675 82.4637L52.379 82.3565M53.675 77.9593L52.379 77.7716M53.675 79.3804L52.379 79.1927M53.675 81.1231H52.379M52.379 68.6288H53.675M52.379 74.7151L53.675 74.6615M52.379 70.2375L53.675 70.1303M52.379 71.7122L53.675 71.5245M52.379 73.4549H53.675M47.4382 54.1504H37.3136V60.1294M47.4382 54.1504V60.1294M47.4382 54.1504L37.3136 60.1294M47.4382 60.1294H37.3136M47.4382 60.1294L37.3406 54.1772M27.27 54.0968H11.6376V60.0758M27.27 54.0968V60.0758M27.27 54.0968L11.6376 60.0758M27.27 60.0758H11.6376M27.27 60.0758L11.6646 54.1236M40.2835 66.752C40.2835 65.036 41.4444 63.6686 42.8754 63.6686C44.2793 63.6686 45.4403 65.0628 45.4403 66.752L45.0083 79.0854M40.2835 66.752C40.2835 66.752 40.2835 66.752 40.2835 66.7788M40.2835 66.752L40.6345 79.0854M42.9834 81.1499C43.2264 81.0427 43.3614 80.7478 43.2534 80.4796C43.1454 80.2115 42.8754 80.0775 42.6324 80.1847C42.3894 80.292 42.2544 80.5869 42.3624 80.855C42.4164 81.0159 42.5514 81.1231 42.6864 81.1768M43.3074 83.563C43.0374 83.3485 42.6864 83.3485 42.4164 83.563M46.6552 80.5065C46.6552 81.4449 46.0073 82.2224 45.2243 82.2224H43.0914M39.0145 66.752C39.0145 64.2316 40.7425 62.1939 42.8484 62.1939C44.9813 62.1939 46.6822 64.2316 46.6822 66.752V80.5065M43.4154 83.563H42.2814M42.6054 82.2224H40.4725C39.6895 82.2224 39.0415 81.4449 39.0415 80.5065V66.752M43.1724 83.4558L43.0104 81.284C43.0104 81.1768 42.9294 81.0695 42.8484 81.0695C42.7674 81.0695 42.6864 81.1499 42.6864 81.284L42.5244 83.4558M42.9024 83.4021L42.6324 83.563M42.9024 83.4021L42.8754 83.563M42.9024 83.4021L43.0914 83.563M32.7508 83.5362V80.5601C32.7508 78.9246 31.4278 77.6108 29.7809 77.6108H26.811C25.1641 77.6108 23.8411 78.9246 23.8411 80.5601V83.5362H32.7238M28.5659 82.4369C30.2939 82.3833 32.6428 81.0963 31.9138 79.5412C31.0768 77.7985 29.2409 78.147 26.811 78.147C25.0831 78.147 23.8411 80.1043 24.9751 81.1499C25.839 81.9543 26.811 82.4101 27.972 82.4369M99.9242 22.5392C99.8972 22.3247 99.9242 22.137 100.005 22.137C100.086 22.137 100.194 22.3783 100.248 22.7269C100.302 23.0754 100.275 23.3435 100.194 23.3703C100.14 23.3703 100.059 23.2631 100.005 23.0486M99.0872 21.3595C99.1682 21.3326 99.2762 21.3058 99.3572 21.279C100.221 21.145 101.031 21.708 101.166 22.566C101.301 23.424 100.734 24.2283 99.8702 24.3624C99.7622 24.3892 99.6812 24.3892 99.5732 24.3892M98.7362 24.2283C98.3313 24.0138 98.0073 23.6116 97.9263 23.1022C97.8453 22.5928 98.0073 22.137 98.3313 21.7884M99.3032 27.6334L97.7913 18.3833L98.3043 18.3029L99.8162 27.553L99.4112 27.6334M99.3842 23.3972L100.086 22.9682L100.059 22.7805L100.005 22.566L99.2222 22.4051M99.6002 22.4856L99.7082 23.1827M99.7082 26.8827L99.8702 26.6682M98.7092 19.1341L99.9242 26.6146M98.4122 18.9732L98.6552 19.1341M11.8806 3.71723H20.0343V39.9133H11.8806V3.71723ZM11.8806 3.71723L11.9076 11.8144L44.1983 11.8412V3.71723H11.8806ZM14.9855 35.677L15.2015 36.0255L14.9855 36.4009M17.0374 36.4009L16.8214 36.0255L17.0374 35.677M16.6054 37.0444L15.4174 35.0335M15.4174 37.0444L16.6054 35.0335M15.8224 34.9799L15.6064 35.3284H15.2015M16.8214 35.3284H16.4164L16.2004 34.9799M15.2015 36.7227H15.6064L15.8224 37.0712M16.2004 37.0712L16.4164 36.7227H16.8214M17.1724 36.0255H14.8505M20.0343 22.9682H11.9886M20.0343 32.2719H11.9886M36.2876 3.79767V11.8144H11.9346M28.215 11.8144V3.74405M24.4621 9.53541L23.4631 8.16801M24.3271 9.53541L25.2451 8.11438M24.3811 9.26729L24.3541 7.65858M23.2201 6.23755V5.59406M23.0042 5.56725H23.4631M82.6989 5.11145L82.6719 3.66361L82.5099 3.4223H55.1599L54.9709 3.60999L54.9169 5.11145H53.837L53.594 5.32595L53.567 14.013L53.837 14.2811H56.2939L56.3209 14.7637L56.5639 14.9782L81.1059 14.9514L81.3219 14.6833V14.2811M82.6989 5.11145L83.8598 5.13826L84.0488 5.35276V14.0398L83.8598 14.2543L81.3219 14.2811M82.6989 5.11145V3.77086C82.6989 3.58317 82.5369 3.4223 82.3479 3.4223H55.2949C55.1059 3.4223 54.9439 3.58317 54.9439 3.77086V5.11145M81.3219 14.2811H83.7248C83.9138 14.2811 84.0758 14.1202 84.0758 13.9326V5.46001C84.0758 5.27232 83.9138 5.11145 83.7248 5.11145H82.0239M53.567 5.46001V13.9326C53.567 14.1202 53.729 14.2811 53.918 14.2811H56.3209M56.3209 7.81945V14.6297C56.3209 14.8174 56.4829 14.9782 56.6719 14.9782M81.3219 14.6297V7.81945C81.3219 7.63177 81.1599 7.4709 80.9709 7.4709M64.9875 14.9514H72.6552C72.8442 14.9514 73.0062 14.7905 73.0062 14.6029M56.6449 14.9514H64.3126C64.5016 14.9514 64.6636 14.7905 64.6636 14.6029M64.9875 14.9782C64.7985 14.9782 64.6366 14.8174 64.6366 14.6297V7.81945C64.6366 7.63177 64.4746 7.4709 64.2856 7.4709M73.3302 14.9514H80.9979C81.1869 14.9514 81.3489 14.7905 81.3489 14.6029M73.3302 14.9782C73.1412 14.9782 72.9792 14.8174 72.9792 14.6297V7.81945C72.9792 7.63177 72.8172 7.4709 72.6282 7.4709M64.9875 7.49771H72.6552C72.8442 7.49771 73.0062 7.33684 73.0062 7.14915M64.9875 7.49771C64.7985 7.49771 64.6366 7.33684 64.6366 7.14915V6.47886M64.9875 7.49771C64.7985 7.49771 64.6366 7.65858 64.6366 7.84626M64.9875 6.1303H72.6552C72.8442 6.1303 73.0062 5.96943 73.0062 5.78175M64.9875 6.1303C64.7985 6.1303 64.6366 5.96943 64.6366 5.78175V4.44115M64.9875 6.1303C64.7985 6.1303 64.6366 6.29117 64.6366 6.47886M72.6552 4.0926H64.9875C64.7985 4.0926 64.6366 4.25347 64.6366 4.44115M55.6189 5.11145H53.918C53.783 5.11145 53.648 5.19189 53.594 5.29913C53.567 5.35276 53.567 5.37957 53.567 5.43319M64.6366 4.44115C64.6366 4.25347 64.4746 4.0926 64.2856 4.0926M56.6449 7.49771H64.3126C64.5016 7.49771 64.6636 7.33684 64.6636 7.14915M56.6449 7.49771C56.4559 7.49771 56.2939 7.65858 56.2939 7.84626M56.6449 7.49771C56.5099 7.49771 56.3749 7.41727 56.3209 7.28321L55.6459 5.94262M64.6636 5.78175C64.6636 5.96943 64.5016 6.1303 64.3126 6.1303H55.9699C55.7809 6.1303 55.6189 5.96943 55.6189 5.78175V4.44115C55.6189 4.25347 55.7809 4.0926 55.9699 4.0926H64.3126M64.6366 6.47886C64.6366 6.29117 64.4746 6.1303 64.2856 6.1303M73.3302 6.1303H81.6729C81.8619 6.1303 82.0239 5.96943 82.0239 5.78175V4.44115C82.0239 4.25347 81.8619 4.0926 81.6729 4.0926H73.3302C73.1412 4.0926 72.9792 4.25347 72.9792 4.44115M73.3302 6.1303C73.1412 6.1303 72.9792 5.96943 72.9792 5.78175V4.44115M73.3302 6.1303C73.1412 6.1303 72.9792 6.29117 72.9792 6.47886M73.3302 7.49771H80.9979C81.1329 7.49771 81.2679 7.41727 81.3219 7.28321M73.3302 7.49771C73.1412 7.49771 72.9792 7.33684 72.9792 7.14915V6.47886M73.3302 7.49771C73.1412 7.49771 72.9792 7.65858 72.9792 7.84626M72.9792 4.44115C72.9792 4.25347 72.8172 4.0926 72.6282 4.0926M72.9792 6.47886C72.9792 6.29117 72.8172 6.1303 72.6282 6.1303M81.2949 7.28321L81.9699 5.96943M61.1537 39.672V38.7067H78.163V39.6988H61.1537H62.1256L62.2606 40.2886H77.0291L77.1911 39.6988M95.4694 10.3398C96.6843 10.7956 97.8993 11.305 99.0872 11.8949M92.2565 11.734C92.4995 10.9296 92.6345 10.0985 92.7155 9.24048C91.8245 9.32092 90.9065 9.21367 90.0426 8.94555M92.2565 11.7608C92.7965 11.0101 93.1475 10.1789 93.3634 9.32092C94.1464 9.64266 94.9024 10.0448 95.6044 10.5275C95.0374 9.80353 94.3624 9.18686 93.6064 8.73106C94.1734 8.08757 94.7944 7.49771 95.4694 6.98828C94.6324 7.2564 93.8224 7.7122 93.1475 8.30207C92.7155 7.57814 92.3375 6.8006 92.0405 6.02306C92.0405 6.90785 92.2295 7.79264 92.5805 8.62381C91.7435 8.81149 90.9065 8.91874 90.0426 8.97236M90.3666 14.7101C91.4465 13.0746 92.2025 11.2782 92.6075 9.40135C90.9875 10.7688 89.6376 12.4311 88.6386 14.3347C89.0706 12.3507 90.1776 10.5543 91.7435 9.24048M91.1495 9.18686C89.9616 9.48179 88.8276 9.99121 87.8017 10.6883C88.7196 9.34773 90.2046 8.48975 91.8245 8.35569C90.4206 7.63177 89.2056 6.63973 88.2336 5.43319C89.6376 6.21074 90.9875 7.01509 92.3375 7.87307M92.4995 7.14915C92.7695 6.04987 92.7155 4.89696 92.2835 3.85129C92.9315 4.89696 93.2555 6.1303 93.2285 7.33684M93.2555 7.33684C93.9304 6.55929 94.3624 5.59407 94.4704 4.57521C94.6324 5.64769 94.4434 6.74698 93.9304 7.7122M93.9034 8.91874C95.5774 8.94555 97.2243 9.2941 98.7632 9.9644C97.3323 8.94555 95.6314 8.40931 93.8764 8.43613M93.1745 9.93759C92.7425 11.7608 91.7705 13.4231 90.3936 14.6833M95.1184 10.2057C94.7404 10.0716 94.3894 9.93759 94.0114 9.80353C94.6324 11.0905 95.3884 12.2702 96.3063 13.3427C94.9294 12.4847 93.8494 11.2514 93.2285 9.77672M93.9844 8.91874C95.9013 9.5086 97.6293 10.5275 99.0872 11.868M94.5244 7.76583C94.6864 7.98032 94.7944 8.22163 94.8484 8.46294M94.9024 8.97236C94.9024 9.0528 94.9024 9.16005 94.8754 9.24048M94.5514 9.99121C94.4704 10.0985 94.3624 10.2325 94.2544 10.313M93.6874 10.6883C93.4444 10.7956 93.1745 10.8224 92.9045 10.8224M92.2835 10.6615C92.0405 10.5811 91.8515 10.4202 91.6625 10.2593M91.2305 9.69628C91.1495 9.53541 91.0955 9.37454 91.0955 9.18686M91.1225 8.46294C91.1495 8.32888 91.2035 8.19482 91.2575 8.06076M91.7165 7.49771C91.8515 7.39046 92.0135 7.28321 92.1755 7.20278M92.4995 7.06872C92.5265 7.06872 92.5265 7.06872 92.5535 7.06872M93.2285 7.01509C93.3094 7.01509 93.3904 7.04191 93.4714 7.06872M94.0924 7.36365C94.1464 7.41727 94.2274 7.4709 94.2814 7.52452M11.4486 3.31506H102.651M102.651 40.5299H104.298V41.2539H102.651M102.651 40.5299H43.6584V41.2539H47.5192M102.651 40.5299V41.2539M102.651 41.2539H48.2482M102.651 83.7507H103.731V86.0565M102.651 83.7507V77.0745H105V86.0565H103.731M102.651 83.7507V86.0565H103.731M102.651 83.7507H48.3832M48.3832 83.7507V85.7616H47.6542V83.7507M48.3832 83.7507H47.6542M47.6542 83.7507H11.4486M47.6542 83.7507V61.0142M11.4486 83.7507V61.0142M11.4486 61.0142H9.18068V60.2903H11.4486M11.4486 61.0142V60.2903M11.4486 61.0142H27.324V60.2903H11.4486M47.6542 60.2903H37.0976V61.0142H47.6542M47.6542 60.2903V61.0142M48.2482 41.2539V40.6372H47.5192V41.2539M48.2482 41.2539H47.5192M48.2482 41.2539V42.085H47.5192V41.2539M98.2233 76.7796H100.626C101.463 76.7796 102.165 77.4499 102.165 78.3079V80.6941C102.165 81.5253 101.49 82.2224 100.626 82.2224H98.2233C97.3863 82.2224 96.6843 81.5521 96.6843 80.6941V78.3079C96.7113 77.4499 97.3863 76.7796 98.2233 76.7796ZM98.2233 43.7742H100.626C101.463 43.7742 102.165 44.4445 102.165 45.3025V47.6887C102.165 48.5199 101.49 49.217 100.626 49.217H98.2233C97.3863 49.217 96.6843 48.5467 96.6843 47.6887V45.3025C96.7113 44.4713 97.3863 43.7742 98.2233 43.7742ZM99.9242 51.5496H72.1423C70.8733 51.5496 69.8474 52.5685 69.8474 53.8286V72.9187C69.8474 74.1789 70.8733 75.1977 72.1423 75.1977H99.9242C101.193 75.1977 102.219 74.1789 102.219 72.9187V53.8286C102.219 52.5685 101.193 51.5496 99.9242 51.5496ZM100.059 79.4608C100.059 79.8093 99.7892 80.0775 99.4382 80.0775C99.0872 80.0775 98.8172 79.8093 98.8172 79.4608C98.8172 79.1122 99.0872 78.8441 99.4382 78.8441C99.7622 78.8441 100.059 79.1122 100.059 79.4608ZM100.923 79.4608C100.923 80.2651 100.248 80.9354 99.4382 80.9354C98.6282 80.9354 97.9533 80.2651 97.9533 79.4608C97.9533 78.6564 98.6282 77.9861 99.4382 77.9861C100.248 77.9861 100.923 78.6296 100.923 79.4608ZM99.7082 79.434C99.7082 79.568 99.6002 79.7021 99.4382 79.7021C99.3032 79.7021 99.1682 79.5949 99.1682 79.434C99.1682 79.2999 99.2762 79.1659 99.4382 79.1659C99.5732 79.1927 99.7082 79.2999 99.7082 79.434ZM100.059 46.509C100.059 46.8575 99.7892 47.1257 99.4382 47.1257C99.0872 47.1257 98.8172 46.8575 98.8172 46.509C98.8172 46.1604 99.0872 45.8923 99.4382 45.8923C99.7622 45.8923 100.059 46.1604 100.059 46.509ZM100.923 46.509C100.923 47.3133 100.248 47.9836 99.4382 47.9836C98.6282 47.9836 97.9533 47.3133 97.9533 46.509C97.9533 45.7046 98.6282 45.0343 99.4382 45.0343C100.248 45.0343 100.923 45.7046 100.923 46.509ZM99.7082 46.509C99.7082 46.6431 99.6002 46.7771 99.4382 46.7771C99.3032 46.7771 99.1682 46.6699 99.1682 46.509C99.1682 46.3749 99.2762 46.2409 99.4382 46.2409C99.5732 46.2409 99.7082 46.3749 99.7082 46.509ZM99.3032 52.1395H72.7632C71.4943 52.1395 70.4683 53.1583 70.4683 54.4185V72.302C70.4683 73.5622 71.4943 74.581 72.7632 74.581H99.3032C100.572 74.581 101.598 73.5622 101.598 72.302V54.4185C101.598 53.1583 100.572 52.1395 99.3032 52.1395ZM49.1121 59.2983V59.191C49.1121 59.1106 49.1931 59.0301 49.2741 59.0301H56.6449C56.7259 59.0301 56.8069 59.0838 56.8069 59.191V59.2983C56.8069 59.3787 56.7259 59.4591 56.6449 59.4591H49.2741C49.1931 59.4323 49.1121 59.3787 49.1121 59.2983ZM49.1391 52.917V52.8098C49.1391 52.7293 49.2201 52.6757 49.3281 52.6757L56.6719 53.2656C56.7529 53.2656 56.8339 53.346 56.8339 53.4265V53.5337C56.8339 53.6141 56.7529 53.6678 56.6449 53.6678L49.3281 53.0779C49.1931 53.0779 49.1121 52.9975 49.1391 52.917ZM49.1661 57.2069L49.1931 57.0997C49.2201 57.0192 49.3011 56.9656 49.3821 56.9656L56.6719 57.9309C56.7528 57.9309 56.8338 58.0113 56.8068 58.0917L56.7799 58.199C56.7529 58.2794 56.6719 58.333 56.5909 58.333L49.3011 57.3678C49.2201 57.3678 49.1391 57.2874 49.1661 57.2069ZM49.1121 56.1881V56.0808C49.1121 56.0004 49.1931 55.9468 49.2741 55.9468L56.6449 56.1345C56.7259 56.1345 56.8069 56.2149 56.8069 56.2953V56.4026C56.8069 56.483 56.7259 56.5366 56.6449 56.5366L49.2741 56.349C49.1931 56.349 49.1121 56.2685 49.1121 56.1881ZM49.1121 54.4453V54.3381C49.1121 54.2576 49.1931 54.1772 49.2741 54.1772H56.6449C56.7259 54.1772 56.8069 54.2308 56.8069 54.3381V54.4453C56.8069 54.5257 56.7259 54.6062 56.6449 54.6062H49.2741C49.1931 54.6062 49.1121 54.5257 49.1121 54.4453ZM56.8339 66.9665V66.8592C56.8339 66.7788 56.7529 66.6983 56.6719 66.6983H49.3011C49.2201 66.6983 49.1391 66.752 49.1391 66.8592V66.9665C49.1391 67.0469 49.2201 67.1273 49.3011 67.1273H56.6719C56.7529 67.1005 56.8339 67.0469 56.8339 66.9665ZM56.8339 60.7729V60.6657C56.8339 60.5852 56.7529 60.5316 56.6719 60.5316L49.3281 60.7729C49.2471 60.7729 49.1661 60.8533 49.1661 60.9338V61.041C49.1661 61.1215 49.2471 61.1751 49.3551 61.1751L56.6989 60.9338C56.7529 60.9338 56.8339 60.8533 56.8339 60.7729ZM56.8069 65.0628V64.9556C56.8069 64.8751 56.7259 64.8215 56.6179 64.8215L49.2741 65.4114C49.1931 65.4114 49.1121 65.4918 49.1121 65.5722V65.6795C49.1121 65.7599 49.1931 65.8135 49.3011 65.8135L56.6449 65.2237C56.7529 65.2237 56.8069 65.1433 56.8069 65.0628ZM56.8069 63.615V63.5077C56.8069 63.4273 56.7259 63.3737 56.6179 63.3737L49.3011 64.0171C49.2201 64.0171 49.1391 64.0976 49.1391 64.178V64.2853C49.1391 64.3657 49.2201 64.4193 49.3281 64.4193L56.6449 63.7758C56.7529 63.7758 56.8069 63.6954 56.8069 63.615ZM56.8339 62.1135V62.0063C56.8339 61.9258 56.7529 61.8454 56.6719 61.8454H49.3011C49.2201 61.8454 49.1391 61.9258 49.1391 62.0063V62.1135C49.1391 62.1939 49.2201 62.2744 49.3011 62.2744H56.6719C56.7529 62.2744 56.8339 62.1939 56.8339 62.1135ZM56.8878 76.2434V76.3506C56.8878 76.4311 56.8069 76.5115 56.7259 76.5115H49.3551C49.2741 76.5115 49.1931 76.4579 49.1931 76.3506V76.2434C49.1931 76.1629 49.2741 76.0825 49.3551 76.0825H56.7259C56.8069 76.0825 56.8878 76.1629 56.8878 76.2434ZM56.8608 82.6246V82.7318C56.8608 82.8123 56.7799 82.8659 56.6719 82.8659L49.3281 82.276C49.2471 82.276 49.1661 82.1956 49.1661 82.1152V82.0079C49.1661 81.9275 49.2471 81.8739 49.3551 81.8739L56.6719 82.4637C56.8069 82.4637 56.8878 82.5173 56.8608 82.6246ZM56.8338 78.3347L56.8068 78.4419C56.7798 78.5224 56.6989 78.576 56.6179 78.576L49.3281 77.6108C49.2471 77.6108 49.1661 77.5303 49.1931 77.4499L49.2201 77.3427C49.2471 77.2622 49.3281 77.2086 49.4091 77.2086L56.6989 78.1738C56.7799 78.1738 56.8608 78.2543 56.8338 78.3347ZM56.8878 79.3267V79.434C56.8878 79.5144 56.8069 79.568 56.7259 79.568L49.3551 79.3804C49.2741 79.3804 49.1931 79.2999 49.1931 79.2195V79.1122C49.1931 79.0318 49.2741 78.9782 49.3551 78.9782L56.7259 79.1659C56.8069 79.1927 56.8878 79.2463 56.8878 79.3267ZM56.8878 81.0695V81.1768C56.8878 81.2572 56.8069 81.3376 56.7259 81.3376H49.3551C49.2741 81.3376 49.1931 81.284 49.1931 81.1768V81.0695C49.1931 80.9891 49.2741 80.9086 49.3551 80.9086H56.7259C56.8069 80.9354 56.8878 80.9891 56.8878 81.0695ZM49.1661 68.5752V68.6824C49.1661 68.7629 49.2471 68.8433 49.3281 68.8433H56.6989C56.7799 68.8433 56.8608 68.7897 56.8608 68.6824V68.5752C56.8608 68.4947 56.7799 68.4143 56.6989 68.4143H49.3281C49.2471 68.4143 49.1661 68.4947 49.1661 68.5752ZM49.1661 74.7419V74.8492C49.1661 74.9296 49.2471 74.9832 49.3281 74.9832L56.6719 74.7419C56.7529 74.7419 56.8339 74.6615 56.8339 74.581V74.4738C56.8339 74.3934 56.7529 74.3397 56.6449 74.3397L49.3011 74.581C49.2471 74.6078 49.1661 74.6615 49.1661 74.7419ZM49.1931 70.452V70.5593C49.1931 70.6397 49.2741 70.6933 49.3821 70.6933L56.7259 70.1034C56.8069 70.1034 56.8878 70.023 56.8878 69.9426V69.8353C56.8878 69.7549 56.8069 69.7013 56.6989 69.7013L49.3551 70.2911C49.2471 70.2911 49.1931 70.3716 49.1931 70.452ZM49.1931 71.8998V72.0071C49.1931 72.0875 49.2741 72.1411 49.3821 72.1411L56.6989 71.4977C56.7799 71.4977 56.8608 71.4172 56.8608 71.3368V71.2295C56.8608 71.1491 56.7799 71.0955 56.6719 71.0955L49.3551 71.739C49.2471 71.739 49.1931 71.8194 49.1931 71.8998ZM49.1661 73.4013V73.5086C49.1661 73.589 49.2471 73.6694 49.3281 73.6694H56.6989C56.7799 73.6694 56.8608 73.589 56.8608 73.5086V73.4013C56.8608 73.3209 56.7799 73.2404 56.6989 73.2404H49.3281C49.2471 73.2673 49.1661 73.3209 49.1661 73.4013ZM44.1983 61.3092H41.3904C39.6625 61.3092 38.2316 62.7034 38.2316 64.4461V80.5065C38.2316 82.2224 39.6355 83.6434 41.3904 83.6434H44.1983C45.9263 83.6434 47.3572 82.2492 47.3572 80.5065V64.4461C47.3302 62.7034 45.9263 61.3092 44.1983 61.3092ZM42.8214 80.9086C42.9294 80.9086 43.0374 80.8014 43.0374 80.6673C43.0374 80.5333 42.9294 80.426 42.8214 80.426C42.7134 80.426 42.6054 80.5333 42.6054 80.6673C42.6054 80.8014 42.6864 80.9086 42.8214 80.9086ZM11.7186 61.2287H20.7902V69.9694H11.7186V61.2287ZM16.2004 68.5484C14.5265 68.5484 13.1495 67.2346 13.1495 65.5991C13.1495 63.9635 14.5265 62.6497 16.2004 62.6497C17.8744 62.6497 19.2513 63.9635 19.2513 65.5991C19.2513 67.2078 17.8744 68.5484 16.2004 68.5484ZM16.2004 67.8781C14.8775 67.8781 13.8245 66.8592 13.8245 65.5722C13.8245 64.3121 14.8775 63.2664 16.2004 63.2664C17.5234 63.2664 18.5763 64.2853 18.5763 65.5722C18.5763 66.8592 17.4964 67.8781 16.2004 67.8781ZM14.4725 75.3586C15.9574 75.3586 17.3614 76.5383 17.3614 78.0129V83.5362H11.7996V78.0129C11.7996 76.5383 13.0145 75.3586 14.4725 75.3586ZM14.5805 76.1629C15.6874 76.1629 16.5784 77.1282 16.5784 78.3079V81.6594C16.5784 82.3833 15.3364 82.5442 14.5805 82.5442C13.7165 82.5442 12.5826 82.4101 12.5826 81.6594V78.3079C12.5826 77.1282 13.4735 76.1629 14.5805 76.1629ZM14.5805 79.4072C14.9855 79.4072 15.2555 79.7289 15.2555 80.1311L15.3094 81.284C15.3094 81.3912 15.2015 81.4985 15.0935 81.4985H14.0675C13.9595 81.4985 13.8515 81.3912 13.8515 81.284L13.9055 80.1311C13.9055 79.7289 14.1755 79.4072 14.5805 79.4072ZM28.6199 80.0507C28.6199 79.863 28.4849 79.7289 28.2959 79.7289C28.107 79.7289 27.972 79.863 27.972 80.0507C27.972 80.2383 28.107 80.3724 28.2959 80.3724C28.4579 80.3724 28.6199 80.2115 28.6199 80.0507ZM28.6199 83.0804C28.3499 83.2681 28.107 83.2413 27.891 83.0804C28.053 82.3297 28.026 81.5521 28.08 80.8282C28.188 80.7209 28.3499 80.7478 28.4309 80.8282C28.5119 81.5521 28.4579 82.3565 28.6199 83.0804ZM77.2721 32.7009C77.2991 31.4675 76.3001 30.4219 75.0312 30.4219C73.7892 30.3951 72.7362 31.3871 72.7362 32.6472C72.7092 33.8806 73.7082 34.9263 74.9772 34.9263C76.2191 34.9263 77.2451 33.9342 77.2721 32.7009ZM77.2451 30.5023C76.0301 29.269 74.0592 29.2421 72.8172 30.4219C72.7092 30.5291 72.7092 30.7168 72.8172 30.824C72.9252 30.9313 73.1142 30.9313 73.2222 30.824C74.2482 29.8588 75.8681 29.8588 76.8401 30.8777C76.9481 30.9849 77.1371 30.9849 77.2451 30.8777C77.3531 30.7972 77.3531 30.6095 77.2451 30.5023ZM66.8235 32.7009C66.8505 31.4675 65.8515 30.4219 64.5826 30.4219C63.3406 30.3951 62.2876 31.3871 62.2876 32.6472C62.2606 33.8806 63.2596 34.9263 64.5286 34.9263C65.7705 34.9263 66.7965 33.9342 66.8235 32.7009ZM66.7965 30.5023C65.5815 29.269 63.6106 29.2421 62.3686 30.4219C62.2606 30.5291 62.2606 30.7168 62.3686 30.824C62.4766 30.9313 62.6656 30.9313 62.7736 30.824C63.7996 29.8588 65.4195 29.8588 66.3915 30.8777C66.4995 30.9849 66.6885 30.9849 66.7965 30.8777C66.9045 30.7972 66.9045 30.6095 66.7965 30.5023ZM79.918 31.7893H59.5067C59.3448 31.7893 59.2098 31.9233 59.2098 32.0842V40.0205C59.2098 40.1814 59.3448 40.3155 59.5067 40.3155H79.918C80.08 40.3155 80.2149 40.1814 80.2149 40.0205V32.0842C80.2149 31.9501 80.08 31.7893 79.918 31.7893ZM93.5254 29.4298C92.3105 29.7516 91.0685 29.0276 90.7445 27.8211C90.4206 26.6146 91.1495 25.3812 92.3645 25.0595C93.5794 24.7377 94.8214 25.4617 95.1454 26.6682C95.4694 27.8747 94.7404 29.1081 93.5254 29.4298ZM91.3655 29.9393C89.8806 29.0813 89.3676 27.1776 90.2316 25.703C90.3126 25.5689 90.4746 25.5153 90.6095 25.5957C90.7445 25.6762 90.7985 25.837 90.7175 25.9711C90.0156 27.1776 90.4206 28.7327 91.6355 29.4566C91.7705 29.5371 91.8245 29.6979 91.7435 29.832C91.6895 29.9661 91.5005 30.0197 91.3655 29.9393ZM93.0935 37.956V16.721C93.0935 15.4608 94.1194 14.442 95.3884 14.442H100.086C101.355 14.442 102.381 15.4608 102.381 16.721V37.956C102.381 39.2162 101.355 40.235 100.086 40.235H95.3884C94.1194 40.235 93.0935 39.2162 93.0935 37.956ZM94.4434 20.9305L95.3884 26.9631C95.4154 27.0972 95.5234 27.1776 95.6314 27.1776L97.0623 26.9631C97.1703 26.9363 97.2513 26.8291 97.2243 26.695L96.2793 20.6623C96.2523 20.5283 96.1443 20.4478 96.0363 20.4478L94.6054 20.6623C94.4974 20.6623 94.4164 20.7964 94.4434 20.9305ZM14.4995 36.0255C14.4995 36.8567 15.1745 37.527 16.0114 37.527C16.8484 37.527 17.5234 36.8567 17.5234 36.0255C17.5234 35.1944 16.8484 34.5241 16.0114 34.5241C15.1745 34.5241 14.4995 35.1944 14.4995 36.0255ZM24.8401 7.14915C24.4081 7.14915 24.0571 6.8006 24.0571 6.37161C24.0571 5.94262 24.4081 5.59406 24.8401 5.59406C25.2721 5.59406 25.6231 5.94262 25.6231 6.37161C25.6231 6.8006 25.2721 7.14915 24.8401 7.14915ZM25.6231 6.3448C25.6231 6.77422 25.2725 7.12234 24.8401 7.12234C24.4077 7.12234 24.0571 6.77422 24.0571 6.3448C24.0571 5.91537 24.4077 5.56725 24.8401 5.56725C25.2725 5.56725 25.6231 5.91537 25.6231 6.3448ZM22.8422 7.06872C22.8152 6.98828 22.7882 6.90785 22.7882 6.82741C22.7882 6.50567 22.9772 6.26436 23.2201 6.26436C23.4631 6.26436 23.6521 6.53248 23.6521 6.82741C23.6521 6.90785 23.6251 7.01509 23.5981 7.06872H22.8422ZM13.9865 22.3783H17.9553C18.7923 22.3783 19.4943 21.708 19.4943 20.85V13.9057C19.4943 13.0746 18.8193 12.3775 17.9553 12.3775H13.9865C13.1495 12.3775 12.4476 13.0478 12.4476 13.9057V20.85C12.4746 21.6812 13.1495 22.3783 13.9865 22.3783ZM16.8214 18.6515C16.8214 18.7587 16.7404 18.8659 16.6054 18.8659H16.4434C16.3354 18.8659 16.2274 18.7855 16.2274 18.6515V18.4638C16.2274 18.3565 16.3084 18.2493 16.4434 18.2493H16.6054C16.7134 18.2493 16.8214 18.3297 16.8214 18.4638V18.6515ZM15.3094 14.8174V12.7796C15.3094 12.7528 15.2825 12.726 15.2555 12.726C15.2285 12.726 15.2015 12.7528 15.2015 12.7796V14.8174C15.2015 14.8442 15.2285 14.871 15.2555 14.871C15.2825 14.871 15.3094 14.8442 15.3094 14.8174ZM14.9585 14.8174V12.7796C14.9585 12.7528 14.9315 12.726 14.9045 12.726C14.8775 12.726 14.8505 12.7528 14.8505 12.7796V14.8174C14.8505 14.8442 14.8775 14.871 14.9045 14.871C14.9315 14.871 14.9585 14.8442 14.9585 14.8174ZM14.5805 14.8174V12.7796C14.5805 12.7528 14.5535 12.726 14.5265 12.726C14.4995 12.726 14.4725 12.7528 14.4725 12.7796V14.8174C14.4725 14.8442 14.4995 14.871 14.5265 14.871C14.5535 14.871 14.5805 14.8442 14.5805 14.8174ZM17.4964 14.8174V12.7796C17.4964 12.7528 17.4694 12.726 17.4424 12.726C17.4154 12.726 17.3884 12.7528 17.3884 12.7796V14.8174C17.3884 14.8442 17.4154 14.871 17.4424 14.871C17.4694 14.871 17.4964 14.8442 17.4964 14.8174ZM17.1184 14.8174V12.7796C17.1184 12.7528 17.0914 12.726 17.0644 12.726C17.0374 12.726 17.0104 12.7528 17.0104 12.7796V14.8174C17.0104 14.8442 17.0374 14.871 17.0644 14.871C17.1184 14.871 17.1184 14.8442 17.1184 14.8174ZM16.7674 14.8174V12.7796C16.7674 12.7528 16.7404 12.726 16.7134 12.726C16.6864 12.726 16.6594 12.7528 16.6594 12.7796V14.8174C16.6594 14.8442 16.6864 14.871 16.7134 14.871C16.7404 14.871 16.7674 14.8442 16.7674 14.8174ZM16.4164 14.8174V12.7796C16.4164 12.7528 16.3894 12.726 16.3624 12.726C16.3354 12.726 16.3084 12.7528 16.3084 12.7796V14.8174C16.3084 14.8442 16.3354 14.871 16.3624 14.871C16.3894 14.871 16.4164 14.8442 16.4164 14.8174ZM16.0384 14.8174V12.7796C16.0384 12.7528 16.0114 12.726 15.9844 12.726C15.9574 12.726 15.9304 12.7528 15.9304 12.7796V14.8174C15.9304 14.8442 15.9574 14.871 15.9844 14.871C16.0114 14.871 16.0384 14.8442 16.0384 14.8174ZM15.6874 14.8174V12.7796C15.6874 12.7528 15.6604 12.726 15.6334 12.726C15.6064 12.726 15.5794 12.7528 15.5794 12.7796V14.8174C15.5794 14.8442 15.6064 14.871 15.6334 14.871C15.6604 14.871 15.6874 14.8442 15.6874 14.8174ZM18.9273 14.7905V12.7796C18.9273 12.7528 18.9003 12.726 18.8733 12.726C18.8463 12.726 18.8193 12.7528 18.8193 12.7796V14.7905C18.8193 14.8174 18.8463 14.8442 18.8733 14.8442C18.9273 14.8442 18.9273 14.8174 18.9273 14.7905ZM18.5763 14.7905V12.7796C18.5763 12.7528 18.5493 12.726 18.5223 12.726C18.4953 12.726 18.4683 12.7528 18.4683 12.7796V14.7905C18.4683 14.8174 18.4953 14.8442 18.5223 14.8442C18.5493 14.8442 18.5763 14.8174 18.5763 14.7905ZM18.2253 14.7905V12.7796C18.2253 12.7528 18.1983 12.726 18.1713 12.726C18.1443 12.726 18.1173 12.7528 18.1173 12.7796V14.7905C18.1173 14.8174 18.1443 14.8442 18.1713 14.8442C18.1983 14.8442 18.2253 14.8174 18.2253 14.7905ZM17.8474 14.7905V12.7796C17.8474 12.7528 17.8204 12.726 17.7934 12.726C17.7664 12.726 17.7394 12.7528 17.7394 12.7796V14.7905C17.7394 14.8174 17.7664 14.8442 17.7934 14.8442C17.8474 14.8442 17.8474 14.8174 17.8474 14.7905ZM17.4694 15.3536H15.6334C14.7965 15.3536 14.0945 16.0239 14.0945 16.8819V20.2602C14.0945 21.0913 14.7695 21.7884 15.6334 21.7884H17.4694C18.3063 21.7884 19.0083 21.1181 19.0083 20.2602V16.8819C18.9813 16.0239 18.3063 15.3536 17.4694 15.3536ZM15.6064 18.5442C15.6064 18.4638 15.5524 18.4101 15.4714 18.4101H12.9335C12.8525 18.4101 12.7985 18.4638 12.7985 18.5442C12.7985 18.6246 12.8525 18.6783 12.9335 18.6783H15.4714C15.5524 18.6783 15.6064 18.6246 15.6064 18.5442ZM13.6085 19.0804V18.0348C13.6085 17.9543 13.5545 17.9007 13.4735 17.9007C13.3925 17.9007 13.3385 17.9543 13.3385 18.0348V19.0804C13.3385 19.1609 13.3925 19.2145 13.4735 19.2145C13.5545 19.2145 13.6085 19.1609 13.6085 19.0804ZM13.7165 18.008C13.7165 18.142 13.6085 18.2493 13.4735 18.2493C13.3385 18.2493 13.2305 18.142 13.2305 18.008C13.2305 17.8739 13.3385 17.7667 13.4735 17.7667C13.6085 17.7667 13.7165 17.8739 13.7165 18.008ZM13.7165 19.0804C13.7165 19.2145 13.6085 19.3217 13.4735 19.3217C13.3385 19.3217 13.2305 19.2145 13.2305 19.0804C13.2305 18.9464 13.3385 18.8391 13.4735 18.8391C13.6085 18.8391 13.7165 18.9464 13.7165 19.0804ZM15.6334 18.5442C15.6334 18.6515 15.5524 18.7319 15.4444 18.7319C15.3364 18.7319 15.2555 18.6515 15.2555 18.5442C15.2555 18.437 15.3364 18.3565 15.4444 18.3565C15.5524 18.3833 15.6334 18.4638 15.6334 18.5442ZM32.9128 6.07668C32.9128 6.66654 33.3988 7.14915 33.9927 7.14915C34.5867 7.14915 35.0727 6.66654 35.0727 6.07668C35.0727 5.48682 34.5867 5.0042 33.9927 5.0042C33.3988 5.0042 32.9128 5.48682 32.9128 6.07668ZM29.4569 6.07668C29.4569 6.66654 29.9429 7.14915 30.5369 7.14915C31.1308 7.14915 31.6168 6.66654 31.6168 6.07668C31.6168 5.48682 31.1308 5.0042 30.5369 5.0042C29.9429 5.0042 29.4569 5.48682 29.4569 6.07668ZM32.9128 9.45498C32.9128 10.0448 33.3988 10.5275 33.9927 10.5275C34.5867 10.5275 35.0727 10.0448 35.0727 9.45498C35.0727 8.86511 34.5867 8.3825 33.9927 8.3825C33.3988 8.40931 32.9128 8.86511 32.9128 9.45498ZM29.4569 9.45498C29.4569 10.0448 29.9429 10.5275 30.5369 10.5275C31.1308 10.5275 31.6168 10.0448 31.6168 9.45498C31.6168 8.86511 31.1308 8.3825 30.5369 8.3825C29.9429 8.40931 29.4569 8.86511 29.4569 9.45498ZM24.8401 6.74698C24.6241 6.74698 24.4351 6.55929 24.4351 6.3448C24.4351 6.1303 24.6241 5.94262 24.8401 5.94262C25.0561 5.94262 25.2451 6.1303 25.2451 6.3448C25.2451 6.5861 25.0561 6.74698 24.8401 6.74698ZM92.5805 6.93466L92.6885 5.72812L92.4995 4.41434L92.9315 5.2187L93.2015 6.3448L93.3364 7.28321L93.7954 6.63973L94.2274 5.72812L94.5244 4.87014L94.4974 5.99624L94.3084 6.88104L93.9844 7.65858L95.3614 7.04191L94.5514 7.79264L94.8754 8.48975L95.7664 8.62381L96.6033 8.86511L98.4662 9.74991C98.4662 9.74991 96.5763 9.16004 96.5763 9.21367C96.5763 9.24048 94.9564 8.97236 94.9564 8.97236L94.9024 9.21367L96.0093 9.74991L97.3323 10.4738L98.8442 11.6804L97.5753 11.2246L95.4694 10.3666L94.5784 10.0448L94.2814 10.3666L95.1184 11.7608L96.0633 13.1282L95.6314 12.9405L94.6324 11.9753L93.7144 10.7151C93.7144 10.7151 92.9855 10.876 92.9315 10.8492C92.9045 10.8224 92.6345 11.6267 92.6345 11.6267L91.8515 13.0478L90.6095 14.5224L91.5005 12.7528L92.0945 11.3318L92.3105 10.7151L91.6895 10.313L90.9335 11.1173L90.1506 12.0557L89.5296 12.9405L88.8006 14.1471L88.9626 13.3159L89.5566 11.9217L90.2586 10.8492L91.2575 9.74991L91.1495 9.26729L89.8536 9.66947L88.6656 10.2325L88.0446 10.6079L88.1796 10.313L88.9086 9.56222L90.0426 8.91874C90.0426 8.91874 91.1495 8.54337 91.2035 8.54337C91.2575 8.54337 91.3385 8.14119 91.3385 8.14119L90.0156 7.2564L89.0166 6.31799L88.3416 5.56725L88.8816 5.80856L90.6366 6.82741L91.7435 7.49771L92.1485 7.20278L92.0945 6.18393L92.4725 6.90785L92.5805 6.93466Z" stroke="#E5C696" stroke-width="0.3327" stroke-miterlimit="22.9256"/>
</svg>
