<svg width="62" height="95" viewBox="0 0 62 95" fill="none" xmlns="http://www.w3.org/2000/svg">
<path d="M61 45.6349H53.3769V44.5714H59.9398V45.5336H61L61 45.6349Z" fill="#E5C696"/>
<path d="M59.9398 1.24535H60.2301V0.194481H61L61 44.5714H59.9398V26.5547H60.5709V26.2255H59.9398V1.24535Z" fill="#E5C696"/>
<path d="M61 44.5714L61 45.5336H59.9398V44.5714H61Z" fill="#E5C696"/>
<path d="M43.3938 26.5547V26.2255H59.9398V26.5547H43.3938Z" fill="#E5C696"/>
<path d="M48.9217 45.6222H25.6487V44.5714H24.9167V44.5587H43.9743V44.9006H44.3025V44.5587H48.9217V45.6222Z" fill="#E5C696"/>
<path d="M44.2015 33.8475L44.3025 33.8475V44.5587H43.9743V34.1767H44.2015V33.8475Z" fill="#E5C696"/>
<path d="M35.6445 33.8475L43.9743 33.8475V34.1767H35.6445V33.8475Z" fill="#E5C696"/>
<path d="M60.5709 26.2255V26.5547H59.9398V26.2255H60.5709Z" fill="#E5C696"/>
<path d="M57.5419 0.181824H60.2301V0.194481H59.9398V1.24535H57.5419V1.20736V0.840202V0.599632V0.232468V0.181824Z" fill="#E5C696"/>
<path d="M60.2301 1.24535H59.9398V0.194481H60.2301V1.24535Z" fill="#E5C696"/>
<path d="M45.1733 1.24535H40.1881V1.20736H40.2512V0.840202V0.599632V0.232468H40.1881V0.181824H45.1733V0.232468H45.1481V0.599632V0.840202V1.20736H45.1733V1.24535Z" fill="#E5C696"/>
<path d="M25.2575 0.181816V1.24535H24.1973V0.181816H25.2575Z" fill="#E5C696"/>
<path d="M27.9331 1.20736V1.24535H25.2575V0.181816L27.9331 0.181824V0.232468H27.8574V0.599632V0.840202V1.20736H27.9331Z" fill="#E5C696"/>
<path d="M24.1973 6.89216V1.24535H25.2575L25.2575 7.7911H25.2322V6.89216H24.1973Z" fill="#E5C696"/>
<path d="M24.9293 7.95569H24.1973V6.89216H25.2322V7.7911H24.9293V7.95569Z" fill="#E5C696"/>
<path d="M20.4994 6.91749V6.89216H24.1973V7.95569H20.4994V7.89239H20.512V7.52522V7.28466V6.91749H20.4994Z" fill="#E5C696"/>
<path d="M25.2575 7.95569V27.5043H24.9293V7.95569H25.2322H25.2575Z" fill="#E5C696"/>
<path d="M18.4548 27.8335V27.5043L24.9293 27.5043V27.8335H18.4548Z" fill="#E5C696"/>
<path d="M6.46487 7.93037H2.06016V6.99345H1.01262V6.86684H6.46487V6.91749H6.41439V7.28466V7.52522V7.89239H6.46487V7.93037Z" fill="#E5C696"/>
<path d="M18.4548 28.4666H18.1266V27.5043L18.2781 27.5043V27.8335H18.4548V28.4666Z" fill="#E5C696"/>
<path d="M2.06016 92.9237H1V6.99345H1.01262V7.93037H2.06016V37.0127H1.63105V37.3419H2.06016V52.7504H1.63105V53.0796H2.06016V92.9237Z" fill="#E5C696"/>
<path d="M2.06016 6.99345V7.93037H1.01262V6.99345H2.06016Z" fill="#E5C696"/>
<path d="M18.4548 32.9865V37.0127H18.1266V32.9865H18.4548Z" fill="#E5C696"/>
<path d="M31.2524 34.1767H24.9167V33.8475H31.2524V34.1767Z" fill="#E5C696"/>
<path d="M24.5886 33.8475H24.6517V34.1767H24.9167V44.5587H24.5886V33.8475Z" fill="#E5C696"/>
<path d="M24.6517 33.8475H24.9167V34.1767H24.6517V33.8475Z" fill="#E5C696"/>
<path d="M18.4548 37.3419H18.1266V37.0127H18.4548V37.3419Z" fill="#E5C696"/>
<path d="M15.8422 37.3419H15.5141H2.06016V37.0127H18.1266V37.3419H15.8422Z" fill="#E5C696"/>
<path d="M15.8422 38.3295H15.5141V37.3419H15.8422V38.3295Z" fill="#E5C696"/>
<path d="M1.63105 37.3419V37.0127H2.06016V37.3419H1.63105Z" fill="#E5C696"/>
<path d="M15.8422 42.7988V52.7504H15.5141V42.7988H15.8422Z" fill="#E5C696"/>
<path d="M1.63105 53.0796V52.7504H2.06016V53.0796H1.63105Z" fill="#E5C696"/>
<path d="M10.5919 52.7504V53.0796H2.06016V52.7504H10.5919Z" fill="#E5C696"/>
<path d="M15.5141 53.0796H15.0597V52.7504H15.5141V53.0796Z" fill="#E5C696"/>
<path d="M15.8422 53.0796H15.5141V52.7504H15.8422V53.0796Z" fill="#E5C696"/>
<path d="M19.5023 53.0796H15.8422V52.7504H19.5023V53.0796Z" fill="#E5C696"/>
<path d="M24.5886 52.7504V53.0796H23.9701V52.7504H24.5886Z" fill="#E5C696"/>
<path d="M25.5982 52.7504V53.0796H24.5886V52.7504H25.5982Z" fill="#E5C696"/>
<path d="M25.6235 94V92.9365H24.5886V53.0796H25.5982V52.7504H24.5886V45.6982H24.9167V45.6222H25.6487V94H25.6235Z" fill="#E5C696"/>
<path d="M25.6487 44.5714V45.6222H24.9167V44.5714H25.6487Z" fill="#E5C696"/>
<path d="M24.5886 45.6222V44.5714H24.9167V45.6222H24.5886Z" fill="#E5C696"/>
<path d="M1 93.4556V92.9237H2.06016V93.4556H1Z" fill="#E5C696"/>
<path d="M6.59108 93.9873H1V93.4556H2.06016V92.9237H6.59108V92.9745H6.55322L6.55322 93.3416V93.5822L6.55322 93.9494H6.59108V93.9873Z" fill="#E5C696"/>
<path d="M24.5886 94H19.8052V93.9494H19.8683L19.8683 93.5822V93.3416L19.8683 92.9745H19.8052V92.9365H24.5886V94Z" fill="#E5C696"/>
<path d="M25.6235 94H24.5886V92.9365H25.6235V94Z" fill="#E5C696"/>
<path d="M44.3025 44.9006H43.9743V44.5587H44.3025V44.9006Z" fill="#E5C696"/>
<path d="M43.9743 33.8475L44.2015 33.8475V34.1767H43.9743V33.8475Z" fill="#E5C696"/>
<path d="M25.2575 27.8335H24.9293V27.5043H25.2575L25.2575 27.8335Z" fill="#E5C696"/>
<path d="M18.2781 27.5043L18.4548 27.5043V27.8335H18.2781V27.5043Z" fill="#E5C696"/>
<path d="M3.47371 58.9416L3.39798 58.8654M3.6504 58.9416L3.73875 58.8527M3.72613 59.1949L3.6504 59.1186M3.39798 59.1949L3.47371 59.1186M3.44846 58.8277L3.23391 58.4605M3.33488 59.0303H2.90576M3.44846 59.2328L3.23391 59.6M3.8902 59.6L3.67564 59.2328M4.21834 59.0303H3.78923M3.8902 58.4605L3.67564 58.8277M3.47371 72.261L3.39798 72.1975M3.6504 72.261L3.73875 72.1721M3.72613 72.5142L3.6504 72.4507M3.39798 72.5142L3.47371 72.4507M3.44846 72.1471L3.23391 71.7799M3.33488 72.3497H2.90576M3.44846 72.5522L3.23391 72.9194M3.8902 72.9194L3.67564 72.5522M4.21834 72.3497H3.78923M3.8902 71.7799L3.67564 72.1471M5.97265 68.1968V60.6509M5.56878 60.6509V68.1968M5.56878 68.1968L8.11822 70.7544V68.1968L5.56878 68.1968ZM5.0387 65.462C4.35717 65.424 3.66302 65.1835 2.99411 65.3988C2.91838 65.4241 2.84266 65.3861 2.81742 65.3101C2.8048 65.2848 2.8048 65.2595 2.81742 65.2342C2.91838 63.8541 2.77955 62.512 2.88052 61.1067C2.88052 61.0177 2.95625 61.0177 3.03197 61.0177M3.04459 61.018C3.81447 61.018 4.15524 61.132 4.55911 61.1573M5.24064 61.4358C4.95036 62.7146 4.93774 64.0314 5.19016 65.3101C5.20278 65.3734 5.17753 65.4367 5.11443 65.4621C5.08919 65.4747 5.06395 65.4747 5.05132 65.4621M4.96298 61.1193C5.11443 61.1193 5.24064 61.2333 5.24064 61.3852C5.24064 61.4105 5.24064 61.4359 5.22802 61.4612M3.6504 61.2839C4.01641 61.3092 4.59697 61.132 4.9756 61.1193M5.0387 65.8419C4.29407 65.7026 3.68826 65.8672 2.99411 65.9052C2.88052 65.9179 2.84266 65.9179 2.81742 65.9938C2.8048 66.0191 2.8048 66.0445 2.81742 66.0698C2.91838 67.4498 2.93101 68.817 2.88052 70.1971C2.88052 70.2225 2.89314 70.2606 2.93101 70.2606C2.94363 70.2606 2.95625 70.2606 2.95625 70.2606C3.33488 70.2226 4.00379 70.0833 4.36979 69.9947M5.24064 69.8681C5.2154 68.5387 4.93774 67.2726 5.19016 65.9938C5.17753 65.8799 5.06395 65.8419 5.05132 65.8419M5.25326 69.8554C5.24064 70.1087 5.19016 70.2226 4.9756 70.2353C4.59697 70.2226 4.31931 70.1466 3.75137 70.1213M20.9411 26.2255C20.9411 25.8584 21.244 25.5545 21.61 25.5545C21.976 25.5545 22.2789 25.8584 22.2789 26.2255C22.2789 26.5927 21.976 26.8966 21.61 26.8966C21.2314 26.8839 20.9411 26.5927 20.9411 26.2255ZM20.9411 26.2255H21.3702M21.509 26.1369L21.4459 26.0607M21.6984 26.1369L21.7741 26.048M21.7615 26.3901L21.6984 26.3139M21.4459 26.3901L21.509 26.3139M21.4838 26.023L21.2692 25.6558M21.4838 26.4281L21.2692 26.7953M21.9255 26.7953L21.7236 26.4281M22.2663 26.2255H21.8372M21.9255 25.6558L21.7236 26.023M26.9992 43.3433C26.8856 43.2926 26.8351 43.1533 26.8729 43.0394C26.9108 42.9128 27.037 42.8621 27.1506 42.9001C27.2642 42.9508 27.3147 43.09 27.2768 43.204C27.2516 43.2799 27.2011 43.3306 27.1254 43.3433M26.8603 44.4321C26.9865 44.3305 27.138 44.3305 27.2642 44.4321M28.0593 42.4063L28.2234 36.8102C28.2234 36.7975 28.2234 36.7975 28.2234 36.7975C28.2234 36.0252 27.7059 35.4048 27.0623 35.4048C26.4186 35.4048 25.9011 36.0378 25.9011 36.8102L26.0904 42.4063M26.8098 44.4321H27.3147M27.1632 43.837H28.135C28.4884 43.837 28.7787 43.4825 28.7787 43.052L28.7787 36.7975C28.7787 35.6453 28.0088 34.7211 27.0623 34.7211C26.1157 34.7211 25.3458 35.6453 25.3458 36.7975V43.052C25.3458 43.4825 25.6361 43.837 25.9895 43.837H26.9487M26.9234 44.3941L26.9865 43.4066C26.9865 43.3557 27.0244 43.3176 27.0623 43.3176C27.1001 43.3176 27.138 43.3557 27.138 43.4066L27.2011 44.3941M27.037 44.3686L27.1632 44.4321M27.037 44.3686L27.0497 44.4321M27.037 44.3686L26.9613 44.4321M24.1973 7.95569V6.89216M24.1973 7.95569H24.9293M24.1973 7.95569H20.4994M25.2575 7.95569V1.24535M25.2575 7.95569H24.9293M25.2575 7.95569V27.5043M25.2575 7.95569H25.2322M25.2575 0.181815H24.1973M25.2575 0.181815V1.24535M25.2575 0.181815L27.9331 0.181825M24.1973 0.181815L27.9331 0.181825M24.1973 0.181815V1.24535M24.1973 0.181815V6.89216M19.8052 94H25.6235M19.8052 94H24.5886M19.8052 94V93.9494M25.6235 94V92.9365H24.5886M25.6235 94H25.6487M25.6235 94H24.5886M1 93.9873H6.59108V93.9494M1 93.9873V92.9237M1 93.9873V93.4556M1 92.9237H2.06016M1 92.9237V6.99345M1 92.9237V93.4556M24.1973 1.24535H25.2575M24.1973 1.24535V6.89216M27.9331 0.181825V0.232465M20.4994 7.95569H24.9293M20.4994 7.95569V7.89239M25.2322 7.95569V7.7911M25.2322 7.95569H24.9293M57.5419 1.24535V0.181825M57.5419 1.24535H59.9398M57.5419 1.24535V1.20736M57.5419 0.181825H60.2301V0.194485M57.5419 0.181825V0.232465M61 45.6349H53.3769V44.5714H59.9398M61 45.6349V44.5714M61 45.6349L61 45.5336M61 44.5714H59.9398M61 44.5714L61 0.194485M61 44.5714L61 45.5336M24.5886 45.6222V44.5587M24.5886 45.6222H24.9167M24.5886 45.6222V44.5714M24.5886 44.5587H24.9167M24.5886 44.5587V33.8475M61 45.5336H59.9398V44.5714M61 45.5336V0.194485M61 0.194485H60.2301M24.5886 94H25.6487M24.5886 94V92.9365M25.6487 94V45.6222M24.5886 44.5714H24.9167M24.5886 44.5714V52.7504M1 93.4556H2.06016V92.9237M1 93.4556V6.99345M1 6.99345H1.01262M24.9293 27.8335H25.2575M24.9293 27.8335V27.5043M24.9293 27.8335H18.4548M25.2575 27.8335V7.7911M25.2575 27.8335L25.2575 27.5043M25.2575 27.8335H18.4548M25.2575 7.7911L25.2575 1.24535M25.2575 7.7911H25.2322M24.5886 45.6982H24.9167V45.6222M24.5886 45.6982V33.8475M24.5886 45.6982V52.7504M24.9167 33.8475H24.5886M24.9167 33.8475V34.1767M24.9167 33.8475H31.2524M24.9167 33.8475H24.6517M24.5886 33.8475H24.6517M18.1266 37.3419H18.4548V37.0127M18.1266 37.3419V37.0127M18.1266 37.3419H15.8422M18.4548 27.5043H18.1266M18.4548 27.5043V27.8335M18.4548 27.5043L24.9293 27.5043M18.4548 27.5043L18.2781 27.5043M18.1266 27.5043V28.4666H18.4548V27.8335M18.1266 27.5043L18.2781 27.5043M15.5141 53.0796H15.8422M15.5141 53.0796V52.7504M15.5141 53.0796H15.0597M15.8422 53.0796V52.7504M15.8422 53.0796H19.5023M15.8422 37.3419V38.3295H15.5141V37.3419M15.8422 37.3419H15.5141M15.5141 37.3419H2.06016M44.3025 33.8475H43.9743M44.3025 33.8475V44.5587M44.3025 33.8475L44.2015 33.8475M43.9743 33.8475V34.1767M43.9743 33.8475L35.6445 33.8475M43.9743 33.8475L44.2015 33.8475M15.0597 53.0796H19.5023M15.0597 53.0796V52.7504H15.5141M19.5023 53.0796V52.7504H15.8422M31.2524 33.8475V34.1767H24.9167M31.2524 33.8475H24.6517M24.6517 33.8475V34.1767H24.9167M25.2575 27.5043H24.9293M18.2781 27.5043V27.8335H18.4548M18.2781 27.5043H24.9293M44.2015 33.8475V34.1767H43.9743M44.2015 33.8475H35.6445M35.6445 33.8475V34.1767H43.9743M6.55322 93.9494V92.9745M6.55322 93.9494L6.55322 93.5822M6.55322 93.9494H6.59108M19.8683 93.9494V92.9745M19.8683 93.9494H19.8052M19.8683 93.9494L19.8683 93.5822M19.8683 92.9745L19.8683 93.3416M19.8683 92.9745H19.8052M6.55322 92.9745H6.59108M6.55322 92.9745L6.55322 93.3416M6.55322 93.5822H19.8683M6.55322 93.5822V93.3416M19.8683 93.5822V93.3416M19.8683 93.3416H6.55322M6.41439 7.89239V6.91749M6.41439 7.89239V7.52522M6.41439 7.89239H6.46487M20.512 7.89239V6.91749M20.512 7.89239H20.4994M20.512 7.89239V7.52522M20.512 6.91749V7.28466M20.512 6.91749H20.4994M6.41439 6.91749H6.46487M6.41439 6.91749V7.28466M6.41439 7.52522H20.512M6.41439 7.52522V7.28466M20.512 7.52522V7.28466M20.512 7.28466H6.41439M27.8574 1.20736V0.232465M27.8574 1.20736V0.840202M27.8574 1.20736H27.9331M40.2512 1.20736V0.232465M40.2512 1.20736H40.1881M40.2512 1.20736V0.840202M40.2512 0.232465V0.599633M40.2512 0.232465H40.1881M27.8574 0.232465H27.9331M27.8574 0.232465V0.599633M27.8574 0.840202H40.2512M27.8574 0.840202V0.599633M40.2512 0.840202V0.599633M40.2512 0.599633H27.8574M45.1481 1.20736V0.232465M45.1481 1.20736V0.840202M45.1481 1.20736H45.1733M57.5419 1.20736V0.232465M57.5419 1.20736V0.840202M57.5419 1.20736H45.1733M57.5419 0.232465V0.599633M57.5419 0.232465H45.1733M45.1481 0.232465H45.1733M45.1481 0.232465V0.599633M45.1481 0.840202H57.5419M45.1481 0.840202V0.599633M57.5419 0.840202V0.599633M57.5419 0.599633H45.1481M56.1031 44.4701H59.7884V26.694H56.1031V44.4701ZM56.1031 44.4701L59.801 26.6813M59.801 44.4701L56.1157 26.7067M23.2634 89.0495C23.2507 89.1508 23.2634 89.2268 23.3012 89.2268C23.3391 89.2268 23.3896 89.1128 23.4148 88.9609C23.4401 88.809 23.4274 88.6697 23.3896 88.6697C23.3643 88.6697 23.3265 88.7204 23.3012 88.809M22.8847 89.5813C22.9226 89.594 22.9605 89.6066 23.0109 89.6066C23.4022 89.6699 23.7556 89.404 23.8187 89.0242C23.8818 88.6317 23.6167 88.2772 23.2381 88.2139C23.2003 88.2013 23.1498 88.2013 23.1119 88.2013M22.7333 88.2772C22.544 88.3785 22.4051 88.5558 22.3673 88.7837C22.3294 89.0116 22.4051 89.2268 22.544 89.3787M22.9857 86.7326L22.3042 90.936L22.544 90.974L23.2255 86.7706L23.0362 86.7451M23.3265 88.9483L23.3391 88.847L23.0236 88.657M23.3265 88.9477L23.3138 89.0369L22.9605 89.1128M23.1245 89.0749L23.175 88.7583M23.175 87.0744L23.2507 87.1757M22.708 90.5942L23.2634 87.201M22.5944 90.6702L22.6954 90.5939M2.98149 12.2351L2.71645 14.9446C2.71645 14.9952 2.75431 15.0332 2.8048 15.0332L3.4106 14.818M2.98149 12.2478C2.98149 12.1971 3.03197 12.1718 3.08246 12.1845L3.63778 12.5263M24.0459 22.0347C24.1216 22.9463 23.8565 23.4021 24.0585 24.1618C24.0837 24.2378 24.0459 24.3264 23.9575 24.3517C23.9323 24.3644 23.8944 24.3644 23.8692 24.3517C22.2789 24.2628 20.7139 24.4027 19.0732 24.3137C18.9722 24.3137 18.9596 24.2378 18.9596 24.1491C18.9344 23.3515 19.048 22.9843 19.0606 22.5665M19.3635 21.8448C20.8528 22.136 22.3294 22.0094 23.8692 21.9208C23.9449 21.9208 24.0585 21.8828 24.0459 22.0094M19.3635 21.8575C19.3256 21.8448 19.3004 21.8448 19.2751 21.8448C19.0984 21.8448 18.9722 21.9841 18.9849 22.136C19.0227 22.5285 19.2499 23.1363 19.2373 23.5161M20.8401 21.7689V19.7431H18.3159L20.8401 21.7689ZM20.8401 21.7689H24.5886M20.8401 21.4523H24.5886M46.7509 41.9505H46.1704M46.7509 44.0396L46.1704 44.0015M46.7509 42.5076L46.1704 42.4568M46.7509 42.9761L46.1704 42.9507M46.7509 43.5838H46.1704M46.1704 39.355H46.7509M46.1704 41.4188L46.7509 41.3934M46.1704 39.8995L46.7509 39.874M46.1704 40.3932L46.7509 40.3424M46.1704 40.9883H46.7509M46.4354 44.3561V33.8222M46.1451 36.1771H46.7257M46.1451 34.0879L46.7257 34.126M46.1451 35.6199L46.7257 35.6707M46.1451 35.1387L46.7257 35.1896M46.1451 34.5438H46.7257M46.7257 38.7726H46.1451M46.7257 36.7215L46.1451 36.7342M46.7257 38.2281L46.1451 38.2535M46.7257 37.7342L46.1451 37.7851M46.7257 37.1393H46.1451M10.0871 36.8988H18.0004V33.0625H10.0871M14.3908 34.6831V35.2402M17.5208 34.6958L17.4703 35.2402M15.2364 34.6958L15.1481 35.2402M15.918 34.6958L15.8927 35.2402M16.8393 34.6831V35.2402M10.5162 35.2402V34.6831M13.5957 35.2402L13.5705 34.6958M11.3366 35.2402L11.2861 34.6958M12.0812 35.2402L11.9928 34.6958M12.9647 35.2402V34.6831M10.0745 33.0625H2.17375V36.8988H10.0745M17.9878 34.987H2.24947M5.77072 35.2655V34.7084M2.65334 35.2655L2.70383 34.7084M4.93774 35.2655L5.02608 34.7211M4.21834 35.2655L4.30669 34.7211M3.32225 35.2655V34.7084M9.64535 34.7084V35.2655M6.57846 34.7084L6.59108 35.2655M8.82499 34.7084L8.87547 35.2655M8.09297 34.7211L8.18132 35.2655M7.20951 34.7084V35.2655M6.03576 84.8841V76.9583H2.21161V84.8841M3.83971 80.5667H4.38241M3.83971 77.4392L4.38241 77.49M3.83971 79.7307L4.38241 79.8197M3.83971 79.0346L4.38241 79.06M3.83971 78.1104H4.38241M4.38241 84.4536H3.83971M4.38241 81.3769L3.83971 81.3896M4.38241 83.6305L3.83971 83.6813M4.38241 82.896L3.83971 82.9849M4.38241 82.01H3.83971M2.21161 84.8967V92.8225H6.03576V84.8967M4.13 76.9709V92.7592M4.40766 89.2141H3.85233M4.40766 92.3541L3.86496 92.3033M4.40766 90.0624L3.86496 89.9735M4.40766 90.7841L3.86496 90.6952M4.40766 91.6704H3.85233M3.85233 85.3272H4.40766M3.85233 88.4165L4.40766 88.3911M3.86496 86.1502L4.40766 86.0993M3.86496 86.8972L4.40766 86.8082M3.85233 87.7834H4.40766M48.9975 45.1411V49.2939C48.9975 49.2939 53.175 49.2559 53.276 45.1791M49.2751 45.1411V49.2686M31.2903 33.9488V38.1016C31.2903 38.1016 35.4678 38.0636 35.5688 33.9868M31.5679 33.9488V38.0763M15.6908 42.6975H11.5511C11.5511 42.6975 11.589 38.5067 15.6529 38.4055M15.6908 42.419H11.5764M23.907 52.8643V57.0172C23.907 57.0172 19.7295 56.9792 19.6285 52.9023M23.6294 52.8643V56.9918M14.9714 52.9276V48.7748C14.9714 48.7748 10.7939 48.8128 10.6929 52.8897M14.6937 52.9276V48.8002M18.3538 32.8093H14.2141C14.2141 32.8093 14.252 28.6185 18.3159 28.5172M18.3538 32.5307H14.2394M37.2726 44.4954V43.1913C37.2726 42.4823 36.692 41.8999 35.9853 41.8999H34.6979C33.9912 41.8999 33.4106 42.4823 33.4106 43.1913V44.4954M35.2154 44.0143C34.4708 43.989 33.4485 43.4319 33.764 42.7482C34.13 41.9759 34.9251 42.1278 35.9727 42.1278C36.7299 42.1278 37.26 42.9761 36.7678 43.4445C36.3891 43.799 35.9727 43.989 35.4678 44.0143M37.2726 44.4827H33.4106M2.67859 41.9632C2.70383 41.2162 3.25915 40.1907 3.94068 40.5072C4.71056 40.8744 4.55911 41.672 4.55911 42.7229C4.55911 43.4825 3.7135 44.0143 3.24653 43.5205C2.89314 43.1407 2.70383 42.7229 2.67859 42.2164M59.8389 1.34664H56.1536V22.4399L59.8389 26.1243V1.3593M45.3626 24.7189L45.1986 24.63L45.0345 24.7189M45.0345 23.807L45.1986 23.8959L45.3626 23.807M44.7442 23.9972L45.6529 24.529M44.7442 24.529L45.6529 23.9972M45.6782 24.3517L45.5141 24.453V24.6303M45.5141 23.8959V24.0858L45.6782 24.1745M44.883 24.6303V24.453L44.719 24.3517M44.719 24.1745L44.883 24.0855V23.8959M45.1986 23.744V24.7949M51.1178 22.4526V26.0863M46.9024 22.4526V26.0863M56.1662 15.1092H59.7884M56.1662 18.7555H59.8263M58.9933 20.68L58.3622 20.2242M58.9933 20.6167L58.3496 21.0345M58.8671 20.642L58.135 20.6293M57.4914 20.1229C57.4914 20.009 57.6176 19.9204 57.7564 19.9204C57.7943 19.9204 57.8321 19.933 57.87 19.9457V20.3002C57.8321 20.3129 57.7943 20.3255 57.7564 20.3255C57.605 20.3255 57.4914 20.2369 57.4914 20.1229ZM57.4914 20.1229H57.2011M57.2011 20.0216V20.2369M26.3807 10.5006L25.6866 10.5132L25.573 10.5892V23.6174L25.6613 23.7187L26.3681 23.7313L26.3807 24.2504L26.4817 24.3644M26.3807 10.5006L26.3934 9.94347L26.4943 9.85485H30.6466L30.7602 9.94347V11.1463M26.3807 10.5006H25.7371C25.6487 10.5006 25.573 10.5765 25.573 10.6651V23.5667C25.573 23.6554 25.6487 23.7313 25.7371 23.7313M30.7602 11.1463L30.9621 11.1589L31.0883 11.2602L31.101 22.9463L30.9874 23.0603L30.7602 23.0856V24.2504L30.634 24.377L26.4817 24.3644M30.7602 11.1463V10.0068C30.7602 9.91815 30.6845 9.84218 30.5961 9.84218M26.4817 24.3644C26.4186 24.3391 26.3807 24.2757 26.3807 24.2124V23.4021M26.4817 24.3644C26.5069 24.377 26.5196 24.377 26.5448 24.377H30.5961C30.6845 24.377 30.7602 24.3011 30.7602 24.2124V23.073M27.6807 15.1218H30.9243M27.6807 15.1218C27.5923 15.1218 27.5166 15.1978 27.5166 15.2864M27.6807 15.1218C27.5923 15.1218 27.5166 15.0459 27.5166 14.9572M30.9243 15.1218C31.0126 15.1218 31.0883 15.1978 31.0883 15.2864V18.9328C31.0883 19.0214 31.0126 19.0974 30.9243 19.0974M30.9243 15.1218C31.0126 15.1218 31.0883 15.0459 31.0883 14.9572V11.3109C31.0883 11.2222 31.0126 11.1463 30.9243 11.1463H27.6807C27.5923 11.1463 27.5166 11.2222 27.5166 11.3109M30.5961 9.85485H26.5448C26.4565 9.85485 26.3807 9.93081 26.3807 10.0194M27.6807 19.0974H30.9243M27.6807 19.0974C27.5923 19.0974 27.5166 19.1734 27.5166 19.262M27.6807 19.0974C27.5923 19.0974 27.5166 19.0214 27.5166 18.9328M30.9243 19.0974C31.0126 19.0974 31.0883 19.1734 31.0883 19.262V22.9084C31.0883 22.997 31.0126 23.073 30.9243 23.073H27.6807C27.5923 23.073 27.5166 22.997 27.5166 22.9084M27.5166 18.9328V15.2864M27.5166 18.9328C27.5166 19.0214 27.4409 19.0974 27.3525 19.0974M27.5166 15.2864C27.5166 15.1978 27.4409 15.1218 27.3525 15.1218M26.8729 18.9328V15.2864C26.8729 15.1978 26.7972 15.1218 26.7089 15.1218M26.8729 18.9328C26.8729 19.0214 26.7972 19.0974 26.7089 19.0974M26.8729 18.9328C26.8729 19.0214 26.9487 19.0974 27.037 19.0974M25.7371 23.7187H26.3807M26.0526 19.0974H26.7089M26.0526 19.0974C25.9642 19.0974 25.8885 19.0214 25.8885 18.9328V15.2864C25.8885 15.1978 25.9642 15.1218 26.0526 15.1218M26.0526 19.0974C25.9642 19.0974 25.8885 19.1734 25.8885 19.262V23.2375C25.8885 23.3262 25.9642 23.4021 26.0526 23.4021H26.7089C26.7972 23.4021 26.8729 23.3262 26.8729 23.2375V19.262C26.8729 19.1734 26.7972 19.0974 26.7089 19.0974M27.5166 22.9084V19.262M27.5166 22.9084C27.5166 22.9717 27.4788 23.035 27.4156 23.0603L26.772 23.3895M27.5166 19.262C27.5166 19.1734 27.4409 19.0974 27.3525 19.0974M26.8603 19.262C26.8603 19.1734 26.9361 19.0974 27.0244 19.0974H27.3525M26.8729 14.9572V10.9943C26.8729 10.9057 26.7972 10.8297 26.7089 10.8297H26.0526C25.9642 10.8297 25.8885 10.9057 25.8885 10.9943V14.9572C25.8885 15.0459 25.9642 15.1218 26.0526 15.1218M26.8729 14.9572C26.8729 15.0459 26.7972 15.1218 26.7089 15.1218M26.8729 14.9572C26.8729 15.0459 26.9487 15.1218 27.037 15.1218M27.5166 14.9572V11.3109M27.5166 14.9572C27.5166 15.0459 27.4409 15.1218 27.3525 15.1218M27.5166 11.3109C27.5166 11.2476 27.4788 11.1843 27.4156 11.1589L26.7846 10.8424M26.0526 15.1218H26.7089M26.8603 15.2864C26.8603 15.1978 26.9361 15.1218 27.0244 15.1218H27.3525M26.3807 10.8297V10.0068M3.96592 51.3703H7.39882M3.43584 50.8386V47.3948M7.65124 52.2693H3.06984C2.76693 52.2693 2.52713 52.0287 2.52713 51.7248M2.53976 51.7375V47.1416C2.53976 46.8377 2.77955 46.5971 3.08246 46.5971C3.1077 46.5971 3.14556 46.5971 3.1708 46.6098M7.65124 52.2819C7.67648 52.2819 7.71435 52.2693 7.73959 52.2693C8.02987 52.2186 8.2318 51.9401 8.18132 51.6489C7.76483 49.066 5.74548 47.0276 3.15818 46.6098M3.81447 50.9905L5.97265 48.8255M24.2225 70.3365H23.7934V61.0307H24.2478V70.3365V69.8048L24.5002 69.7288V61.6384L24.2478 61.5625M22.2663 78.2243C22.5187 78.908 22.7459 79.6044 22.9352 80.3134M21.6353 76.6797C20.6887 77.1988 19.6538 77.5407 18.581 77.6926M21.3702 76.2619C20.2469 76.0847 19.0858 76.2746 18.0888 76.8317C19.2499 76.5531 20.4489 76.5025 21.6226 76.6797M21.1809 76.0087C20.6256 75.6035 19.9945 75.3123 19.3256 75.1477C20.2217 75.0338 21.1304 75.3503 21.7741 75.9834C21.5595 75.1351 21.5343 74.2488 21.6984 73.3879C21.8751 74.2615 22.0391 75.1351 22.1653 76.0213M20.878 75.4389C21.0926 75.8947 21.3828 76.3126 21.7362 76.6671C21.3576 76.9456 20.9411 77.1988 20.512 77.4014C21.0168 77.3508 21.4964 77.1988 21.9382 76.9709C22.0896 77.4267 22.1906 77.8952 22.2537 78.3636C22.3546 77.8699 22.3673 77.3634 22.2789 76.8696C22.7585 76.8696 23.2255 76.9076 23.6925 76.9962M22.544 75.8188C23.1119 75.5276 23.5663 75.0718 23.8565 74.502C23.642 75.1604 23.2507 75.7428 22.7207 76.1859M23.6798 77.0089C23.2507 76.7557 22.7711 76.5911 22.2789 76.5151C22.4304 76.0593 22.6071 75.6162 22.8469 75.1984C22.4809 75.5402 22.178 75.9327 21.9508 76.3885C21.5595 76.11 21.2061 75.7934 20.878 75.4516M22.7207 76.1986C23.3012 76.1986 23.8565 76.0213 24.3361 75.6922C23.9323 76.1606 23.4022 76.4898 22.809 76.6291M22.3042 77.0469C22.91 77.7559 23.3643 78.5789 23.642 79.4778M22.4935 76.8696C23.1371 77.5913 23.541 78.5156 23.6294 79.4905M21.5974 77.1229C20.6634 77.6166 19.6159 77.8192 18.5684 77.7053M22.2032 78.0345C22.1275 77.8319 22.0391 77.6293 21.9634 77.4267C21.6479 78.1484 21.4333 78.9081 21.3071 79.693C21.1683 78.8068 21.2945 77.8952 21.6857 77.0849M22.3294 77.0849C22.7838 78.0978 22.9857 79.2119 22.9478 80.3261M23.0109 76.895C22.9731 77.0342 22.9226 77.1735 22.8342 77.2875M22.6449 77.4897C22.6071 77.5151 22.5692 77.5532 22.5187 77.5787M22.077 77.7306C22.0013 77.7433 21.9129 77.7433 21.8372 77.7306M21.4838 77.6166C21.3576 77.5533 21.244 77.452 21.143 77.3381M20.9663 77.0089C20.9159 76.8823 20.9032 76.743 20.9159 76.5911M21.0042 76.2239C21.0421 76.1353 21.1052 76.0467 21.1683 75.9707M21.4838 75.7175C21.5595 75.6794 21.6353 75.654 21.711 75.6286M22.1022 75.6033C22.2032 75.616 22.3042 75.6414 22.3925 75.6795M22.5566 75.7806C22.5693 75.7806 22.5693 75.7934 22.5821 75.7934M22.8595 76.072C22.8847 76.11 22.91 76.148 22.9226 76.1859M23.0362 76.5658C23.0362 76.6164 23.0362 76.6544 23.0362 76.705M30.0913 3.62562C30.6592 3.16983 31.2524 2.72669 31.8582 2.32154M28.1098 4.81576C27.7186 5.63872 27.7186 6.5883 28.1098 7.41127C28.0593 6.72757 28.135 6.03122 28.337 5.37285M29.8641 5.5501C29.536 5.20826 29.1826 4.90438 28.7913 4.62584C28.5768 5.08164 28.2739 5.48679 27.9079 5.82863C28.1224 5.41082 28.3117 4.9677 28.4506 4.5119C27.9584 4.44859 27.4788 4.284 27.037 4.04344M29.8767 5.56276C29.6622 5.10696 29.3719 4.68915 29.0059 4.3473C29.3845 4.0561 29.7884 3.81554 30.2175 3.6003C29.7253 3.66361 29.2457 3.81553 28.804 4.05609C28.6525 3.60029 28.5389 3.1445 28.4758 2.66339C28.3748 3.15717 28.3748 3.66361 28.4632 4.15739C27.9836 4.17005 27.5166 4.13206 27.0496 4.04343M30.7602 7.30998C30.2806 6.33508 29.6243 5.46148 28.8292 4.72714C29.0311 5.90461 29.4729 7.03143 30.1039 8.04432C29.2583 7.27199 28.703 6.2338 28.5137 5.10697M27.7186 4.13207C27.2642 3.68893 26.6963 3.41039 26.0652 3.3091C26.7594 3.29644 27.4283 3.48635 28.0215 3.85352M28.0341 4.43593C27.239 4.84108 26.4691 5.2589 25.6992 5.71469C26.5574 5.58808 27.3904 5.28422 28.1224 4.81576M28.0215 3.84086C27.8321 3.29644 27.4914 2.81531 27.0244 2.47347C27.5923 2.70136 28.0719 3.10652 28.4001 3.62562M28.968 3.96747C29.4476 3.16983 30.0787 2.47347 30.8359 1.92905C29.9525 2.32154 29.2078 2.99257 28.7282 3.84086M29.2583 4.61318C30.0156 5.33486 30.5456 6.27177 30.7728 7.30998M29.4224 4.17005C29.5865 4.03078 29.7505 3.8915 29.9272 3.75223M29.1952 4.53722C30.0787 4.65117 30.9874 4.48657 31.7825 4.06876C31 4.19537 30.2175 4.23336 29.435 4.17005M28.9806 3.94215C29.801 3.19515 30.7728 2.63806 31.8456 2.32154M28.5894 3.34695C28.7282 3.33424 28.8797 3.34695 29.0185 3.38506M29.2709 3.49871C29.3088 3.52412 29.3593 3.54953 29.3971 3.58764M29.6748 3.96747C29.7127 4.04344 29.7379 4.1194 29.7505 4.19537M29.7631 4.5752C29.7379 4.72713 29.6874 4.85375 29.6117 4.98036M29.3593 5.2589C29.2457 5.34752 29.1195 5.41082 28.9933 5.44881M28.5894 5.47414C28.4884 5.46143 28.4001 5.43602 28.2991 5.39791M27.971 5.18293C27.9079 5.13228 27.8574 5.06898 27.8195 4.99302M27.6681 4.62584C27.6428 4.52455 27.6428 4.42327 27.6554 4.32198M27.6807 4.13207C27.6807 4.11924 27.6807 4.10641 27.6934 4.10641M27.8574 3.75223C27.8826 3.71425 27.9079 3.68893 27.9457 3.65095M28.2739 3.43571C28.3117 3.42301 28.3622 3.39759 28.4001 3.38489M3.29701 22.7818L3.19605 23.0476L3.14556 23.4528C3.14556 23.4528 3.22129 23.668 3.20867 23.6807C3.19605 23.706 2.8048 24.2251 2.8048 24.2251L2.48927 24.8835L2.40093 25.4659L2.43879 25.6431L2.60286 25.276L2.96887 24.6429L3.43584 24.0352L3.6504 24.2251L3.53681 25.0481L3.56205 25.7571L3.73875 26.5927L3.92806 27.0359L3.87758 26.2509L3.8902 25.6431L3.94068 24.9594L4.02903 24.3517L4.44552 24.3391L4.54649 24.6936L4.7358 25.5419L4.88725 26.6434L4.98822 25.5672L4.89987 24.6556C4.89987 24.6556 4.77366 24.1998 4.79891 24.1998C4.82415 24.1998 5.11443 23.8959 5.11443 23.8959L5.93479 24.1871L6.69205 24.3137L6.95709 24.2631L6.08624 23.9339L5.26588 23.5541L5.29112 23.3135L5.80858 23.1869M3.29701 22.7818L2.94363 22.326L3.3475 22.5539L3.4106 22.5159L3.08246 21.9208L2.57762 21.3764L3.03197 21.6169L3.51157 22.0601L3.86496 22.4526L3.87758 22.0094L3.77661 21.4523L3.63778 20.9586L3.99117 21.4903L4.18048 21.9588L4.28145 22.4146L4.71056 21.6929L4.58435 22.3006M3.29701 22.7818C3.29701 22.8071 3.28439 22.8197 3.27177 22.8451C3.25915 22.8577 3.25915 22.8704 3.24653 22.8957C3.1708 23.1109 3.14556 23.3388 3.19605 23.5667C3.20867 23.6174 3.22129 23.6554 3.23391 23.6933M4.58435 22.3006L4.95036 22.5159M4.58435 22.3006C4.72318 22.3513 4.84939 22.4272 4.95036 22.5159M4.95036 22.5159L5.40471 22.3006L5.85907 22.1487L7.00757 21.9714C7.00757 21.9714 5.96003 22.3006 5.96003 22.3133C5.96003 22.3259 5.13967 22.7184 5.13967 22.7184L5.19016 22.8451L5.87169 22.7311L6.70467 22.6551L7.77745 22.7311L7.04544 22.921L5.80858 23.1869M5.80858 23.1869C6.51535 23.0097 7.23475 22.8704 7.95414 22.7564M3.24653 23.6933C2.71645 24.2504 2.42617 24.9974 2.42617 25.7697C2.66597 25.124 3.03197 24.529 3.48633 24.0225M4.86201 26.808C4.83677 25.7191 4.60959 24.6429 4.20572 23.6427C3.8902 24.7949 3.80185 25.9976 3.9533 27.1878C3.52419 26.1243 3.44846 24.9595 3.76399 23.8579M3.46109 22.6425C3.23391 22.0474 2.84266 21.541 2.31258 21.1865C2.94363 21.4777 3.47371 21.9335 3.85233 22.5032M4.76104 21.6296C4.45814 22.0348 4.24358 22.4905 4.11737 22.9717C3.68826 22.7691 3.27177 22.5412 2.88052 22.2626C3.1708 22.6678 3.53681 23.0096 3.9533 23.2882C3.63778 23.6427 3.28439 23.9592 2.89314 24.2504C3.37274 24.0985 3.81447 23.8579 4.20572 23.5414C4.44552 23.9592 4.63483 24.3897 4.78629 24.8455C4.78629 24.3391 4.69794 23.8453 4.52125 23.3768C4.98822 23.2755 5.4552 23.2249 5.93479 23.2249C5.4552 23.0603 4.96298 22.997 4.45814 23.0223C4.50862 22.5539 4.60959 22.0854 4.74842 21.6296M3.83971 22.5032C3.90282 21.9208 3.80185 21.3384 3.52419 20.8319C3.94068 21.2877 4.20572 21.8448 4.28145 22.4526M4.64745 23.0223C5.41733 22.5032 6.28818 22.136 7.20951 21.9714M4.496 22.8071C5.29112 22.2373 6.23769 21.9461 7.22213 21.9714M4.63483 23.7187C5.01346 24.7062 5.08919 25.7698 4.86201 26.7953M5.60665 23.2375C5.39209 23.2882 5.19016 23.3388 4.9756 23.4021C5.65713 23.7946 6.38915 24.0985 7.1464 24.3137C6.25032 24.3517 5.36685 24.1112 4.60959 23.63M4.68532 22.997C5.74548 22.6678 6.86874 22.5792 7.96676 22.7564M5.12705 22.7311C5.15229 22.7691 5.17753 22.8197 5.20278 22.8577M5.30374 23.3135C5.30374 23.3895 5.29112 23.4781 5.2785 23.5541M5.11443 23.9086C5.02608 24.0352 4.92512 24.1365 4.79891 24.2124M4.45814 24.3516C4.31931 24.377 4.18048 24.3897 4.04165 24.3643M3.67564 24.2124C3.58729 24.1618 3.51157 24.0985 3.44846 24.0225M3.42322 22.6172C3.43597 22.6043 3.43597 22.6043 3.44872 22.5915M3.73875 22.3513C3.77661 22.3259 3.81447 22.3132 3.85233 22.3005M4.24358 22.2373C4.29407 22.2373 4.33193 22.2373 4.38241 22.25M59.9398 44.5714V26.5547M59.9398 1.24535H60.2301V0.194485M59.9398 1.24535V26.2255M59.9398 1.24535V0.194485H60.2301M59.9398 26.5547H60.5709V26.2255H59.9398M59.9398 26.5547H43.3938V26.2255H59.9398M59.9398 26.5547V26.2255M25.6487 45.6222H48.9218V44.5587H44.3025M25.6487 45.6222V44.5714H24.9167M25.6487 45.6222H24.9167M24.9167 44.5714V44.5587M24.9167 44.5714V45.6222M24.9167 44.5587H43.9743M24.9167 44.5587V34.1767M43.9743 44.5587V44.9006H44.3025V44.5587M43.9743 44.5587H44.3025M43.9743 44.5587V34.1767M40.1881 1.20736V1.24535H45.1733V1.20736M40.1881 1.20736V0.232465M40.1881 1.20736H27.9331M40.1881 0.232465V0.181825H45.1733V0.232465M40.1881 0.232465H27.9331M45.1733 0.232465V1.20736M25.2575 1.24535H27.9331V1.20736M27.9331 1.20736V0.232465M24.1973 6.89216H25.2322V7.7911M24.1973 6.89216H20.4994V6.91749M25.2322 7.7911H24.9293V7.95569M24.9293 7.95569V27.5043M20.4994 6.91749V7.89239M20.4994 6.91749H6.46487M20.4994 7.89239H6.46487M2.06016 7.93037H6.46487V7.89239M2.06016 7.93037V6.99345H1.01262M2.06016 7.93037H1.01262V6.99345M2.06016 7.93037V37.0127M1.01262 6.99345V6.86684H6.46487V6.91749M6.46487 6.91749V7.89239M2.06016 92.9237V53.0796M2.06016 92.9237H6.59108V92.9745M2.06016 37.0127H1.63105V37.3419H2.06016M2.06016 37.0127V37.3419M2.06016 37.0127H18.1266M2.06016 37.3419V52.7504M2.06016 37.3419H18.4674V37.0127H18.4548M2.06016 52.7504H1.63105V53.0796H2.06016M2.06016 52.7504H10.5919V53.0796H2.06016M2.06016 52.7504V53.0796M18.4548 37.0127V32.9865H18.1266V37.0127M18.4548 37.0127H18.1266M15.8422 52.7504V42.7988H15.5141V52.7504M15.8422 52.7504H15.5141M24.5886 52.7504V53.0796M24.5886 52.7504H23.9701V53.0796H24.5886M24.5886 52.7504H25.5982V53.0796H24.5886M24.5886 53.0796V92.9365M24.5886 92.9365H19.8052V92.9745M6.59108 92.9745V93.9494M6.59108 92.9745H19.8052M6.59108 93.9494H19.8052M19.8052 93.9494V92.9745M33.6756 13.4632V20.5661C33.6756 20.642 33.764 20.7053 33.8776 20.7053H36.8561C36.9697 20.7053 37.0581 20.642 37.0581 20.5661V13.4506C37.0581 13.3746 36.9697 13.3113 36.8561 13.3113H33.8776C33.764 13.3113 33.6756 13.3746 33.6756 13.4632ZM4.07951 60.2457H3.05721C2.66597 60.2457 2.33782 59.9292 2.33782 59.524V58.4985C2.33782 58.106 2.65334 57.7768 3.05721 57.7768H4.07951C4.47076 57.7768 4.79891 58.0933 4.79891 58.4985V59.524C4.78629 59.9292 4.47076 60.2457 4.07951 60.2457ZM4.07951 73.5904H3.05721C2.66597 73.5904 2.33782 73.2739 2.33782 72.8688V71.8432C2.33782 71.4507 2.65334 71.1215 3.05721 71.1215H4.07951C4.47076 71.1215 4.79891 71.4381 4.79891 71.8432V72.8688C4.78629 73.2739 4.47076 73.5904 4.07951 73.5904ZM3.38536 71.0456H15.8044C16.3976 71.0456 16.8772 70.5644 16.8772 69.9694V61.3852C16.8772 60.7901 16.3976 60.309 15.8044 60.309H3.38536C2.79217 60.309 2.31258 60.7901 2.31258 61.3852V69.9694C2.31258 70.5644 2.79217 71.0456 3.38536 71.0456ZM3.28439 59.0303C3.28439 58.8783 3.4106 58.7517 3.56205 58.7517C3.7135 58.7517 3.83971 58.8783 3.83971 59.0303C3.83971 59.1822 3.7135 59.3088 3.56205 59.3088C3.4106 59.3088 3.28439 59.1822 3.28439 59.0303ZM2.89314 59.0303C2.89314 58.6631 3.19605 58.3592 3.56205 58.3592C3.92806 58.3592 4.23096 58.6631 4.23096 59.0303C4.23096 59.3974 3.92806 59.7013 3.56205 59.7013C3.19605 59.7013 2.89314 59.3974 2.89314 59.0303ZM3.44846 59.0303C3.44846 58.967 3.49895 58.9163 3.56205 58.9163C3.62516 58.9163 3.67564 58.967 3.67564 59.0303C3.67564 59.0936 3.62516 59.1442 3.56205 59.1442C3.49895 59.1442 3.44846 59.0936 3.44846 59.0303ZM3.28439 72.3497C3.28439 72.1977 3.4106 72.0711 3.56205 72.0711C3.7135 72.0711 3.83971 72.1977 3.83971 72.3497C3.83971 72.5016 3.7135 72.6282 3.56205 72.6282C3.4106 72.6282 3.28439 72.5016 3.28439 72.3497ZM2.89314 72.3497C2.89314 71.9825 3.19605 71.6786 3.56205 71.6786C3.92806 71.6786 4.23096 71.9825 4.23096 72.3497C4.23096 72.7168 3.92806 73.0207 3.56205 73.0207C3.19605 73.0207 2.89314 72.7168 2.89314 72.3497ZM3.44846 72.3497C3.44846 72.2863 3.49895 72.2357 3.56205 72.2357C3.62516 72.2357 3.67564 72.2863 3.67564 72.3497C3.67564 72.413 3.62516 72.4636 3.56205 72.4636C3.49895 72.4636 3.44846 72.413 3.44846 72.3497ZM3.66302 70.7797H15.5141C16.1073 70.7797 16.5869 70.2986 16.5869 69.7035V61.6638C16.5869 61.0687 16.1073 60.5876 15.5141 60.5876H3.66302C3.06984 60.5876 2.59024 61.0687 2.59024 61.6638V69.7035C2.59024 70.2986 3.06984 70.7797 3.66302 70.7797ZM24.0837 27.441H18.7955C18.4043 27.441 18.0761 27.1245 18.0761 26.7193V25.6938C18.0761 25.3013 18.3917 24.9721 18.7955 24.9721H24.0837C24.475 24.9721 24.8031 25.2886 24.8031 25.6938V26.7193C24.8031 27.1118 24.475 27.441 24.0837 27.441ZM21.3324 26.2255C21.3324 26.0736 21.4586 25.947 21.61 25.947C21.7615 25.947 21.8877 26.0736 21.8877 26.2255C21.8877 26.3775 21.7615 26.5041 21.61 26.5041C21.4459 26.5041 21.3324 26.3775 21.3324 26.2255ZM21.4838 26.2255C21.4838 26.1622 21.5343 26.1116 21.5974 26.1116C21.6605 26.1116 21.711 26.1622 21.711 26.2255C21.711 26.2889 21.6605 26.3395 21.5974 26.3395C21.5343 26.3395 21.4838 26.2889 21.4838 26.2255ZM26.5196 34.3286H27.6807C28.4884 34.3286 29.1573 34.987 29.1573 35.8099V43.0014C29.1573 43.8117 28.501 44.4827 27.6807 44.4827H26.5196C25.7118 44.4827 25.0429 43.8244 25.0429 43.0014V35.8099C25.0429 34.987 25.6992 34.3286 26.5196 34.3286ZM27.0749 43.2293C27.0244 43.2293 26.9739 43.1787 26.9739 43.128C26.9739 43.0647 27.0118 43.0267 27.0749 43.0267C27.1254 43.0267 27.1759 43.0774 27.1759 43.128C27.1759 43.1913 27.1254 43.2293 27.0749 43.2293ZM20.3858 85.9223C19.8431 85.783 19.2878 86.0995 19.1363 86.6439C18.9975 87.1884 19.313 87.7455 19.8557 87.8974C20.3984 88.0367 20.9537 87.7201 21.1052 87.1757C21.2566 86.6313 20.9285 86.0615 20.3858 85.9223ZM19.4266 85.6944C18.7577 86.0869 18.5305 86.9478 18.9217 87.6188C18.9596 87.6821 19.0353 87.6948 19.0984 87.6695C19.1615 87.6315 19.1742 87.5555 19.1489 87.4922C18.8334 86.9351 19.0101 86.2388 19.5654 85.9096C19.6285 85.8716 19.6411 85.7957 19.6159 85.7324C19.5654 85.669 19.4771 85.6564 19.4266 85.6944ZM20.1965 82.086V91.6577C20.1965 92.2528 20.6761 92.7339 21.2692 92.7339H23.3012C23.8944 92.7339 24.374 92.2528 24.374 91.6577V82.0986C24.374 81.5036 23.8944 81.0225 23.3012 81.0225H21.2692C20.6761 81.0098 20.1965 81.4909 20.1965 82.086ZM20.8023 89.7839L21.2314 87.0364C21.244 86.9731 21.2945 86.9351 21.345 86.9478L21.9886 87.0491C22.0391 87.0618 22.077 87.1124 22.0644 87.1757L21.6353 89.9232C21.6226 89.9865 21.5721 90.0244 21.5217 90.0118L20.878 89.9105C20.8275 89.8978 20.7896 89.8472 20.8023 89.7839ZM6.04838 15.0459C6.59108 15.1851 7.1464 14.8433 7.27261 14.2989C7.41144 13.7544 7.07068 13.1974 6.52798 13.0707C5.98528 12.9315 5.42995 13.2733 5.30374 13.8177C5.16491 14.3622 5.50568 14.9066 6.04838 15.0459ZM7.02019 15.2484C7.6891 14.8433 7.89104 13.9697 7.48717 13.3113C7.44931 13.248 7.37358 13.2353 7.31048 13.2733C7.24737 13.3113 7.23475 13.3873 7.27261 13.4506C7.60076 13.995 7.43668 14.704 6.89398 15.0332C6.83088 15.0712 6.81826 15.1472 6.85612 15.2105C6.88136 15.2738 6.95709 15.2864 7.02019 15.2484ZM2.19899 8.29754V8.43681C2.19899 8.46214 2.18637 8.47479 2.18637 8.50011V18.591C2.18637 18.7555 2.31258 18.8822 2.47665 18.8822H5.74548C5.90955 18.8822 6.03576 18.7555 6.03576 18.591V10.5639H10.6172C10.7812 10.5639 10.9074 10.4373 10.9074 10.2727V8.29754C10.9074 8.13294 10.7812 8.00634 10.6172 8.00634H2.50189C2.33782 7.99367 2.19899 8.13294 2.19899 8.29754ZM5.17753 12.9948L5.01346 14.628C4.98822 14.8306 4.82415 14.9699 4.62221 14.9446L3.72613 14.856C3.52419 14.8306 3.38536 14.666 3.4106 14.4635L3.57467 12.8302C3.59992 12.6276 3.76399 12.4883 3.96592 12.5137L4.86201 12.6023C5.06395 12.6276 5.20278 12.8049 5.17753 12.9948ZM4.50862 13.0201L4.36979 14.4761C4.35717 14.6407 4.20572 14.7547 4.04165 14.742L3.85233 14.7167C3.68826 14.704 3.57467 14.5521 3.58729 14.3875L3.72613 12.9315C3.73875 12.7669 3.8902 12.6529 4.05427 12.6656L4.24358 12.6909C4.39504 12.7162 4.52125 12.8555 4.50862 13.0201ZM5.01346 13.5392L4.96298 14.071C4.95036 14.1596 4.87463 14.2229 4.78629 14.2229L4.68532 14.2102C4.59697 14.1976 4.53387 14.1216 4.53387 14.033L4.58435 13.5012C4.59697 13.4126 4.6727 13.3493 4.76104 13.3493L4.86201 13.3619C4.96298 13.3619 5.02608 13.4506 5.01346 13.5392ZM24.0711 10.5765H18.8082C18.4169 10.5765 18.0888 10.893 18.0888 11.2982V24.1112C18.0888 24.5036 18.4043 24.8328 18.8082 24.8328H24.0711C24.4623 24.8328 24.7905 24.5163 24.7905 24.1112V11.2982C24.7905 10.893 24.475 10.5765 24.0711 10.5765ZM23.8692 10.8424H19.0227C18.6315 10.8424 18.3033 11.1589 18.3033 11.5641V23.8706C18.3033 24.2631 18.6188 24.5923 19.0227 24.5923H23.8692C24.2604 24.5923 24.5886 24.2757 24.5886 23.8706V11.5641C24.5886 11.1716 24.2604 10.8424 23.8692 10.8424ZM44.4413 44.3561H48.4548V33.7715H44.4413L44.4413 44.3561ZM48.1897 41.9379V41.9632C48.1897 41.9885 48.1519 42.0138 48.114 42.0138H44.8073C44.7695 42.0138 44.7316 41.9885 44.7316 41.9632V41.9252C44.7316 41.8999 44.7695 41.8746 44.8073 41.8746H48.114C48.1519 41.8872 48.1897 41.8999 48.1897 41.9379ZM48.1897 44.0902V44.1282C48.1897 44.1536 48.1519 44.1789 48.1014 44.1789L44.8073 43.9763C44.7695 43.9763 44.7316 43.951 44.7442 43.9257V43.8877C44.7442 43.8624 44.7821 43.837 44.8326 43.837L48.1266 44.0396C48.1645 44.0396 48.1897 44.0649 48.1897 44.0902ZM48.1771 42.6342L48.1645 42.6722C48.1519 42.6975 48.114 42.7229 48.0761 42.7102L44.8073 42.381C44.7695 42.381 44.7316 42.3557 44.7442 42.3177L44.7568 42.2797C44.7695 42.2544 44.8073 42.2291 44.8452 42.2417L48.114 42.5709C48.1519 42.5836 48.1771 42.6089 48.1771 42.6342ZM48.1897 42.9887V43.0267C48.1897 43.052 48.1519 43.0774 48.114 43.0774L44.8073 43.0141C44.7695 43.0141 44.7316 42.9887 44.7316 42.9634V42.9254C44.7316 42.9001 44.7695 42.8748 44.8073 42.8748L48.114 42.9381C48.1645 42.9254 48.1897 42.9508 48.1897 42.9887ZM48.1897 43.5712V43.6091C48.1897 43.6345 48.1519 43.6598 48.114 43.6598H44.8073C44.7695 43.6598 44.7316 43.6345 44.7316 43.6091V43.5712C44.7316 43.5458 44.7695 43.5205 44.8073 43.5205H48.114C48.1519 43.5205 48.1897 43.5458 48.1897 43.5712ZM44.7316 39.3424V39.3804C44.7316 39.4057 44.7695 39.431 44.8073 39.431H48.114C48.1519 39.431 48.1897 39.4057 48.1897 39.3804V39.3424C48.1897 39.317 48.1519 39.2917 48.114 39.2917H44.8073C44.7695 39.2917 44.7316 39.3044 44.7316 39.3424ZM44.7316 41.4314V41.4694C44.7316 41.4947 44.7695 41.5201 44.8073 41.5201L48.114 41.4441C48.1519 41.4441 48.1897 41.4188 48.1897 41.3935V41.3555C48.1897 41.3301 48.1519 41.3048 48.114 41.3048L44.8073 41.3808C44.7695 41.3808 44.7316 41.4061 44.7316 41.4314ZM44.7442 39.9754V40.0134C44.7442 40.0387 44.7821 40.064 44.8326 40.064L48.1266 39.8615C48.1645 39.8615 48.2024 39.8361 48.1897 39.8108V39.7728C48.1897 39.7475 48.1519 39.7222 48.1014 39.7222L44.8073 39.9248C44.7695 39.9248 44.7316 39.9501 44.7442 39.9754ZM44.7442 40.4692V40.5072C44.7442 40.5325 44.7821 40.5578 44.8326 40.5578L48.1266 40.3426C48.1645 40.3426 48.2024 40.3173 48.1897 40.2919V40.254C48.1897 40.2286 48.1519 40.2033 48.1014 40.2033L44.8073 40.4186C44.7695 40.4186 44.7316 40.4439 44.7442 40.4692ZM44.7316 40.9756V41.0136C44.7316 41.0389 44.7695 41.0643 44.8073 41.0643H48.114C48.1519 41.0643 48.1897 41.0389 48.1897 41.0136V40.9756C48.1897 40.9503 48.1519 40.925 48.114 40.925H44.8073C44.7695 40.925 44.7316 40.9503 44.7316 40.9756ZM44.7063 36.1898V36.1518C44.7063 36.1265 44.7442 36.1011 44.7821 36.1011H48.0888C48.1266 36.1011 48.1645 36.1265 48.1645 36.1518V36.1898C48.1645 36.2151 48.1266 36.2404 48.0888 36.2404H44.7821C44.7442 36.2404 44.7063 36.2278 44.7063 36.1898ZM44.719 34.0374V33.9994C44.719 33.9741 44.7568 33.9488 44.8073 33.9488L48.1014 34.1513C48.1393 34.1513 48.1771 34.1767 48.1645 34.202V34.24C48.1645 34.2653 48.1266 34.2906 48.0761 34.2906L44.7821 34.088C44.7442 34.088 44.7064 34.0627 44.719 34.0374ZM44.719 35.4934L44.7316 35.4554C44.7442 35.4301 44.7821 35.4048 44.8199 35.4175L48.0888 35.7466C48.1266 35.7466 48.1645 35.772 48.1519 35.8099L48.1393 35.8479C48.1266 35.8733 48.0888 35.8986 48.0509 35.8859L44.7821 35.5567C44.7442 35.5441 44.719 35.5187 44.719 35.4934ZM44.7063 35.1516V35.1136C44.7063 35.0883 44.7442 35.0629 44.7821 35.0629L48.0888 35.1262C48.1266 35.1262 48.1645 35.1516 48.1645 35.1769V35.2149C48.1645 35.2402 48.1266 35.2655 48.0888 35.2655L44.7821 35.2022C44.7442 35.2022 44.7063 35.1769 44.7063 35.1516ZM44.7063 34.5565V34.5185C44.7063 34.4932 44.7442 34.4679 44.7821 34.4679H48.0888C48.1266 34.4679 48.1645 34.4932 48.1645 34.5185V34.5565C48.1645 34.5818 48.1266 34.6071 48.0888 34.6071H44.7821C44.7442 34.6071 44.7063 34.5818 44.7063 34.5565ZM48.1645 38.7853V38.7473C48.1645 38.722 48.1266 38.6967 48.0888 38.6967H44.7821C44.7442 38.6967 44.7063 38.722 44.7063 38.7473V38.7853C44.7063 38.8106 44.7442 38.8359 44.7821 38.8359H48.0888C48.1392 38.8359 48.1645 38.8233 48.1645 38.7853ZM48.1645 36.6962V36.6582C48.1645 36.6329 48.1266 36.6076 48.0888 36.6076L44.7821 36.6836C44.7442 36.6836 44.7063 36.7089 44.7063 36.7342V36.7722C44.7063 36.7975 44.7442 36.8228 44.7821 36.8228L48.0888 36.7469C48.1392 36.7469 48.1645 36.7215 48.1645 36.6962ZM48.1645 38.1522V38.1143C48.1645 38.0889 48.1266 38.0636 48.0761 38.0636L44.7821 38.2662C44.7442 38.2662 44.7064 38.2915 44.719 38.3168V38.3548C44.719 38.3801 44.7568 38.4054 44.8073 38.4054L48.1014 38.2029C48.1393 38.2029 48.1645 38.1776 48.1645 38.1522ZM48.1645 37.6585V37.6205C48.1645 37.5951 48.1266 37.5698 48.0761 37.5698L44.7821 37.7851C44.7442 37.7851 44.7064 37.8104 44.719 37.8357V37.8737C44.719 37.899 44.7568 37.9243 44.8073 37.9243L48.1014 37.7091C48.1393 37.7218 48.1645 37.6964 48.1645 37.6585ZM48.1645 37.152V37.114C48.1645 37.0887 48.1266 37.0634 48.0888 37.0634H44.7821C44.7442 37.0634 44.7063 37.0887 44.7063 37.114V37.152C44.7063 37.1773 44.7442 37.2027 44.7821 37.2027H48.0888C48.1392 37.2027 48.1645 37.1773 48.1645 37.152ZM14.3656 33.3157H14.4161C14.4539 33.3157 14.4918 33.3537 14.4918 33.3917V36.5443C14.4918 36.5823 14.4539 36.6202 14.4161 36.6202H14.3656C14.3277 36.6202 14.2899 36.5823 14.2899 36.5443V33.3917C14.2899 33.3537 14.3277 33.3157 14.3656 33.3157ZM17.5965 33.3157H17.647C17.6849 33.3157 17.7228 33.3537 17.7101 33.3917L17.4072 36.5316C17.4072 36.5696 17.3694 36.5949 17.3189 36.5949H17.2684C17.2305 36.5949 17.1927 36.5569 17.2053 36.519L17.5082 33.379C17.5082 33.341 17.5461 33.3157 17.5965 33.3157ZM15.4257 33.3284L15.4762 33.341C15.5141 33.341 15.552 33.379 15.5393 33.4297L15.0471 36.5569C15.0345 36.5949 14.9966 36.6202 14.9588 36.6202L14.9083 36.6076C14.8704 36.6076 14.8326 36.5696 14.8452 36.519L15.3374 33.3917C15.3374 33.3537 15.3879 33.3284 15.4257 33.3284ZM15.9432 33.3157H15.9937C16.0316 33.3157 16.0694 33.3537 16.0694 33.3917L15.9684 36.5443C15.9684 36.5823 15.9306 36.6202 15.8927 36.6202H15.8422C15.8044 36.6202 15.7665 36.5823 15.7665 36.5443L15.8675 33.3917C15.8549 33.341 15.8927 33.3157 15.9432 33.3157ZM16.8141 33.3157H16.8645C16.9024 33.3157 16.9403 33.3537 16.9403 33.3917V36.5443C16.9403 36.5823 16.9024 36.6202 16.8645 36.6202H16.8141C16.7762 36.6202 16.7383 36.5823 16.7383 36.5443V33.3917C16.7383 33.3537 16.7762 33.3157 16.8141 33.3157ZM10.491 36.6202H10.5414C10.5793 36.6202 10.6172 36.5823 10.6172 36.5443V33.3917C10.6172 33.3537 10.5793 33.3157 10.5414 33.3157H10.491C10.4531 33.3157 10.4152 33.3537 10.4152 33.3917V36.5443C10.4152 36.5823 10.4531 36.6202 10.491 36.6202ZM13.621 36.6202H13.6714C13.7093 36.6202 13.7472 36.5823 13.7472 36.5443L13.6336 33.3917C13.6336 33.3537 13.5957 33.3157 13.5578 33.3157H13.5074C13.4695 33.3157 13.4316 33.3537 13.4316 33.3917L13.5452 36.5443C13.5452 36.5823 13.5831 36.6202 13.621 36.6202ZM11.4501 36.6076H11.5006C11.5385 36.6076 11.5764 36.5696 11.5637 36.5316L11.2608 33.3917C11.2608 33.3537 11.223 33.3284 11.1725 33.3284H11.122C11.0841 33.3284 11.0463 33.3664 11.0589 33.4043L11.3618 36.5443C11.3618 36.5823 11.3997 36.6203 11.4501 36.6076ZM12.1822 36.6076H12.2326C12.2705 36.6076 12.3084 36.5696 12.2958 36.5316L11.9676 33.3917C11.9676 33.3537 11.9297 33.3284 11.8793 33.3284H11.8288C11.7909 33.3284 11.753 33.3664 11.7657 33.4043L12.0938 36.5443C12.0938 36.5823 12.1317 36.6203 12.1822 36.6076ZM12.9394 36.6202H12.9899C13.0278 36.6202 13.0656 36.5823 13.0656 36.5443V33.3917C13.0656 33.3537 13.0278 33.3157 12.9899 33.3157H12.9394C12.9016 33.3157 12.8637 33.3537 12.8637 33.3917V36.5443C12.8637 36.5823 12.9016 36.6202 12.9394 36.6202ZM5.79596 36.6456H5.74548C5.70761 36.6456 5.66975 36.6076 5.66975 36.5696V33.417C5.66975 33.379 5.70761 33.341 5.74548 33.341H5.79596C5.83382 33.341 5.87169 33.379 5.87169 33.417V36.5696C5.87169 36.6076 5.83382 36.6456 5.79596 36.6456ZM2.57762 36.6329H2.52714C2.48927 36.6329 2.45141 36.5949 2.46403 36.5569L2.76693 33.417C2.76693 33.379 2.8048 33.3537 2.85528 33.3537H2.90576C2.94363 33.3537 2.98149 33.3917 2.96887 33.4297L2.66597 36.5696C2.65334 36.6076 2.61548 36.6456 2.57762 36.6329ZM4.74842 36.6329L4.69794 36.6202C4.66008 36.6202 4.62221 36.5823 4.63483 36.5316L5.12705 33.4043C5.12705 33.3664 5.17753 33.341 5.2154 33.341L5.26588 33.3537C5.30374 33.3537 5.34161 33.3917 5.32899 33.4423L4.83677 36.5696C4.82415 36.6076 4.78629 36.6329 4.74842 36.6329ZM4.23096 36.6456H4.18048C4.14262 36.6456 4.10475 36.6076 4.10475 36.5696L4.20572 33.417C4.20572 33.379 4.24358 33.341 4.28145 33.341H4.33193C4.36979 33.341 4.40766 33.379 4.40766 33.417L4.30669 36.5696C4.30669 36.6076 4.26883 36.6456 4.23096 36.6456ZM3.3475 36.6456H3.29701C3.25915 36.6456 3.22129 36.6076 3.22129 36.5696V33.417C3.22129 33.379 3.25915 33.341 3.29701 33.341H3.3475C3.38536 33.341 3.42322 33.379 3.42322 33.417V36.5696C3.42322 36.6076 3.39798 36.6456 3.3475 36.6456ZM9.67059 33.341H9.62011C9.58225 33.341 9.54438 33.379 9.54438 33.417V36.5696C9.54438 36.6076 9.58225 36.6456 9.62011 36.6456H9.67059C9.70846 36.6456 9.74632 36.6076 9.74632 36.5696V33.417C9.74632 33.3664 9.72108 33.341 9.67059 33.341ZM6.55322 33.341H6.50273C6.46487 33.341 6.42701 33.379 6.42701 33.417L6.5406 36.5696C6.5406 36.6076 6.57846 36.6456 6.61632 36.6456H6.66681C6.70467 36.6456 6.74253 36.6076 6.74253 36.5696L6.62894 33.417C6.62894 33.3664 6.59108 33.341 6.55322 33.341ZM8.72402 33.341H8.67354C8.63567 33.341 8.59781 33.379 8.61043 33.417L8.91334 36.5569C8.91334 36.5949 8.9512 36.6202 9.00168 36.6202H9.05217C9.09003 36.6202 9.12789 36.5823 9.11527 36.5443L8.81237 33.4043C8.79975 33.3664 8.76188 33.341 8.72402 33.341ZM7.99201 33.341H7.94152C7.90366 33.341 7.8658 33.379 7.87842 33.417L8.20656 36.5569C8.20656 36.5949 8.24443 36.6202 8.29491 36.6202H8.34539C8.38326 36.6202 8.42112 36.5823 8.4085 36.5443L8.06773 33.4043C8.06773 33.3664 8.02987 33.341 7.99201 33.341ZM7.23475 33.341H7.18427C7.1464 33.341 7.10854 33.379 7.10854 33.417V36.5696C7.10854 36.6076 7.1464 36.6456 7.18427 36.6456H7.23475C7.27261 36.6456 7.31048 36.6076 7.31048 36.5696V33.417C7.31048 33.3664 7.27261 33.341 7.23475 33.341ZM2.46403 80.592V80.5413C2.46403 80.5034 2.50189 80.4654 2.53976 80.4654H5.68237C5.72024 80.4654 5.7581 80.5034 5.7581 80.5413V80.592C5.7581 80.63 5.72024 80.6679 5.68237 80.6679H2.53976C2.50189 80.6679 2.46403 80.63 2.46403 80.592ZM2.46403 77.3634V77.3128C2.46403 77.2748 2.50189 77.2368 2.53976 77.2495L5.66975 77.5533C5.70761 77.5533 5.73286 77.5913 5.73286 77.642V77.6926C5.73286 77.7306 5.69499 77.7686 5.65713 77.7559L2.52713 77.452C2.48927 77.4394 2.46403 77.4014 2.46403 77.3634ZM2.47665 79.5411L2.48927 79.4905C2.48927 79.4525 2.52714 79.4145 2.57762 79.4272L5.69499 79.9209C5.73286 79.9336 5.7581 79.9716 5.7581 80.0096L5.74548 80.0602C5.74548 80.0982 5.70761 80.1362 5.65713 80.1235L2.53976 79.6297C2.50189 79.6171 2.47665 79.5791 2.47665 79.5411ZM2.46403 79.022V78.9714C2.46403 78.9334 2.50189 78.8954 2.53976 78.8954L5.68237 78.9967C5.72024 78.9967 5.7581 79.0347 5.7581 79.0727V79.1233C5.7581 79.1613 5.72024 79.1993 5.68237 79.1993L2.53976 79.098C2.48927 79.098 2.46403 79.06 2.46403 79.022ZM2.46403 78.1357V78.0851C2.46403 78.0471 2.50189 78.0091 2.53976 78.0091H5.68237C5.72024 78.0091 5.7581 78.0471 5.7581 78.0851V78.1357C5.7581 78.1737 5.72024 78.2117 5.68237 78.2117H2.53976C2.50189 78.2117 2.46403 78.1864 2.46403 78.1357ZM5.7581 84.4789V84.4283C5.7581 84.3903 5.72024 84.3523 5.68237 84.3523H2.53976C2.50189 84.3523 2.46403 84.3903 2.46403 84.4283V84.4789C2.46403 84.5169 2.50189 84.5549 2.53976 84.5549H5.68237C5.72024 84.5549 5.7581 84.5296 5.7581 84.4789ZM5.7581 81.3516V81.301C5.7581 81.263 5.72024 81.225 5.68237 81.225L2.53976 81.339C2.50189 81.339 2.46403 81.377 2.46403 81.4149V81.4656C2.46403 81.5036 2.50189 81.5416 2.53976 81.5416L5.68237 81.4276C5.73286 81.4276 5.7581 81.3896 5.7581 81.3516ZM5.7581 83.5293V83.4787C5.7581 83.4407 5.72024 83.4027 5.68237 83.4154L2.55238 83.7193C2.51451 83.7193 2.48927 83.7572 2.48927 83.8079V83.8585C2.48927 83.8965 2.52713 83.9345 2.565 83.9218L5.69499 83.618C5.73286 83.6053 5.7581 83.5673 5.7581 83.5293ZM5.7581 82.795V82.7444C5.7581 82.7064 5.72024 82.6684 5.68237 82.681L2.55238 83.0102C2.51451 83.0102 2.48927 83.0482 2.48927 83.0989V83.1495C2.48927 83.1875 2.52713 83.2255 2.565 83.2128L5.69499 82.8836C5.72024 82.871 5.7581 82.833 5.7581 82.795ZM5.7581 82.0353V81.9847C5.7581 81.9467 5.72024 81.9087 5.68237 81.9087H2.53976C2.50189 81.9087 2.46403 81.9467 2.46403 81.9847V82.0353C2.46403 82.0733 2.50189 82.1113 2.53976 82.1113H5.68237C5.72024 82.1113 5.7581 82.0733 5.7581 82.0353ZM5.78334 89.1888V89.2395C5.78334 89.2774 5.74548 89.3154 5.70761 89.3154H2.565C2.52713 89.3154 2.48927 89.2774 2.48927 89.2395V89.1888C2.48927 89.1508 2.52713 89.1128 2.565 89.1128H5.70761C5.74548 89.1128 5.78334 89.1508 5.78334 89.1888ZM5.77072 92.43V92.4807C5.77072 92.5187 5.73286 92.5566 5.69499 92.544L2.565 92.2401C2.52713 92.2401 2.50189 92.2021 2.50189 92.1515V92.1008C2.50189 92.0629 2.53976 92.0249 2.57762 92.0375L5.70761 92.3414C5.74548 92.3414 5.78334 92.3794 5.77072 92.43ZM5.77072 90.2523L5.7581 90.303C5.7581 90.341 5.72024 90.3789 5.66975 90.3663L2.55238 89.8725C2.51451 89.8725 2.48927 89.8219 2.48927 89.7839L2.50189 89.7332C2.50189 89.6953 2.53976 89.6573 2.59024 89.6699L5.70761 90.1637C5.74548 90.1637 5.77072 90.2017 5.77072 90.2523ZM5.78334 90.7714V90.8221C5.78334 90.8601 5.74548 90.898 5.70761 90.898L2.565 90.7968C2.52713 90.7968 2.48927 90.7588 2.48927 90.7208V90.6702C2.48927 90.6322 2.52713 90.5942 2.565 90.5942L5.70761 90.6955C5.74548 90.6828 5.78334 90.7208 5.78334 90.7714ZM5.78334 91.645V91.6957C5.78334 91.7337 5.74548 91.7717 5.70761 91.7717H2.565C2.52713 91.7717 2.48927 91.7337 2.48927 91.6957V91.645C2.48927 91.6071 2.52713 91.5691 2.565 91.5691H5.70761C5.74548 91.5691 5.78334 91.6071 5.78334 91.645ZM2.48927 85.3019V85.3525C2.48927 85.3905 2.52713 85.4285 2.565 85.4285H5.70761C5.74548 85.4285 5.78334 85.3905 5.78334 85.3525V85.3019C5.78334 85.2639 5.74548 85.2259 5.70761 85.2259H2.565C2.51451 85.2259 2.48927 85.2639 2.48927 85.3019ZM2.48927 88.4418V88.4925C2.48927 88.5304 2.52713 88.5684 2.565 88.5684L5.70761 88.4545C5.74548 88.4545 5.78334 88.4165 5.78334 88.3785V88.3279C5.78334 88.2899 5.74548 88.2519 5.70761 88.2519L2.565 88.3658C2.51451 88.3658 2.48927 88.4038 2.48927 88.4418ZM2.48927 86.2641V86.3148C2.48927 86.3527 2.52713 86.3907 2.565 86.3781L5.69499 86.0742C5.73286 86.0742 5.7581 86.0362 5.7581 85.9856V85.9349C5.7581 85.8969 5.72024 85.859 5.68237 85.8716L2.55238 86.1755C2.51451 86.1755 2.48927 86.2135 2.48927 86.2641ZM2.48927 86.9985V87.0491C2.48927 87.0871 2.52713 87.1251 2.565 87.1124L5.70761 86.7832C5.74548 86.7832 5.77072 86.7452 5.77072 86.6946V86.6439C5.77072 86.606 5.73286 86.568 5.69499 86.5806L2.565 86.9098C2.51451 86.9098 2.48927 86.9478 2.48927 86.9985ZM2.48927 87.7581V87.8088C2.48927 87.8467 2.52713 87.8847 2.565 87.8847H5.70761C5.74548 87.8847 5.78334 87.8467 5.78334 87.8088V87.7581C5.78334 87.7201 5.74548 87.6821 5.70761 87.6821H2.565C2.51451 87.6821 2.48927 87.7201 2.48927 87.7581ZM39.8978 38.2409H43.8481V34.2526H39.8978V38.2409ZM43.2171 36.2278C43.2171 35.4808 42.6239 34.8857 41.8793 34.8857C41.1346 34.8857 40.5414 35.4808 40.5414 36.2278C40.5414 36.9748 41.1346 37.5698 41.8793 37.5698C42.6113 37.5698 43.2171 36.9748 43.2171 36.2278ZM42.9142 36.2278C42.9142 35.6454 42.4472 35.1896 41.8793 35.1896C41.2987 35.1896 40.8443 35.658 40.8443 36.2278C40.8443 36.8102 41.3113 37.266 41.8793 37.266C42.4472 37.2786 42.9142 36.8102 42.9142 36.2278ZM42.6618 40.7604C41.9928 40.7604 41.3618 41.3048 41.3618 41.9632V44.4701H43.8607V41.9632C43.8607 41.2922 43.318 40.7604 42.6618 40.7604ZM42.6113 41.1276C42.1191 41.1276 41.7152 41.5707 41.7152 42.1025V43.6218C41.7152 43.951 42.2831 44.0143 42.6113 44.0143C42.9899 44.0143 43.5074 43.951 43.5074 43.6218V42.1025C43.5074 41.558 43.1035 41.1276 42.6113 41.1276ZM42.6113 42.5962C42.4346 42.5962 42.3084 42.7482 42.3084 42.9254L42.2831 43.4572C42.2831 43.5078 42.321 43.5585 42.3841 43.5585H42.8511C42.9016 43.5585 42.952 43.5205 42.952 43.4572L42.9268 42.9254C42.9142 42.7355 42.788 42.5962 42.6113 42.5962ZM8.24443 41.1529C8.91334 41.1529 9.54438 40.6085 9.54438 39.9501V37.4432H7.04543V39.9501C7.04543 40.6085 7.57551 41.1529 8.24443 41.1529ZM8.29491 40.7857C8.78713 40.7857 9.191 40.3426 9.191 39.8108V38.2915C9.191 37.9623 8.62305 37.899 8.29491 37.899C7.91628 37.899 7.39882 37.9623 7.39882 38.2915V39.8108C7.3862 40.3426 7.79007 40.7857 8.29491 40.7857ZM8.29491 39.317C8.4716 39.317 8.59781 39.1651 8.59781 38.9879L8.62305 38.4561C8.62305 38.4054 8.58519 38.3548 8.52209 38.3548H8.05511C8.00463 38.3548 7.95414 38.3928 7.95414 38.4561L7.97939 38.9879C7.99201 39.1651 8.1056 39.317 8.29491 39.317ZM35.2028 42.9508C35.2028 42.8748 35.2659 42.8115 35.3416 42.8115C35.4173 42.8115 35.4804 42.8748 35.4804 42.9508C35.4804 43.0267 35.4173 43.09 35.3416 43.09C35.2659 43.1027 35.2028 43.0394 35.2028 42.9508ZM35.1902 44.2802C35.3037 44.3561 35.4173 44.3561 35.5057 44.2802C35.43 43.951 35.4552 43.6218 35.43 43.2926C35.3921 43.2546 35.3164 43.2546 35.2785 43.2926C35.2406 43.6218 35.2659 43.9636 35.1902 44.2802ZM2.21161 44.0269H3.51157C4.21834 44.0269 4.79891 43.4445 4.79891 42.7355V41.4441C4.79891 40.7351 4.21834 40.1527 3.51157 40.1527H2.21161V44.0269ZM3.73875 41.9505C3.81447 41.9505 3.87758 42.0138 3.87758 42.0898C3.87758 42.1658 3.81447 42.2291 3.73875 42.2291C3.66302 42.2291 3.59992 42.1658 3.59992 42.0898C3.59992 42.0138 3.66302 41.9505 3.73875 41.9505ZM2.41355 41.9379C2.33782 42.0518 2.33782 42.1658 2.41355 42.2544C2.74169 42.1784 3.06984 42.2038 3.39798 42.1784C3.43584 42.1405 3.43584 42.0645 3.39798 42.0265C3.06984 41.9885 2.72907 42.0138 2.41355 41.9379ZM43.4316 26.1243H59.8262V22.4399H43.4316V26.1243ZM45.1986 24.9468C44.8199 24.9468 44.517 24.6429 44.517 24.2631C44.517 23.8833 44.8199 23.5794 45.1986 23.5794C45.5772 23.5794 45.8801 23.8833 45.8801 24.2631C45.8801 24.6429 45.5772 24.9468 45.1986 24.9468ZM51.3828 25.1494V23.4021C51.3828 23.0097 51.6984 22.6805 52.1022 22.6805H55.1944C55.5856 22.6805 55.9138 22.997 55.9138 23.4021V25.1494C55.9138 25.5419 55.5982 25.871 55.1944 25.871H52.1022C51.6984 25.871 51.3828 25.5419 51.3828 25.1494ZM53.074 23.8959C53.0236 23.8959 52.9857 23.9339 52.9857 23.9845V24.0605C52.9857 24.1112 53.0236 24.1491 53.074 24.1491H53.1624C53.2129 24.1491 53.2507 24.1112 53.2507 24.0605V23.9845C53.2507 23.9339 53.2129 23.8959 53.1624 23.8959H53.074ZM54.8031 24.5794H55.7244C55.7371 24.5794 55.7497 24.5921 55.7497 24.6049C55.7497 24.6176 55.7371 24.6303 55.7244 24.6303H54.8031C54.7905 24.6303 54.7779 24.6176 54.7779 24.6049C54.7779 24.5921 54.7905 24.5794 54.8031 24.5794ZM54.8031 24.744H55.7244C55.7371 24.744 55.7497 24.7567 55.7497 24.7694C55.7497 24.7822 55.7371 24.7949 55.7244 24.7949H54.8031C54.7905 24.7949 54.7779 24.7822 54.7779 24.7694C54.7779 24.7567 54.7905 24.744 54.8031 24.744ZM54.8031 24.9086H55.7244C55.7371 24.9086 55.7497 24.9213 55.7497 24.934C55.7497 24.9467 55.7371 24.9594 55.7244 24.9594H54.8031C54.7905 24.9594 54.7779 24.9467 54.7779 24.934C54.7779 24.9213 54.7905 24.9086 54.8031 24.9086ZM54.8031 23.6045H55.7244C55.7371 23.6045 55.7497 23.6173 55.7497 23.63C55.7497 23.6427 55.7371 23.6554 55.7244 23.6554H54.8031C54.7905 23.6554 54.7779 23.6427 54.7779 23.63C54.7779 23.6045 54.7905 23.6045 54.8031 23.6045ZM54.8031 23.7565H55.7244C55.7371 23.7565 55.7497 23.7692 55.7497 23.7819C55.7497 23.7946 55.7371 23.8073 55.7244 23.8073H54.8031C54.7905 23.8073 54.7779 23.7946 54.7779 23.7819C54.7779 23.7692 54.7905 23.7565 54.8031 23.7565ZM54.8031 23.9337H55.7244C55.7371 23.9337 55.7497 23.9464 55.7497 23.9591C55.7497 23.9718 55.7371 23.9845 55.7244 23.9845H54.8031C54.7905 23.9845 54.7779 23.9718 54.7779 23.9591C54.7779 23.9337 54.7905 23.9337 54.8031 23.9337ZM54.8031 24.0857H55.7244C55.7371 24.0857 55.7497 24.0984 55.7497 24.1111C55.7497 24.1238 55.7371 24.1365 55.7244 24.1365H54.8031C54.7905 24.1365 54.7779 24.1238 54.7779 24.1111C54.7779 24.0984 54.7905 24.0857 54.8031 24.0857ZM54.8031 24.2503H55.7244C55.7371 24.2503 55.7497 24.263 55.7497 24.2757C55.7497 24.2884 55.7371 24.3011 55.7244 24.3011H54.8031C54.7905 24.3011 54.7779 24.2884 54.7779 24.2757C54.7779 24.263 54.7905 24.2503 54.8031 24.2503ZM54.8031 24.4149H55.7244C55.7371 24.4149 55.7497 24.4275 55.7497 24.4403C55.7497 24.453 55.7371 24.4657 55.7244 24.4657H54.8031C54.7905 24.4657 54.7779 24.453 54.7779 24.4403C54.7779 24.4275 54.7905 24.4149 54.8031 24.4149ZM54.8157 22.9462H55.7371C55.7497 22.9462 55.7623 22.9589 55.7623 22.9716C55.7623 22.9843 55.7497 22.997 55.7371 22.997H54.8157C54.8031 22.997 54.7905 22.9843 54.7905 22.9716C54.7905 22.9589 54.8031 22.9462 54.8157 22.9462ZM54.8157 23.1108H55.7371C55.7497 23.1108 55.7623 23.1235 55.7623 23.1362C55.7623 23.1489 55.7497 23.1616 55.7371 23.1616H54.8157C54.8031 23.1616 54.7905 23.1489 54.7905 23.1362C54.7905 23.1108 54.8031 23.1108 54.8157 23.1108ZM54.8157 23.2754H55.7371C55.7497 23.2754 55.7623 23.2881 55.7623 23.3008C55.7623 23.3135 55.7497 23.3262 55.7371 23.3262H54.8157C54.8031 23.3262 54.7905 23.3135 54.7905 23.3008C54.7905 23.2881 54.8031 23.2754 54.8157 23.2754ZM54.8157 23.4273H55.7371C55.7497 23.4273 55.7623 23.44 55.7623 23.4527C55.7623 23.4654 55.7497 23.4781 55.7371 23.4781H54.8157C54.8031 23.4781 54.7905 23.4654 54.7905 23.4527C54.7905 23.44 54.8031 23.4273 54.8157 23.4273ZM54.5633 23.6427V24.415C54.5633 24.8075 54.2478 25.1367 53.8439 25.1367H52.3673C51.976 25.1367 51.6479 24.8202 51.6479 24.415V23.6427C51.6479 23.2502 51.9634 22.921 52.3673 22.921H53.8439C54.2352 22.921 54.5633 23.2375 54.5633 23.6427ZM53.1119 24.453C53.1498 24.453 53.175 24.4783 53.175 24.5163V25.6558C53.175 25.6938 53.1498 25.7191 53.1119 25.7191C53.074 25.7191 53.0488 25.6938 53.0488 25.6558V24.5163C53.0488 24.4783 53.074 24.453 53.1119 24.453ZM52.8721 25.3519H53.3517C53.3896 25.3519 53.4148 25.3773 53.4148 25.4152C53.4148 25.4532 53.3896 25.4785 53.3517 25.4785H52.8721C52.8342 25.4785 52.809 25.4532 52.809 25.4152C52.809 25.3773 52.8342 25.3519 52.8721 25.3519ZM53.3643 25.3013C53.3012 25.3013 53.2507 25.3519 53.2507 25.4152C53.2507 25.4785 53.3012 25.5292 53.3643 25.5292C53.4274 25.5292 53.4779 25.4785 53.4779 25.4152C53.4653 25.3519 53.4148 25.3013 53.3643 25.3013ZM52.8721 25.3013C52.809 25.3013 52.7585 25.3519 52.7585 25.4152C52.7585 25.4785 52.809 25.5292 52.8721 25.5292C52.9352 25.5292 52.9857 25.4785 52.9857 25.4152C52.9857 25.3519 52.9352 25.3013 52.8721 25.3013ZM53.1119 24.4403C53.0614 24.4403 53.0236 24.4783 53.0236 24.529C53.0236 24.567 53.0614 24.6049 53.1119 24.6049C53.1498 24.6049 53.1876 24.567 53.1876 24.529C53.2002 24.4783 53.1498 24.4403 53.1119 24.4403ZM58.7661 16.6412C58.5011 16.6412 58.2865 16.4259 58.2865 16.16C58.2865 15.8942 58.5011 15.6789 58.7661 15.6789C59.0311 15.6789 59.2457 15.8942 59.2457 16.16C59.2457 16.4259 59.0311 16.6412 58.7661 16.6412ZM58.7661 18.1985C58.5011 18.1985 58.2865 17.9832 58.2865 17.7173C58.2865 17.4515 58.5011 17.2362 58.7661 17.2362C59.0311 17.2362 59.2457 17.4515 59.2457 17.7173C59.2457 17.9832 59.0311 18.1985 58.7661 18.1985ZM57.2263 16.6412C56.9613 16.6412 56.7467 16.4259 56.7467 16.16C56.7467 15.8942 56.9613 15.6789 57.2263 15.6789C57.4914 15.6789 57.7059 15.8942 57.7059 16.16C57.7059 16.4259 57.4914 16.6412 57.2263 16.6412ZM57.2263 18.1985C56.9613 18.1985 56.7467 17.9832 56.7467 17.7173C56.7467 17.4515 56.9613 17.2362 57.2263 17.2362C57.4914 17.2362 57.7059 17.4515 57.7059 17.7173C57.7059 17.9832 57.4914 18.1985 57.2263 18.1985ZM57.8952 20.8446C57.8952 20.6488 57.737 20.4901 57.5419 20.4901C57.3467 20.4901 57.1885 20.6488 57.1885 20.8446C57.1885 21.0404 57.3467 21.1991 57.5419 21.1991C57.737 21.1991 57.8952 21.0404 57.8952 20.8446ZM57.7312 20.8446C57.7312 20.7433 57.6554 20.6674 57.5545 20.6674C57.4535 20.6674 57.3778 20.7433 57.3778 20.8446C57.3778 20.9459 57.4535 21.0219 57.5545 21.0219C57.6428 21.0219 57.7312 20.9459 57.7312 20.8446ZM50.8906 5.04366C50.8906 4.47391 50.4363 4.01811 49.8683 4.01811C49.3004 4.01811 48.846 4.47391 48.846 5.04366C48.846 5.6134 49.3004 6.0692 49.8683 6.0692C50.4236 6.0692 50.8906 5.6134 50.8906 5.04366ZM50.8654 4.04343C50.3101 3.48635 49.4266 3.48635 48.8713 4.04343C48.8208 4.09407 48.8208 4.17005 48.8713 4.22069C48.9217 4.27133 48.9975 4.27133 49.048 4.22069C49.5023 3.76489 50.2217 3.76489 50.6761 4.22069C50.7265 4.27133 50.8023 4.27133 50.8528 4.22069C50.9159 4.18271 50.9159 4.09407 50.8654 4.04343ZM47.849 5.04366C47.849 4.47391 47.3946 4.01811 46.8267 4.01811C46.2587 4.01811 45.8044 4.47391 45.8044 5.04366C45.8044 5.6134 46.2587 6.0692 46.8267 6.0692C47.3946 6.0692 47.849 5.6134 47.849 5.04366ZM47.8237 4.04343C47.2684 3.48635 46.3849 3.48635 45.8296 4.04343C45.7791 4.09407 45.7791 4.17005 45.8296 4.22069C45.8801 4.27133 45.9558 4.27133 46.0063 4.22069C46.4607 3.76489 47.1801 3.76489 47.6344 4.22069C47.6849 4.27133 47.7606 4.27133 47.8111 4.22069C47.8742 4.18271 47.8742 4.09407 47.8237 4.04343ZM44.8199 5.04366C44.8199 4.47391 44.3656 4.01811 43.7976 4.01811C43.2297 4.01811 42.7753 4.47391 42.7753 5.04366C42.7753 5.6134 43.2297 6.0692 43.7976 6.0692C44.353 6.0692 44.8199 5.6134 44.8199 5.04366ZM44.7947 4.04343C44.2394 3.48635 43.3559 3.48635 42.8006 4.04343C42.7501 4.09407 42.7501 4.17005 42.8006 4.22069C42.8511 4.27133 42.9268 4.27133 42.9773 4.22069C43.4316 3.76489 44.151 3.76489 44.6054 4.22069C44.6559 4.27133 44.7316 4.27133 44.7821 4.22069C44.8326 4.18271 44.8326 4.09407 44.7947 4.04343ZM42.7753 10.7158C42.7753 11.2855 43.2297 11.7413 43.7976 11.7413C44.3656 11.7413 44.8199 11.2855 44.8199 10.7158C44.8199 10.146 44.3656 9.69025 43.7976 9.69025C43.2297 9.69025 42.7753 10.146 42.7753 10.7158ZM42.8006 11.716C43.3559 12.2731 44.2394 12.2731 44.7947 11.716C44.8452 11.6654 44.8452 11.5894 44.7947 11.5388C44.7442 11.4881 44.6685 11.4881 44.618 11.5388C44.1637 11.9946 43.4443 11.9946 42.9899 11.5388C42.9394 11.4881 42.8637 11.4881 42.8132 11.5388C42.7501 11.5767 42.7501 11.6654 42.8006 11.716ZM45.817 10.7158C45.817 11.2855 46.2714 11.7413 46.8393 11.7413C47.4072 11.7413 47.8616 11.2855 47.8616 10.7158C47.8616 10.146 47.4072 9.69025 46.8393 9.69025C46.2714 9.69025 45.817 10.146 45.817 10.7158ZM45.8296 11.716C46.3849 12.2731 47.2684 12.2731 47.8237 11.716C47.8742 11.6654 47.8742 11.5894 47.8237 11.5388C47.7732 11.4881 47.6975 11.4881 47.647 11.5388C47.1927 11.9946 46.4733 11.9946 46.0189 11.5388C45.9684 11.4881 45.8927 11.4881 45.8422 11.5388C45.7917 11.5767 45.7918 11.6654 45.8296 11.716ZM48.846 10.7158C48.846 11.2855 49.3004 11.7413 49.8683 11.7413C50.4363 11.7413 50.8906 11.2855 50.8906 10.7158C50.8906 10.146 50.4363 9.69025 49.8683 9.69025C49.3004 9.69025 48.846 10.146 48.846 10.7158ZM48.8713 11.716C49.4266 12.2731 50.3101 12.2731 50.8654 11.716C50.9159 11.6654 50.9159 11.5894 50.8654 11.5388C50.8149 11.4881 50.7392 11.4881 50.6887 11.5388C50.2343 11.9946 49.5149 11.9946 49.0606 11.5388C49.0101 11.4881 48.9344 11.4881 48.8839 11.5388C48.8208 11.5767 48.8208 11.6654 48.8713 11.716ZM43.0909 11.083H50.2217C51.3197 11.083 52.2032 10.1967 52.2032 9.09519V6.76556C52.2032 5.66405 51.3197 4.77778 50.2217 4.77778H43.1035C42.0055 4.77778 41.122 5.66405 41.122 6.76556V9.09519C41.122 10.1967 42.0055 11.083 43.0909 11.083ZM2.17375 52.6364V46.1667C5.73286 46.1667 8.62305 49.066 8.62305 52.6364H2.17375ZM3.43584 51.5603C3.53681 51.5603 3.61254 51.4843 3.61254 51.383C3.61254 51.2817 3.53681 51.2057 3.43584 51.2057C3.33488 51.2057 3.25915 51.2817 3.25915 51.383C3.24653 51.4716 3.33488 51.5603 3.43584 51.5603ZM22.6576 75.7555L23.2129 75.3503L23.7051 74.7806L23.5284 75.2617L23.1498 75.7934L22.7964 76.1859L23.2381 76.148L23.7682 75.996L24.2478 75.8061L23.7682 76.2113L23.3265 76.4645L22.8847 76.6164L23.6546 76.9583L23.0362 76.895L22.8595 77.2875L23.1245 77.7179L23.3391 78.1484L23.642 79.2626C23.642 79.2626 23.2003 78.2497 23.175 78.2623C23.1624 78.275 22.6828 77.49 22.6828 77.49L22.5692 77.5533L22.7585 78.2244L22.9226 79.0473L22.9731 80.1235L22.708 79.4145L22.3042 78.2117L22.1148 77.7179H21.8751L21.5848 78.5789L21.3576 79.4778L21.2819 79.2246L21.3197 78.4523L21.509 77.604C21.509 77.604 21.1683 77.3508 21.1683 77.3254C21.1683 77.3001 20.7392 77.4774 20.7392 77.4774L19.8431 77.6673L18.7577 77.6926L19.8305 77.4141L20.6508 77.1355L20.9916 76.9962L20.9411 76.5784L20.3353 76.5531L19.6538 76.5784L19.0606 76.6417L18.2907 76.781L18.7072 76.5405L19.5149 76.2746L20.2217 76.1733L21.0547 76.1986L21.2188 75.9707L20.5625 75.5782L19.8936 75.287L19.5023 75.1604L19.6664 75.1098L20.2469 75.1351L20.9285 75.363C20.9285 75.363 21.4838 75.6922 21.509 75.7048C21.5343 75.7175 21.7362 75.6162 21.7362 75.6162L21.6353 74.7299L21.6479 74.0082L21.711 73.4512L21.8119 73.755L22.0139 74.8692L22.1275 75.5782L22.3925 75.6542L22.7964 75.249L22.6197 75.6795L22.6576 75.7555ZM27.6302 4.05609L27.0749 3.6636L26.3807 3.38506L26.8856 3.41038L27.504 3.6003L27.9962 3.80287L27.8195 3.39772L27.504 2.94192L27.1759 2.54944L27.7186 2.87862L28.0972 3.22047L28.3875 3.58764L28.4758 2.75202L28.6146 3.35974L29.0438 3.39772L29.3593 3.00523L29.7 2.66339L30.6592 2.01768C30.6592 2.01768 29.8515 2.76467 29.8641 2.77734C29.8767 2.79 29.2962 3.48635 29.2962 3.48635L29.3971 3.57498L29.9651 3.18249L30.6845 2.75202L31.6941 2.35953L31.1136 2.84064L30.1039 3.61296L29.6874 3.95481L29.7631 4.1827H30.6719L31.5932 4.10674L31.3786 4.25868L30.634 4.47392L29.7631 4.56254C29.7631 4.56254 29.6243 4.96769 29.6117 4.96769C29.5865 4.98035 29.902 5.33487 29.902 5.33487L30.369 6.11984L30.735 7.13273L30.1292 6.20847L29.5991 5.52478L29.3593 5.24624L28.9933 5.43615L29.17 6.01855L29.4098 6.6516L29.6622 7.19604L30.0408 7.89239L29.6874 7.57587L29.1826 6.89217L28.8671 6.25911L28.6273 5.46148L28.3622 5.38551L28.1981 6.1325L28.135 6.85418V7.25934L28.0341 7.12006L27.87 6.56298V5.8413C27.87 5.8413 27.9962 5.20825 28.0088 5.18293C28.0215 5.1576 27.8574 4.99302 27.8574 4.99302L27.0623 5.37285L26.3807 5.58808L25.838 5.70202L26.1031 5.51212L27.0875 4.96769L27.7186 4.62584L27.6933 4.3473L27.1885 4.09408L27.6428 4.1194L27.6302 4.05609Z" stroke="#E5C696" stroke-width="0.3327" stroke-miterlimit="22.9256"/>
</svg>
