<svg width="106" height="87" viewBox="0 0 106 87" fill="none" xmlns="http://www.w3.org/2000/svg">
<path d="M102.651 0.890137H11.4486V3.22277H102.651V0.890137Z" fill="#E5C696"/>
<path d="M104.838 0.890137V3.22277H102.651V8.31703H102.732H103.569H104.082H104.892H105V0.890137H104.838Z" fill="#E5C696"/>
<path d="M105 35.7456H102.651V40.4377H104.298V41.1616H102.651V49.5537H102.732H103.569H104.082H104.892H105V35.7456Z" fill="#E5C696"/>
<path d="M102.651 83.6584H103.731V85.9642H105V76.9822H102.651V83.6584Z" fill="#E5C696"/>
<path d="M11.4486 85.991H103.731V85.9642H102.651V83.6584H48.3832V85.6693H47.6542V83.6584H11.4486V85.991Z" fill="#E5C696"/>
<path d="M9.09969 85.991H11.4486V83.6584H9.09969V85.991Z" fill="#E5C696"/>
<path d="M27.324 60.9219V60.198H11.4486V60.9219H27.324Z" fill="#E5C696"/>
<path d="M47.6542 60.198H37.0976V60.9219H47.6542V60.198Z" fill="#E5C696"/>
<path d="M48.3832 60.9219V60.198H47.6542V60.9219H48.3832Z" fill="#E5C696"/>
<path d="M48.3832 51.6987H47.6542V60.198H48.3832V51.6987Z" fill="#E5C696"/>
<path d="M47.6542 83.6584H48.3832V60.9219H47.6542V83.6584Z" fill="#E5C696"/>
<path d="M47.6542 85.6693H48.3832V83.6584H47.6542V85.6693Z" fill="#E5C696"/>
<path d="M103.731 83.6584H102.651V85.9642H103.731V83.6584Z" fill="#E5C696"/>
<path d="M104.298 41.1616V40.4377H102.651V41.1616H104.298Z" fill="#E5C696"/>
<path d="M104.838 0.890137H102.651V3.22277H104.838V0.890137Z" fill="#E5C696"/>
<path d="M11.4486 0.890137H10.9626V3.22277H11.4486V0.890137Z" fill="#E5C696"/>
<path d="M47.5192 40.5449H48.2482V41.1616H102.651V40.4377H43.6584V41.1616H47.5192V40.5449Z" fill="#E5C696"/>
<path d="M48.2482 40.5449H47.5192V41.1616H48.2482V40.5449Z" fill="#E5C696"/>
<path d="M47.5192 41.9927H48.2482V41.1616H47.5192V41.9927Z" fill="#E5C696"/>
<path d="M10.9626 3.22277V0.890137H9.09969V43.9232H11.4486V3.22277H10.9626Z" fill="#E5C696"/>
<path d="M11.4486 53.6559H9.09969V83.6584H11.4486V60.9219H9.18069V60.198H11.4486V53.6559Z" fill="#E5C696"/>
<path d="M9.18069 60.198V60.9219H11.4486V60.198H9.18069Z" fill="#E5C696"/>
<path d="M9.09969 83.6584V85.991M9.09969 83.6584H11.4486M9.09969 83.6584V53.6559M103.731 85.991H9.09969M103.731 85.991V85.9642M103.731 85.991H11.4486M9.09969 85.991H11.4486M9.09969 85.991V53.6559M10.9626 0.890137H104.838M10.9626 0.890137V3.22277H11.4486M10.9626 0.890137H9.09969M10.9626 0.890137H11.4486M104.838 0.890137V3.22277H102.651M104.838 0.890137H105M104.838 0.890137H102.651M105 49.5537V35.7456H102.651V40.4377M105 49.5537H102.651M105 49.5537H104.892M102.651 49.5537V41.1616M102.651 49.5537H102.732M102.651 0.890137H105M102.651 0.890137H11.4486M102.651 0.890137V3.22277M105 0.890137V8.31703M105 8.31703H102.651M105 8.31703H104.892M102.651 8.31703V3.22277M102.651 8.31703H102.732M9.09969 53.6559H11.4486V60.198M11.4486 85.991V83.6584M9.09969 0.890137H11.4486M9.09969 0.890137V43.9232H11.4486V3.22277M11.4486 0.890137V3.22277M48.3832 60.198V60.9219M48.3832 60.198H47.6542M48.3832 60.198V51.6986M48.3832 60.9219H47.6542M48.3832 60.9219V83.6584M48.3832 51.6986H47.6542V60.198M48.3832 51.6986V83.6584M102.732 8.31703H104.892M102.732 8.31703V35.692H104.892V8.31703M102.732 8.31703H103.569M104.892 8.31703H104.082M103.569 8.31703H104.082M103.569 8.31703V35.692H104.082V8.31703M102.732 49.5537H104.892M102.732 49.5537V76.9286H104.892V49.5537M102.732 49.5537H103.569M104.892 49.5537H104.082M103.569 49.5537H104.082M103.569 49.5537V76.9286H104.082V49.5537M47.9242 42.1268H57.1308C57.1308 42.1268 57.0498 51.3501 48.0052 51.5646M47.9242 42.7167H57.0498M27.459 60.4929V69.6358C27.459 69.6358 36.7466 69.5554 36.9626 60.5734M28.107 69.609L28.08 60.5198M10.2066 53.495H1C1 53.495 1.081 44.2718 10.1256 44.0573M1.054 52.9856H10.2066M99.6542 79.5562L99.7892 79.7171M99.2222 79.5562L99.0602 79.7439M99.0872 78.9931L99.2222 79.154M99.7892 78.9931L99.6542 79.154M99.7082 79.7975L100.167 80.6019M99.9512 79.3685H100.896M99.7082 78.9127L100.167 78.1084M98.7092 78.1084L99.1682 78.9127M97.9803 79.3685H98.9252M98.7092 80.6019L99.1682 79.7975M99.6542 46.6044L99.7892 46.7653M99.2222 46.6044L99.0602 46.7921M99.0872 46.0682L99.2222 46.2022M99.7892 46.0682L99.6542 46.2022M99.7082 46.8457L100.167 47.6769M99.9512 46.4167H100.896M99.7082 45.9609L100.167 45.1565M98.7092 45.1565L99.1682 45.9609M97.9803 46.4167H98.9252M98.7092 47.6769L99.1682 46.8457M94.0924 57.7313V74.3547M94.9834 74.3547V57.7313M94.9834 57.7313L89.3136 52.1008V57.7313H94.9834ZM101.085 64.2466C101.112 64.193 101.112 64.1394 101.085 64.0857C101.031 63.9249 100.842 63.8444 100.68 63.8981C99.1952 64.3807 97.6563 63.8444 96.1443 63.764C96.0903 63.7372 96.0363 63.7372 95.9823 63.764C95.8473 63.8176 95.7664 63.9517 95.8204 64.0857C96.3873 66.901 96.3603 69.7967 95.6854 72.6119M100.599 73.5503C100.788 73.5503 100.95 73.5235 100.95 73.3358C101.166 70.2525 100.869 67.2763 101.085 64.2734M100.599 73.5235C98.8982 73.5235 98.1153 73.2822 97.2513 73.2018M96.3063 73.309C95.9823 73.309 95.6854 73.0677 95.6854 72.746C95.6854 72.6924 95.6854 72.6387 95.7124 72.5851M99.2492 72.9605C98.4392 72.9068 97.1433 73.2822 96.3063 73.3358M101.085 62.4234C101.112 62.477 101.112 62.5306 101.085 62.5843C101.031 62.7451 100.923 62.7451 100.68 62.772C99.1412 62.8524 97.7913 63.2278 96.1443 62.906C96.0903 62.9328 95.8474 62.8256 95.8204 62.5843C96.3873 59.769 95.7664 56.9806 95.6854 54.0581M100.788 53.1733C100.788 53.1733 100.815 53.1733 100.842 53.1733C100.923 53.2001 100.977 53.2537 100.95 53.3342C100.842 56.3639 100.869 59.3937 101.085 62.3966M100.788 53.2001C99.9512 53.2805 98.4662 53.6023 97.6293 53.79M96.3063 53.2269C95.8473 53.2537 95.7124 53.495 95.7124 54.0581M99.0332 53.495C97.7643 53.4146 97.1433 53.2805 96.3063 53.2537M57.4548 67.6517V52.0204H48.5452V67.6517M52.325 59.1523H53.621M52.325 52.9856L53.621 53.0661M52.325 57.49L53.621 57.6509M52.325 56.1226L53.621 56.1762M52.325 54.2994H53.621M53.621 66.8205H52.325M53.621 60.7343L52.325 60.7879M53.621 65.185L52.325 65.2923M53.621 63.7372L52.325 63.8981M53.621 61.9676H52.325M48.5452 67.6785V83.3099H57.4548V67.6785M53.027 52.0472V83.1758M53.675 76.2047H52.379M53.675 82.3714L52.379 82.2642M53.675 77.867L52.379 77.6794M53.675 79.2881L52.379 79.1004M53.675 81.0308H52.379M52.379 68.5365H53.675M52.379 74.6228L53.675 74.5692M52.379 70.1452L53.675 70.038M52.379 71.6199L53.675 71.4322M52.379 73.3626H53.675M47.4382 54.0581H37.3136V60.0371M47.4382 54.0581V60.0371M47.4382 54.0581L37.3136 60.0371M47.4382 60.0371H37.3136M47.4382 60.0371L37.3406 54.0849M27.27 54.0045H11.6376V59.9835M27.27 54.0045V59.9835M27.27 54.0045L11.6376 59.9835M27.27 59.9835H11.6376M27.27 59.9835L11.6646 54.0313M40.2835 66.6597C40.2835 64.9437 41.4444 63.5763 42.8754 63.5763C44.2793 63.5763 45.4403 64.9705 45.4403 66.6597L45.0083 78.9931M40.2835 66.6597C40.2835 66.6597 40.2835 66.6597 40.2835 66.6865M40.2835 66.6597L40.6345 78.9931M42.9834 81.0577C43.2264 80.9504 43.3614 80.6555 43.2534 80.3874C43.1454 80.1192 42.8754 79.9852 42.6324 80.0924C42.3894 80.1997 42.2544 80.4946 42.3624 80.7627C42.4164 80.9236 42.5514 81.0308 42.6864 81.0845M43.3074 83.4707C43.0374 83.2562 42.6864 83.2562 42.4164 83.4707M46.6552 80.4142C46.6552 81.3526 46.0073 82.1301 45.2243 82.1301H43.0914M39.0145 66.6597C39.0145 64.1394 40.7425 62.1017 42.8484 62.1017C44.9813 62.1017 46.6822 64.1394 46.6822 66.6597V80.4142M43.4154 83.4707H42.2814M42.6054 82.1301H40.4725C39.6895 82.1301 39.0415 81.3526 39.0415 80.4142V66.6597M43.1724 83.3635L43.0104 81.1917C43.0104 81.0845 42.9294 80.9772 42.8484 80.9772C42.7674 80.9772 42.6864 81.0577 42.6864 81.1917L42.5244 83.3635M42.9024 83.3099L42.6324 83.4707M42.9024 83.3099L42.8754 83.4707M42.9024 83.3099L43.0914 83.4707M32.7508 83.4439V80.4678C32.7508 78.8323 31.4278 77.5185 29.7809 77.5185H26.811C25.1641 77.5185 23.8411 78.8323 23.8411 80.4678V83.4439H32.7238M28.5659 82.3446C30.2939 82.291 32.6428 81.004 31.9138 79.4489C31.0768 77.7062 29.2409 78.0547 26.811 78.0547C25.0831 78.0547 23.8411 80.012 24.9751 81.0577C25.839 81.862 26.811 82.3178 27.972 82.3446M99.9242 22.4469C99.8972 22.2324 99.9242 22.0447 100.005 22.0447C100.086 22.0447 100.194 22.286 100.248 22.6346C100.302 22.9831 100.275 23.2512 100.194 23.2781C100.14 23.2781 100.059 23.1708 100.005 22.9563M99.0872 21.2672C99.1682 21.2404 99.2762 21.2135 99.3572 21.1867C100.221 21.0527 101.031 21.6157 101.166 22.4737C101.301 23.3317 100.734 24.136 99.8702 24.2701C99.7622 24.2969 99.6812 24.2969 99.5732 24.2969M98.7362 24.136C98.3313 23.9215 98.0073 23.5194 97.9263 23.0099C97.8453 22.5005 98.0073 22.0447 98.3313 21.6962M99.3032 27.5411L97.7913 18.291L98.3043 18.2106L99.8162 27.4607L99.4112 27.5411M99.3842 23.3049L100.086 22.8759L100.059 22.6882L100.005 22.4737L99.2222 22.3128M99.6002 22.3933L99.7082 23.0904M99.7082 26.7904L99.8702 26.5759M98.7092 19.0418L99.9242 26.5223M98.4122 18.8809L98.6552 19.0418M11.8806 3.62495H20.0343V39.821H11.8806V3.62495ZM11.8806 3.62495L11.9076 11.7221L44.1983 11.7489V3.62495H11.8806ZM14.9855 35.5847L15.2015 35.9333L14.9855 36.3086M17.0374 36.3086L16.8214 35.9333L17.0374 35.5847M16.6054 36.9521L15.4174 34.9412M15.4174 36.9521L16.6054 34.9412M15.8224 34.8876L15.6064 35.2362H15.2015M16.8214 35.2362H16.4164L16.2004 34.8876M15.2015 36.6304H15.6064L15.8224 36.9789M16.2004 36.9789L16.4164 36.6304H16.8214M17.1724 35.9333H14.8505M20.0343 22.8759H11.9886M20.0343 32.1796H11.9886M36.2876 3.70538V11.7221H11.9346M28.215 11.7221V3.65176M24.4621 9.44313L23.4631 8.07572M24.3271 9.44313L25.2451 8.0221M24.3811 9.17501L24.3541 7.56629M23.2201 6.14527V5.50178M23.0042 5.47497H23.4631M82.6989 5.01917L82.6719 3.57132L82.5099 3.33002H55.1599L54.9709 3.5177L54.9169 5.01917H53.837L53.594 5.23366L53.567 13.9207L53.837 14.1888H56.2939L56.3209 14.6714L56.5639 14.8859L81.1059 14.8591L81.3219 14.591V14.1888M82.6989 5.01917L83.8598 5.04598L84.0488 5.26047V13.9475L83.8598 14.162L81.3219 14.1888M82.6989 5.01917V3.67857C82.6989 3.49089 82.5369 3.33002 82.3479 3.33002H55.2949C55.1059 3.33002 54.9439 3.49089 54.9439 3.67857V5.01917M81.3219 14.1888H83.7248C83.9138 14.1888 84.0758 14.028 84.0758 13.8403V5.36772C84.0758 5.18004 83.9138 5.01917 83.7248 5.01917H82.0239M53.567 5.36772V13.8403C53.567 14.028 53.729 14.1888 53.918 14.1888H56.3209M56.3209 7.72717V14.5374C56.3209 14.7251 56.4829 14.8859 56.6719 14.8859M81.3219 14.5374V7.72717C81.3219 7.53948 81.1599 7.37861 80.9709 7.37861M64.9875 14.8591H72.6552C72.8442 14.8591 73.0062 14.6983 73.0062 14.5106M56.6449 14.8591H64.3126C64.5016 14.8591 64.6636 14.6983 64.6636 14.5106M64.9875 14.8859C64.7985 14.8859 64.6366 14.7251 64.6366 14.5374V7.72717C64.6366 7.53948 64.4746 7.37861 64.2856 7.37861M73.3302 14.8591H80.9979C81.1869 14.8591 81.3489 14.6983 81.3489 14.5106M73.3302 14.8859C73.1412 14.8859 72.9792 14.7251 72.9792 14.5374V7.72717C72.9792 7.53948 72.8172 7.37861 72.6282 7.37861M64.9875 7.40542H72.6552C72.8442 7.40542 73.0062 7.24455 73.0062 7.05687M64.9875 7.40542C64.7985 7.40542 64.6366 7.24455 64.6366 7.05687V6.38657M64.9875 7.40542C64.7985 7.40542 64.6366 7.56629 64.6366 7.75398M64.9875 6.03802H72.6552C72.8442 6.03802 73.0062 5.87715 73.0062 5.68946M64.9875 6.03802C64.7985 6.03802 64.6366 5.87715 64.6366 5.68946V4.34887M64.9875 6.03802C64.7985 6.03802 64.6366 6.19889 64.6366 6.38657M72.6552 4.00031H64.9875C64.7985 4.00031 64.6366 4.16119 64.6366 4.34887M55.6189 5.01917H53.918C53.783 5.01917 53.648 5.0996 53.594 5.20685C53.567 5.26047 53.567 5.28729 53.567 5.34091M64.6366 4.34887C64.6366 4.16119 64.4746 4.00031 64.2856 4.00031M56.6449 7.40542H64.3126C64.5016 7.40542 64.6636 7.24455 64.6636 7.05687M56.6449 7.40542C56.4559 7.40542 56.2939 7.56629 56.2939 7.75398M56.6449 7.40542C56.5099 7.40542 56.3749 7.32499 56.3209 7.19093L55.6459 5.85033M64.6636 5.68946C64.6636 5.87715 64.5016 6.03802 64.3126 6.03802H55.9699C55.7809 6.03802 55.6189 5.87715 55.6189 5.68946V4.34887C55.6189 4.16119 55.7809 4.00031 55.9699 4.00031H64.3126M64.6366 6.38657C64.6366 6.19889 64.4746 6.03802 64.2856 6.03802M73.3302 6.03802H81.6729C81.8619 6.03802 82.0239 5.87715 82.0239 5.68946V4.34887C82.0239 4.16119 81.8619 4.00031 81.6729 4.00031H73.3302C73.1412 4.00031 72.9792 4.16119 72.9792 4.34887M73.3302 6.03802C73.1412 6.03802 72.9792 5.87715 72.9792 5.68946V4.34887M73.3302 6.03802C73.1412 6.03802 72.9792 6.19889 72.9792 6.38657M73.3302 7.40542H80.9979C81.1329 7.40542 81.2679 7.32499 81.3219 7.19093M73.3302 7.40542C73.1412 7.40542 72.9792 7.24455 72.9792 7.05687V6.38657M73.3302 7.40542C73.1412 7.40542 72.9792 7.56629 72.9792 7.75398M72.9792 4.34887C72.9792 4.16119 72.8172 4.00031 72.6282 4.00031M72.9792 6.38657C72.9792 6.19889 72.8172 6.03802 72.6282 6.03802M81.2949 7.19093L81.9699 5.87715M61.1537 39.5797V38.6145H78.163V39.6065H61.1537H62.1256L62.2606 40.1964H77.0291L77.1911 39.6065M95.4694 10.2475C96.6843 10.7033 97.8993 11.2127 99.0872 11.8026M92.2565 11.6417C92.4995 10.8373 92.6345 10.0062 92.7155 9.1482C91.8245 9.22863 90.9065 9.12138 90.0426 8.85326M92.2565 11.6685C92.7965 10.9178 93.1475 10.0866 93.3634 9.22863C94.1464 9.55037 94.9024 9.95255 95.6044 10.4352C95.0374 9.71124 94.3624 9.09457 93.6064 8.63877C94.1734 7.99528 94.7944 7.40542 95.4694 6.896C94.6324 7.16412 93.8224 7.61992 93.1475 8.20978C92.7155 7.48586 92.3375 6.70831 92.0405 5.93077C92.0405 6.81556 92.2295 7.70035 92.5805 8.53152C91.7435 8.71921 90.9065 8.82645 90.0426 8.88008M90.3666 14.6178C91.4465 12.9823 92.2025 11.1859 92.6075 9.30907C90.9875 10.6765 89.6376 12.3388 88.6386 14.2425C89.0706 12.2584 90.1776 10.462 91.7435 9.1482M91.1495 9.09457C89.9616 9.3895 88.8276 9.89893 87.8017 10.596C88.7196 9.25544 90.2046 8.39746 91.8245 8.2634C90.4206 7.53948 89.2056 6.54744 88.2336 5.34091C89.6376 6.11845 90.9875 6.92281 92.3375 7.78079M92.4995 7.05687C92.7695 5.95758 92.7155 4.80467 92.2835 3.75901C92.9315 4.80467 93.2555 6.03802 93.2285 7.24455M93.2555 7.24455C93.9304 6.46701 94.3624 5.50178 94.4704 4.48293C94.6324 5.5554 94.4434 6.65469 93.9304 7.61992M93.9034 8.82645C95.5774 8.85327 97.2243 9.20182 98.7632 9.87212C97.3323 8.85327 95.6314 8.31703 93.8764 8.34384M93.1745 9.84531C92.7425 11.6685 91.7705 13.3308 90.3936 14.591M95.1184 10.1134C94.7404 9.97936 94.3894 9.84531 94.0114 9.71125C94.6324 10.9982 95.3884 12.1779 96.3063 13.2504C94.9294 12.3924 93.8494 11.1591 93.2285 9.68443M93.9844 8.82645C95.9013 9.41631 97.6293 10.4352 99.0872 11.7758M94.5244 7.67354C94.6864 7.88804 94.7944 8.12934 94.8484 8.37065M94.9024 8.88008C94.9024 8.96051 94.9024 9.06776 94.8754 9.1482M94.5514 9.89893C94.4704 10.0062 94.3624 10.1402 94.2544 10.2207M93.6874 10.596C93.4444 10.7033 93.1745 10.7301 92.9045 10.7301M92.2835 10.5692C92.0405 10.4888 91.8515 10.3279 91.6625 10.167M91.2305 9.604C91.1495 9.44313 91.0955 9.28226 91.0955 9.09457M91.1225 8.37065C91.1495 8.23659 91.2035 8.10253 91.2575 7.96847M91.7165 7.40542C91.8515 7.29818 92.0135 7.19093 92.1755 7.11049M92.4995 6.97643C92.5265 6.97643 92.5265 6.97643 92.5535 6.97643M93.2285 6.92281C93.3094 6.92281 93.3904 6.94962 93.4714 6.97643M94.0924 7.27136C94.1464 7.32499 94.2274 7.37861 94.2814 7.43224M11.4486 3.22277H102.651M102.651 40.4377H104.298V41.1616H102.651M102.651 40.4377H43.6584V41.1616H47.5192M102.651 40.4377V41.1616M102.651 41.1616H48.2482M102.651 83.6584H103.731V85.9642M102.651 83.6584V76.9822H105V85.9642H103.731M102.651 83.6584V85.9642H103.731M102.651 83.6584H48.3832M48.3832 83.6584V85.6693H47.6542V83.6584M48.3832 83.6584H47.6542M47.6542 83.6584H11.4486M47.6542 83.6584V60.9219M11.4486 83.6584V60.9219M11.4486 60.9219H9.18068V60.198H11.4486M11.4486 60.9219V60.198M11.4486 60.9219H27.324V60.198H11.4486M47.6542 60.198H37.0976V60.9219H47.6542M47.6542 60.198V60.9219M48.2482 41.1616V40.5449H47.5192V41.1616M48.2482 41.1616H47.5192M48.2482 41.1616V41.9927H47.5192V41.1616M98.2233 76.6873H100.626C101.463 76.6873 102.165 77.3576 102.165 78.2156V80.6019C102.165 81.433 101.49 82.1301 100.626 82.1301H98.2233C97.3863 82.1301 96.6843 81.4598 96.6843 80.6019V78.2156C96.7113 77.3576 97.3863 76.6873 98.2233 76.6873ZM98.2233 43.6819H100.626C101.463 43.6819 102.165 44.3522 102.165 45.2102V47.5964C102.165 48.4276 101.49 49.1247 100.626 49.1247H98.2233C97.3863 49.1247 96.6843 48.4544 96.6843 47.5964V45.2102C96.7113 44.379 97.3863 43.6819 98.2233 43.6819ZM99.9242 51.4573H72.1423C70.8733 51.4573 69.8474 52.4762 69.8474 53.7363V72.8264C69.8474 74.0866 70.8733 75.1054 72.1423 75.1054H99.9242C101.193 75.1054 102.219 74.0866 102.219 72.8264V53.7363C102.219 52.4762 101.193 51.4573 99.9242 51.4573ZM100.059 79.3685C100.059 79.7171 99.7892 79.9852 99.4382 79.9852C99.0872 79.9852 98.8172 79.7171 98.8172 79.3685C98.8172 79.0199 99.0872 78.7518 99.4382 78.7518C99.7622 78.7518 100.059 79.0199 100.059 79.3685ZM100.923 79.3685C100.923 80.1729 100.248 80.8432 99.4382 80.8432C98.6282 80.8432 97.9533 80.1729 97.9533 79.3685C97.9533 78.5641 98.6282 77.8939 99.4382 77.8939C100.248 77.8939 100.923 78.5373 100.923 79.3685ZM99.7082 79.3417C99.7082 79.4758 99.6002 79.6098 99.4382 79.6098C99.3032 79.6098 99.1682 79.5026 99.1682 79.3417C99.1682 79.2076 99.2762 79.0736 99.4382 79.0736C99.5732 79.1004 99.7082 79.2076 99.7082 79.3417ZM100.059 46.4167C100.059 46.7653 99.7892 47.0334 99.4382 47.0334C99.0872 47.0334 98.8172 46.7653 98.8172 46.4167C98.8172 46.0682 99.0872 45.8 99.4382 45.8C99.7622 45.8 100.059 46.0682 100.059 46.4167ZM100.923 46.4167C100.923 47.2211 100.248 47.8914 99.4382 47.8914C98.6282 47.8914 97.9533 47.2211 97.9533 46.4167C97.9533 45.6123 98.6282 44.9421 99.4382 44.9421C100.248 44.9421 100.923 45.6123 100.923 46.4167ZM99.7082 46.4167C99.7082 46.5508 99.6002 46.6848 99.4382 46.6848C99.3032 46.6848 99.1682 46.5776 99.1682 46.4167C99.1682 46.2826 99.2762 46.1486 99.4382 46.1486C99.5732 46.1486 99.7082 46.2826 99.7082 46.4167ZM99.3032 52.0472H72.7632C71.4943 52.0472 70.4683 53.0661 70.4683 54.3262V72.2097C70.4683 73.4699 71.4943 74.4887 72.7632 74.4887H99.3032C100.572 74.4887 101.598 73.4699 101.598 72.2097V54.3262C101.598 53.0661 100.572 52.0472 99.3032 52.0472ZM49.1121 59.206V59.0987C49.1121 59.0183 49.1931 58.9379 49.2741 58.9379H56.6449C56.7259 58.9379 56.8069 58.9915 56.8069 59.0987V59.206C56.8069 59.2864 56.7259 59.3668 56.6449 59.3668H49.2741C49.1931 59.34 49.1121 59.2864 49.1121 59.206ZM49.1391 52.8247V52.7175C49.1391 52.6371 49.2201 52.5834 49.3281 52.5834L56.6719 53.1733C56.7529 53.1733 56.8339 53.2537 56.8339 53.3342V53.4414C56.8339 53.5219 56.7529 53.5755 56.6449 53.5755L49.3281 52.9856C49.1931 52.9856 49.1121 52.9052 49.1391 52.8247ZM49.1661 57.1146L49.1931 57.0074C49.2201 56.927 49.3011 56.8733 49.3821 56.8733L56.6719 57.8386C56.7528 57.8386 56.8338 57.919 56.8068 57.9994L56.7799 58.1067C56.7529 58.1871 56.6719 58.2407 56.5909 58.2407L49.3011 57.2755C49.2201 57.2755 49.1391 57.1951 49.1661 57.1146ZM49.1121 56.0958V55.9885C49.1121 55.9081 49.1931 55.8545 49.2741 55.8545L56.6449 56.0422C56.7259 56.0422 56.8069 56.1226 56.8069 56.203V56.3103C56.8069 56.3907 56.7259 56.4444 56.6449 56.4444L49.2741 56.2567C49.1931 56.2567 49.1121 56.1762 49.1121 56.0958ZM49.1121 54.353V54.2458C49.1121 54.1653 49.1931 54.0849 49.2741 54.0849H56.6449C56.7259 54.0849 56.8069 54.1385 56.8069 54.2458V54.353C56.8069 54.4335 56.7259 54.5139 56.6449 54.5139H49.2741C49.1931 54.5139 49.1121 54.4335 49.1121 54.353ZM56.8339 66.8742V66.7669C56.8339 66.6865 56.7529 66.6061 56.6719 66.6061H49.3011C49.2201 66.6061 49.1391 66.6597 49.1391 66.7669V66.8742C49.1391 66.9546 49.2201 67.035 49.3011 67.035H56.6719C56.7529 67.0082 56.8339 66.9546 56.8339 66.8742ZM56.8339 60.6806V60.5734C56.8339 60.4929 56.7529 60.4393 56.6719 60.4393L49.3281 60.6806C49.2471 60.6806 49.1661 60.7611 49.1661 60.8415V60.9487C49.1661 61.0292 49.2471 61.0828 49.3551 61.0828L56.6989 60.8415C56.7529 60.8415 56.8339 60.7611 56.8339 60.6806ZM56.8069 64.9705V64.8633C56.8069 64.7828 56.7259 64.7292 56.6179 64.7292L49.2741 65.3191C49.1931 65.3191 49.1121 65.3995 49.1121 65.48V65.5872C49.1121 65.6676 49.1931 65.7213 49.3011 65.7213L56.6449 65.1314C56.7529 65.1314 56.8069 65.051 56.8069 64.9705ZM56.8069 63.5227V63.4154C56.8069 63.335 56.7259 63.2814 56.6179 63.2814L49.3011 63.9249C49.2201 63.9249 49.1391 64.0053 49.1391 64.0857V64.193C49.1391 64.2734 49.2201 64.327 49.3281 64.327L56.6449 63.6836C56.7529 63.6836 56.8069 63.6031 56.8069 63.5227ZM56.8339 62.0212V61.914C56.8339 61.8335 56.7529 61.7531 56.6719 61.7531H49.3011C49.2201 61.7531 49.1391 61.8335 49.1391 61.914V62.0212C49.1391 62.1017 49.2201 62.1821 49.3011 62.1821H56.6719C56.7529 62.1821 56.8339 62.1017 56.8339 62.0212ZM56.8878 76.1511V76.2583C56.8878 76.3388 56.8069 76.4192 56.7259 76.4192H49.3551C49.2741 76.4192 49.1931 76.3656 49.1931 76.2583V76.1511C49.1931 76.0706 49.2741 75.9902 49.3551 75.9902H56.7259C56.8069 75.9902 56.8878 76.0706 56.8878 76.1511ZM56.8608 82.5323V82.6396C56.8608 82.72 56.7799 82.7736 56.6719 82.7736L49.3281 82.1838C49.2471 82.1838 49.1661 82.1033 49.1661 82.0229V81.9156C49.1661 81.8352 49.2471 81.7816 49.3551 81.7816L56.6719 82.3714C56.8069 82.3714 56.8878 82.4251 56.8608 82.5323ZM56.8338 78.2424L56.8068 78.3497C56.7798 78.4301 56.6989 78.4837 56.6179 78.4837L49.3281 77.5185C49.2471 77.5185 49.1661 77.438 49.1931 77.3576L49.2201 77.2504C49.2471 77.1699 49.3281 77.1163 49.4091 77.1163L56.6989 78.0815C56.7799 78.0815 56.8608 78.162 56.8338 78.2424ZM56.8878 79.2344V79.3417C56.8878 79.4221 56.8069 79.4758 56.7259 79.4758L49.3551 79.2881C49.2741 79.2881 49.1931 79.2076 49.1931 79.1272V79.02C49.1931 78.9395 49.2741 78.8859 49.3551 78.8859L56.7259 79.0736C56.8069 79.1004 56.8878 79.154 56.8878 79.2344ZM56.8878 80.9772V81.0845C56.8878 81.1649 56.8069 81.2453 56.7259 81.2453H49.3551C49.2741 81.2453 49.1931 81.1917 49.1931 81.0845V80.9772C49.1931 80.8968 49.2741 80.8164 49.3551 80.8164H56.7259C56.8069 80.8432 56.8878 80.8968 56.8878 80.9772ZM49.1661 68.4829V68.5901C49.1661 68.6706 49.2471 68.751 49.3281 68.751H56.6989C56.7799 68.751 56.8608 68.6974 56.8608 68.5901V68.4829C56.8608 68.4025 56.7799 68.322 56.6989 68.322H49.3281C49.2471 68.322 49.1661 68.4025 49.1661 68.4829ZM49.1661 74.6496V74.7569C49.1661 74.8373 49.2471 74.8909 49.3281 74.8909L56.6719 74.6496C56.7529 74.6496 56.8339 74.5692 56.8339 74.4887V74.3815C56.8339 74.3011 56.7529 74.2474 56.6449 74.2474L49.3011 74.4887C49.2471 74.5156 49.1661 74.5692 49.1661 74.6496ZM49.1931 70.3597V70.467C49.1931 70.5474 49.2741 70.601 49.3821 70.601L56.7259 70.0112C56.8069 70.0112 56.8878 69.9307 56.8878 69.8503V69.743C56.8878 69.6626 56.8069 69.609 56.6989 69.609L49.3551 70.1988C49.2471 70.1988 49.1931 70.2793 49.1931 70.3597ZM49.1931 71.8076V71.9148C49.1931 71.9952 49.2741 72.0489 49.3821 72.0489L56.6989 71.4054C56.7799 71.4054 56.8608 71.3249 56.8608 71.2445V71.1373C56.8608 71.0568 56.7799 71.0032 56.6719 71.0032L49.3551 71.6467C49.2471 71.6467 49.1931 71.7271 49.1931 71.8076ZM49.1661 73.309V73.4163C49.1661 73.4967 49.2471 73.5771 49.3281 73.5771H56.6989C56.7799 73.5771 56.8608 73.4967 56.8608 73.4163V73.309C56.8608 73.2286 56.7799 73.1482 56.6989 73.1482H49.3281C49.2471 73.175 49.1661 73.2286 49.1661 73.309ZM44.1983 61.2169H41.3904C39.6625 61.2169 38.2316 62.6111 38.2316 64.3539V80.4142C38.2316 82.1301 39.6355 83.5512 41.3904 83.5512H44.1983C45.9263 83.5512 47.3572 82.1569 47.3572 80.4142V64.3539C47.3302 62.6111 45.9263 61.2169 44.1983 61.2169ZM42.8214 80.8164C42.9294 80.8164 43.0374 80.7091 43.0374 80.575C43.0374 80.441 42.9294 80.3337 42.8214 80.3337C42.7134 80.3337 42.6054 80.441 42.6054 80.575C42.6054 80.7091 42.6864 80.8164 42.8214 80.8164ZM11.7186 61.1364H20.7902V69.8771H11.7186V61.1364ZM16.2004 68.4561C14.5265 68.4561 13.1495 67.1423 13.1495 65.5068C13.1495 63.8712 14.5265 62.5575 16.2004 62.5575C17.8744 62.5575 19.2513 63.8712 19.2513 65.5068C19.2513 67.1155 17.8744 68.4561 16.2004 68.4561ZM16.2004 67.7858C14.8775 67.7858 13.8245 66.7669 13.8245 65.48C13.8245 64.2198 14.8775 63.1741 16.2004 63.1741C17.5234 63.1741 18.5763 64.193 18.5763 65.48C18.5763 66.7669 17.4964 67.7858 16.2004 67.7858ZM14.4725 75.2663C15.9574 75.2663 17.3614 76.446 17.3614 77.9207V83.4439H11.7996V77.9207C11.7996 76.446 13.0145 75.2663 14.4725 75.2663ZM14.5805 76.0706C15.6874 76.0706 16.5784 77.0359 16.5784 78.2156V81.5671C16.5784 82.291 15.3364 82.4519 14.5805 82.4519C13.7165 82.4519 12.5826 82.3178 12.5826 81.5671V78.2156C12.5826 77.0359 13.4735 76.0706 14.5805 76.0706ZM14.5805 79.3149C14.9855 79.3149 15.2555 79.6366 15.2555 80.0388L15.3094 81.1917C15.3094 81.299 15.2015 81.4062 15.0935 81.4062H14.0675C13.9595 81.4062 13.8515 81.299 13.8515 81.1917L13.9055 80.0388C13.9055 79.6366 14.1755 79.3149 14.5805 79.3149ZM28.6199 79.9584C28.6199 79.7707 28.4849 79.6366 28.2959 79.6366C28.107 79.6366 27.972 79.7707 27.972 79.9584C27.972 80.1461 28.107 80.2801 28.2959 80.2801C28.4579 80.2801 28.6199 80.1192 28.6199 79.9584ZM28.6199 82.9881C28.3499 83.1758 28.107 83.149 27.891 82.9881C28.053 82.2374 28.026 81.4598 28.08 80.7359C28.188 80.6287 28.3499 80.6555 28.4309 80.7359C28.5119 81.4598 28.4579 82.2642 28.6199 82.9881ZM77.2721 32.6086C77.2991 31.3752 76.3001 30.3296 75.0312 30.3296C73.7892 30.3028 72.7362 31.2948 72.7362 32.555C72.7092 33.7883 73.7082 34.834 74.9772 34.834C76.2191 34.834 77.2451 33.8419 77.2721 32.6086ZM77.2451 30.41C76.0301 29.1767 74.0592 29.1499 72.8172 30.3296C72.7092 30.4368 72.7092 30.6245 72.8172 30.7318C72.9252 30.839 73.1142 30.839 73.2222 30.7318C74.2482 29.7665 75.8681 29.7665 76.8401 30.7854C76.9481 30.8926 77.1371 30.8926 77.2451 30.7854C77.3531 30.7049 77.3531 30.5173 77.2451 30.41ZM66.8235 32.6086C66.8505 31.3752 65.8515 30.3296 64.5826 30.3296C63.3406 30.3028 62.2876 31.2948 62.2876 32.555C62.2606 33.7883 63.2596 34.834 64.5286 34.834C65.7705 34.834 66.7965 33.8419 66.8235 32.6086ZM66.7965 30.41C65.5815 29.1767 63.6106 29.1499 62.3686 30.3296C62.2606 30.4368 62.2606 30.6245 62.3686 30.7318C62.4766 30.839 62.6656 30.839 62.7736 30.7318C63.7996 29.7665 65.4195 29.7665 66.3915 30.7854C66.4995 30.8926 66.6885 30.8926 66.7965 30.7854C66.9045 30.7049 66.9045 30.5173 66.7965 30.41ZM79.918 31.697H59.5067C59.3448 31.697 59.2098 31.831 59.2098 31.9919V39.9282C59.2098 40.0891 59.3448 40.2232 59.5067 40.2232H79.918C80.08 40.2232 80.2149 40.0891 80.2149 39.9282V31.9919C80.2149 31.8579 80.08 31.697 79.918 31.697ZM93.5254 29.3375C92.3105 29.6593 91.0685 28.9354 90.7445 27.7288C90.4206 26.5223 91.1495 25.2889 92.3645 24.9672C93.5794 24.6455 94.8214 25.3694 95.1454 26.5759C95.4694 27.7825 94.7404 29.0158 93.5254 29.3375ZM91.3655 29.847C89.8806 28.989 89.3676 27.0853 90.2316 25.6107C90.3126 25.4766 90.4746 25.423 90.6095 25.5034C90.7445 25.5839 90.7985 25.7448 90.7175 25.8788C90.0156 27.0853 90.4206 28.6404 91.6355 29.3644C91.7705 29.4448 91.8245 29.6057 91.7435 29.7397C91.6895 29.8738 91.5005 29.9274 91.3655 29.847ZM93.0935 37.8637V16.6287C93.0935 15.3686 94.1194 14.3497 95.3884 14.3497H100.086C101.355 14.3497 102.381 15.3686 102.381 16.6287V37.8637C102.381 39.1239 101.355 40.1427 100.086 40.1427H95.3884C94.1194 40.1427 93.0935 39.1239 93.0935 37.8637ZM94.4434 20.8382L95.3884 26.8708C95.4154 27.0049 95.5234 27.0853 95.6314 27.0853L97.0623 26.8708C97.1703 26.844 97.2513 26.7368 97.2243 26.6027L96.2793 20.5701C96.2523 20.436 96.1443 20.3556 96.0363 20.3556L94.6054 20.5701C94.4974 20.5701 94.4164 20.7041 94.4434 20.8382ZM14.4995 35.9333C14.4995 36.7644 15.1745 37.4347 16.0114 37.4347C16.8484 37.4347 17.5234 36.7644 17.5234 35.9333C17.5234 35.1021 16.8484 34.4318 16.0114 34.4318C15.1745 34.4318 14.4995 35.1021 14.4995 35.9333ZM24.8401 7.05687C24.4081 7.05687 24.0571 6.70831 24.0571 6.27932C24.0571 5.85033 24.4081 5.50178 24.8401 5.50178C25.2721 5.50178 25.6231 5.85033 25.6231 6.27932C25.6231 6.70831 25.2721 7.05687 24.8401 7.05687ZM25.6231 6.25251C25.6231 6.68194 25.2725 7.03006 24.8401 7.03006C24.4077 7.03006 24.0571 6.68194 24.0571 6.25251C24.0571 5.82309 24.4077 5.47497 24.8401 5.47497C25.2725 5.47497 25.6231 5.82309 25.6231 6.25251ZM22.8422 6.97643C22.8152 6.896 22.7882 6.81556 22.7882 6.73513C22.7882 6.41338 22.9772 6.17208 23.2201 6.17208C23.4631 6.17208 23.6521 6.4402 23.6521 6.73513C23.6521 6.81556 23.6251 6.92281 23.5981 6.97643H22.8422ZM13.9865 22.286H17.9553C18.7923 22.286 19.4943 21.6157 19.4943 20.7577V13.8135C19.4943 12.9823 18.8193 12.2852 17.9553 12.2852H13.9865C13.1495 12.2852 12.4476 12.9555 12.4476 13.8135V20.7577C12.4746 21.5889 13.1495 22.286 13.9865 22.286ZM16.8214 18.5592C16.8214 18.6664 16.7404 18.7737 16.6054 18.7737H16.4434C16.3354 18.7737 16.2274 18.6932 16.2274 18.5592V18.3715C16.2274 18.2642 16.3084 18.157 16.4434 18.157H16.6054C16.7134 18.157 16.8214 18.2374 16.8214 18.3715V18.5592ZM15.3094 14.7251V12.6874C15.3094 12.6606 15.2825 12.6337 15.2555 12.6337C15.2285 12.6337 15.2015 12.6606 15.2015 12.6874V14.7251C15.2015 14.7519 15.2285 14.7787 15.2555 14.7787C15.2825 14.7787 15.3094 14.7519 15.3094 14.7251ZM14.9585 14.7251V12.6874C14.9585 12.6606 14.9315 12.6337 14.9045 12.6337C14.8775 12.6337 14.8505 12.6606 14.8505 12.6874V14.7251C14.8505 14.7519 14.8775 14.7787 14.9045 14.7787C14.9315 14.7787 14.9585 14.7519 14.9585 14.7251ZM14.5805 14.7251V12.6874C14.5805 12.6606 14.5535 12.6337 14.5265 12.6337C14.4995 12.6337 14.4725 12.6606 14.4725 12.6874V14.7251C14.4725 14.7519 14.4995 14.7787 14.5265 14.7787C14.5535 14.7787 14.5805 14.7519 14.5805 14.7251ZM17.4964 14.7251V12.6874C17.4964 12.6606 17.4694 12.6337 17.4424 12.6337C17.4154 12.6337 17.3884 12.6606 17.3884 12.6874V14.7251C17.3884 14.7519 17.4154 14.7787 17.4424 14.7787C17.4694 14.7787 17.4964 14.7519 17.4964 14.7251ZM17.1184 14.7251V12.6874C17.1184 12.6606 17.0914 12.6337 17.0644 12.6337C17.0374 12.6337 17.0104 12.6606 17.0104 12.6874V14.7251C17.0104 14.7519 17.0374 14.7787 17.0644 14.7787C17.1184 14.7787 17.1184 14.7519 17.1184 14.7251ZM16.7674 14.7251V12.6874C16.7674 12.6606 16.7404 12.6337 16.7134 12.6337C16.6864 12.6337 16.6594 12.6606 16.6594 12.6874V14.7251C16.6594 14.7519 16.6864 14.7787 16.7134 14.7787C16.7404 14.7787 16.7674 14.7519 16.7674 14.7251ZM16.4164 14.7251V12.6874C16.4164 12.6606 16.3894 12.6337 16.3624 12.6337C16.3354 12.6337 16.3084 12.6606 16.3084 12.6874V14.7251C16.3084 14.7519 16.3354 14.7787 16.3624 14.7787C16.3894 14.7787 16.4164 14.7519 16.4164 14.7251ZM16.0384 14.7251V12.6874C16.0384 12.6606 16.0114 12.6337 15.9844 12.6337C15.9574 12.6337 15.9304 12.6606 15.9304 12.6874V14.7251C15.9304 14.7519 15.9574 14.7787 15.9844 14.7787C16.0114 14.7787 16.0384 14.7519 16.0384 14.7251ZM15.6874 14.7251V12.6874C15.6874 12.6606 15.6604 12.6337 15.6334 12.6337C15.6064 12.6337 15.5794 12.6606 15.5794 12.6874V14.7251C15.5794 14.7519 15.6064 14.7787 15.6334 14.7787C15.6604 14.7787 15.6874 14.7519 15.6874 14.7251ZM18.9273 14.6983V12.6874C18.9273 12.6606 18.9003 12.6337 18.8733 12.6337C18.8463 12.6337 18.8193 12.6606 18.8193 12.6874V14.6983C18.8193 14.7251 18.8463 14.7519 18.8733 14.7519C18.9273 14.7519 18.9273 14.7251 18.9273 14.6983ZM18.5763 14.6983V12.6874C18.5763 12.6606 18.5493 12.6337 18.5223 12.6337C18.4953 12.6337 18.4683 12.6606 18.4683 12.6874V14.6983C18.4683 14.7251 18.4953 14.7519 18.5223 14.7519C18.5493 14.7519 18.5763 14.7251 18.5763 14.6983ZM18.2253 14.6983V12.6874C18.2253 12.6606 18.1983 12.6337 18.1713 12.6337C18.1443 12.6337 18.1173 12.6606 18.1173 12.6874V14.6983C18.1173 14.7251 18.1443 14.7519 18.1713 14.7519C18.1983 14.7519 18.2253 14.7251 18.2253 14.6983ZM17.8474 14.6983V12.6874C17.8474 12.6606 17.8204 12.6337 17.7934 12.6337C17.7664 12.6337 17.7394 12.6606 17.7394 12.6874V14.6983C17.7394 14.7251 17.7664 14.7519 17.7934 14.7519C17.8474 14.7519 17.8474 14.7251 17.8474 14.6983ZM17.4694 15.2613H15.6334C14.7965 15.2613 14.0945 15.9316 14.0945 16.7896V20.1679C14.0945 20.999 14.7695 21.6962 15.6334 21.6962H17.4694C18.3063 21.6962 19.0083 21.0259 19.0083 20.1679V16.7896C18.9813 15.9316 18.3063 15.2613 17.4694 15.2613ZM15.6064 18.4519C15.6064 18.3715 15.5524 18.3179 15.4714 18.3179H12.9335C12.8525 18.3179 12.7985 18.3715 12.7985 18.4519C12.7985 18.5324 12.8525 18.586 12.9335 18.586H15.4714C15.5524 18.586 15.6064 18.5324 15.6064 18.4519ZM13.6085 18.9882V17.9425C13.6085 17.8621 13.5545 17.8084 13.4735 17.8084C13.3925 17.8084 13.3385 17.8621 13.3385 17.9425V18.9882C13.3385 19.0686 13.3925 19.1222 13.4735 19.1222C13.5545 19.1222 13.6085 19.0686 13.6085 18.9882ZM13.7165 17.9157C13.7165 18.0497 13.6085 18.157 13.4735 18.157C13.3385 18.157 13.2305 18.0497 13.2305 17.9157C13.2305 17.7816 13.3385 17.6744 13.4735 17.6744C13.6085 17.6744 13.7165 17.7816 13.7165 17.9157ZM13.7165 18.9882C13.7165 19.1222 13.6085 19.2295 13.4735 19.2295C13.3385 19.2295 13.2305 19.1222 13.2305 18.9882C13.2305 18.8541 13.3385 18.7468 13.4735 18.7468C13.6085 18.7468 13.7165 18.8541 13.7165 18.9882ZM15.6334 18.4519C15.6334 18.5592 15.5524 18.6396 15.4444 18.6396C15.3364 18.6396 15.2555 18.5592 15.2555 18.4519C15.2555 18.3447 15.3364 18.2642 15.4444 18.2642C15.5524 18.291 15.6334 18.3715 15.6334 18.4519ZM32.9128 5.98439C32.9128 6.57426 33.3988 7.05687 33.9927 7.05687C34.5867 7.05687 35.0727 6.57426 35.0727 5.98439C35.0727 5.39453 34.5867 4.91192 33.9927 4.91192C33.3988 4.91192 32.9128 5.39453 32.9128 5.98439ZM29.4569 5.98439C29.4569 6.57426 29.9429 7.05687 30.5369 7.05687C31.1308 7.05687 31.6168 6.57426 31.6168 5.98439C31.6168 5.39453 31.1308 4.91192 30.5369 4.91192C29.9429 4.91192 29.4569 5.39453 29.4569 5.98439ZM32.9128 9.36269C32.9128 9.95255 33.3988 10.4352 33.9927 10.4352C34.5867 10.4352 35.0727 9.95255 35.0727 9.36269C35.0727 8.77283 34.5867 8.29022 33.9927 8.29022C33.3988 8.31703 32.9128 8.77283 32.9128 9.36269ZM29.4569 9.36269C29.4569 9.95255 29.9429 10.4352 30.5369 10.4352C31.1308 10.4352 31.6168 9.95255 31.6168 9.36269C31.6168 8.77283 31.1308 8.29022 30.5369 8.29022C29.9429 8.31703 29.4569 8.77283 29.4569 9.36269ZM24.8401 6.65469C24.6241 6.65469 24.4351 6.46701 24.4351 6.25251C24.4351 6.03802 24.6241 5.85033 24.8401 5.85033C25.0561 5.85033 25.2451 6.03802 25.2451 6.25251C25.2451 6.49382 25.0561 6.65469 24.8401 6.65469ZM92.5805 6.84237L92.6885 5.63584L92.4995 4.32206L92.9315 5.12641L93.2015 6.25251L93.3364 7.19093L93.7954 6.54744L94.2274 5.63584L94.5244 4.77786L94.4974 5.90396L94.3084 6.78875L93.9844 7.56629L95.3614 6.94962L94.5514 7.70035L94.8754 8.39746L95.7664 8.53152L96.6033 8.77283L98.4662 9.65762C98.4662 9.65762 96.5763 9.06776 96.5763 9.12138C96.5763 9.1482 94.9564 8.88008 94.9564 8.88008L94.9024 9.12138L96.0093 9.65762L97.3323 10.3815L98.8442 11.5881L97.5753 11.1323L95.4694 10.2743L94.5784 9.95255L94.2814 10.2743L95.1184 11.6685L96.0633 13.0359L95.6314 12.8482L94.6324 11.883L93.7144 10.6228C93.7144 10.6228 92.9855 10.7837 92.9315 10.7569C92.9045 10.7301 92.6345 11.5345 92.6345 11.5345L91.8515 12.9555L90.6095 14.4301L91.5005 12.6606L92.0945 11.2395L92.3105 10.6228L91.6895 10.2207L90.9335 11.025L90.1506 11.9634L89.5296 12.8482L88.8006 14.0548L88.9626 13.2236L89.5566 11.8294L90.2586 10.7569L91.2575 9.65762L91.1495 9.17501L89.8536 9.57719L88.6656 10.1402L88.0446 10.5156L88.1796 10.2207L88.9086 9.46994L90.0426 8.82645C90.0426 8.82645 91.1495 8.45109 91.2035 8.45109C91.2575 8.45109 91.3385 8.04891 91.3385 8.04891L90.0156 7.16412L89.0166 6.2257L88.3416 5.47497L88.8816 5.71628L90.6366 6.73513L91.7435 7.40542L92.1485 7.11049L92.0945 6.09164L92.4725 6.81556L92.5805 6.84237Z" stroke="#E5C696" stroke-width="0.3327" stroke-miterlimit="22.9256"/>
</svg>
