<svg width="116" height="35" viewBox="0 0 116 35" fill="none" xmlns="http://www.w3.org/2000/svg">
<path d="M106.989 17.3424C111.966 17.3424 116 13.4601 116 8.67118C116 3.88222 111.966 0 106.989 0C102.013 0 97.9784 3.88222 97.9784 8.67118C97.9784 13.4601 102.013 17.3424 106.989 17.3424Z" fill="#FF481F"/>
<path fill-rule="evenodd" clip-rule="evenodd" d="M34.0951 34.931C32.9004 34.931 31.8185 34.6354 30.8491 34.0442C29.8866 33.4464 29.1221 32.5694 28.5555 31.4133C27.9957 30.2506 27.7158 28.8251 27.7158 27.1368C27.7158 25.4026 28.0059 23.9607 28.5862 22.8111C29.1664 21.6549 29.9378 20.7911 30.9003 20.2196C31.8697 19.6415 32.9312 19.3525 34.0848 19.3525C34.9654 19.3525 35.6992 19.497 36.2863 19.786C36.8802 20.0685 37.358 20.4232 37.7198 20.8502C38.0885 21.2706 38.3683 21.6845 38.5595 22.0918H38.6926V14.5045H43.0444V34.6847H38.7438V32.2607H38.5595C38.3547 32.6811 38.0646 33.0983 37.6891 33.5121C37.3205 33.9194 36.8392 34.2577 36.2453 34.527C35.6583 34.7964 34.9415 34.931 34.0951 34.931ZM35.4774 31.5906C36.1805 31.5906 36.7744 31.4067 37.2591 31.0388C37.7506 30.6644 38.126 30.1422 38.3854 29.4721C38.6516 28.8021 38.7848 28.0171 38.7848 27.1171C38.7848 26.2171 38.6551 25.4354 38.3957 24.7719C38.1363 24.1085 37.7608 23.5961 37.2693 23.2348C36.7778 22.8735 36.1805 22.6928 35.4774 22.6928C34.7606 22.6928 34.1565 22.8801 33.665 23.2545C33.1735 23.6289 32.8015 24.1479 32.5489 24.8114C32.2963 25.4748 32.17 26.2434 32.17 27.1171C32.17 27.9974 32.2963 28.7758 32.5489 29.4524C32.8083 30.1225 33.1803 30.648 33.665 31.029C34.1565 31.4034 34.7606 31.5906 35.4774 31.5906Z" fill="black"/>
<path d="M0 19.5495V34.6847H4.36204V26.1219C4.36204 25.5044 4.50539 24.9592 4.7921 24.4862C5.08563 24.0132 5.48156 23.6453 5.97988 23.3826C6.48503 23.1133 7.05844 22.9786 7.70012 22.9786C8.00048 22.9786 8.33156 23.0016 8.69336 23.0476C9.05515 23.0935 9.33845 23.1461 9.54324 23.2052V19.4806C9.3521 19.4346 9.13024 19.3984 8.87767 19.3722C8.62509 19.3459 8.38958 19.3327 8.17114 19.3327C7.29054 19.3327 6.51234 19.5758 5.83653 20.0619C5.16072 20.5415 4.67946 21.2509 4.39276 22.1903H4.22892V19.5495H0Z" fill="black"/>
<path fill-rule="evenodd" clip-rule="evenodd" d="M14.0563 34.0343C15.2236 34.665 16.6162 34.9803 18.234 34.9803C19.531 34.9803 20.6744 34.7898 21.6643 34.4088C22.6609 34.0212 23.4733 33.4825 24.1013 32.7928C24.7361 32.0965 25.1559 31.2819 25.3607 30.3491L21.3264 30.0929C21.1762 30.4739 20.9577 30.7958 20.671 31.0586C20.3843 31.3213 20.0396 31.5184 19.6368 31.6498C19.2341 31.7812 18.7904 31.8468 18.3057 31.8468C17.5753 31.8468 16.9438 31.699 16.4114 31.4034C15.8789 31.1078 15.4659 30.6874 15.1724 30.1422C14.8857 29.5969 14.7424 28.9499 14.7424 28.201V28.1912H25.4529V27.0383C25.4529 25.7507 25.2652 24.6274 24.8897 23.6683C24.5143 22.7027 23.9886 21.9013 23.3128 21.2641C22.6439 20.6269 21.8588 20.1506 20.9577 19.8353C20.0635 19.5134 19.0976 19.3525 18.06 19.3525C16.5172 19.3525 15.1724 19.6809 14.0256 20.3378C12.8856 20.9947 12.0016 21.9111 11.3735 23.087C10.7455 24.2628 10.4315 25.6292 10.4315 27.1861C10.4315 28.7824 10.7455 30.1652 11.3735 31.3345C12.0016 32.4972 12.8958 33.3971 14.0563 34.0343ZM14.7465 25.5898C14.7728 25.0463 14.9182 24.5503 15.1827 24.1019C15.4694 23.6092 15.8653 23.2184 16.3704 22.9293C16.8824 22.6337 17.4695 22.4859 18.1316 22.4859C18.7665 22.4859 19.3228 22.6206 19.8007 22.8899C20.2853 23.1527 20.6642 23.5173 20.9373 23.9837C21.2103 24.4501 21.3468 24.9854 21.3468 25.5898H14.7465Z" fill="black"/>
<path fill-rule="evenodd" clip-rule="evenodd" d="M49.5695 34.0442C50.573 34.6814 51.7301 35 53.0407 35C54.051 35 54.86 34.8391 55.4675 34.5172C56.075 34.1887 56.5426 33.8176 56.8703 33.4037C57.198 32.9833 57.4505 32.6351 57.628 32.3592H57.9147V34.6847H60.2494V14.5045H57.8328V21.9538H57.628C57.4505 21.691 57.2014 21.356 56.8805 20.9487C56.5665 20.5349 56.1092 20.167 55.5085 19.8451C54.9146 19.5167 54.1056 19.3525 53.0817 19.3525C51.7574 19.3525 50.5901 19.6711 49.5798 20.3083C48.5695 20.9455 47.781 21.8487 47.2144 23.018C46.6478 24.1873 46.3646 25.5668 46.3646 27.1565C46.3646 28.7594 46.6478 30.1487 47.2144 31.3246C47.781 32.4939 48.5661 33.4004 49.5695 34.0442ZM55.8259 32.1819C55.1569 32.668 54.3377 32.911 53.3684 32.911C52.3581 32.911 51.5116 32.6548 50.829 32.1425C50.1532 31.6235 49.6412 30.9272 49.2931 30.0535C48.9517 29.1732 48.7811 28.1944 48.7811 27.1171C48.7811 26.0529 48.9483 25.0938 49.2828 24.2399C49.6241 23.3793 50.1327 22.6994 50.8085 22.2001C51.4911 21.6943 52.3444 21.4414 53.3684 21.4414C54.3514 21.4414 55.1774 21.6812 55.8464 22.1607C56.5153 22.6337 57.0205 23.2972 57.3618 24.1512C57.7031 24.9986 57.8738 25.9872 57.8738 27.1171C57.8738 28.2601 57.6997 29.2685 57.3516 30.1422C57.0034 31.0093 56.4949 31.6892 55.8259 32.1819Z" fill="#989898"/>
<path fill-rule="evenodd" clip-rule="evenodd" d="M71.4002 35C69.9803 35 68.7345 34.6748 67.6628 34.0245C66.5979 33.3742 65.765 32.4643 65.1643 31.295C64.5704 30.1257 64.2735 28.7594 64.2735 27.1959C64.2735 25.6194 64.5704 24.2431 65.1643 23.0673C65.765 21.8914 66.5979 20.9783 67.6628 20.328C68.7345 19.6776 69.9803 19.3525 71.4002 19.3525C72.8201 19.3525 74.0625 19.6776 75.1274 20.328C76.1991 20.9783 77.0319 21.8914 77.6258 23.0673C78.2265 24.2431 78.5269 25.6194 78.5269 27.1959C78.5269 28.7594 78.2265 30.1257 77.6258 31.295C77.0319 32.4643 76.1991 33.3742 75.1274 34.0245C74.0625 34.6748 72.8201 35 71.4002 35ZM71.4002 32.911C72.4788 32.911 73.3662 32.645 74.0625 32.1129C74.7588 31.5808 75.2741 30.8812 75.6086 30.0141C75.9431 29.147 76.1104 28.2076 76.1104 27.1959C76.1104 26.1843 75.9431 25.2416 75.6086 24.3679C75.2741 23.4943 74.7588 22.7881 74.0625 22.2494C73.3662 21.7108 72.4788 21.4414 71.4002 21.4414C70.3216 21.4414 69.4342 21.7108 68.7379 22.2494C68.0416 22.7881 67.5262 23.4943 67.1917 24.3679C66.8573 25.2416 66.69 26.1843 66.69 27.1959C66.69 28.2076 66.8573 29.147 67.1917 30.0141C67.5262 30.8812 68.0416 31.5808 68.7379 32.1129C69.4342 32.645 70.3216 32.911 71.4002 32.911Z" fill="#989898"/>
<path d="M89.0557 21.5203V19.5495H85.6971V15.9234H83.2806V19.5495H80.905V21.5203H83.2806V30.9797C83.2806 31.86 83.4922 32.5891 83.9155 33.1672C84.3455 33.7453 84.8848 34.1756 85.5333 34.4581C86.1886 34.7405 86.8576 34.8818 87.5402 34.8818C87.9908 34.8818 88.3628 34.8489 88.6564 34.7832C88.9499 34.7241 89.1786 34.665 89.3424 34.6059L88.8509 32.5169L88.4413 32.5957C88.2707 32.622 88.0522 32.6351 87.786 32.6351C87.431 32.6351 87.0931 32.5826 86.7723 32.4775C86.4583 32.3658 86.1989 32.149 85.9941 31.8271C85.7961 31.4987 85.6971 31.006 85.6971 30.3491V21.5203H89.0557Z" fill="#989898"/>
</svg>
