<svg width="116" height="35" viewBox="0 0 116 35" fill="none" xmlns="http://www.w3.org/2000/svg">
<path d="M46.3831 10.6154C46.2132 10.6154 46.022 10.5983 45.8095 10.564C45.6055 10.5298 45.4101 10.4871 45.2231 10.4357C45.0446 10.3844 44.9044 10.3288 44.8024 10.2689C44.7429 10.2347 44.6962 10.2004 44.6622 10.1662C44.6367 10.1234 44.624 10.055 44.624 9.96088L44.5602 7.94605C44.5602 7.77494 44.6155 7.68938 44.7259 7.68938C44.8194 7.68938 44.8832 7.76638 44.9172 7.92038L45.0319 8.40805C45.3208 9.63149 45.8605 10.2432 46.6508 10.2432C47.0758 10.2432 47.4115 10.102 47.6579 9.81972C47.9129 9.52883 48.0403 9.12244 48.0403 8.60055C48.0403 8.09577 47.9086 7.62522 47.6452 7.18888C47.3902 6.75255 46.978 6.32049 46.4086 5.89272C45.7798 5.43927 45.3208 5.00294 45.0319 4.58372C44.7429 4.15594 44.5985 3.70249 44.5985 3.22338C44.5985 2.59027 44.8152 2.08549 45.2486 1.70905C45.6905 1.32405 46.2514 1.13155 46.9313 1.13155C47.1862 1.13155 47.4327 1.16149 47.6707 1.22138C47.9086 1.28127 48.1041 1.36683 48.2571 1.47805C48.308 1.51227 48.3463 1.55077 48.3718 1.59355C48.4058 1.63633 48.4228 1.69194 48.4228 1.76038L48.461 3.69822C48.461 3.84366 48.4058 3.91638 48.2953 3.91638C48.2188 3.91638 48.1636 3.85649 48.1296 3.73672L48.0403 3.41588C47.8534 2.7571 47.6579 2.27799 47.454 1.97855C47.2585 1.67055 46.9738 1.51655 46.5999 1.51655C46.2344 1.51655 45.9412 1.63633 45.7203 1.87588C45.5078 2.11544 45.4016 2.45338 45.4016 2.88972C45.4016 3.2576 45.5205 3.60838 45.7585 3.94205C45.9965 4.27572 46.4129 4.6821 47.0078 5.16122C47.6452 5.6831 48.1083 6.18788 48.3973 6.67555C48.6947 7.15466 48.8435 7.66799 48.8435 8.21555C48.8435 8.69466 48.7372 9.11388 48.5248 9.47322C48.3123 9.83255 48.0191 10.1149 47.6452 10.3202C47.2797 10.517 46.8591 10.6154 46.3831 10.6154Z" fill="black"/>
<path d="M49.715 10.4999C49.5875 10.4999 49.5238 10.4528 49.5238 10.3587C49.5238 10.2817 49.579 10.2304 49.6895 10.2047L49.9827 10.1534C50.1611 10.1192 50.2759 10.0721 50.3269 10.0122C50.3864 9.95233 50.4161 9.83255 50.4161 9.65288V2.10688C50.4161 1.92722 50.3864 1.80744 50.3269 1.74755C50.2759 1.68766 50.1611 1.64061 49.9827 1.60638L49.6895 1.55505C49.579 1.52938 49.5238 1.47805 49.5238 1.40105C49.5238 1.30694 49.5875 1.25988 49.715 1.25988H53.9982C54.1937 1.25988 54.2999 1.35827 54.3169 1.55505L54.4189 3.68538C54.4359 3.83083 54.3806 3.90355 54.2532 3.90355C54.1512 3.90355 54.0917 3.84794 54.0747 3.73672L53.9982 3.26188C53.9047 2.6801 53.7135 2.2566 53.4246 1.99138C53.1356 1.7176 52.7362 1.58072 52.2263 1.58072C51.8863 1.58072 51.6484 1.63205 51.5124 1.73472C51.3849 1.82883 51.3212 1.99994 51.3212 2.24805V5.34088C51.3212 5.46066 51.3807 5.52055 51.4997 5.52055H52.137C52.511 5.52055 52.7404 5.31949 52.8254 4.91738L52.9529 4.27572C52.9869 4.14738 53.0591 4.09177 53.1696 4.10888C53.2631 4.12599 53.3098 4.19872 53.3098 4.32705V7.21455C53.3098 7.34288 53.2631 7.4156 53.1696 7.43272C53.0591 7.44983 52.9869 7.39422 52.9529 7.26588L52.8254 6.63705C52.7659 6.3376 52.6809 6.14083 52.5705 6.04672C52.4685 5.95261 52.3198 5.90555 52.1243 5.90555H51.4997C51.3807 5.90555 51.3212 5.96544 51.3212 6.08522V9.30638C51.3212 9.61438 51.3977 9.83683 51.5506 9.97372C51.7121 10.1106 52.0011 10.179 52.4175 10.179C52.8424 10.179 53.2036 10.0721 53.501 9.85822C53.807 9.63577 54.0195 9.22511 54.1384 8.62622L54.2914 7.86905C54.3169 7.75783 54.3806 7.70222 54.4826 7.70222C54.6016 7.70222 54.6526 7.77494 54.6356 7.92038L54.5081 10.2047C54.4911 10.4015 54.3849 10.4999 54.1894 10.4999H49.715Z" fill="black"/>
<path d="M55.1471 10.4999C55.0196 10.4999 54.9559 10.4571 54.9559 10.3715C54.9559 10.286 55.0154 10.2304 55.1344 10.2047L55.3256 10.1662C55.4955 10.132 55.623 10.0507 55.708 9.92238C55.793 9.78549 55.8652 9.59727 55.9247 9.35772L57.9006 1.33688C57.9176 1.25133 57.9431 1.19572 57.9771 1.17005C58.0196 1.14438 58.0578 1.13155 58.0918 1.13155C58.1343 1.13155 58.1726 1.14438 58.2065 1.17005C58.249 1.19572 58.2788 1.25133 58.2958 1.33688L60.3099 9.47322C60.3694 9.71277 60.4374 9.8796 60.5139 9.97372C60.5904 10.0678 60.7094 10.132 60.8708 10.1662L61.062 10.2047C61.181 10.2304 61.2405 10.286 61.2405 10.3715C61.2405 10.4571 61.1768 10.4999 61.0493 10.4999H58.8694C58.7505 10.4999 58.691 10.4528 58.691 10.3587C58.691 10.2646 58.7632 10.2133 58.9077 10.2047L59.1499 10.179C59.2944 10.1619 59.3836 10.1149 59.4176 10.0379C59.4601 9.96088 59.4601 9.82827 59.4176 9.64005L58.9332 7.65088C58.8822 7.42844 58.742 7.31722 58.5125 7.31722H57.174C56.953 7.31722 56.8128 7.42844 56.7533 7.65088L56.3199 9.37055C56.1924 9.85822 56.3199 10.1277 56.7023 10.179L56.8935 10.2047C57.038 10.2304 57.1102 10.2817 57.1102 10.3587C57.1102 10.4528 57.0508 10.4999 56.9318 10.4999H55.1471ZM57.1357 6.93222H58.538C58.674 6.93222 58.7292 6.85949 58.7037 6.71405L57.8879 3.27472H57.8241L56.97 6.71405C56.9445 6.85949 56.9998 6.93222 57.1357 6.93222Z" fill="black"/>
<path d="M62.1078 10.4999C61.9804 10.4999 61.9166 10.4528 61.9166 10.3587C61.9166 10.2646 61.9719 10.2133 62.0824 10.2047L62.656 10.1149C62.826 10.0892 62.9407 10.0464 63.0002 9.98655C63.0597 9.91811 63.0894 9.79405 63.0894 9.61438V1.91438C63.0894 1.7946 63.0639 1.70905 63.0129 1.65772C62.9619 1.60638 62.8557 1.58072 62.6942 1.58072C62.3798 1.58072 62.0696 1.7176 61.7637 1.99138C61.4577 2.26516 61.258 2.70577 61.1645 3.31322L61.1008 3.73672C61.0838 3.84794 61.0243 3.90355 60.9223 3.90355C60.7948 3.90355 60.7396 3.83083 60.7566 3.68538L60.8713 1.36255C60.8883 1.16577 60.9648 1.06738 61.1008 1.06738C61.1603 1.06738 61.2155 1.08449 61.2665 1.11872C61.3175 1.14438 61.4025 1.17433 61.5215 1.20855C61.6489 1.24277 61.8486 1.25988 62.1206 1.25988H64.9633C65.2353 1.25988 65.4308 1.24277 65.5497 1.20855C65.6772 1.17433 65.7664 1.14438 65.8174 1.11872C65.8769 1.08449 65.9322 1.06738 65.9832 1.06738C66.1191 1.06738 66.1956 1.16577 66.2126 1.36255L66.3273 3.68538C66.3443 3.83083 66.2891 3.90355 66.1616 3.90355C66.0596 3.90355 66.0001 3.84794 65.9832 3.73672L65.9194 3.31322C65.8344 2.70577 65.639 2.26516 65.333 1.99138C65.0271 1.7176 64.7126 1.58072 64.3897 1.58072C64.2282 1.58072 64.122 1.60638 64.071 1.65772C64.02 1.70905 63.9945 1.7946 63.9945 1.91438V9.61438C63.9945 9.79405 64.0243 9.91811 64.0837 9.98655C64.1517 10.0464 64.2665 10.0892 64.4279 10.1149L65.0016 10.2047C65.1121 10.2133 65.1673 10.2646 65.1673 10.3587C65.1673 10.4528 65.1036 10.4999 64.9761 10.4999H62.1078Z" fill="black"/>
<path d="M68.1112 10.4999C67.9837 10.4999 67.92 10.4528 67.92 10.3587C67.92 10.2646 67.9753 10.2133 68.0857 10.2047L68.6594 10.1149C68.8293 10.0892 68.9441 10.0464 69.0036 9.98655C69.0631 9.91811 69.0928 9.79405 69.0928 9.61438V1.91438C69.0928 1.7946 69.0673 1.70905 69.0163 1.65772C68.9653 1.60638 68.8591 1.58072 68.6976 1.58072C68.3832 1.58072 68.073 1.7176 67.767 1.99138C67.4611 2.26516 67.2614 2.70577 67.1679 3.31322L67.1042 3.73672C67.0872 3.84794 67.0277 3.90355 66.9257 3.90355C66.7982 3.90355 66.743 3.83083 66.76 3.68538L66.8747 1.36255C66.8917 1.16577 66.9682 1.06738 67.1042 1.06738C67.1636 1.06738 67.2189 1.08449 67.2699 1.11872C67.3209 1.14438 67.4059 1.17433 67.5248 1.20855C67.6523 1.24277 67.852 1.25988 68.124 1.25988H70.9667C71.2387 1.25988 71.4341 1.24277 71.5531 1.20855C71.6806 1.17433 71.7698 1.14438 71.8208 1.11872C71.8803 1.08449 71.9355 1.06738 71.9865 1.06738C72.1225 1.06738 72.199 1.16577 72.216 1.36255L72.3307 3.68538C72.3477 3.83083 72.2925 3.90355 72.165 3.90355C72.063 3.90355 72.0035 3.84794 71.9865 3.73672L71.9228 3.31322C71.8378 2.70577 71.6423 2.26516 71.3364 1.99138C71.0305 1.7176 70.716 1.58072 70.3931 1.58072C70.2316 1.58072 70.1254 1.60638 70.0744 1.65772C70.0234 1.70905 69.9979 1.7946 69.9979 1.91438V9.61438C69.9979 9.79405 70.0276 9.91811 70.0871 9.98655C70.1551 10.0464 70.2698 10.0892 70.4313 10.1149L71.005 10.2047C71.1154 10.2133 71.1707 10.2646 71.1707 10.3587C71.1707 10.4528 71.1069 10.4999 70.9795 10.4999H68.1112Z" fill="black"/>
<path d="M73.0438 10.4999C72.9163 10.4999 72.8526 10.4528 72.8526 10.3587C72.8526 10.2817 72.9078 10.2304 73.0183 10.2047L73.3115 10.1534C73.49 10.1192 73.6047 10.0721 73.6557 10.0122C73.7152 9.95233 73.7449 9.83255 73.7449 9.65288V2.10688C73.7449 1.92722 73.7152 1.80744 73.6557 1.74755C73.6047 1.68766 73.49 1.64061 73.3115 1.60638L73.0183 1.55505C72.9078 1.52938 72.8526 1.47805 72.8526 1.40105C72.8526 1.30694 72.9163 1.25988 73.0438 1.25988H75.3766C75.5041 1.25988 75.5678 1.31122 75.5678 1.41388C75.5678 1.49088 75.5211 1.53794 75.4276 1.55505L75.0834 1.60638C74.905 1.63205 74.786 1.6791 74.7265 1.74755C74.6755 1.81599 74.65 1.94005 74.65 2.11972V9.30638C74.65 9.61438 74.735 9.83683 74.905 9.97372C75.0834 10.1106 75.3044 10.179 75.5678 10.179C75.7633 10.179 75.963 10.1405 76.167 10.0635C76.3794 9.97799 76.5707 9.82399 76.7406 9.60155C76.9106 9.37055 77.0381 9.03688 77.1231 8.60055L77.2888 7.74072C77.3143 7.62949 77.378 7.57388 77.48 7.57388C77.599 7.57388 77.65 7.64661 77.633 7.79205L77.48 10.2047C77.463 10.4015 77.3568 10.4999 77.1613 10.4999H73.0438Z" fill="black"/>
<path d="M78.4372 10.4999C78.3097 10.4999 78.246 10.4528 78.246 10.3587C78.246 10.2817 78.3012 10.2304 78.4117 10.2047L78.7049 10.1534C78.8833 10.1192 78.9981 10.0721 79.0491 10.0122C79.1086 9.95233 79.1383 9.83255 79.1383 9.65288V2.10688C79.1383 1.92722 79.1086 1.80744 79.0491 1.74755C78.9981 1.68766 78.8833 1.64061 78.7049 1.60638L78.4117 1.55505C78.3012 1.52938 78.246 1.47805 78.246 1.40105C78.246 1.30694 78.3097 1.25988 78.4372 1.25988H82.7204C82.9159 1.25988 83.0221 1.35827 83.0391 1.55505L83.1411 3.68538C83.1581 3.83083 83.1028 3.90355 82.9754 3.90355C82.8734 3.90355 82.8139 3.84794 82.7969 3.73672L82.7204 3.26188C82.6269 2.6801 82.4357 2.2566 82.1468 1.99138C81.8578 1.7176 81.4584 1.58072 80.9485 1.58072C80.6085 1.58072 80.3706 1.63205 80.2346 1.73472C80.1071 1.82883 80.0434 1.99994 80.0434 2.24805V5.34088C80.0434 5.46066 80.1029 5.52055 80.2219 5.52055H80.8592C81.2332 5.52055 81.4626 5.31949 81.5476 4.91738L81.6751 4.27572C81.7091 4.14738 81.7813 4.09177 81.8918 4.10888C81.9853 4.12599 82.032 4.19872 82.032 4.32705V7.21455C82.032 7.34288 81.9853 7.4156 81.8918 7.43272C81.7813 7.44983 81.7091 7.39422 81.6751 7.26588L81.5476 6.63705C81.4881 6.3376 81.4031 6.14083 81.2927 6.04672C81.1907 5.95261 81.042 5.90555 80.8465 5.90555H80.2219C80.1029 5.90555 80.0434 5.96544 80.0434 6.08522V9.30638C80.0434 9.61438 80.1199 9.83683 80.2728 9.97372C80.4343 10.1106 80.7233 10.179 81.1397 10.179C81.5646 10.179 81.9258 10.0721 82.2232 9.85822C82.5292 9.63577 82.7417 9.22511 82.8606 8.62622L83.0136 7.86905C83.0391 7.75783 83.1028 7.70222 83.2048 7.70222C83.3238 7.70222 83.3748 7.77494 83.3578 7.92038L83.2303 10.2047C83.2133 10.4015 83.1071 10.4999 82.9116 10.4999H78.4372Z" fill="black"/>
<path d="M43.9993 22.1665C43.8718 22.1665 43.8081 22.1238 43.8081 22.0382C43.8081 21.9527 43.8676 21.8971 43.9866 21.8714L44.1778 21.8329C44.3478 21.7987 44.4752 21.7174 44.5602 21.589C44.6452 21.4522 44.7174 21.2639 44.7769 21.0244L46.7528 13.0035C46.7698 12.918 46.7953 12.8624 46.8293 12.8367C46.8718 12.811 46.91 12.7982 46.944 12.7982C46.9865 12.7982 47.0248 12.811 47.0588 12.8367C47.1013 12.8624 47.131 12.918 47.148 13.0035L49.1621 21.1399C49.2216 21.3794 49.2896 21.5463 49.3661 21.6404C49.4426 21.7345 49.5616 21.7987 49.723 21.8329L49.9143 21.8714C50.0332 21.8971 50.0927 21.9527 50.0927 22.0382C50.0927 22.1238 50.029 22.1665 49.9015 22.1665H47.7217C47.6027 22.1665 47.5432 22.1195 47.5432 22.0254C47.5432 21.9313 47.6154 21.8799 47.7599 21.8714L48.0021 21.8457C48.1466 21.8286 48.2358 21.7815 48.2698 21.7045C48.3123 21.6276 48.3123 21.4949 48.2698 21.3067L47.7854 19.3175C47.7344 19.0951 47.5942 18.9839 47.3647 18.9839H46.0262C45.8052 18.9839 45.665 19.0951 45.6055 19.3175L45.1721 21.0372C45.0446 21.5249 45.1721 21.7944 45.5545 21.8457L45.7458 21.8714C45.8902 21.8971 45.9625 21.9484 45.9625 22.0254C45.9625 22.1195 45.903 22.1665 45.784 22.1665H43.9993ZM45.988 18.5989H47.3902C47.5262 18.5989 47.5814 18.5262 47.5559 18.3807L46.7401 14.9414H46.6763L45.8222 18.3807C45.7967 18.5262 45.852 18.5989 45.988 18.5989Z" fill="black"/>
<path d="M55.6031 22.2821C54.8638 22.2821 54.3921 21.7944 54.1881 20.819L53.8949 19.3945C53.8015 18.9325 53.6952 18.5818 53.5762 18.3422C53.4658 18.1027 53.3085 17.9401 53.1046 17.8545C52.9091 17.769 52.6372 17.7262 52.2887 17.7262C52.1697 17.7262 52.0763 17.7604 52.0083 17.8289C51.9403 17.8888 51.9063 17.9658 51.9063 18.0599V21.2682C51.9063 21.4479 51.9403 21.5719 52.0083 21.6404C52.0763 21.7003 52.2292 21.7516 52.4672 21.7944L52.9389 21.8714C53.0323 21.8885 53.0791 21.9356 53.0791 22.0126C53.0791 22.1152 53.0153 22.1665 52.8879 22.1665H50.3001C50.1726 22.1665 50.1089 22.1195 50.1089 22.0254C50.1089 21.9484 50.1641 21.8971 50.2746 21.8714L50.5678 21.82C50.7462 21.7858 50.861 21.7388 50.912 21.6789C50.9715 21.619 51.0012 21.4992 51.0012 21.3195V13.7735C51.0012 13.5939 50.9715 13.4741 50.912 13.4142C50.861 13.3543 50.7462 13.3073 50.5678 13.273L50.2746 13.2217C50.1641 13.196 50.1089 13.1447 50.1089 13.0677C50.1089 12.9736 50.1726 12.9265 50.3001 12.9265H52.8879C53.3893 12.9265 53.8354 13.0249 54.2264 13.2217C54.6173 13.4185 54.9232 13.6923 55.1442 14.043C55.3652 14.3853 55.4757 14.7831 55.4757 15.2365C55.4757 15.7755 55.3142 16.2632 54.9912 16.6995C54.6683 17.1273 54.2604 17.431 53.7675 17.6107C53.708 17.6278 53.674 17.6578 53.6655 17.7005C53.6655 17.7348 53.6952 17.7647 53.7547 17.7904C54.0267 17.9187 54.2391 18.0984 54.3921 18.3294C54.5536 18.5604 54.6768 18.8684 54.7618 19.2534L55.0422 20.5624C55.1357 21.0073 55.2462 21.3238 55.3737 21.512C55.5011 21.7003 55.6626 21.7944 55.8581 21.7944C55.9261 21.7944 55.9856 21.7858 56.0365 21.7687C56.096 21.743 56.1683 21.7003 56.2533 21.6404C56.3212 21.5976 56.385 21.5891 56.4445 21.6147C56.504 21.6318 56.5337 21.6746 56.5337 21.743C56.5337 21.8885 56.4402 22.0168 56.2533 22.128C56.0663 22.2307 55.8496 22.2821 55.6031 22.2821ZM52.7604 17.4054C53.3383 17.4054 53.776 17.2129 54.0734 16.8279C54.3708 16.4343 54.5196 15.9124 54.5196 15.2622C54.5196 14.6291 54.3454 14.1372 53.9969 13.7864C53.657 13.427 53.1853 13.2474 52.5819 13.2474C52.1315 13.2474 51.9063 13.4185 51.9063 13.7607V16.6995C51.9063 17.1701 52.191 17.4054 52.7604 17.4054Z" fill="black"/>
<path d="M59.8644 22.2821C59.2356 22.2821 58.6832 22.0853 58.2072 21.6917C57.7398 21.2982 57.3744 20.7463 57.1109 20.0362C56.856 19.3176 56.7285 18.4705 56.7285 17.4952C56.7285 16.5541 56.8687 15.7328 57.1492 15.0312C57.4381 14.3211 57.8206 13.7735 58.2965 13.3885C58.7809 12.995 59.3163 12.7982 59.9027 12.7982C60.2511 12.7982 60.5571 12.8324 60.8205 12.9009C61.084 12.9608 61.3177 13.042 61.5217 13.1447C61.6236 13.2046 61.6746 13.2944 61.6746 13.4142L61.7129 15.3649C61.7129 15.5103 61.6619 15.583 61.5599 15.583C61.4664 15.583 61.4069 15.5274 61.3814 15.4162L61.254 14.9414C61.0755 14.274 60.8673 13.812 60.6293 13.5554C60.3999 13.2987 60.1237 13.1704 59.8007 13.1704C59.2058 13.1704 58.7087 13.5425 58.3092 14.2869C57.9183 15.0227 57.7228 16.0921 57.7228 17.4952C57.7228 18.4534 57.8206 19.2619 58.016 19.9207C58.22 20.5795 58.4792 21.0757 58.7936 21.4094C59.1166 21.743 59.4565 21.9099 59.8135 21.9099C60.1959 21.9099 60.5018 21.7901 60.7313 21.5506C60.9693 21.311 61.169 20.849 61.3304 20.1646L61.4834 19.5357C61.5089 19.4074 61.5769 19.3518 61.6874 19.3689C61.7809 19.386 61.8276 19.4587 61.8276 19.587L61.7766 21.666C61.7766 21.7858 61.7214 21.8757 61.6109 21.9356C61.4069 22.0382 61.1647 22.1195 60.8843 22.1794C60.6123 22.2478 60.2724 22.2821 59.8644 22.2821Z" fill="black"/>
<path d="M62.9044 22.1665C62.7769 22.1665 62.7132 22.1195 62.7132 22.0254C62.7132 21.9484 62.7684 21.8971 62.8789 21.8714L63.1721 21.82C63.3505 21.7858 63.4653 21.7388 63.5163 21.6789C63.5758 21.619 63.6055 21.4992 63.6055 21.3195V13.7735C63.6055 13.5939 63.5758 13.4741 63.5163 13.4142C63.4653 13.3543 63.3505 13.3073 63.1721 13.273L62.8789 13.2217C62.7684 13.196 62.7132 13.1447 62.7132 13.0677C62.7132 12.9736 62.7769 12.9265 62.9044 12.9265H65.2372C65.3647 12.9265 65.4284 12.9779 65.4284 13.0805C65.4284 13.1575 65.3817 13.2046 65.2882 13.2217L64.944 13.273C64.7655 13.2987 64.6466 13.3458 64.5871 13.4142C64.5361 13.4827 64.5106 13.6067 64.5106 13.7864V17.0075C64.5106 17.1273 64.5701 17.1872 64.6891 17.1872H67.2131C67.3321 17.1872 67.3916 17.1273 67.3916 17.0075V13.7864C67.3916 13.6067 67.3618 13.4827 67.3023 13.4142C67.2514 13.3458 67.1366 13.2987 66.9582 13.273L66.614 13.2217C66.5205 13.2046 66.4737 13.1575 66.4737 13.0805C66.4737 12.9779 66.5375 12.9265 66.665 12.9265H68.9978C69.1253 12.9265 69.189 12.9736 69.189 13.0677C69.189 13.1447 69.1338 13.196 69.0233 13.2217L68.7301 13.273C68.5516 13.3073 68.4326 13.3543 68.3731 13.4142C68.3222 13.4741 68.2967 13.5939 68.2967 13.7735V21.3195C68.2967 21.4992 68.3222 21.619 68.3731 21.6789C68.4326 21.7388 68.5516 21.7858 68.7301 21.82L69.0233 21.8714C69.1338 21.8971 69.189 21.9484 69.189 22.0254C69.189 22.1195 69.1253 22.1665 68.9978 22.1665H66.665C66.5375 22.1665 66.4737 22.1152 66.4737 22.0126C66.4737 21.9356 66.5205 21.8885 66.614 21.8714L66.9582 21.82C67.1366 21.7944 67.2514 21.7473 67.3023 21.6789C67.3618 21.6104 67.3916 21.4864 67.3916 21.3067V17.7519C67.3916 17.6321 67.3321 17.5722 67.2131 17.5722H64.6891C64.5701 17.5722 64.5106 17.6321 64.5106 17.7519V21.3067C64.5106 21.4864 64.5361 21.6104 64.5871 21.6789C64.6466 21.7473 64.7655 21.7944 64.944 21.82L65.2882 21.8714C65.3817 21.8885 65.4284 21.9356 65.4284 22.0126C65.4284 22.1152 65.3647 22.1665 65.2372 22.1665H62.9044Z" fill="black"/>
<path d="M69.9908 22.1665C69.8633 22.1665 69.7996 22.1195 69.7996 22.0254C69.7996 21.9484 69.8548 21.8971 69.9653 21.8714L70.2585 21.82C70.437 21.7858 70.5517 21.7388 70.6027 21.6789C70.6622 21.619 70.6919 21.4992 70.6919 21.3195V13.7735C70.6919 13.5939 70.6622 13.4741 70.6027 13.4142C70.5517 13.3543 70.437 13.3073 70.2585 13.273L69.9653 13.2217C69.8548 13.196 69.7996 13.1447 69.7996 13.0677C69.7996 12.9736 69.8633 12.9265 69.9908 12.9265H72.2982C72.4256 12.9265 72.4894 12.9736 72.4894 13.0677C72.4894 13.1447 72.4341 13.196 72.3236 13.2217L72.0305 13.273C71.852 13.3073 71.733 13.3543 71.6735 13.4142C71.6225 13.4741 71.597 13.5939 71.597 13.7735V21.3195C71.597 21.4992 71.6225 21.619 71.6735 21.6789C71.733 21.7388 71.852 21.7858 72.0305 21.82L72.3236 21.8714C72.4341 21.8971 72.4894 21.9484 72.4894 22.0254C72.4894 22.1195 72.4256 22.1665 72.2982 22.1665H69.9908Z" fill="black"/>
<path d="M74.3636 22.1665C74.2361 22.1665 74.1724 22.1195 74.1724 22.0254C74.1724 21.9313 74.2276 21.8799 74.3381 21.8714L74.9117 21.7815C75.0817 21.7559 75.1964 21.7131 75.2559 21.6532C75.3154 21.5848 75.3452 21.4607 75.3452 21.281V13.581C75.3452 13.4613 75.3197 13.3757 75.2687 13.3244C75.2177 13.273 75.1114 13.2474 74.95 13.2474C74.6355 13.2474 74.3253 13.3843 74.0194 13.658C73.7134 13.9318 73.5137 14.3724 73.4202 14.9799L73.3565 15.4034C73.3395 15.5146 73.28 15.5702 73.178 15.5702C73.0506 15.5702 72.9953 15.4975 73.0123 15.352L73.1271 13.0292C73.144 12.8324 73.2205 12.734 73.3565 12.734C73.416 12.734 73.4712 12.7512 73.5222 12.7854C73.5732 12.811 73.6582 12.841 73.7772 12.8752C73.9047 12.9094 74.1044 12.9265 74.3763 12.9265H77.2191C77.491 12.9265 77.6865 12.9094 77.8055 12.8752C77.9329 12.841 78.0222 12.811 78.0732 12.7854C78.1327 12.7512 78.1879 12.734 78.2389 12.734C78.3749 12.734 78.4513 12.8324 78.4683 13.0292L78.5831 15.352C78.6001 15.4975 78.5448 15.5702 78.4174 15.5702C78.3154 15.5702 78.2559 15.5146 78.2389 15.4034L78.1751 14.9799C78.0902 14.3724 77.8947 13.9318 77.5887 13.658C77.2828 13.3843 76.9684 13.2474 76.6454 13.2474C76.4839 13.2474 76.3777 13.273 76.3267 13.3244C76.2757 13.3757 76.2502 13.4613 76.2502 13.581V21.281C76.2502 21.4607 76.28 21.5848 76.3395 21.6532C76.4075 21.7131 76.5222 21.7559 76.6837 21.7815L77.2573 21.8714C77.3678 21.8799 77.423 21.9313 77.423 22.0254C77.423 22.1195 77.3593 22.1665 77.2318 22.1665H74.3636Z" fill="black"/>
<path d="M79.2962 22.1665C79.1687 22.1665 79.1049 22.1195 79.1049 22.0254C79.1049 21.9484 79.1602 21.8971 79.2707 21.8714L79.5639 21.82C79.7423 21.7858 79.857 21.7388 79.908 21.6789C79.9675 21.619 79.9973 21.4992 79.9973 21.3195V13.7735C79.9973 13.5939 79.9675 13.4741 79.908 13.4142C79.857 13.3543 79.7423 13.3073 79.5639 13.273L79.2707 13.2217C79.1602 13.196 79.1049 13.1447 79.1049 13.0677C79.1049 12.9736 79.1687 12.9265 79.2962 12.9265H83.5794C83.7748 12.9265 83.8811 13.0249 83.8981 13.2217L84.0001 15.352C84.0171 15.4975 83.9618 15.5702 83.8343 15.5702C83.7324 15.5702 83.6729 15.5146 83.6559 15.4034L83.5794 14.9285C83.4859 14.3468 83.2947 13.9233 83.0057 13.658C82.7168 13.3843 82.3174 13.2474 81.8074 13.2474C81.4675 13.2474 81.2296 13.2987 81.0936 13.4014C80.9661 13.4955 80.9024 13.6666 80.9024 13.9147V17.0075C80.9024 17.1273 80.9618 17.1872 81.0808 17.1872H81.7182C82.0921 17.1872 82.3216 16.9862 82.4066 16.584L82.5341 15.9424C82.5681 15.814 82.6403 15.7584 82.7508 15.7755C82.8443 15.7927 82.891 15.8654 82.891 15.9937V18.8812C82.891 19.0096 82.8443 19.0823 82.7508 19.0994C82.6403 19.1165 82.5681 19.0609 82.5341 18.9325L82.4066 18.3037C82.3471 18.0043 82.2621 17.8075 82.1516 17.7134C82.0497 17.6193 81.9009 17.5722 81.7055 17.5722H81.0808C80.9618 17.5722 80.9024 17.6321 80.9024 17.7519V20.973C80.9024 21.281 80.9788 21.5035 81.1318 21.6404C81.2933 21.7773 81.5822 21.8457 81.9987 21.8457C82.4236 21.8457 82.7848 21.7388 83.0822 21.5249C83.3882 21.3024 83.6006 20.8918 83.7196 20.2929L83.8726 19.5357C83.8981 19.4245 83.9618 19.3689 84.0638 19.3689C84.1828 19.3689 84.2338 19.4416 84.2168 19.587L84.0893 21.8714C84.0723 22.0682 83.9661 22.1665 83.7706 22.1665H79.2962Z" fill="black"/>
<path d="M88.4124 22.2821C87.7835 22.2821 87.2311 22.0853 86.7552 21.6917C86.2877 21.2982 85.9223 20.7463 85.6589 20.0362C85.4039 19.3176 85.2764 18.4705 85.2764 17.4952C85.2764 16.5541 85.4166 15.7328 85.6971 15.0312C85.986 14.3211 86.3685 13.7735 86.8444 13.3885C87.3288 12.995 87.8642 12.7982 88.4506 12.7982C88.799 12.7982 89.105 12.8324 89.3684 12.9009C89.6319 12.9608 89.8656 13.042 90.0696 13.1447C90.1715 13.2046 90.2225 13.2944 90.2225 13.4142L90.2608 15.3649C90.2608 15.5103 90.2098 15.583 90.1078 15.583C90.0143 15.583 89.9548 15.5274 89.9293 15.4162L89.8019 14.9414C89.6234 14.274 89.4152 13.812 89.1772 13.5554C88.9478 13.2987 88.6716 13.1704 88.3486 13.1704C87.7537 13.1704 87.2566 13.5425 86.8571 14.2869C86.4662 15.0227 86.2707 16.0921 86.2707 17.4952C86.2707 18.4534 86.3685 19.2619 86.5639 19.9207C86.7679 20.5795 87.0271 21.0757 87.3416 21.4094C87.6645 21.743 88.0044 21.9099 88.3614 21.9099C88.7438 21.9099 89.0497 21.7901 89.2792 21.5506C89.5172 21.311 89.7169 20.849 89.8783 20.1646L90.0313 19.5357C90.0568 19.4074 90.1248 19.3518 90.2353 19.3689C90.3288 19.386 90.3755 19.4587 90.3755 19.587L90.3245 21.666C90.3245 21.7858 90.2693 21.8757 90.1588 21.9356C89.9548 22.0382 89.7126 22.1195 89.4322 22.1794C89.1602 22.2478 88.8203 22.2821 88.4124 22.2821Z" fill="black"/>
<path d="M92.5231 22.1665C92.3956 22.1665 92.3319 22.1195 92.3319 22.0254C92.3319 21.9313 92.3871 21.8799 92.4976 21.8714L93.0713 21.7815C93.2412 21.7559 93.3559 21.7131 93.4154 21.6532C93.4749 21.5848 93.5047 21.4607 93.5047 21.281V13.581C93.5047 13.4613 93.4792 13.3757 93.4282 13.3244C93.3772 13.273 93.271 13.2474 93.1095 13.2474C92.7951 13.2474 92.4849 13.3843 92.1789 13.658C91.873 13.9318 91.6733 14.3724 91.5798 14.9799L91.516 15.4034C91.499 15.5146 91.4395 15.5702 91.3376 15.5702C91.2101 15.5702 91.1548 15.4975 91.1718 15.352L91.2866 13.0292C91.3036 12.8324 91.3801 12.734 91.516 12.734C91.5755 12.734 91.6308 12.7512 91.6817 12.7854C91.7327 12.811 91.8177 12.841 91.9367 12.8752C92.0642 12.9094 92.2639 12.9265 92.5359 12.9265H95.3786C95.6505 12.9265 95.846 12.9094 95.965 12.8752C96.0925 12.841 96.1817 12.811 96.2327 12.7854C96.2922 12.7512 96.3474 12.734 96.3984 12.734C96.5344 12.734 96.6109 12.8324 96.6279 13.0292L96.7426 15.352C96.7596 15.4975 96.7043 15.5702 96.5769 15.5702C96.4749 15.5702 96.4154 15.5146 96.3984 15.4034L96.3347 14.9799C96.2497 14.3724 96.0542 13.9318 95.7483 13.658C95.4423 13.3843 95.1279 13.2474 94.8049 13.2474C94.6435 13.2474 94.5372 13.273 94.4862 13.3244C94.4353 13.3757 94.4098 13.4613 94.4098 13.581V21.281C94.4098 21.4607 94.4395 21.5848 94.499 21.6532C94.567 21.7131 94.6817 21.7559 94.8432 21.7815L95.4168 21.8714C95.5273 21.8799 95.5826 21.9313 95.5826 22.0254C95.5826 22.1195 95.5188 22.1665 95.3913 22.1665H92.5231Z" fill="black"/>
<path d="M100.528 22.2821C100.069 22.2821 99.661 22.1751 99.3041 21.9612C98.9557 21.7388 98.6837 21.435 98.4882 21.05C98.2928 20.6565 98.195 20.2073 98.195 19.7025V13.7735C98.195 13.5939 98.1653 13.4741 98.1058 13.4142C98.0548 13.3543 97.9401 13.3073 97.7616 13.273L97.4684 13.2217C97.3579 13.196 97.3027 13.1447 97.3027 13.0677C97.3027 12.9736 97.3664 12.9265 97.4939 12.9265H99.8267C99.9542 12.9265 100.018 12.9779 100.018 13.0805C100.018 13.1575 99.9712 13.2046 99.8777 13.2217L99.5335 13.273C99.3636 13.2987 99.2488 13.3458 99.1894 13.4142C99.1299 13.4827 99.1001 13.6067 99.1001 13.7864V19.7154C99.1001 20.3656 99.2446 20.8704 99.5335 21.2297C99.8225 21.5891 100.226 21.7687 100.745 21.7687C101.271 21.7687 101.679 21.5891 101.968 21.2297C102.257 20.8704 102.402 20.3656 102.402 19.7154V14.043C102.402 13.581 102.257 13.3244 101.968 13.273L101.624 13.2217C101.531 13.2046 101.484 13.1575 101.484 13.0805C101.484 12.9779 101.548 12.9265 101.675 12.9265H103.511C103.638 12.9265 103.702 12.9736 103.702 13.0677C103.702 13.1447 103.647 13.196 103.536 13.2217L103.243 13.273C102.954 13.3244 102.81 13.5768 102.81 14.0302V19.7025C102.81 20.4811 102.601 21.1057 102.185 21.5762C101.769 22.0468 101.216 22.2821 100.528 22.2821Z" fill="black"/>
<path d="M109.721 22.2821C108.981 22.2821 108.51 21.7944 108.306 20.819L108.012 19.3945C107.919 18.9325 107.813 18.5818 107.694 18.3422C107.583 18.1027 107.426 17.9401 107.222 17.8545C107.027 17.769 106.755 17.7262 106.406 17.7262C106.287 17.7262 106.194 17.7604 106.126 17.8289C106.058 17.8888 106.024 17.9658 106.024 18.0599V21.2682C106.024 21.4479 106.058 21.5719 106.126 21.6404C106.194 21.7003 106.347 21.7516 106.585 21.7944L107.056 21.8714C107.15 21.8885 107.197 21.9356 107.197 22.0126C107.197 22.1152 107.133 22.1665 107.005 22.1665H104.418C104.29 22.1665 104.226 22.1195 104.226 22.0254C104.226 21.9484 104.282 21.8971 104.392 21.8714L104.685 21.82C104.864 21.7858 104.979 21.7388 105.03 21.6789C105.089 21.619 105.119 21.4992 105.119 21.3195V13.7735C105.119 13.5939 105.089 13.4741 105.03 13.4142C104.979 13.3543 104.864 13.3073 104.685 13.273L104.392 13.2217C104.282 13.196 104.226 13.1447 104.226 13.0677C104.226 12.9736 104.29 12.9265 104.418 12.9265H107.005C107.507 12.9265 107.953 13.0249 108.344 13.2217C108.735 13.4185 109.041 13.6923 109.262 14.043C109.483 14.3853 109.593 14.7831 109.593 15.2365C109.593 15.7755 109.432 16.2632 109.109 16.6995C108.786 17.1273 108.378 17.431 107.885 17.6107C107.826 17.6278 107.792 17.6578 107.783 17.7005C107.783 17.7348 107.813 17.7647 107.872 17.7904C108.144 17.9187 108.357 18.0984 108.51 18.3294C108.671 18.5604 108.794 18.8684 108.879 19.2534L109.16 20.5624C109.253 21.0073 109.364 21.3238 109.491 21.512C109.619 21.7003 109.78 21.7944 109.976 21.7944C110.044 21.7944 110.103 21.7858 110.154 21.7687C110.214 21.743 110.286 21.7003 110.371 21.6404C110.439 21.5976 110.503 21.5891 110.562 21.6147C110.621 21.6318 110.651 21.6746 110.651 21.743C110.651 21.8885 110.558 22.0168 110.371 22.128C110.184 22.2307 109.967 22.2821 109.721 22.2821ZM106.878 17.4054C107.456 17.4054 107.893 17.2129 108.191 16.8279C108.488 16.4343 108.637 15.9124 108.637 15.2622C108.637 14.6291 108.463 14.1372 108.114 13.7864C107.775 13.427 107.303 13.2474 106.699 13.2474C106.249 13.2474 106.024 13.4185 106.024 13.7607V16.6995C106.024 17.1701 106.309 17.4054 106.878 17.4054Z" fill="black"/>
<path d="M110.931 22.1665C110.804 22.1665 110.74 22.1195 110.74 22.0254C110.74 21.9484 110.795 21.8971 110.906 21.8714L111.199 21.82C111.378 21.7858 111.492 21.7388 111.543 21.6789C111.603 21.619 111.633 21.4992 111.633 21.3195V13.7735C111.633 13.5939 111.603 13.4741 111.543 13.4142C111.492 13.3543 111.378 13.3073 111.199 13.273L110.906 13.2217C110.795 13.196 110.74 13.1447 110.74 13.0677C110.74 12.9736 110.804 12.9265 110.931 12.9265H115.215C115.41 12.9265 115.516 13.0249 115.533 13.2217L115.635 15.352C115.652 15.4975 115.597 15.5702 115.47 15.5702C115.368 15.5702 115.308 15.5146 115.291 15.4034L115.215 14.9285C115.121 14.3468 114.93 13.9233 114.641 13.658C114.352 13.3843 113.953 13.2474 113.443 13.2474C113.103 13.2474 112.865 13.2987 112.729 13.4014C112.601 13.4955 112.538 13.6666 112.538 13.9147V17.0075C112.538 17.1273 112.597 17.1872 112.716 17.1872H113.353C113.727 17.1872 113.957 16.9862 114.042 16.584L114.169 15.9424C114.203 15.814 114.276 15.7584 114.386 15.7755C114.48 15.7927 114.526 15.8654 114.526 15.9937V18.8812C114.526 19.0096 114.48 19.0823 114.386 19.0994C114.276 19.1165 114.203 19.0609 114.169 18.9325L114.042 18.3037C113.982 18.0043 113.897 17.8075 113.787 17.7134C113.685 17.6193 113.536 17.5722 113.341 17.5722H112.716C112.597 17.5722 112.538 17.6321 112.538 17.7519V20.973C112.538 21.281 112.614 21.5035 112.767 21.6404C112.929 21.7773 113.217 21.8457 113.634 21.8457C114.059 21.8457 114.42 21.7388 114.717 21.5249C115.023 21.3024 115.236 20.8918 115.355 20.2929L115.508 19.5357C115.533 19.4245 115.597 19.3689 115.699 19.3689C115.818 19.3689 115.869 19.4416 115.852 19.587L115.725 21.8714C115.708 22.0682 115.601 22.1665 115.406 22.1665H110.931Z" fill="black"/>
<path d="M43.9993 33.8332C43.8718 33.8332 43.8081 33.7904 43.8081 33.7049C43.8081 33.6193 43.8676 33.5637 43.9866 33.538L44.1778 33.4995C44.3478 33.4653 44.4752 33.384 44.5602 33.2557C44.6452 33.1188 44.7174 32.9306 44.7769 32.691L46.7528 24.6702C46.7698 24.5847 46.7953 24.5291 46.8293 24.5034C46.8718 24.4777 46.91 24.4649 46.944 24.4649C46.9865 24.4649 47.0248 24.4777 47.0588 24.5034C47.1013 24.5291 47.131 24.5847 47.148 24.6702L49.1621 32.8066C49.2216 33.0461 49.2896 33.2129 49.3661 33.307C49.4426 33.4012 49.5616 33.4653 49.723 33.4995L49.9143 33.538C50.0332 33.5637 50.0927 33.6193 50.0927 33.7049C50.0927 33.7904 50.029 33.8332 49.9015 33.8332H47.7217C47.6027 33.8332 47.5432 33.7862 47.5432 33.6921C47.5432 33.5979 47.6154 33.5466 47.7599 33.538L48.0021 33.5124C48.1466 33.4953 48.2358 33.4482 48.2698 33.3712C48.3123 33.2942 48.3123 33.1616 48.2698 32.9734L47.7854 30.9842C47.7344 30.7618 47.5942 30.6505 47.3647 30.6505H46.0262C45.8052 30.6505 45.665 30.7618 45.6055 30.9842L45.1721 32.7039C45.0446 33.1915 45.1721 33.461 45.5545 33.5124L45.7458 33.538C45.8902 33.5637 45.9625 33.6151 45.9625 33.6921C45.9625 33.7862 45.903 33.8332 45.784 33.8332H43.9993ZM45.988 30.2655H47.3902C47.5262 30.2655 47.5814 30.1928 47.5559 30.0474L46.7401 26.608H46.6763L45.8222 30.0474C45.7967 30.1928 45.852 30.2655 45.988 30.2655Z" fill="#ABABAB"/>
<path d="M54.6267 33.9616C54.5927 33.9616 54.5587 33.9487 54.5248 33.923C54.4908 33.8974 54.4653 33.8418 54.4483 33.7562L53.4667 29.7779C53.4582 29.7094 53.4327 29.6795 53.3902 29.688C53.3477 29.688 53.318 29.718 53.301 29.7779L52.2047 33.7562C52.1792 33.8418 52.1494 33.8974 52.1154 33.923C52.0899 33.9487 52.0602 33.9616 52.0262 33.9616C51.9922 33.9616 51.954 33.9487 51.9115 33.923C51.8775 33.8974 51.852 33.8418 51.835 33.7562L49.8208 25.6199C49.7614 25.3803 49.6934 25.2135 49.6169 25.1194C49.5489 25.0253 49.4299 24.9611 49.2599 24.9269L49.0687 24.8884C48.9497 24.8627 48.8903 24.8071 48.8903 24.7215C48.8903 24.636 48.954 24.5932 49.0815 24.5932H51.1339C51.2528 24.5932 51.3123 24.6403 51.3123 24.7344C51.3123 24.8114 51.2486 24.8627 51.1211 24.8884L50.9809 24.914C50.8364 24.9397 50.7429 24.991 50.7004 25.068C50.6664 25.1365 50.6707 25.2648 50.7132 25.453L52.2174 31.7157C52.2344 31.7756 52.2599 31.8055 52.2939 31.8055C52.3364 31.8055 52.3661 31.7756 52.3831 31.7157L52.9568 29.6239C53.0503 29.2988 53.097 28.9993 53.097 28.7255C53.097 28.4518 53.0545 28.148 52.9695 27.8144L52.4341 25.6199C52.3746 25.3803 52.3151 25.2092 52.2557 25.1066C52.2047 25.0039 52.1324 24.944 52.0389 24.9269L51.8477 24.8884C51.7288 24.8627 51.6693 24.8071 51.6693 24.7215C51.6693 24.636 51.733 24.5932 51.8605 24.5932H53.6069C53.7259 24.5932 53.7854 24.6403 53.7854 24.7344C53.7854 24.8114 53.7216 24.8627 53.5942 24.8884L53.4539 24.914C53.3435 24.9312 53.2755 24.9782 53.25 25.0552C53.233 25.1322 53.2457 25.2648 53.2882 25.453L53.7216 27.2882C53.7386 27.3481 53.7641 27.378 53.7981 27.378C53.8406 27.378 53.8704 27.3481 53.8874 27.2882L54.3463 25.7225C54.4398 25.3974 54.4738 25.1835 54.4483 25.0809C54.4313 24.9782 54.3845 24.9226 54.308 24.914L54.1678 24.8884C54.0403 24.8627 53.9766 24.8114 53.9766 24.7344C53.9766 24.6403 54.0361 24.5932 54.1551 24.5932H55.3661C55.5106 24.5932 55.5828 24.6403 55.5828 24.7344C55.5828 24.8199 55.5106 24.8713 55.3661 24.8884L55.2259 24.9012C55.1154 24.9098 55.0219 24.9782 54.9454 25.1066C54.8774 25.2349 54.801 25.4445 54.716 25.7354L54.2316 27.4165C54.1381 27.7331 54.0871 28.0326 54.0786 28.3149C54.0786 28.5887 54.1168 28.8924 54.1933 29.226L54.767 31.6387C54.784 31.6986 54.8095 31.7285 54.8434 31.7285C54.8859 31.7285 54.9114 31.6986 54.9199 31.6387L56.3859 25.7225C56.5049 25.2263 56.4284 24.9568 56.1565 24.914L56.0162 24.8884C55.8888 24.8627 55.825 24.8071 55.825 24.7215C55.825 24.636 55.8845 24.5932 56.0035 24.5932H57.4312C57.5757 24.5932 57.6479 24.6403 57.6479 24.7344C57.6479 24.8199 57.5757 24.8713 57.4312 24.8884L57.291 24.9012C57.1805 24.9098 57.0828 24.9782 56.9978 25.1066C56.9213 25.2263 56.8491 25.4359 56.7811 25.7354L54.8052 33.7562C54.7882 33.8418 54.7627 33.8974 54.7287 33.923C54.6947 33.9487 54.6607 33.9616 54.6267 33.9616Z" fill="#ABABAB"/>
<path d="M56.7281 33.8332C56.6006 33.8332 56.5369 33.7904 56.5369 33.7049C56.5369 33.6193 56.5964 33.5637 56.7154 33.538L56.9066 33.4995C57.0766 33.4653 57.204 33.384 57.289 33.2557C57.374 33.1188 57.4462 32.9306 57.5057 32.691L59.4816 24.6702C59.4986 24.5847 59.5241 24.5291 59.5581 24.5034C59.6006 24.4777 59.6388 24.4649 59.6728 24.4649C59.7153 24.4649 59.7536 24.4777 59.7876 24.5034C59.8301 24.5291 59.8598 24.5847 59.8768 24.6702L61.8909 32.8066C61.9504 33.0461 62.0184 33.2129 62.0949 33.307C62.1714 33.4012 62.2904 33.4653 62.4518 33.4995L62.6431 33.538C62.762 33.5637 62.8215 33.6193 62.8215 33.7049C62.8215 33.7904 62.7578 33.8332 62.6303 33.8332H60.4504C60.3315 33.8332 60.272 33.7862 60.272 33.6921C60.272 33.5979 60.3442 33.5466 60.4887 33.538L60.7309 33.5124C60.8754 33.4953 60.9646 33.4482 60.9986 33.3712C61.0411 33.2942 61.0411 33.1616 60.9986 32.9734L60.5142 30.9842C60.4632 30.7618 60.323 30.6505 60.0935 30.6505H58.755C58.534 30.6505 58.3938 30.7618 58.3343 30.9842L57.9009 32.7039C57.7734 33.1915 57.9009 33.461 58.2833 33.5124L58.4746 33.538C58.619 33.5637 58.6913 33.6151 58.6913 33.6921C58.6913 33.7862 58.6318 33.8332 58.5128 33.8332H56.7281ZM58.7168 30.2655H60.119C60.255 30.2655 60.3102 30.1928 60.2847 30.0474L59.4689 26.608H59.4051L58.551 30.0474C58.5255 30.1928 58.5808 30.2655 58.7168 30.2655Z" fill="#ABABAB"/>
<path d="M68.3319 33.9487C67.5926 33.9487 67.1209 33.461 66.9169 32.4857L66.6237 31.0612C66.5302 30.5992 66.424 30.2484 66.305 30.0089C66.1946 29.7693 66.0373 29.6068 65.8334 29.5212C65.6379 29.4357 65.366 29.3929 65.0175 29.3929C64.8985 29.3929 64.805 29.4271 64.7371 29.4955C64.6691 29.5554 64.6351 29.6324 64.6351 29.7265V32.9349C64.6351 33.1146 64.6691 33.2386 64.7371 33.307C64.805 33.3669 64.958 33.4183 65.196 33.461L65.6676 33.538C65.7611 33.5552 65.8079 33.6022 65.8079 33.6792C65.8079 33.7819 65.7441 33.8332 65.6167 33.8332H63.0289C62.9014 33.8332 62.8377 33.7862 62.8377 33.6921C62.8377 33.6151 62.8929 33.5637 63.0034 33.538L63.2966 33.4867C63.475 33.4525 63.5898 33.4054 63.6408 33.3456C63.7003 33.2857 63.73 33.1659 63.73 32.9862V25.4402C63.73 25.2605 63.7003 25.1408 63.6408 25.0809C63.5898 25.021 63.475 24.9739 63.2966 24.9397L63.0034 24.8884C62.8929 24.8627 62.8377 24.8114 62.8377 24.7344C62.8377 24.6403 62.9014 24.5932 63.0289 24.5932H65.6167C66.1181 24.5932 66.5642 24.6916 66.9552 24.8884C67.3461 25.0852 67.652 25.3589 67.873 25.7097C68.094 26.0519 68.2044 26.4498 68.2044 26.9032C68.2044 27.4422 68.043 27.9299 67.72 28.3662C67.3971 28.794 66.9892 29.0977 66.4962 29.2774C66.4368 29.2945 66.4028 29.3244 66.3943 29.3672C66.3943 29.4014 66.424 29.4314 66.4835 29.4571C66.7555 29.5854 66.9679 29.7651 67.1209 29.996C67.2824 30.2271 67.4056 30.535 67.4906 30.92L67.771 32.229C67.8645 32.6739 67.975 32.9905 68.1025 33.1787C68.2299 33.3669 68.3914 33.461 68.5869 33.461C68.6549 33.461 68.7143 33.4525 68.7653 33.4354C68.8248 33.4097 68.8971 33.3669 68.9821 33.307C69.05 33.2643 69.1138 33.2557 69.1733 33.2814C69.2328 33.2985 69.2625 33.3413 69.2625 33.4097C69.2625 33.5552 69.169 33.6835 68.9821 33.7947C68.7951 33.8974 68.5784 33.9487 68.3319 33.9487ZM65.4892 29.0721C66.0671 29.0721 66.5047 28.8795 66.8022 28.4945C67.0996 28.101 67.2484 27.5791 67.2484 26.9289C67.2484 26.2958 67.0741 25.8038 66.7257 25.453C66.3858 25.0937 65.9141 24.914 65.3107 24.914C64.8603 24.914 64.6351 25.0852 64.6351 25.4274V28.3662C64.6351 28.8368 64.9198 29.0721 65.4892 29.0721Z" fill="#ABABAB"/>
<path d="M69.5427 33.8332C69.4152 33.8332 69.3514 33.7862 69.3514 33.6921C69.3514 33.6151 69.4067 33.5637 69.5172 33.538L69.8104 33.4867C70.0993 33.4354 70.2438 33.2685 70.2438 32.9862V25.4402C70.2438 25.2605 70.214 25.1408 70.1545 25.0809C70.1036 25.021 69.9888 24.9739 69.8104 24.9397L69.5172 24.8884C69.4067 24.8627 69.3514 24.8114 69.3514 24.7344C69.3514 24.6403 69.4152 24.5932 69.5427 24.5932H72.1177C72.7806 24.5932 73.3542 24.79 73.8386 25.1835C74.323 25.5686 74.697 26.1118 74.9604 26.8134C75.2239 27.5149 75.3556 28.3277 75.3556 29.2517C75.3556 30.1843 75.2154 30.9928 74.9349 31.6772C74.663 32.3617 74.2763 32.8921 73.7749 33.2686C73.2735 33.645 72.6786 33.8332 71.9902 33.8332H69.5427ZM72.0412 33.4995C72.7976 33.4995 73.3712 33.1359 73.7621 32.4087C74.1616 31.6815 74.3613 30.6292 74.3613 29.2517C74.3613 27.8828 74.1701 26.8219 73.7876 26.069C73.4137 25.3076 72.8571 24.9269 72.1177 24.9269C71.4718 24.9269 71.1489 25.2392 71.1489 25.8637V32.5627C71.1489 32.9049 71.2169 33.1488 71.3528 33.2942C71.4973 33.4311 71.7268 33.4995 72.0412 33.4995Z" fill="#ABABAB"/>
<g clip-path="url(#clip0_132_215)">
<path d="M14.9337 29.5426L34.0614 18.4157C34.3742 18.2409 34.7566 18.4624 34.7566 18.824V26.8133C34.7566 27.2682 34.5133 27.6764 34.1309 27.9097L18.0039 37.2869C17.6216 37.5086 17.135 37.5086 16.7527 37.2869L12.5355 34.8376V34.826L7.32205 31.7936V31.8052L3.46407 29.5659C0.301222 27.7231 0.104271 23.1511 3.15126 21.1217C3.22077 21.0751 3.2787 21.0401 3.34822 20.9934L24.0863 8.9219C24.0979 8.91024 24.121 8.89858 24.1326 8.88692C26.5656 7.45234 26.5308 3.90669 24.0863 2.48378L22.221 1.3991C22.1399 3.03195 21.2478 4.52485 19.8228 5.34128L0.695131 16.4563C0.382322 16.6313 -1.56937e-08 16.4097 0 16.0481L3.4629e-07 8.07048C3.66035e-07 7.61562 0.243296 7.2074 0.625618 6.97414L16.7527 -2.40313C17.135 -2.62474 17.6216 -2.62474 18.0039 -2.40313L29.3693 4.19828L31.3968 5.38793C34.5596 7.23073 34.7102 11.8377 31.5937 13.7855C31.5358 13.8205 31.4663 13.8671 31.4083 13.9021L10.6587 25.962C10.6471 25.9737 10.6239 25.9853 10.6123 25.997C8.19096 27.4315 8.22572 30.9771 10.6587 32.3885L12.5355 33.4848C12.6282 31.8402 13.5203 30.359 14.9337 29.5426Z" fill="#FF2525"/>
</g>
<defs>
<clipPath id="clip0_132_215">
<rect width="34.7566" height="35" fill="white"/>
</clipPath>
</defs>
</svg>
