<svg width="152" height="35" viewBox="0 0 152 35" fill="none" xmlns="http://www.w3.org/2000/svg">
<path d="M100.772 13.4399V3.90472H103.415V13.4399H100.772Z" fill="#292929"/>
<path d="M102.1 2.67557C101.707 2.67557 101.37 2.54521 101.088 2.28448C100.811 2.01961 100.673 1.70301 100.673 1.33468C100.673 0.970489 100.811 0.658029 101.088 0.397301C101.37 0.132434 101.707 0 102.1 0C102.493 0 102.828 0.132434 103.105 0.397301C103.386 0.658029 103.527 0.970489 103.527 1.33468C103.527 1.70301 103.386 2.01961 103.105 2.28448C102.828 2.54521 102.493 2.67557 102.1 2.67557Z" fill="#292929"/>
<path d="M58.6629 4.38272C58.6133 3.88196 58.4002 3.49293 58.0239 3.21565C57.6475 2.93837 57.1367 2.79973 56.4914 2.79973C56.053 2.79973 55.6828 2.86181 55.3809 2.98596C55.0789 3.10598 54.8473 3.27359 54.686 3.4888C54.5288 3.704 54.4503 3.94817 54.4503 4.22132C54.442 4.44894 54.4896 4.64759 54.593 4.81727C54.7005 4.98695 54.8473 5.13387 55.0335 5.25802C55.2196 5.37804 55.4347 5.48357 55.6787 5.57462C55.9227 5.66153 56.1833 5.73603 56.4604 5.7981L57.602 6.07125C58.1562 6.1954 58.665 6.36095 59.1282 6.56787C59.5914 6.7748 59.9926 7.02932 60.3318 7.33144C60.671 7.63355 60.9336 7.98947 61.1197 8.39918C61.31 8.8089 61.4072 9.27862 61.4113 9.80836C61.4072 10.5864 61.2087 11.261 60.8157 11.8321C60.4269 12.3991 59.8644 12.8398 59.1282 13.1544C58.3961 13.4648 57.513 13.62 56.479 13.62C55.4533 13.62 54.5599 13.4627 53.7988 13.1482C53.0419 12.8336 52.4505 12.368 52.0244 11.7514C51.6026 11.1306 51.3813 10.3629 51.3606 9.4483H53.9601C53.9891 9.87457 54.1111 10.2305 54.3262 10.516C54.5454 10.7975 54.837 11.0106 55.201 11.1555C55.5691 11.2962 55.9848 11.3665 56.448 11.3665C56.903 11.3665 57.298 11.3003 57.633 11.1679C57.9722 11.0354 58.2348 10.8513 58.4209 10.6154C58.607 10.3795 58.7001 10.1084 58.7001 9.80215C58.7001 9.51659 58.6153 9.27655 58.4457 9.08204C58.2803 8.88753 58.0363 8.72199 57.7136 8.58542C57.3952 8.44884 57.0043 8.32469 56.5411 8.21295L55.1575 7.86531C54.0863 7.60458 53.2405 7.19693 52.62 6.64237C51.9996 6.0878 51.6915 5.3408 51.6956 4.40134C51.6915 3.63158 51.8962 2.95906 52.3098 2.3838C52.7276 1.80855 53.3004 1.35951 54.0284 1.03671C54.7563 0.7139 55.5836 0.552496 56.51 0.552496C57.4531 0.552496 58.2762 0.7139 58.9793 1.03671C59.6866 1.35951 60.2367 1.80855 60.6296 2.3838C61.0225 2.95906 61.2252 3.62537 61.2376 4.38272H58.6629Z" fill="#292929"/>
<path d="M69.2797 3.90472H71.9227V13.4399H69.3852V11.7079H69.2859C69.0709 12.2667 68.7131 12.7157 68.2126 13.055C67.7163 13.3944 67.1104 13.5641 66.3948 13.5641C65.7579 13.5641 65.1974 13.4192 64.7135 13.1295C64.2296 12.8398 63.8511 12.4281 63.5781 11.8942C63.3093 11.3603 63.1728 10.7209 63.1687 9.97597V3.90472H65.8116V9.50417C65.8158 10.067 65.9667 10.5119 66.2645 10.8389C66.5623 11.1658 66.9615 11.3293 67.4619 11.3293C67.7804 11.3293 68.0782 11.2568 68.3553 11.112C68.6324 10.963 68.8558 10.7437 69.0254 10.454C69.1991 10.1643 69.2839 9.80629 69.2797 9.38002V3.90472Z" fill="#292929"/>
<path d="M79.5461 6.77273L81.9657 6.62374C81.8499 5.74637 81.4445 5.05317 80.7497 4.54412C80.059 4.03508 79.1118 3.78056 77.9082 3.78056C77.0934 3.78056 76.382 3.90058 75.774 4.14062C75.1701 4.38065 74.7006 4.72208 74.3656 5.16491C74.0347 5.60773 73.8693 6.1354 73.8693 6.7479C73.8693 7.45973 74.0947 8.04533 74.5455 8.50471C75.0005 8.96409 75.6933 9.2869 76.6239 9.47313L78.2742 9.80215C78.6878 9.88492 78.9939 10.0049 79.1924 10.1622C79.391 10.3153 79.4923 10.5119 79.4964 10.7519C79.4923 11.0375 79.3475 11.2713 79.0621 11.4534C78.7809 11.6314 78.4086 11.7204 77.9454 11.7204C77.4739 11.7204 77.0872 11.621 76.7852 11.4224C76.4833 11.2196 76.293 10.9258 76.2144 10.5409L73.6149 10.6775C73.7431 11.5879 74.1795 12.308 74.924 12.8378C75.6726 13.3634 76.6777 13.6262 77.9392 13.6262C78.7664 13.6262 79.4964 13.4958 80.1293 13.2351C80.7662 12.9702 81.2667 12.6019 81.6307 12.1301C81.9988 11.6583 82.1828 11.1099 82.1828 10.485C82.1828 9.79801 81.9554 9.24344 81.5004 8.82131C81.0454 8.39918 80.3547 8.09293 79.4282 7.90256L77.7034 7.55492C77.2609 7.45973 76.9486 7.33351 76.7666 7.17624C76.5846 7.01898 76.4936 6.82653 76.4936 6.59891C76.4936 6.31335 76.6343 6.08573 76.9155 5.91605C77.1968 5.74223 77.5421 5.65532 77.9516 5.65532C78.2577 5.65532 78.5203 5.70706 78.7395 5.81052C78.9629 5.90984 79.1428 6.04435 79.2793 6.21403C79.4158 6.37957 79.5047 6.5658 79.5461 6.77273Z" fill="#292929"/>
<path d="M88.9159 3.90472V5.89122H87.1229V10.5098C87.1229 10.754 87.1601 10.9444 87.2346 11.081C87.309 11.2134 87.4124 11.3065 87.5448 11.3603C87.6813 11.4141 87.8384 11.441 88.0163 11.441C88.1404 11.441 88.2645 11.4307 88.3885 11.41C88.5126 11.3851 88.6078 11.3665 88.6739 11.3541L89.0896 13.322C88.9573 13.3634 88.7711 13.411 88.5312 13.4648C88.2914 13.5227 87.9998 13.5579 87.6565 13.5703C87.0195 13.5951 86.4611 13.5103 85.9813 13.3158C85.5057 13.1213 85.1355 12.8191 84.8708 12.4094C84.6061 11.9997 84.4758 11.4824 84.4799 10.8575V5.89122H83.1771V3.90472H84.4799V1.62024H87.1229V3.90472H88.9159Z" fill="#292929"/>
<path fill-rule="evenodd" clip-rule="evenodd" d="M91.7295 13.3034C92.2051 13.5144 92.747 13.62 93.355 13.62C93.8265 13.62 94.2422 13.5579 94.602 13.4337C94.9619 13.3054 95.27 13.1295 95.5264 12.9061C95.7829 12.6784 95.9876 12.4156 96.1406 12.1177H96.2151V13.4399H98.7216V7.00863C98.7216 6.44165 98.612 5.95537 98.3928 5.54979C98.1735 5.14008 97.8737 4.80485 97.4932 4.54412C97.1168 4.2834 96.6845 4.09095 96.1965 3.9668C95.7126 3.84264 95.2059 3.78056 94.6765 3.78056C93.9154 3.78056 93.2454 3.89644 92.6663 4.1282C92.0914 4.35582 91.6219 4.68277 91.258 5.10904C90.894 5.53117 90.65 6.03193 90.5259 6.61133L92.9703 6.80998C93.0613 6.49545 93.2474 6.23472 93.5287 6.02779C93.8099 5.81673 94.1884 5.71119 94.664 5.71119C95.1149 5.71119 95.4623 5.8188 95.7064 6.034C95.9545 6.24921 96.0786 6.55339 96.0786 6.94655V6.9838C96.0786 7.18659 96.0021 7.33971 95.849 7.44318C95.696 7.54664 95.4499 7.62527 95.1108 7.67907C94.7716 7.72874 94.3249 7.78254 93.7707 7.84048C93.2991 7.886 92.8483 7.96463 92.4181 8.07637C91.9921 8.18811 91.6116 8.35366 91.2766 8.573C90.9416 8.79234 90.6768 9.08204 90.4825 9.4421C90.2881 9.80215 90.1909 10.247 90.1909 10.7768C90.1909 11.4058 90.3274 11.9314 90.6003 12.3536C90.8774 12.7716 91.2538 13.0882 91.7295 13.3034ZM95.1418 11.5652C94.844 11.7183 94.5007 11.7949 94.1119 11.7949C93.7065 11.7949 93.3715 11.7017 93.1068 11.5155C92.8462 11.3251 92.716 11.0499 92.716 10.6899C92.716 10.4416 92.7801 10.2346 92.9083 10.0691C93.0365 9.8994 93.2164 9.7649 93.448 9.66558C93.6797 9.56625 93.9506 9.49383 94.2608 9.4483C94.4055 9.42761 94.5668 9.40485 94.7447 9.38002C94.9226 9.35105 95.1004 9.32001 95.2783 9.2869C95.4561 9.24965 95.6154 9.21034 95.756 9.16895C95.9007 9.12343 96.0145 9.07376 96.0972 9.01996V10.0318C96.0972 10.3671 96.0124 10.6671 95.8428 10.932C95.6733 11.1968 95.4396 11.4079 95.1418 11.5652Z" fill="#292929"/>
<path d="M108.175 13.4399V7.92739C108.179 7.51767 108.256 7.16796 108.405 6.87827C108.558 6.58443 108.769 6.36095 109.038 6.20782C109.311 6.05469 109.625 5.97813 109.981 5.97813C110.51 5.97813 110.926 6.14367 111.228 6.47476C111.53 6.8017 111.678 7.25694 111.674 7.84048V13.4399H114.317V7.36868C114.317 6.62788 114.181 5.99055 113.908 5.45667C113.635 4.91866 113.252 4.50481 112.76 4.21511C112.268 3.92541 111.691 3.78056 111.029 3.78056C110.322 3.78056 109.72 3.94404 109.224 4.27098C108.727 4.59379 108.374 5.03247 108.163 5.58704H108.051V3.90472H105.532V13.4399H108.175Z" fill="#292929"/>
<path fill-rule="evenodd" clip-rule="evenodd" d="M119.118 13.62C118.51 13.62 117.968 13.5144 117.492 13.3034C117.017 13.0882 116.64 12.7716 116.363 12.3536C116.09 11.9314 115.954 11.4058 115.954 10.7768C115.954 10.247 116.051 9.80215 116.245 9.4421C116.44 9.08204 116.704 8.79234 117.039 8.573C117.374 8.35366 117.755 8.18811 118.181 8.07637C118.611 7.96463 119.062 7.886 119.533 7.84048C120.088 7.78254 120.534 7.72874 120.874 7.67907C121.213 7.62527 121.459 7.54664 121.612 7.44318C121.765 7.33971 121.841 7.18659 121.841 6.9838V6.94655C121.841 6.55339 121.717 6.24921 121.469 6.034C121.225 5.8188 120.878 5.71119 120.427 5.71119C119.951 5.71119 119.573 5.81673 119.291 6.02779C119.01 6.23472 118.824 6.49545 118.733 6.80998L116.289 6.61133C116.413 6.03193 116.657 5.53117 117.021 5.10904C117.385 4.68277 117.854 4.35582 118.429 4.1282C119.008 3.89644 119.678 3.78056 120.439 3.78056C120.969 3.78056 121.475 3.84264 121.959 3.9668C122.447 4.09095 122.88 4.2834 123.256 4.54412C123.636 4.80485 123.936 5.14008 124.156 5.54979C124.375 5.95537 124.484 6.44165 124.484 7.00863V13.4399H121.978V12.1177H121.903C121.75 12.4156 121.546 12.6784 121.289 12.9061C121.033 13.1295 120.725 13.3054 120.365 13.4337C120.005 13.5579 119.589 13.62 119.118 13.62ZM119.875 11.7949C120.263 11.7949 120.607 11.7183 120.905 11.5652C121.202 11.4079 121.436 11.1968 121.606 10.932C121.775 10.6671 121.86 10.3671 121.86 10.0318V9.01996C121.777 9.07376 121.664 9.12343 121.519 9.16895C121.378 9.21034 121.219 9.24965 121.041 9.2869C120.863 9.32001 120.685 9.35105 120.507 9.38002C120.33 9.40485 120.168 9.42761 120.024 9.4483C119.713 9.49383 119.442 9.56625 119.211 9.66558C118.979 9.7649 118.799 9.8994 118.671 10.0691C118.543 10.2346 118.479 10.4416 118.479 10.6899C118.479 11.0499 118.609 11.3251 118.87 11.5155C119.134 11.7017 119.469 11.7949 119.875 11.7949Z" fill="#292929"/>
<path fill-rule="evenodd" clip-rule="evenodd" d="M126.584 0.726315V13.4399H129.19V11.9128H129.308C129.428 12.1777 129.602 12.4405 129.829 12.7012C130.057 12.9578 130.348 13.1709 130.704 13.3406C131.064 13.5103 131.5 13.5951 132.013 13.5951C132.737 13.5951 133.39 13.4089 133.974 13.0364C134.561 12.6598 135.024 12.1073 135.363 11.3789C135.707 10.6464 135.878 9.74835 135.878 8.68474C135.878 7.59216 135.702 6.68375 135.351 5.95951C134.999 5.23112 134.53 4.6869 133.943 4.32685C133.355 3.96266 132.714 3.78056 132.019 3.78056C131.486 3.78056 131.039 3.87161 130.679 4.05371C130.323 4.23167 130.034 4.45515 129.811 4.72415C129.591 4.98902 129.424 5.24975 129.308 5.50634H129.227V0.726315H126.584ZM129.407 10.156C129.25 9.73386 129.172 9.23931 129.172 8.67233C129.172 8.10534 129.25 7.61286 129.407 7.19486C129.564 6.77687 129.79 6.45406 130.084 6.22644C130.381 5.99882 130.745 5.88501 131.176 5.88501C131.61 5.88501 131.976 6.00296 132.274 6.23886C132.571 6.47476 132.797 6.8017 132.95 7.2197C133.103 7.63769 133.179 8.1219 133.179 8.67233C133.179 9.22689 133.101 9.71731 132.944 10.1436C132.791 10.5657 132.565 10.8968 132.267 11.1368C131.97 11.3727 131.606 11.4907 131.176 11.4907C130.749 11.4907 130.388 11.3748 130.09 11.143C129.792 10.9071 129.564 10.5781 129.407 10.156Z" fill="#292929"/>
<path d="M140.285 0.726315V13.4399H137.642V0.726315H140.285Z" fill="#292929"/>
<path fill-rule="evenodd" clip-rule="evenodd" d="M144.214 13.0302C144.921 13.4275 145.765 13.6262 146.745 13.6262C147.531 13.6262 148.224 13.5061 148.823 13.2661C149.427 13.0219 149.919 12.6826 150.3 12.248C150.684 11.8093 150.939 11.2962 151.063 10.7085L148.618 10.5471C148.528 10.7871 148.395 10.9899 148.221 11.1555C148.048 11.321 147.839 11.4452 147.595 11.5279C147.351 11.6107 147.082 11.6521 146.788 11.6521C146.346 11.6521 145.963 11.559 145.641 11.3727C145.318 11.1865 145.068 10.9216 144.89 10.5781C144.716 10.2346 144.629 9.82698 144.629 9.35519V9.34898H151.119V8.62266C151.119 7.81151 151.005 7.10382 150.778 6.49959C150.55 5.89122 150.232 5.38632 149.822 4.98488C149.417 4.58344 148.941 4.2834 148.395 4.08475C147.853 3.88196 147.268 3.78056 146.639 3.78056C145.705 3.78056 144.89 3.98749 144.195 4.40134C143.504 4.8152 142.969 5.39253 142.588 6.13333C142.208 6.87413 142.017 7.73494 142.017 8.71578C142.017 9.72145 142.208 10.5926 142.588 11.3293C142.969 12.0618 143.51 12.6288 144.214 13.0302ZM144.632 7.71011C144.648 7.36772 144.736 7.05525 144.896 6.77273C145.07 6.46234 145.31 6.2161 145.616 6.034C145.926 5.84777 146.282 5.75465 146.683 5.75465C147.067 5.75465 147.405 5.83949 147.694 6.00917C147.988 6.17471 148.217 6.4044 148.383 6.69824C148.548 6.99208 148.631 7.32937 148.631 7.71011H144.632Z" fill="#292929"/>
<path d="M54.4565 21.7038V34.4174H51.7701V21.7038H54.4565Z" fill="#292929"/>
<path d="M59.26 34.4174V28.9049C59.2642 28.4951 59.3407 28.1454 59.4896 27.8557C59.6426 27.5619 59.8536 27.3384 60.1224 27.1853C60.3954 27.0322 60.7097 26.9556 61.0654 26.9556C61.5949 26.9556 62.0105 27.1211 62.3125 27.4522C62.6144 27.7792 62.7633 28.2344 62.7592 28.8179V34.4174H65.4022V28.3462C65.4022 27.6054 65.2657 26.968 64.9927 26.4341C64.7197 25.8961 64.3371 25.4823 63.8449 25.1926C63.3527 24.9029 62.7757 24.758 62.1139 24.758C61.4067 24.758 60.8049 24.9215 60.3085 25.2484C59.8122 25.5713 59.4586 26.0099 59.2476 26.5645H59.136V24.8822H56.6171V34.4174H59.26Z" fill="#292929"/>
<path d="M72.554 24.8822V26.8687H70.761V31.4873C70.761 31.7315 70.7982 31.9219 70.8727 32.0584C70.9471 32.1909 71.0505 32.284 71.1829 32.3378C71.3194 32.3916 71.4765 32.4185 71.6544 32.4185C71.7785 32.4185 71.9026 32.4081 72.0266 32.3874C72.1507 32.3626 72.2458 32.344 72.312 32.3316L72.7277 34.2994C72.5954 34.3408 72.4092 34.3884 72.1693 34.4422C71.9294 34.5002 71.6378 34.5354 71.2945 34.5478C70.6576 34.5726 70.0992 34.4878 69.6194 34.2932C69.1438 34.0987 68.7736 33.7966 68.5089 33.3869C68.2442 32.9772 68.1139 32.4599 68.118 31.8349V26.8687H66.8151V24.8822H68.118V22.5977H70.761V24.8822H72.554Z" fill="#292929"/>
<path fill-rule="evenodd" clip-rule="evenodd" d="M75.9849 34.0077C76.6922 34.405 77.5359 34.6036 78.5162 34.6036C79.302 34.6036 79.9948 34.4836 80.5946 34.2436C81.1984 33.9994 81.6906 33.66 82.0712 33.2255C82.4558 32.7868 82.7102 32.2736 82.8343 31.686L80.3898 31.5246C80.2988 31.7646 80.1665 31.9674 79.9928 32.1329C79.8191 32.2985 79.6102 32.4226 79.3662 32.5054C79.1221 32.5882 78.8533 32.6295 78.5596 32.6295C78.1171 32.6295 77.7345 32.5364 77.4118 32.3502C77.0892 32.164 76.839 31.8991 76.6611 31.5556C76.4874 31.2121 76.4006 30.8044 76.4006 30.3327V30.3264H82.8901V29.6001C82.8901 28.789 82.7764 28.0813 82.5489 27.4771C82.3214 26.8687 82.0029 26.3638 81.5934 25.9623C81.1881 25.5609 80.7125 25.2609 80.1665 25.0622C79.6247 24.8594 79.0394 24.758 78.4107 24.758C77.476 24.758 76.6611 24.965 75.9663 25.3788C75.2756 25.7927 74.7399 26.37 74.3594 27.1108C73.9789 27.8516 73.7886 28.7124 73.7886 29.6932C73.7886 30.6989 73.9789 31.5701 74.3594 32.3067C74.7399 33.0393 75.2817 33.6062 75.9849 34.0077ZM76.4031 28.6876C76.419 28.3452 76.5071 28.0327 76.6674 27.7502C76.8411 27.4398 77.081 27.1936 77.387 27.0115C77.6972 26.8252 78.0529 26.7321 78.4541 26.7321C78.8388 26.7321 79.1759 26.817 79.4654 26.9866C79.7591 27.1522 79.9886 27.3819 80.1541 27.6757C80.3195 27.9695 80.4022 28.3068 80.4022 28.6876H76.4031Z" fill="#292929"/>
<path d="M84.6149 34.4174V24.8822H87.1772V26.5459H87.2765C87.4502 25.9541 87.7418 25.5071 88.1512 25.205C88.5607 24.8987 89.0322 24.7456 89.5658 24.7456C89.6981 24.7456 89.8408 24.7539 89.9939 24.7704C90.1469 24.787 90.2813 24.8098 90.3971 24.8387V27.1853C90.2731 27.148 90.1014 27.1149 89.8822 27.086C89.663 27.057 89.4624 27.0425 89.2804 27.0425C88.8916 27.0425 88.5442 27.1273 88.2381 27.297C87.9362 27.4626 87.6963 27.6943 87.5184 27.9923C87.3447 28.2903 87.2578 28.6338 87.2578 29.0228V34.4174H84.6149Z" fill="#292929"/>
<path d="M91.7636 24.8822V34.4174H94.4066V24.8822H91.7636Z" fill="#292929"/>
<path d="M92.08 23.2619C92.3613 23.5227 92.6984 23.653 93.0913 23.653C93.4842 23.653 93.8193 23.5227 94.0964 23.2619C94.3776 22.9971 94.5182 22.6805 94.5182 22.3121C94.5182 21.948 94.3776 21.6355 94.0964 21.3748C93.8193 21.1099 93.4842 20.9775 93.0913 20.9775C92.6984 20.9775 92.3613 21.1099 92.08 21.3748C91.8029 21.6355 91.6643 21.948 91.6643 22.3121C91.6643 22.6805 91.8029 22.9971 92.08 23.2619Z" fill="#292929"/>
<path fill-rule="evenodd" clip-rule="evenodd" d="M100.829 34.6036C99.8657 34.6036 99.0323 34.3988 98.3292 33.9891C97.6302 33.5752 97.0904 33 96.7099 32.2633C96.3294 31.5225 96.1391 30.6637 96.1391 29.687C96.1391 28.7021 96.3294 27.8412 96.7099 27.1046C97.0904 26.3638 97.6302 25.7885 98.3292 25.3788C99.0323 24.965 99.8657 24.758 100.829 24.758C101.793 24.758 102.625 24.965 103.324 25.3788C104.027 25.7885 104.568 26.3638 104.949 27.1046C105.33 27.8412 105.52 28.7021 105.52 29.687C105.52 30.6637 105.33 31.5225 104.949 32.2633C104.568 33 104.027 33.5752 103.324 33.9891C102.625 34.3988 101.793 34.6036 100.829 34.6036ZM100.842 32.5551C101.28 32.5551 101.646 32.4309 101.94 32.1826C102.234 31.9301 102.455 31.5866 102.604 31.1521C102.757 30.7175 102.833 30.223 102.833 29.6684C102.833 29.1139 102.757 28.6193 102.604 28.1847C102.455 27.7502 102.234 27.4067 101.94 27.1542C101.646 26.9018 101.28 26.7756 100.842 26.7756C100.399 26.7756 100.027 26.9018 99.7251 27.1542C99.4273 27.4067 99.2019 27.7502 99.0488 28.1847C98.8999 28.6193 98.8255 29.1139 98.8255 29.6684C98.8255 30.223 98.8999 30.7175 99.0488 31.1521C99.2019 31.5866 99.4273 31.9301 99.7251 32.1826C100.027 32.4309 100.399 32.5551 100.842 32.5551Z" fill="#292929"/>
<path d="M107.238 24.8822V34.4174H109.881V29.0228C109.881 28.6338 109.968 28.2903 110.142 27.9923C110.32 27.6943 110.56 27.4626 110.862 27.297C111.168 27.1273 111.515 27.0425 111.904 27.0425C112.086 27.0425 112.286 27.057 112.506 27.086C112.725 27.1149 112.897 27.148 113.021 27.1853V24.8387C112.905 24.8098 112.77 24.787 112.617 24.7704C112.464 24.7539 112.322 24.7456 112.189 24.7456C111.656 24.7456 111.184 24.8987 110.775 25.205C110.365 25.5071 110.074 25.9541 109.9 26.5459H109.801V24.8822H107.238Z" fill="#292929"/>
<path fill-rule="evenodd" clip-rule="evenodd" d="M26.119 20.4507C25.1173 24.3796 21.693 27.1308 17.7679 27.1308L9.52161 27.1425H5.96919C5.68966 27.1425 5.42177 27.0026 5.24706 26.7694L2.80113 23.3886L0.180494 19.7746C0.0174325 19.5531 -0.0408038 19.2617 0.0290798 18.9818L2.39348 9.63212C3.81445 3.98963 8.74124 0.0492153 14.3785 0.0492153L23.2887 0.0375573C23.5682 0.0375573 23.8361 0.177454 24.0108 0.410615L26.4567 3.79144L29.0774 7.40544C29.2404 7.62694 29.2987 7.91838 29.2288 8.19818L26.119 20.4507ZM11.2454 23.1671L20.8544 23.1554C21.2621 23.1554 21.6231 22.864 21.7279 22.4559L24.2205 12.5933C24.3136 12.2202 24.0458 11.8588 23.673 11.8588L14.064 11.8705C13.6564 11.8705 13.2953 12.162 13.1905 12.57L10.698 22.4326C10.6048 22.8057 10.8727 23.1671 11.2454 23.1671ZM7.51828 4.72409L3.03408 22.4443C2.9409 22.8173 3.20879 23.1787 3.5815 23.1787H6.12061C6.42343 23.1787 6.69132 22.9573 6.77285 22.6542L8.08899 17.478C9.52161 11.8239 14.4484 7.89508 20.074 7.88341H24.9077C25.2105 7.88341 25.4784 7.66191 25.5599 7.3588L26.2238 4.73574C26.317 4.36269 26.0491 4.00128 25.6764 4.00128L8.39182 4.0246C7.98417 4.0246 7.6231 4.31605 7.51828 4.72409Z" fill="#5ACD65"/>
<path d="M27.4118 30.3019L31.9077 12.57C32.0008 12.1969 32.4667 12.1037 32.688 12.4067L34.7496 15.2513C34.9127 15.4728 34.9709 15.7642 34.901 16.0441L32.5366 25.3938C31.104 31.048 26.1889 34.9767 20.5516 34.9883L11.6414 35C11.3619 35 11.094 34.8602 10.9193 34.627L8.85771 31.7708C8.63642 31.4676 8.84607 31.0247 9.21878 31.0247L26.5383 31.0013C26.9459 31.0013 27.307 30.7099 27.4118 30.3019Z" fill="#61D7E8"/>
</svg>
